<svg width="18" height="19" viewBox="0 0 18 19" fill="none" xmlns="http://www.w3.org/2000/svg">
<g clip-path="url(#clip0_582_5095)">
<path d="M9.61233 10.6696C9.40647 10.8756 9.07263 10.8756 8.86663 10.6696L6.47024 8.27324C6.37136 8.17436 6.31574 8.04019 6.31574 7.90039C6.31574 7.76045 6.37136 7.62642 6.47024 7.5274L6.89623 7.10155L5.64503 5.85034L4.62 6.87537C4.27503 7.22034 4.27517 7.7816 4.62 8.12657L9.0133 12.5201C9.17933 12.6862 9.40153 12.7775 9.63897 12.7775C9.87641 12.7775 10.0986 12.686 10.2646 12.52L11.2897 11.4951L10.0385 10.2438L9.61233 10.6696Z" fill="#6F73EE"/>
<path d="M17.2436 6.85312C17.2436 5.16246 16.5811 3.56889 15.3778 2.36575C14.1747 1.16261 12.5811 0.5 10.8906 0.5H7.12628C7.12628 0.5 7.12628 0.5 7.12614 0.5C5.43576 0.5 3.84219 1.16261 2.63919 2.36562C1.43605 3.56876 0.773438 5.16246 0.773438 6.85298V9.81187C0.773438 11.121 1.17279 12.3805 1.92838 13.454C2.59497 14.401 3.49146 15.1407 4.53667 15.6098V17.3094C4.53667 18.1881 5.02872 18.4999 5.45004 18.5C5.75107 18.5 6.05223 18.3514 6.34529 18.0585L8.23865 16.1649H10.8907C12.5813 16.1649 14.1748 15.5022 15.378 14.2991C16.5811 13.096 17.2437 11.5024 17.2437 9.81187L17.2436 6.85312ZM12.408 11.868L11.0099 13.2658C10.6447 13.6311 10.1577 13.832 9.63858 13.832C9.11948 13.832 8.63251 13.631 8.26721 13.2658L3.87378 8.87227C3.11778 8.116 3.11778 6.88567 3.87378 6.12953L5.27179 4.73166C5.37067 4.63264 5.5047 4.57716 5.64464 4.57716C5.78444 4.57716 5.91861 4.63264 6.01749 4.73166L8.01453 6.7287C8.1134 6.82758 8.16888 6.96175 8.16888 7.10155C8.16888 7.24135 8.1134 7.37552 8.01439 7.4744L7.58853 7.90025L9.23923 9.55095L9.66522 9.12495C9.87122 8.9191 10.2051 8.9191 10.4109 9.12509L12.408 11.1221C12.507 11.221 12.5625 11.3552 12.5625 11.495C12.5625 11.6349 12.507 11.7691 12.408 11.868ZM8.60916 5.61949C8.60916 5.32835 8.84523 5.09215 9.13651 5.09215C10.9637 5.09215 12.4503 6.5786 12.4503 8.40562C12.4503 8.6969 12.2142 8.93297 11.9229 8.93297C11.6318 8.93297 11.3956 8.6969 11.3956 8.40562C11.3956 7.16019 10.3822 6.14684 9.13651 6.14684C8.84523 6.14684 8.60916 5.91077 8.60916 5.61949ZM14.1821 8.93324C13.8908 8.93324 13.6548 8.69704 13.6548 8.4059C13.6549 7.19891 13.1848 6.0643 12.3315 5.2108C11.478 4.35744 10.3434 3.88736 9.13637 3.88736C8.84523 3.88736 8.60902 3.65129 8.60902 3.36002C8.60902 3.06888 8.84523 2.83267 9.13637 2.83267C10.625 2.83267 12.0245 3.41248 13.0772 4.4651C14.1299 5.51773 14.7096 6.91725 14.7095 8.4059C14.7095 8.69704 14.4734 8.93324 14.1821 8.93324Z" fill="#6F73EE"/>
</g>
<defs>
<clipPath id="clip0_582_5095">
<rect width="18" height="18" fill="white" transform="translate(0 0.5)"/>
</clipPath>
</defs>
</svg>
