<svg width="18" height="19" viewBox="0 0 18 19" fill="none" xmlns="http://www.w3.org/2000/svg">
<g clip-path="url(#clip0_582_5099)">
<path d="M8.99518 0.505742C4.02755 0.506796 0.00134215 4.53473 0.00239621 9.50235C0.00274756 11.2225 0.496366 12.9064 1.42464 14.3546L0.0252343 17.9854C-0.0492881 18.1785 0.0468426 18.3955 0.239947 18.47C0.283129 18.4867 0.32898 18.4952 0.375254 18.4951C0.418189 18.4953 0.460809 18.488 0.501179 18.4734L4.24897 17.1354C8.46565 19.7616 14.0129 18.4723 16.6391 14.2555C19.2652 10.0388 17.9759 4.49161 13.7592 1.86545C12.3298 0.975187 10.6792 0.50409 8.99518 0.505742Z" fill="#75D14A"/>
<path d="M13.2827 11.0367C13.2827 11.0367 12.3645 10.587 11.7896 10.2872C11.139 9.95213 10.3744 10.5795 10.0147 10.9363C9.4547 10.7212 8.94327 10.3966 8.51029 9.98137C8.09503 9.54846 7.77038 9.03703 7.55535 8.47701C7.91215 8.11648 8.53802 7.35267 8.20447 6.70207C7.90839 6.12641 7.45493 5.20822 7.45493 5.20822C7.3913 5.08194 7.26204 5.00222 7.12062 5.00208H6.37107C5.27948 5.19061 4.48581 6.14306 4.49719 7.25074C4.49719 8.42754 5.9056 10.6882 6.85531 11.6386C7.80502 12.589 10.0657 13.9968 11.2432 13.9968C12.3509 14.0081 13.3033 13.2144 13.4919 12.1229V11.3733C13.492 11.2304 13.4109 11.0999 13.2827 11.0367Z" fill="white"/>
</g>
<defs>
<clipPath id="clip0_582_5099">
<rect width="18" height="18" fill="white" transform="translate(0 0.5)"/>
</clipPath>
</defs>
</svg>
