<svg width="26" height="11" viewBox="0 0 26 11" fill="none" xmlns="http://www.w3.org/2000/svg">
<path fill-rule="evenodd" clip-rule="evenodd" d="M5.27275 2.12318C4.98672 2.4658 4.52907 2.73603 4.07142 2.69743C4.01421 2.23417 4.23827 1.74195 4.50046 1.43794C4.78649 1.08567 5.28705 0.834732 5.69226 0.81543C5.73993 1.29799 5.55401 1.77091 5.27275 2.12318ZM5.6875 2.7891C5.28432 2.76561 4.91644 2.91184 4.61929 3.02995C4.42806 3.10596 4.26613 3.17032 4.14294 3.17032C4.00469 3.17032 3.83607 3.10252 3.64675 3.02639C3.39869 2.92663 3.11507 2.81258 2.81766 2.81805C2.13596 2.8277 1.50192 3.21858 1.15392 3.84109C0.438841 5.0861 0.967997 6.92949 1.65924 7.94288C1.99771 8.44474 2.40292 8.99486 2.93684 8.97556C3.17174 8.96659 3.34071 8.89401 3.51557 8.8189C3.71689 8.73243 3.92603 8.64259 4.25258 8.64259C4.56781 8.64259 4.7678 8.73008 4.95978 8.81407C5.14232 8.89393 5.31762 8.97061 5.57786 8.96591C6.13085 8.95626 6.47885 8.46404 6.81732 7.96218C7.18258 7.42355 7.3431 6.89788 7.36746 6.81809L7.36746 6.81808L7.37032 6.80885C7.36973 6.80826 7.36522 6.80617 7.35726 6.80248C7.23515 6.7459 6.30189 6.31341 6.29293 5.15366C6.28395 4.18022 7.03318 3.68702 7.15112 3.60938L7.15113 3.60937C7.1583 3.60465 7.16314 3.60147 7.16533 3.59981C6.68861 2.88561 5.94493 2.8084 5.6875 2.7891ZM9.51535 8.91282V1.38966H12.3042C13.7438 1.38966 14.7497 2.3934 14.7497 3.86039C14.7497 5.32738 13.7248 6.34076 12.266 6.34076H10.669V8.91282H9.51535ZM10.6692 2.37412H11.9992C13.0003 2.37412 13.5724 2.91459 13.5724 3.86524C13.5724 4.81589 13.0003 5.36118 11.9944 5.36118H10.6692V2.37412ZM18.5587 8.01048C18.2536 8.5992 17.5815 8.97078 16.8569 8.97078C15.7842 8.97078 15.0358 8.32414 15.0358 7.34936C15.0358 6.38424 15.7604 5.82929 17.1 5.74725L18.5397 5.66039V5.24539C18.5397 4.63253 18.144 4.29956 17.4385 4.29956C16.8569 4.29956 16.4326 4.60358 16.3468 5.06684H15.3075C15.3409 4.09206 16.2467 3.38269 17.4718 3.38269C18.7923 3.38269 19.6504 4.08241 19.6504 5.16818V8.91287H18.5826V8.01048H18.5587ZM17.167 8.078C16.552 8.078 16.1611 7.77881 16.1611 7.32038C16.1611 6.84747 16.5377 6.57241 17.2575 6.52898L18.5399 6.44694V6.8716C18.5399 7.57614 17.9488 8.078 17.167 8.078ZM23.1928 9.20723C22.7304 10.5246 22.2012 10.9589 21.0762 10.9589C20.9904 10.9589 20.7043 10.9493 20.6376 10.93V10.0276C20.7091 10.0372 20.8855 10.0469 20.9761 10.0469C21.4861 10.0469 21.7722 9.82974 21.9486 9.26514L22.0534 8.93217L20.0989 3.45508H21.305L22.6636 7.89948H22.6875L24.0461 3.45508H25.2188L23.1928 9.20723Z" fill="#282739"/>
</svg>
