<svg width="26" height="11" viewBox="0 0 26 11" fill="none" xmlns="http://www.w3.org/2000/svg">
<path fill-rule="evenodd" clip-rule="evenodd" d="M12.0936 8.34248V5.40117H13.6117C14.2338 5.40117 14.7588 5.19273 15.1868 4.78164L15.2896 4.67742C16.0714 3.8263 16.0201 2.50039 15.1868 1.71295C14.7702 1.29607 14.1995 1.07027 13.6117 1.08185H11.1748V8.34248H12.0936ZM12.0938 4.50948V1.97347H13.6349C13.966 1.97347 14.2799 2.10085 14.5139 2.33244C15.0105 2.8188 15.0219 3.6294 14.5425 4.13313C14.3084 4.3821 13.9774 4.52106 13.6349 4.50948H12.0938ZM19.576 3.76262C19.1822 3.39785 18.6457 3.21257 17.9666 3.21257C17.0934 3.21257 16.4371 3.53681 16.0034 4.1795L16.8138 4.69481C17.1105 4.25477 17.5157 4.03475 18.0294 4.03475C18.3547 4.03475 18.6686 4.15634 18.914 4.37636C19.1537 4.5848 19.2906 4.88588 19.2906 5.20433V5.41856C18.9368 5.2217 18.4916 5.11748 17.9438 5.11748C17.3046 5.11748 16.7909 5.26802 16.4086 5.57489C16.0262 5.88176 15.8322 6.28706 15.8322 6.80236C15.8207 7.27135 16.0205 7.71718 16.3743 8.01826C16.7339 8.3425 17.1904 8.50462 17.7269 8.50462C18.3604 8.50462 18.8626 8.22091 19.245 7.65349H19.2849V8.3425H20.1638V5.2796C20.1638 4.63691 19.9698 4.12739 19.576 3.76262ZM17.0823 7.42772C16.8939 7.28876 16.7798 7.06295 16.7798 6.81977C16.7798 6.54764 16.9053 6.32183 17.1508 6.14234C17.4019 5.96285 17.7159 5.87021 18.0869 5.87021C18.6006 5.86442 19.0002 5.98022 19.2856 6.21182C19.2856 6.60554 19.1314 6.94715 18.8289 7.23665C18.5549 7.51457 18.1839 7.6709 17.7958 7.6709C17.5389 7.67669 17.2878 7.58984 17.0823 7.42772ZM22.1382 10.5253L25.2086 3.37469H24.2098L22.7888 6.94132H22.7717L21.3164 3.37469H20.3177L22.3322 8.02404L21.1908 10.5253H22.1382Z" fill="#282739"/>
<path d="M8.92207 4.7644C8.92207 4.4807 8.89924 4.19699 8.85359 3.91907H4.97852V5.52289H7.19855C7.10724 6.0382 6.81047 6.5014 6.37674 6.7909V7.8331H7.70077C8.47692 7.10935 8.92207 6.0382 8.92207 4.7644Z" fill="#4285F4"/>
<path d="M4.97919 8.8406C6.08635 8.8406 7.0223 8.47004 7.70144 7.83314L6.37741 6.79094C6.00645 7.0457 5.53277 7.19045 4.97919 7.19045C3.90627 7.19045 2.99885 6.45512 2.67355 5.47083H1.30957V6.54776C2.00583 7.95473 3.42688 8.8406 4.97919 8.8406Z" fill="#34A853"/>
<path d="M2.6733 5.47082C2.50206 4.95551 2.50206 4.39388 2.6733 3.87278V2.80164H1.3091C0.721185 3.977 0.721185 5.3666 1.3091 6.54197L2.6733 5.47082Z" fill="#FBBC04"/>
<path d="M4.97919 2.15308C5.56701 2.1415 6.13201 2.36731 6.55433 2.7784L7.72997 1.58566C6.98235 0.879286 6.00075 0.491358 4.97919 0.502938C3.42688 0.502938 2.00583 1.39459 1.30957 2.80156L2.67355 3.8785C2.99885 2.88841 3.90627 2.15308 4.97919 2.15308Z" fill="#EA4335"/>
</svg>
