<svg width="23" height="14" viewBox="0 0 23 14" fill="none" xmlns="http://www.w3.org/2000/svg">
<path fill-rule="evenodd" clip-rule="evenodd" d="M15.5403 13.5283C19.2096 13.5283 22.1842 10.5192 22.1842 6.8073C22.1842 3.0954 19.2096 0.0863037 15.5403 0.0863037C13.8958 0.0863037 12.3909 0.6907 11.2308 1.69189C10.0706 0.690717 8.56568 0.0863316 6.92122 0.0863316C3.25191 0.0863316 0.277344 3.09542 0.277344 6.80733C0.277344 10.5192 3.25191 13.5283 6.92122 13.5283C8.56569 13.5283 10.0706 12.9239 11.2308 11.9227C12.3909 12.9239 13.8959 13.5283 15.5403 13.5283Z" fill="#ED0006"/>
<path fill-rule="evenodd" clip-rule="evenodd" d="M11.2314 11.9227C12.6599 10.69 13.5657 8.85564 13.5657 6.8073C13.5657 4.75897 12.6599 2.92465 11.2314 1.69189C12.3916 0.690703 13.8965 0.0863037 15.541 0.0863037C19.2103 0.0863037 22.1849 3.0954 22.1849 6.8073C22.1849 10.5192 19.2103 13.5283 15.541 13.5283C13.8965 13.5283 12.3916 12.9239 11.2314 11.9227Z" fill="#F9A000"/>
<path fill-rule="evenodd" clip-rule="evenodd" d="M11.2308 11.9227C12.6593 10.69 13.5651 8.85564 13.5651 6.8073C13.5651 4.75897 12.6593 2.92465 11.2308 1.69189C9.80228 2.92465 8.89648 4.75897 8.89648 6.8073C8.89648 8.85564 9.80228 10.69 11.2308 11.9227Z" fill="#FF5E00"/>
</svg>
