<svg width="25" height="7" viewBox="0 0 25 7" fill="none" xmlns="http://www.w3.org/2000/svg">
<g clip-path="url(#clip0_400_3039)">
<path d="M6.73687 1.3321e-07V0.00305672C6.73378 0.00305672 5.76004 0 5.50037 0.919954C5.26234 1.7635 4.59154 4.0914 4.57299 4.15558H4.38752C4.38752 4.15558 3.70126 1.77572 3.46014 0.916897C3.20048 -0.00305659 2.22364 1.3321e-07 2.22364 1.3321e-07H0V6.99694H2.22467V2.84133H2.41015L3.70847 6.99691H5.25307L6.5514 2.84439H6.73687V6.99691H8.96154V1.3321e-07H6.73687ZM14.8638 1.3321e-07C14.8638 1.3321e-07 14.2115 0.0580698 13.9055 0.733549L12.33 4.15558H12.1445V1.3321e-07H9.91983V6.99694H12.0209C12.0209 6.99694 12.704 6.93582 13.0101 6.26343L14.5547 2.84136H14.7402V6.99694H16.9648V1.3321e-07H14.8638ZM17.954 3.17756V6.99694H20.1787V4.76685H22.5889C23.6399 4.76685 24.5291 4.10362 24.8599 3.17858H17.954V3.17756Z" fill="#4DB45E"/>
<path d="M22.5897 0.00158691H17.6416C17.8889 1.33414 18.8997 2.40284 20.2063 2.75126C20.5096 2.83249 20.8225 2.87361 21.1367 2.87354H24.9503C24.9843 2.71462 24.9998 2.55263 24.9998 2.38453C24.9998 1.06824 23.921 0.00158691 22.5897 0.00158691Z" fill="url(#paint0_linear_400_3039)"/>
</g>
<defs>
<linearGradient id="paint0_linear_400_3039" x1="17.6416" y1="1.43756" x2="24.9998" y2="1.43756" gradientUnits="userSpaceOnUse">
<stop offset="0.3" stop-color="#00B4E6"/>
<stop offset="1" stop-color="#088CCB"/>
</linearGradient>
<clipPath id="clip0_400_3039">
<rect width="25" height="7" fill="white"/>
</clipPath>
</defs>
</svg>
