<svg width="25" height="8" viewBox="0 0 25 8" fill="none" xmlns="http://www.w3.org/2000/svg">
<path fill-rule="evenodd" clip-rule="evenodd" d="M6.23526 7.82956H4.17084L2.62277 1.92361C2.54929 1.65193 2.39328 1.41176 2.16379 1.29856C1.59106 1.01409 0.959961 0.787696 0.271484 0.673514V0.446135H3.59711C4.05609 0.446135 4.40033 0.787696 4.4577 1.18438L5.26092 5.44454L7.32434 0.446135H9.33139L6.23526 7.82956ZM10.479 7.82956H8.52933L10.1348 0.446135H12.0844L10.479 7.82956ZM14.6069 2.4916C14.6642 2.09393 15.0085 1.86655 15.4101 1.86655C16.0412 1.80946 16.7287 1.92364 17.3024 2.20713L17.6466 0.61744C17.0729 0.390061 16.4418 0.275879 15.8691 0.275879C13.9768 0.275879 12.5998 1.29859 12.5998 2.71799C12.5998 3.7978 13.5752 4.36477 14.2636 4.70633C15.0085 5.04691 15.2954 5.27429 15.238 5.61486C15.238 6.12573 14.6642 6.35311 14.0915 6.35311C13.403 6.35311 12.7146 6.18282 12.0845 5.89835L11.7402 7.48902C12.4287 7.77251 13.1736 7.88669 13.862 7.88669C15.9838 7.94279 17.3024 6.92106 17.3024 5.38748C17.3024 3.45624 14.6069 3.34304 14.6069 2.4916V2.4916ZM24.1257 7.82956L22.5777 0.446135H20.9149C20.5706 0.446135 20.2264 0.673514 20.1116 1.01409L17.245 7.82956H19.252L19.6526 6.75074H22.1187L22.3482 7.82956H24.1257ZM21.2015 2.43453L21.7742 5.21722H20.1688L21.2015 2.43453Z" fill="#172B85"/>
</svg>
