<svg width="7" height="13" viewBox="0 0 7 13" fill="none" xmlns="http://www.w3.org/2000/svg">
<path d="M0.177906 0.172915C0.0686577 0.283666 0.00728539 0.433857 0.00728539 0.590459C0.00728539 0.747061 0.0686577 0.897251 0.177906 1.008L5.59337 6.49631L0.177906 11.9846C0.122248 12.0391 0.0778526 12.1043 0.0473114 12.1763C0.0167702 12.2484 0.000694386 12.3259 2.20028e-05 12.4043C-0.00065038 12.4827 0.014094 12.5605 0.043395 12.633C0.0726961 12.7056 0.115967 12.7716 0.170683 12.827C0.225398 12.8825 0.290463 12.9263 0.362081 12.956C0.433698 12.9857 0.510434 13.0007 0.587811 13C0.665188 12.9993 0.741655 12.983 0.812753 12.9521C0.88385 12.9211 0.948153 12.8761 1.00191 12.8197L6.82938 6.91385C6.93863 6.8031 7 6.65291 7 6.49631C7 6.33971 6.93863 6.18952 6.82938 6.07876L1.00191 0.172915C0.892629 0.0621977 0.744431 0 0.589908 0C0.435384 0 0.287187 0.0621977 0.177906 0.172915Z" fill="#537CE5"/>
</svg>
