<svg width="7" height="13" viewBox="0 0 7 13" fill="none" xmlns="http://www.w3.org/2000/svg">
<path d="M6.82209 0.172915C6.93134 0.283666 6.99271 0.433857 6.99271 0.590459C6.99271 0.747061 6.93134 0.897251 6.82209 1.008L1.40663 6.49631L6.82209 11.9846C6.87775 12.0391 6.92215 12.1043 6.95269 12.1763C6.98323 12.2484 6.99931 12.3259 6.99998 12.4043C7.00065 12.4827 6.98591 12.5605 6.9566 12.633C6.9273 12.7056 6.88403 12.7716 6.82932 12.827C6.7746 12.8825 6.70954 12.9263 6.63792 12.956C6.5663 12.9857 6.48957 13.0007 6.41219 13C6.33481 12.9993 6.25834 12.983 6.18725 12.9521C6.11615 12.9211 6.05185 12.8761 5.99809 12.8197L0.17062 6.91385C0.0613716 6.8031 -1.52155e-07 6.65291 -1.52155e-07 6.49631C-1.52155e-07 6.33971 0.0613716 6.18952 0.17062 6.07876L5.99809 0.172915C6.10737 0.0621977 6.25557 0 6.41009 0C6.56462 0 6.71281 0.0621977 6.82209 0.172915Z" fill="#537CE5"/>
</svg>
