<svg width="15" height="15" viewBox="0 0 15 15" fill="none" xmlns="http://www.w3.org/2000/svg">
<path d="M13.6269 7.74899C13.5284 7.5977 13.5284 7.40229 13.6269 7.251L14.1747 6.40902C14.6736 5.64209 14.3374 4.61172 13.4846 4.28527L12.5465 3.92609C12.378 3.86152 12.2631 3.70341 12.2538 3.52315L12.2021 2.52003C12.155 1.60644 11.2774 0.970171 10.3954 1.20747L9.42546 1.46827C9.2512 1.51509 9.06526 1.45471 8.95182 1.31435L8.32033 0.533153C7.7452 -0.178289 6.6614 -0.177146 6.08725 0.533153L5.45573 1.31438C5.34229 1.45477 5.1564 1.51509 4.98209 1.4683L4.01204 1.2075C3.12837 0.969849 2.25239 1.60822 2.2054 2.52006L2.15369 3.52317C2.14438 3.70341 2.02951 3.86155 1.86096 3.92609L0.92294 4.28527C0.0683254 4.6124 -0.265188 5.64361 0.232826 6.40905L0.780646 7.251C0.879053 7.40226 0.879053 7.59773 0.780646 7.74899L0.232914 8.59095C-0.266126 9.35796 0.0702005 10.3884 0.922969 10.7147L1.86105 11.0739C2.02959 11.1385 2.1445 11.2966 2.15378 11.4768L2.20549 12.48C2.2526 13.3937 3.13033 14.0297 4.01213 13.7925L4.98212 13.5317C5.15646 13.485 5.34232 13.5453 5.45578 13.6856L6.08728 14.4668C6.66252 15.1785 7.74629 15.177 8.32036 14.4668L8.95185 13.6856C9.06529 13.5453 9.25129 13.485 9.42549 13.5317L10.3955 13.7925C11.279 14.0303 12.1552 13.3919 12.2022 12.48L12.2539 11.4768C12.2632 11.2966 12.3781 11.1385 12.5466 11.0739L13.4846 10.7148C14.3392 10.3876 14.6727 9.35644 14.1748 8.59095L13.6269 7.74899ZM13.1345 9.80035L12.1964 10.1595C11.6665 10.3624 11.3052 10.8597 11.276 11.4264L11.2243 12.4295C11.2093 12.7202 10.9303 12.9223 10.6497 12.847L9.67967 12.5862C9.13167 12.4387 8.54703 12.6288 8.19034 13.0701L7.55891 13.8513C7.37595 14.0776 7.0313 14.0771 6.8487 13.8513L6.21726 13.0701C5.94076 12.728 5.52733 12.537 5.10012 12.537C4.97623 12.537 4.85113 12.553 4.72788 12.5862L3.75784 12.847C3.4767 12.9224 3.19827 12.7196 3.18327 12.4295L3.13156 11.4264C3.10235 10.8597 2.74103 10.3624 2.21112 10.1595L1.27304 9.80032C1.00125 9.69625 0.895225 9.36837 1.0536 9.12494L1.60139 8.28298C1.91085 7.80732 1.91085 7.19262 1.60139 6.71701L1.0536 5.87506C0.894873 5.63113 1.00181 5.30351 1.27306 5.19965L2.21115 4.84047C2.74109 4.63756 3.10238 4.14028 3.13159 3.57359L3.1833 2.57047C3.19827 2.27982 3.47732 2.07767 3.75786 2.15303L4.72791 2.41383C5.2759 2.56122 5.86052 2.3712 6.21724 1.9299L6.84873 1.14871C7.03168 0.922418 7.37636 0.922887 7.55891 1.14871L8.1904 1.92993C8.54717 2.37123 9.13167 2.56125 9.67973 2.41383L10.6498 2.15303C10.9309 2.07753 11.2093 2.28041 11.2243 2.57047L11.276 3.57359C11.3052 4.14028 11.6665 4.63759 12.1964 4.84047L13.1345 5.19968C13.4063 5.30368 13.5123 5.63163 13.354 5.87506L12.8062 6.71698C12.4967 7.19262 12.4967 7.80732 12.8062 8.28298L13.354 9.12491C13.5126 9.36889 13.4058 9.69649 13.1345 9.80035Z" fill="white"/>
<path d="M9.64962 5.00519C9.45846 4.81403 9.14848 4.81403 8.95729 5.00519L4.388 9.57448C4.19683 9.76564 4.19684 10.0756 4.38803 10.2668C4.48362 10.3624 4.60892 10.4102 4.7342 10.4102C4.85947 10.4102 4.9848 10.3624 5.08037 10.2668L9.64965 5.6975C9.84084 5.50637 9.84084 5.19638 9.64962 5.00519Z" fill="white"/>
<path d="M5.22375 4.86182C4.68385 4.86182 4.24463 5.30106 4.24463 5.84094C4.24463 6.38085 4.6839 6.82007 5.22375 6.82007C5.76366 6.82007 6.20288 6.38082 6.20288 5.84094C6.20291 5.30106 5.76366 4.86182 5.22375 4.86182Z" fill="white"/>
<path d="M8.81409 8.4519C8.27418 8.4519 7.83496 8.89115 7.83496 9.43103C7.83496 9.97094 8.27421 10.4102 8.81409 10.4102C9.35397 10.4102 9.79321 9.97091 9.79321 9.43103C9.79324 8.89115 9.354 8.4519 8.81409 8.4519Z" fill="white"/>
</svg>
