<svg width="7" height="12" viewBox="0 0 7 12" fill="none" xmlns="http://www.w3.org/2000/svg">
<path d="M6.46854 5.65545L0.305274 0.841586C0.289169 0.828907 0.269815 0.821028 0.249434 0.818853C0.229052 0.816678 0.208471 0.820295 0.190053 0.82929C0.171635 0.838285 0.156128 0.852292 0.145312 0.869703C0.134496 0.887114 0.12881 0.907222 0.128907 0.927719V1.98456C0.128907 2.05155 0.160353 2.11581 0.212306 2.15682L5.13417 5.99999L0.212306 9.84315C0.158986 9.88417 0.128907 9.94842 0.128907 10.0154V11.0723C0.128907 11.1639 0.234181 11.2144 0.305274 11.1584L6.46854 6.34452C6.52092 6.30366 6.5633 6.25139 6.59245 6.19168C6.62159 6.13198 6.63674 6.06642 6.63674 5.99999C6.63674 5.93355 6.62159 5.86799 6.59245 5.80829C6.5633 5.74858 6.52092 5.69632 6.46854 5.65545Z" fill="#282739"/>
</svg>
