<svg width="21" height="20" viewBox="0 0 21 20" fill="none" xmlns="http://www.w3.org/2000/svg">
<path d="M8.00595 1.66675L4.99359 4.69175" stroke="#537CE5" stroke-width="1.2" stroke-miterlimit="10" stroke-linecap="round" stroke-linejoin="round"/>
<path d="M13.315 1.66675L16.3274 4.69175" stroke="#537CE5" stroke-width="1.2" stroke-miterlimit="10" stroke-linecap="round" stroke-linejoin="round"/>
<path d="M2.33902 6.54167C2.33902 5 3.16284 4.875 4.18638 4.875H17.1346C18.1581 4.875 18.9819 5 18.9819 6.54167C18.9819 8.33333 18.1581 8.20833 17.1346 8.20833H4.18638C3.16284 8.20833 2.33902 8.33333 2.33902 6.54167Z" stroke="#537CE5" stroke-width="1.2"/>
<path d="M8.79648 11.6667V14.6251" stroke="#537CE5" stroke-width="1.2" stroke-linecap="round"/>
<path d="M12.6243 11.6667V14.6251" stroke="#537CE5" stroke-width="1.2" stroke-linecap="round"/>
<path d="M3.58725 8.33325L4.76057 15.5333C5.02686 17.1499 5.66761 18.3333 8.04754 18.3333H13.0654C15.6533 18.3333 16.0361 17.1999 16.3357 15.6333L17.7337 8.33325" stroke="#537CE5" stroke-width="1.2" stroke-linecap="round"/>
</svg>
