<svg width="28" height="28" viewBox="0 0 28 28" fill="none" xmlns="http://www.w3.org/2000/svg">
<path d="M14.0516 17.2012L14.0518 17.2014L18.3822 19.7856C18.6435 19.9562 18.922 20.016 19.18 20.016C19.7092 20.016 20.2277 19.7505 20.5193 19.2544C20.9706 18.5106 20.7208 17.5592 19.9803 17.1255C19.9795 17.125 19.9787 17.1246 19.9779 17.1241L15.6422 14.5366L15.6422 14.5366L15.6371 14.5336C15.5255 14.4688 15.3666 14.303 15.2309 14.0643C15.0955 13.8262 15.032 13.6016 15.032 13.468V7.728C15.032 6.87786 14.3321 6.178 13.482 6.178C12.6319 6.178 11.932 6.87786 11.932 7.728V13.468C11.932 14.8896 12.8222 16.4668 14.0516 17.2012ZM0.5 14C0.5 6.56214 6.56214 0.5 14 0.5C21.4379 0.5 27.5 6.56214 27.5 14C27.5 21.4379 21.4379 27.5 14 27.5C6.56214 27.5 0.5 21.4379 0.5 14Z" stroke="white"/>
</svg>
