<svg width="15" height="15" viewBox="0 0 15 15" fill="none" xmlns="http://www.w3.org/2000/svg">
<path d="M7.40857 9.41424L7.40877 9.41436L9.72488 10.7966C9.9079 10.9147 10.1016 10.955 10.275 10.955C10.6352 10.955 10.9912 10.774 11.1918 10.4339C11.5 9.92415 11.3284 9.27177 10.8219 8.97455L8.49873 7.58814L8.49875 7.58811L8.49357 7.58511C8.49385 7.58527 8.47615 7.57412 8.44651 7.54081C8.41844 7.50924 8.38845 7.46762 8.36118 7.41968C8.33394 7.37178 8.31321 7.32425 8.30004 7.28306C8.29357 7.2628 8.28958 7.24615 8.28733 7.23352C8.28502 7.22064 8.285 7.21464 8.285 7.215V4.14C8.285 3.55636 7.80614 3.0775 7.2225 3.0775C6.63886 3.0775 6.16 3.55636 6.16 4.14V7.215C6.16 8.05807 6.67966 8.97878 7.40857 9.41424ZM0.5 7.5C0.5 3.64364 3.64364 0.5 7.5 0.5C11.3564 0.5 14.5 3.64364 14.5 7.5C14.5 11.3564 11.3564 14.5 7.5 14.5C3.64364 14.5 0.5 11.3564 0.5 7.5Z" stroke="white"/>
</svg>
