<svg width="20" height="20" viewBox="0 0 20 20" fill="none" xmlns="http://www.w3.org/2000/svg">
    <path fill-rule="evenodd" clip-rule="evenodd"
        d="M6.46583 9.99906L0.733148 4.26638C-0.244383 3.29135 -0.244383 1.7063 0.733148 0.731273C1.70818 -0.243758 3.29323 -0.243758 4.26826 0.731273L10.0009 6.46395L15.7336 0.731273C16.7086 -0.243758 18.2937 -0.243758 19.2687 0.731273C20.2438 1.7063 20.2438 3.29135 19.2687 4.26638L13.536 9.99906L19.2687 15.7317C20.2438 16.7068 20.2438 18.2918 19.2687 19.2669C18.2937 20.2419 16.7086 20.2419 15.7336 19.2669L10.0009 13.5342L4.26826 19.2669C3.29323 20.2419 1.70818 20.2419 0.733148 19.2669C-0.244383 18.2918 -0.244383 16.7068 0.733148 15.7317L6.46583 9.99906Z"
        fill="white" />
</svg>