<svg width="20" height="20" viewBox="0 0 20 20" fill="none" xmlns="http://www.w3.org/2000/svg">
<path d="M4.83534 4.06757L15.4419 14.6742C15.6835 14.9158 15.6835 15.3165 15.4419 15.5581C15.2003 15.7997 14.7997 15.7997 14.5581 15.5581L3.95146 4.95146C3.70986 4.70986 3.70986 4.30917 3.95146 4.06757C4.19305 3.82598 4.59375 3.82598 4.83534 4.06757Z" fill="white"/>
<path d="M15.9324 4.83534L5.32583 15.4419C5.08423 15.6835 4.68354 15.6835 4.44194 15.4419C4.20035 15.2003 4.20035 14.7997 4.44194 14.5581L15.0485 3.95146C15.2901 3.70986 15.6908 3.70986 15.9324 3.95146C16.174 4.19305 16.174 4.59375 15.9324 4.83534Z" fill="white"/>
</svg>
