<svg width="10" height="10" viewBox="0 0 10 10" fill="none" xmlns="http://www.w3.org/2000/svg">
    <path fill-rule="evenodd" clip-rule="evenodd"
        d="M3.23291 5L0.366574 2.13339C-0.122191 1.64583 -0.122191 0.853232 0.366574 0.365671C0.854089 -0.12189 1.64661 -0.12189 2.13413 0.365671L5.00047 3.23228L7.86681 0.365671C8.35432 -0.12189 9.14685 -0.12189 9.63436 0.365671C10.1219 0.853232 10.1219 1.64583 9.63436 2.13339L6.76802 5L9.63436 7.86661C10.1219 8.35417 10.1219 9.14677 9.63436 9.63433C9.14685 10.1219 8.35432 10.1219 7.86681 9.63433L5.00047 6.76772L2.13413 9.63433C1.64661 10.1219 0.854089 10.1219 0.366574 9.63433C-0.122191 9.14677 -0.122191 8.35417 0.366574 7.86661L3.23291 5Z"
        fill="#0b4250" />
</svg>