<svg width="18" height="18" viewBox="0 0 18 18" fill="none" xmlns="http://www.w3.org/2000/svg">
<path d="M17.3615 7.53579C17.0471 5.24425 15.8353 3.17146 13.9926 1.77341C12.1499 0.375359 9.82734 -0.233425 7.53579 0.0809805C5.24425 0.395386 3.17146 1.60723 1.77341 3.44991C0.375359 5.2926 -0.233425 7.61519 0.0809804 9.90673C0.34001 11.8034 1.2116 13.5635 2.5631 14.9191C3.9146 16.2748 5.67201 17.1518 7.56786 17.4167C7.95579 17.4675 8.34661 17.493 8.73785 17.4932C10.3186 17.4958 11.8697 17.0644 13.2221 16.2461C13.317 16.1889 13.3998 16.1136 13.4656 16.0245C13.5314 15.9353 13.579 15.8341 13.6057 15.7265C13.6324 15.619 13.6376 15.5072 13.6211 15.3977C13.6046 15.2881 13.5667 15.1828 13.5095 15.0879C13.4524 14.993 13.3771 14.9103 13.2879 14.8445C13.1988 14.7786 13.0975 14.731 12.99 14.7043C12.7728 14.6504 12.5431 14.685 12.3514 14.8005C11.3887 15.3783 10.3017 15.7172 9.18128 15.7888C8.06083 15.8604 6.93953 15.6626 5.91117 15.2121C4.88281 14.7616 3.97729 14.0713 3.27037 13.1991C2.56344 12.3268 2.07566 11.298 1.84783 10.1986C1.62 9.09928 1.65875 7.96133 1.96083 6.88001C2.26292 5.79868 2.81955 4.80542 3.58417 3.9833C4.34879 3.16118 5.29916 2.53412 6.35579 2.15457C7.41241 1.77501 8.54457 1.65401 9.65754 1.80167C10.6913 1.93912 11.6816 2.30481 12.5566 2.87224C13.4315 3.43967 14.1694 4.19463 14.7165 5.08243C15.2637 5.97023 15.6065 6.96862 15.7202 8.00528C15.8339 9.04194 15.7155 10.0909 15.3737 11.0762C15.285 11.3131 15.1247 11.5165 14.9152 11.6582C14.7056 11.8 14.4571 11.8729 14.2042 11.867C13.8709 11.8666 13.5514 11.734 13.3158 11.4983C13.0801 11.2627 12.9475 10.9431 12.947 10.6099V5.39829C12.947 5.17452 12.8581 4.95991 12.6999 4.80167C12.5417 4.64344 12.3271 4.55454 12.1033 4.55454C11.8795 4.55454 11.6649 4.64344 11.5067 4.80167C11.3484 4.95991 11.2595 5.17452 11.2595 5.39829V5.40617C10.6199 4.9234 9.85598 4.6328 9.0572 4.56838C8.25841 4.50396 7.4578 4.66839 6.74906 5.04241C6.04031 5.41644 5.45276 5.9846 5.05517 6.68039C4.65757 7.37618 4.46638 8.17083 4.50396 8.97133C4.54154 9.77182 4.80635 10.5451 5.26739 11.2005C5.72843 11.856 6.36662 12.3666 7.10729 12.6726C7.84796 12.9786 8.66045 13.0673 9.44969 12.9283C10.2389 12.7893 10.9723 12.4284 11.5639 11.8879C11.8029 12.3857 12.1774 12.8061 12.6444 13.1009C13.1114 13.3957 13.652 13.5529 14.2042 13.5545C14.8079 13.5604 15.3985 13.378 15.8938 13.0329C16.3892 12.6877 16.7647 12.1969 16.9684 11.6285C17.4231 10.315 17.5579 8.9119 17.3615 7.53579ZM8.72829 11.3045C8.22766 11.3045 7.73827 11.1561 7.32201 10.878C6.90574 10.5998 6.58131 10.2045 6.38972 9.74196C6.19814 9.27944 6.14801 8.77048 6.24568 8.27947C6.34335 7.78846 6.58443 7.33743 6.93843 6.98343C7.29243 6.62943 7.74346 6.38835 8.23447 6.29068C8.72548 6.19301 9.23444 6.24314 9.69696 6.43472C10.1595 6.62631 10.5548 6.95074 10.833 7.36701C11.1111 7.78327 11.2595 8.27266 11.2595 8.77329C11.2588 9.44439 10.9919 10.0878 10.5173 10.5623C10.0428 11.0369 9.39939 11.3038 8.72829 11.3045Z" fill="#537CE5"/>
</svg>
