<svg width="19" height="19" viewBox="0 0 19 19" fill="none" xmlns="http://www.w3.org/2000/svg">
<path d="M18.228 7.99691L10.9625 0.731427C10.572 0.34078 10.0526 0.125732 9.50034 0.125732C8.94805 0.125732 8.42867 0.34078 8.03816 0.731427L0.772686 7.99691C0.382182 8.38742 0.166992 8.90667 0.166992 9.4591C0.166992 10.0115 0.382182 10.5308 0.772686 10.9213L8.03816 18.1868C8.42867 18.5774 8.94805 18.7925 9.50034 18.7925C10.0526 18.7925 10.572 18.5774 10.9625 18.1868L18.2279 10.9213C18.6185 10.5308 18.8337 10.0115 18.8337 9.4591C18.8337 8.90667 18.6185 8.38742 18.228 7.99691ZM10.0615 13.2116C10.0596 13.2291 10.057 13.2469 10.0533 13.2644C10.0498 13.282 10.0454 13.2995 10.0402 13.3167C10.0351 13.3335 10.029 13.3506 10.022 13.367C10.0155 13.3834 10.0075 13.3999 9.99937 13.4156C9.99111 13.4312 9.98156 13.4466 9.97174 13.4616C9.96177 13.4765 9.95123 13.4907 9.93998 13.5046C9.92859 13.5184 9.9162 13.5319 9.90381 13.5447C9.89113 13.5571 9.8776 13.5695 9.86364 13.5808C9.84983 13.5921 9.83559 13.6027 9.82063 13.6125C9.80568 13.6223 9.7903 13.6319 9.77464 13.6403C9.75897 13.6483 9.74259 13.656 9.72607 13.6629C9.70969 13.6698 9.6926 13.676 9.6758 13.6812C9.65857 13.6863 9.64119 13.6906 9.62367 13.6943C9.60616 13.6975 9.58821 13.7005 9.5707 13.7022C9.55289 13.7041 9.53466 13.7048 9.51672 13.7048C9.49892 13.7048 9.48097 13.7041 9.46303 13.7022C9.44523 13.7005 9.42743 13.6975 9.40977 13.6943C9.39239 13.6906 9.37487 13.6863 9.35807 13.6812C9.34084 13.676 9.32375 13.6698 9.30737 13.6629C9.29085 13.656 9.27476 13.6483 9.25923 13.6403C9.24342 13.6319 9.22776 13.6223 9.2128 13.6125C9.19828 13.6027 9.18361 13.5921 9.1698 13.5808C9.15584 13.5695 9.14245 13.5571 9.12992 13.5447C9.11724 13.5319 9.10514 13.5184 9.09346 13.5046C9.08249 13.4907 9.07167 13.4765 9.0617 13.4616C9.05188 13.4466 9.04276 13.4312 9.03436 13.4156C9.0261 13.3999 9.01841 13.3834 9.01143 13.367C9.00488 13.3506 8.99861 13.3335 8.99349 13.3167C8.98807 13.2995 8.98366 13.282 8.98038 13.2644C8.97682 13.2469 8.97426 13.2291 8.97241 13.2116C8.97056 13.1937 8.96956 13.1754 8.96956 13.1576C8.96956 13.1397 8.97056 13.1219 8.97241 13.1039C8.97426 13.0861 8.97682 13.0682 8.98038 13.0507C8.98366 13.0332 8.98807 13.0156 8.99349 12.999C8.99861 12.9818 9.00488 12.9649 9.01143 12.9481C9.01841 12.9318 9.02596 12.9157 9.03436 12.9C9.04276 12.8843 9.05188 12.8687 9.0617 12.8541C9.07167 12.8392 9.08249 12.8245 9.09346 12.8107C9.10514 12.7968 9.11724 12.7834 9.12992 12.7706C9.14245 12.7582 9.15584 12.7461 9.1698 12.7344C9.18361 12.7234 9.19814 12.7126 9.2128 12.7026C9.22776 12.6928 9.24342 12.6837 9.25923 12.6753C9.2749 12.6669 9.29085 12.6593 9.30737 12.6523C9.32375 12.6454 9.34084 12.6395 9.35807 12.6344C9.37487 12.629 9.39225 12.6246 9.40977 12.6213C9.42728 12.6177 9.44523 12.6147 9.46303 12.6133C9.49849 12.6096 9.53495 12.6096 9.5707 12.6133C9.58821 12.6147 9.60616 12.6177 9.62367 12.6213C9.64105 12.6246 9.65857 12.629 9.6758 12.6344C9.6926 12.6395 9.70969 12.6454 9.72607 12.6523C9.74259 12.6593 9.75897 12.6669 9.77464 12.6753C9.7903 12.6837 9.80568 12.6928 9.82063 12.7026C9.83559 12.7126 9.84983 12.7234 9.86364 12.7344C9.8776 12.7461 9.89113 12.7582 9.90381 12.7706C9.9162 12.7834 9.92873 12.7968 9.93998 12.8107C9.95123 12.8245 9.96177 12.8392 9.97174 12.8541C9.98156 12.8687 9.99096 12.8843 9.99937 12.9C10.0075 12.9157 10.0155 12.9318 10.022 12.9481C10.029 12.9649 10.0351 12.9818 10.0402 12.999C10.0454 13.0156 10.0498 13.0332 10.0533 13.0507C10.057 13.0682 10.0596 13.0861 10.0615 13.1039C10.0633 13.1219 10.064 13.1397 10.064 13.1576C10.064 13.1754 10.0633 13.1937 10.0615 13.2116ZM10.064 11.443C10.064 11.7452 9.81907 11.9903 9.51686 11.9903C9.21466 11.9903 8.96956 11.7452 8.96956 11.443V5.76654C8.96956 5.46433 9.21466 5.21924 9.51686 5.21924C9.81907 5.21924 10.064 5.46433 10.064 5.76654V11.443Z" fill="#537CE5"/>
</svg>
