<svg width="18" height="20" viewBox="0 0 18 20" fill="none" xmlns="http://www.w3.org/2000/svg">
<path d="M16.7355 7.1539H16.2552V4.8367C16.2552 4.82226 16.2529 4.8077 16.2512 4.79293C16.2505 4.70101 16.221 4.61065 16.158 4.53905L12.3017 0.134126C12.3005 0.132995 12.2994 0.132594 12.2986 0.13139C12.2756 0.10571 12.2489 0.0843348 12.2204 0.0658774C12.2121 0.06026 12.2036 0.0555544 12.1948 0.0505936C12.1703 0.0372795 12.1442 0.026081 12.1175 0.0180196C12.1102 0.0161228 12.1036 0.0131317 12.0964 0.0112349C12.0673 0.00430428 12.037 0 12.0064 0H2.52953C2.0968 0 1.74524 0.351966 1.74524 0.784328V7.15368H1.26505C0.646003 7.15368 0.144043 7.65546 0.144043 8.27473V14.1042C0.144043 14.7229 0.646003 15.2252 1.26505 15.2252H1.74524V19.2157C1.74524 19.6481 2.0968 20 2.52953 20H15.4707C15.903 20 16.255 19.6481 16.255 19.2157V15.2252H16.7352C17.3541 15.2252 17.8561 14.7231 17.8561 14.1042V8.27495C17.8562 7.6555 17.3545 7.1539 16.7355 7.1539ZM2.52953 0.784328H11.6143V4.79701C11.6143 5.01369 11.79 5.18918 12.0064 5.18918H15.4707V7.15387H2.52953V0.784328ZM10.4749 11.4779C9.70437 11.2094 9.20157 10.7832 9.20157 10.1084C9.20157 9.31691 9.86217 8.71143 10.9567 8.71143C11.4794 8.71143 11.8651 8.82137 12.1401 8.94536L11.9062 9.79163C11.7205 9.7024 11.3902 9.57141 10.936 9.57141C10.4818 9.57141 10.2616 9.77795 10.2616 10.0188C10.2616 10.3149 10.5232 10.4455 11.1218 10.6725C11.9405 10.9755 12.326 11.4021 12.326 12.0558C12.326 12.8336 11.7272 13.4943 10.454 13.4943C9.92425 13.4943 9.40128 13.3568 9.13974 13.212L9.35288 12.345C9.63513 12.4894 10.0688 12.6341 10.5159 12.6341C10.9981 12.6341 11.2523 12.4346 11.2523 12.1317C11.2525 11.8429 11.0323 11.6774 10.4749 11.4779ZM8.69997 12.5444V13.4256H5.80228V8.78665H6.85562V12.5444H8.69997ZM2.43761 13.4256H1.24021L2.58213 11.0782L1.28818 8.78647H2.49269L2.89849 9.6331C3.03616 9.91528 3.13946 10.1421 3.24969 10.404H3.26308C3.3735 10.108 3.46286 9.90157 3.57952 9.6331L3.97186 8.78647H5.16929L3.86167 11.0504L5.23831 13.4252H4.0272L3.60717 12.5854C3.4354 12.2624 3.3252 12.0213 3.19439 11.7529H3.18072C3.08423 12.0213 2.96751 12.2624 2.82284 12.5854L2.43761 13.4256ZM15.4707 19.0033H2.52953V15.2252H15.4707V19.0033H15.4707ZM15.4778 13.4256L15.0579 12.5858C14.8859 12.2625 14.7758 12.0217 14.645 11.7532H14.6316C14.5351 12.0217 14.418 12.2625 14.2732 12.5858L13.8883 13.4256H12.6906L14.0325 11.0782L12.7386 8.78647H13.9431L14.3494 9.6331C14.4869 9.91528 14.5899 10.1421 14.7002 10.404H14.714C14.8239 10.108 14.9131 9.90157 15.0303 9.6331L15.4225 8.78647H16.6202L15.3125 11.0504L16.6889 13.4252H15.4778V13.4256Z" fill="white"/>
</svg>
