<svg width="49" height="27" viewBox="0 0 49 27" fill="none" xmlns="http://www.w3.org/2000/svg">
<path d="M48.3479 12.1623C41.9829 4.32305 33.4762 0 24.4018 0C15.3274 0 6.82075 4.32305 0.455713 12.1623C-0.151904 12.9094 -0.151904 13.9752 0.455713 14.7223C6.82075 22.5715 15.3274 26.8945 24.4018 26.8945C33.4762 26.8945 41.9829 22.5715 48.3479 14.7322C48.9555 13.9852 48.9555 12.9094 48.3479 12.1623ZM24.4018 20.1111C20.7262 20.1111 17.7379 17.1229 17.7379 13.4473C17.7379 9.77168 20.7262 6.7834 24.4018 6.7834C28.0774 6.7834 31.0657 9.77168 31.0657 13.4473C31.0657 17.1229 28.0774 20.1111 24.4018 20.1111ZM4.69907 13.4473C8.46431 9.24375 12.9567 6.36504 17.7977 4.99043C15.2875 6.95274 13.6639 10.0107 13.6639 13.4473C13.6639 16.8738 15.2776 19.9318 17.7977 21.9041C12.9567 20.5295 8.47427 17.6508 4.69907 13.4473ZM31.0059 21.9041C33.5161 19.9418 35.1397 16.8838 35.1397 13.4473C35.1397 10.0207 33.526 6.9627 31.0059 4.99043C35.8469 6.36504 40.3393 9.24375 44.1045 13.4473C40.3293 17.6508 35.8469 20.5295 31.0059 21.9041Z" fill="white"/>
</svg>
