<svg width="27" height="27" viewBox="0 0 27 27" fill="none" xmlns="http://www.w3.org/2000/svg">
<path d="M24.1555 5.74797C24.3837 5.23301 24.5048 4.67165 24.5048 4.0914C24.5048 2.99823 24.0791 1.97067 23.3062 1.19831C22.5334 0.425536 21.506 0 20.4132 0C19.3204 0 18.293 0.425618 17.5204 1.19823L13.5002 5.21795L9.48049 1.19815C8.70748 0.425536 7.68 0 6.5874 0C5.4948 0 4.46733 0.425536 3.69448 1.19806C2.9213 1.97075 2.49551 2.99831 2.49551 4.0914C2.49551 4.67165 2.6166 5.23301 2.8448 5.74797C2.27526 5.85425 1.84375 6.3531 1.84375 6.95348V12.6808C1.84375 13.3585 2.39324 13.908 3.07102 13.908H3.17968V25.7727C3.17968 26.4505 3.72917 27 4.40695 27H22.5933C23.2711 27 23.8206 26.4505 23.8206 25.7727V13.9081H23.9291C24.6069 13.9081 25.1564 13.3586 25.1564 12.6808V6.95356C25.1564 6.35318 24.725 5.85434 24.1555 5.74797ZM19.2561 2.93384C19.5651 2.62473 19.976 2.45455 20.4132 2.45455C20.8504 2.45455 21.2614 2.62481 21.5708 2.93416C21.88 3.24319 22.0502 3.65416 22.0502 4.0914C22.0502 4.52864 21.88 4.93961 21.5705 5.24888C21.2637 5.5557 20.855 5.7249 20.4195 5.72621H20.3761H16.4634L19.2561 2.93384ZM13.5001 8.68917L16.2647 11.4536H10.7356L13.5001 8.68917ZM5.42968 2.93408C5.73903 2.62489 6.15017 2.45455 6.5874 2.45455C7.02464 2.45455 7.43578 2.62489 7.74497 2.93392L10.5373 5.72629H6.62422H6.58086C6.14526 5.72498 5.73666 5.55578 5.4296 5.24872C5.1204 4.93969 4.95014 4.52872 4.95014 4.09148C4.95006 3.65416 5.12032 3.24319 5.42968 2.93408ZM4.29838 11.4536V8.18084H6.57595C6.5793 8.18084 6.58249 8.18108 6.58585 8.18108L10.5371 8.181L7.26429 11.4536H4.40703H4.29838ZM12.273 24.5455H5.6343V13.9081H12.273V24.5455ZM21.3661 24.5455H14.7274V13.9081H21.3661V24.5455ZM22.7018 11.4536H22.5933H19.7361L16.4632 8.18084H20.3761L20.4145 8.18108C20.4179 8.18108 20.4211 8.18084 20.4244 8.18084H22.7018V11.4536Z" fill="white"/>
</svg>
