<svg width="25" height="25" viewBox="0 0 25 25" fill="none" xmlns="http://www.w3.org/2000/svg">
<g clip-path="url(#clip0_168_1537)">
<path d="M24.9959 11.0573C24.9747 10.8549 24.8705 10.6703 24.7083 10.5474L22.728 9.04731L23.4485 6.66992C23.5076 6.47505 23.4833 6.2645 23.3816 6.08818C23.2798 5.91191 23.1096 5.78564 22.9114 5.73935L20.492 5.17446L20.1832 2.70947C20.1579 2.50751 20.0501 2.325 19.8854 2.20542C19.7208 2.08569 19.5139 2.0395 19.3141 2.07792L16.8742 2.54589L15.5893 0.419673C15.484 0.245503 15.3113 0.122603 15.1122 0.0803176C14.9131 0.0379836 14.7054 0.079927 14.5384 0.196284L12.4999 1.61616L10.4614 0.196333C10.2943 0.0800246 10.0866 0.0380325 9.88754 0.0803665C9.68842 0.122652 9.51576 0.245503 9.41049 0.419771L8.12577 2.54604L5.68593 2.07807C5.48603 2.03979 5.27914 2.08588 5.11449 2.20556C4.94984 2.32519 4.84203 2.50761 4.81679 2.70961L4.50795 5.1746L2.08861 5.7395C1.89037 5.78579 1.7202 5.91206 1.6184 6.08833C1.51664 6.26464 1.49242 6.47514 1.55141 6.66992L2.27182 9.04741L0.29164 10.5474C0.129384 10.6703 0.0252828 10.8548 0.00404255 11.0573C-0.0172465 11.2597 0.0461812 11.4619 0.179384 11.6159L1.80443 13.4948L0.605459 15.6706C0.507216 15.8488 0.487197 16.0598 0.550088 16.2534C0.613027 16.4469 0.753213 16.6059 0.93749 16.6923L3.18632 17.7478L2.97592 20.2232C2.95863 20.426 3.02611 20.6269 3.16239 20.7782C3.29853 20.9295 3.49135 21.0176 3.69481 21.0217L6.1787 21.0712L6.99325 23.4181C7.05995 23.6103 7.20331 23.7665 7.38925 23.8493C7.57528 23.9321 7.78715 23.9341 7.97475 23.8551L10.2641 22.8901L11.9628 24.7028C12.102 24.8514 12.2965 24.9356 12.5 24.9356C12.7036 24.9356 12.898 24.8514 13.0372 24.7028L14.736 22.8901L17.0251 23.8551C17.2127 23.9341 17.4247 23.932 17.6106 23.8493C17.7965 23.7665 17.9399 23.6104 18.0066 23.4181L18.8213 21.0712L21.3051 21.0217C21.5085 21.0176 21.7013 20.9295 21.8375 20.7782C21.9737 20.6269 22.0412 20.4261 22.024 20.2232L21.8136 17.7478L24.0625 16.6923C24.2469 16.6059 24.3871 16.4469 24.4499 16.2534C24.5128 16.0599 24.4928 15.8488 24.3945 15.6705L23.1954 13.4948L24.8206 11.6158C24.9538 11.462 25.0172 11.2597 24.9959 11.0573ZM12.4999 19.5447C8.61537 19.5447 5.45512 16.3844 5.45512 12.4999C5.45512 8.61538 8.61542 5.45507 12.4999 5.45507C16.3845 5.45507 19.5448 8.61543 19.5448 12.4999C19.5448 16.3844 16.3845 19.5447 12.4999 19.5447Z" fill="#5D6C7B"/>
<path d="M12.5 6.92749C9.42737 6.92749 6.92761 9.42725 6.92761 12.4999C6.92761 15.5725 9.42742 18.0722 12.5 18.0722C15.5727 18.0722 18.0723 15.5725 18.0723 12.4999C18.0723 9.42725 15.5726 6.92749 12.5 6.92749ZM15.3863 11.4434L12.2321 14.5976C12.0883 14.7414 11.8999 14.8133 11.7115 14.8133C11.5231 14.8133 11.3346 14.7414 11.1909 14.5976L9.6137 13.0205C9.32625 12.733 9.32625 12.2668 9.6137 11.9793C9.90115 11.6918 10.3674 11.6917 10.6549 11.9793L11.7115 13.0358L14.3451 10.4022C14.6326 10.1147 15.0988 10.1146 15.3864 10.4022C15.6738 10.6897 15.6738 11.1559 15.3863 11.4434Z" fill="#5D6C7B"/>
</g>
<defs>
<clipPath id="clip0_168_1537">
<rect width="25" height="25" fill="white"/>
</clipPath>
</defs>
</svg>
