<svg width="15" height="16" viewBox="0 0 15 16" fill="none" xmlns="http://www.w3.org/2000/svg">
<path d="M13.8651 7.89824L8.20489 2.24102L7.8255 1.86162C7.73906 1.77575 7.62215 1.72755 7.5003 1.72755C7.37846 1.72755 7.26155 1.77575 7.17511 1.86162L1.13556 7.89824C1.04698 7.98648 0.976977 8.09156 0.929678 8.20729C0.882379 8.32302 0.858744 8.44706 0.860168 8.57207C0.866028 9.0877 1.29523 9.49932 1.81085 9.49932H2.43341V14.2703H12.5672V9.49932H13.2029C13.4534 9.49932 13.6893 9.40117 13.8665 9.22393C13.9538 9.13693 14.0229 9.03349 14.07 8.91959C14.117 8.80568 14.1409 8.68358 14.1404 8.56035C14.1404 8.31133 14.0423 8.07549 13.8651 7.89824ZM8.32062 13.2156H6.67999V10.2273H8.32062V13.2156ZM11.5125 8.44463V13.2156H9.25812V9.87578C9.25812 9.55205 8.99591 9.28985 8.67218 9.28985H6.32843C6.0047 9.28985 5.74249 9.55205 5.74249 9.87578V13.2156H3.4881V8.44463H2.08185L7.50177 3.0291L7.84015 3.36748L12.9202 8.44463H11.5125Z" fill="#5D6C7B"/>
</svg>
