<svg width="30" height="33" viewBox="0 0 30 33" fill="none" xmlns="http://www.w3.org/2000/svg">
<path d="M13.8579 20.568C13.6712 20.568 13.5126 20.512 13.3819 20.4C13.2512 20.2693 13.1859 20.1013 13.1859 19.896V7.072C13.1859 6.88533 13.2512 6.72667 13.3819 6.596C13.5126 6.46533 13.6712 6.4 13.8579 6.4H16.1259C16.3312 6.4 16.4899 6.46533 16.6019 6.596C16.7326 6.72667 16.7979 6.88533 16.7979 7.072V19.896C16.7979 20.1013 16.7326 20.2693 16.6019 20.4C16.4899 20.512 16.3312 20.568 16.1259 20.568H13.8579ZM13.6899 26C13.4846 26 13.3166 25.9347 13.1859 25.804C13.0739 25.6733 13.0179 25.5147 13.0179 25.328V22.724C13.0179 22.5187 13.0739 22.3507 13.1859 22.22C13.3166 22.0893 13.4846 22.024 13.6899 22.024H16.2939C16.4992 22.024 16.6672 22.0893 16.7979 22.22C16.9286 22.3507 16.9939 22.5187 16.9939 22.724V25.328C16.9939 25.5147 16.9286 25.6733 16.7979 25.804C16.6672 25.9347 16.4992 26 16.2939 26H13.6899Z" fill="#E53935"/>
<circle cx="15" cy="17" r="14" stroke="#E53935" stroke-width="2"/>
</svg>
