<svg width="23" height="18" viewBox="0 0 23 18" fill="none" xmlns="http://www.w3.org/2000/svg">
<path d="M1.76923 0H3.53846C4.00769 0 4.45778 0.184189 4.78958 0.512003C5.12137 0.839816 5.30769 1.2844 5.30769 1.748C5.30769 2.2116 5.12137 2.65618 4.78958 2.984C4.45778 3.31181 4.00769 3.496 3.53846 3.496H1.76923C1.3 3.496 0.849908 3.31181 0.518113 2.984C0.186318 2.65618 0 2.2116 0 1.748C0 1.2844 0.186318 0.839816 0.518113 0.512003C0.849908 0.184189 1.3 0 1.76923 0ZM10.6154 0H12.3846C12.8538 0 13.3039 0.184189 13.6357 0.512003C13.9675 0.839816 14.1538 1.2844 14.1538 1.748C14.1538 2.2116 13.9675 2.65618 13.6357 2.984C13.3039 3.31181 12.8538 3.496 12.3846 3.496H10.6154C10.1462 3.496 9.69606 3.31181 9.36427 2.984C9.03247 2.65618 8.84615 2.2116 8.84615 1.748C8.84615 1.2844 9.03247 0.839816 9.36427 0.512003C9.69606 0.184189 10.1462 0 10.6154 0ZM19.4615 0H21.2308C21.7 0 22.1501 0.184189 22.4819 0.512003C22.8137 0.839816 23 1.2844 23 1.748C23 2.2116 22.8137 2.65618 22.4819 2.984C22.1501 3.31181 21.7 3.496 21.2308 3.496H19.4615C18.9923 3.496 18.5422 3.31181 18.2104 2.984C17.8786 2.65618 17.6923 2.2116 17.6923 1.748C17.6923 1.2844 17.8786 0.839816 18.2104 0.512003C18.5422 0.184189 18.9923 0 19.4615 0ZM1.76923 6.992H3.53846C4.00769 6.992 4.45778 7.17619 4.78958 7.504C5.12137 7.83182 5.30769 8.2764 5.30769 8.74C5.30769 9.2036 5.12137 9.64818 4.78958 9.976C4.45778 10.3038 4.00769 10.488 3.53846 10.488H1.76923C1.3 10.488 0.849908 10.3038 0.518113 9.976C0.186318 9.64818 0 9.2036 0 8.74C0 8.2764 0.186318 7.83182 0.518113 7.504C0.849908 7.17619 1.3 6.992 1.76923 6.992ZM10.6154 6.992H12.3846C12.8538 6.992 13.3039 7.17619 13.6357 7.504C13.9675 7.83182 14.1538 8.2764 14.1538 8.74C14.1538 9.2036 13.9675 9.64818 13.6357 9.976C13.3039 10.3038 12.8538 10.488 12.3846 10.488H10.6154C10.1462 10.488 9.69606 10.3038 9.36427 9.976C9.03247 9.64818 8.84615 9.2036 8.84615 8.74C8.84615 8.2764 9.03247 7.83182 9.36427 7.504C9.69606 7.17619 10.1462 6.992 10.6154 6.992ZM19.4615 6.992H21.2308C21.7 6.992 22.1501 7.17619 22.4819 7.504C22.8137 7.83182 23 8.2764 23 8.74C23 9.2036 22.8137 9.64818 22.4819 9.976C22.1501 10.3038 21.7 10.488 21.2308 10.488H19.4615C18.9923 10.488 18.5422 10.3038 18.2104 9.976C17.8786 9.64818 17.6923 9.2036 17.6923 8.74C17.6923 8.2764 17.8786 7.83182 18.2104 7.504C18.5422 7.17619 18.9923 6.992 19.4615 6.992ZM1.76923 13.984H3.53846C4.00769 13.984 4.45778 14.1682 4.78958 14.496C5.12137 14.8238 5.30769 15.2684 5.30769 15.732C5.30769 16.1956 5.12137 16.6402 4.78958 16.968C4.45778 17.2958 4.00769 17.48 3.53846 17.48H1.76923C1.3 17.48 0.849908 17.2958 0.518113 16.968C0.186318 16.6402 0 16.1956 0 15.732C0 15.2684 0.186318 14.8238 0.518113 14.496C0.849908 14.1682 1.3 13.984 1.76923 13.984ZM10.6154 13.984H12.3846C12.8538 13.984 13.3039 14.1682 13.6357 14.496C13.9675 14.8238 14.1538 15.2684 14.1538 15.732C14.1538 16.1956 13.9675 16.6402 13.6357 16.968C13.3039 17.2958 12.8538 17.48 12.3846 17.48H10.6154C10.1462 17.48 9.69606 17.2958 9.36427 16.968C9.03247 16.6402 8.84615 16.1956 8.84615 15.732C8.84615 15.2684 9.03247 14.8238 9.36427 14.496C9.69606 14.1682 10.1462 13.984 10.6154 13.984ZM19.4615 13.984H21.2308C21.7 13.984 22.1501 14.1682 22.4819 14.496C22.8137 14.8238 23 15.2684 23 15.732C23 16.1956 22.8137 16.6402 22.4819 16.968C22.1501 17.2958 21.7 17.48 21.2308 17.48H19.4615C18.9923 17.48 18.5422 17.2958 18.2104 16.968C17.8786 16.6402 17.6923 16.1956 17.6923 15.732C17.6923 15.2684 17.8786 14.8238 18.2104 14.496C18.5422 14.1682 18.9923 13.984 19.4615 13.984Z" fill="white"/>
</svg>
