<svg width="115" height="17" viewBox="0 0 115 17" fill="none" xmlns="http://www.w3.org/2000/svg">
<path d="M37.6629 8.59594L43.6967 17H39.7926L34.9267 10.2218H26.7417V16.9998H23.805V0.000590605H26.7417V6.96976H34.9008L39.7926 0.000590605H43.6967L37.6629 8.59594ZM18.6808 8.78249C17.9325 9.67008 16.9021 10.2218 15.7694 10.2218H12.3126H2.93602V12.6958C2.93602 12.9846 3.03627 13.248 3.19622 13.4381C3.35705 13.629 3.57852 13.7481 3.82192 13.7481H19.8916V16.9998H4.12233C2.98842 16.9998 1.9578 16.4484 1.21087 15.5602C0.464112 14.6725 0 13.4478 0 12.0999V4.90023C0 3.55289 0.464112 2.32734 1.21087 1.43946C1.95893 0.55204 2.98931 0.000590605 4.12233 0.000590605H12.3126V0H15.7694C16.9021 0 17.9325 0.551616 18.6808 1.43933C20.2895 3.35107 20.2899 6.87071 18.6808 8.78249ZM16.9554 4.30417C16.9554 4.01497 16.8556 3.7514 16.6955 3.56067C16.5348 3.3701 16.3133 3.25189 16.0698 3.25189H12.3126H3.82192C3.57835 3.25189 3.35663 3.37052 3.19596 3.56067C3.03584 3.75212 2.93602 4.01527 2.93602 4.30442V6.96976H12.3126H16.0698C16.3133 6.96976 16.5348 6.85172 16.6955 6.66128C16.8556 6.47042 16.9554 6.20685 16.9554 5.91766C16.9554 5.37987 16.9554 4.84196 16.9554 4.30417ZM88.2583 4.30472C88.2583 4.01527 88.1591 3.75212 87.9989 3.56096C87.838 3.37082 87.6164 3.25206 87.373 3.25206H82.122H80.2933H75.0423C74.7988 3.25206 74.5774 3.37082 74.4163 3.56096C74.2561 3.75212 74.1571 4.01527 74.1571 4.30472V12.696C74.1571 12.9852 74.2561 13.2487 74.4163 13.4398C74.5774 13.63 74.7988 13.7487 75.0423 13.7487H80.2933H82.122H87.373C87.6164 13.7487 87.838 13.63 87.9989 13.4398C88.1591 13.2487 88.2583 12.9852 88.2583 12.696V4.30472ZM71.2202 4.90036C71.2202 3.55289 71.6837 2.32776 72.4313 1.43988C73.1781 0.552038 74.2089 0.000718638 75.343 0.000718638H80.2933H82.122H87.0723C88.2065 0.000718638 89.237 0.552038 89.9839 1.43988C90.7313 2.32776 91.195 3.55289 91.195 4.90036C91.195 7.3004 91.195 9.70027 91.195 12.1003C91.195 13.4478 90.7313 14.673 89.9839 15.5608C89.237 16.4488 88.2065 17 87.0723 17H82.122H80.2933H75.343C74.2089 17 73.1781 16.4488 72.4313 15.5608C71.6837 14.673 71.2202 13.4478 71.2202 12.1003C71.2202 9.70027 71.2202 7.3004 71.2202 4.90036ZM61.536 10.2218L67.3066 17H63.4027L57.6326 10.2218H50.3518V17H47.4149V0.000590605H63.5568C64.5878 0.000590605 65.5258 0.502389 66.2053 1.3089C66.8846 2.11859 67.3066 3.23278 67.3066 4.4582V5.76392C67.3066 6.33753 67.2132 6.88975 67.0429 7.39801C66.467 9.12607 65.0075 10.2218 63.597 10.2218H61.536ZM106.538 3.25189V17H103.601V3.25189H98.0446V17H95.1084V0.000590605H111.25C112.281 0.000590605 113.219 0.502387 113.899 1.30932C114.578 2.11888 115 3.23303 115 4.4582V17H112.094V5.26039L112.104 4.4582C112.104 4.12637 111.989 3.82453 111.806 3.60601C111.622 3.3885 111.368 3.25189 111.089 3.25189H106.538ZM64.4103 5.76392V4.4582C64.4103 4.12654 64.2962 3.82508 64.1118 3.6063C63.9292 3.38778 63.6753 3.25189 63.3964 3.25189H50.3518V6.96976H63.3964C63.6753 6.96976 63.9292 6.83472 64.1118 6.61654C64.2962 6.397 64.4103 6.09541 64.4103 5.76392Z" fill="white"/>
</svg>
