<svg width="100" height="45" viewBox="0 0 100 45" fill="none" xmlns="http://www.w3.org/2000/svg">
<path fill-rule="evenodd" clip-rule="evenodd" d="M93.1445 19.8332C93.1445 19.4092 93.2935 19.0485 93.5899 18.75C93.889 18.4497 94.2486 18.2991 94.6711 18.2991C95.0938 18.2991 95.4546 18.4497 95.7533 18.75C96.0506 19.0485 96.1994 19.4092 96.1994 19.8332C96.1994 20.259 96.0506 20.6223 95.7533 20.9225C95.4566 21.223 95.095 21.3729 94.6711 21.3729C94.246 21.3729 93.8841 21.223 93.5872 20.9225C93.2924 20.6223 93.1448 20.259 93.1445 19.8332ZM95.9305 21.0949C96.2786 20.7458 96.4524 20.3252 96.4524 19.8332C96.4523 19.3422 96.2786 18.9235 95.9305 18.5783C95.5844 18.2321 95.163 18.0593 94.6711 18.0593C94.1808 18.0593 93.7625 18.2321 93.4177 18.5783C93.0699 18.925 92.8961 19.3432 92.8958 19.8332C92.8958 20.3268 93.0689 20.747 93.4128 21.0949C93.7582 21.4438 94.1782 21.6178 94.6711 21.6178C95.1633 21.6178 95.5842 21.4438 95.9305 21.0949Z" fill="white"/>
<path fill-rule="evenodd" clip-rule="evenodd" d="M94.6078 19.7943H94.2974V19.0866L94.5909 19.0871C94.7821 19.0871 94.9186 19.1105 95.0043 19.1595C95.0921 19.2081 95.1369 19.3031 95.1369 19.4453C95.1355 19.5959 95.0677 19.6973 94.9345 19.7504C94.862 19.7796 94.7532 19.7943 94.6078 19.7943ZM95.137 20.5457V20.7005L95.143 20.7633C95.1452 20.7711 95.1475 20.7777 95.1481 20.785C95.1504 20.792 95.1509 20.7975 95.1525 20.8036H95.4761L95.4638 20.78C95.4546 20.764 95.4496 20.7297 95.4463 20.6781C95.443 20.6266 95.4419 20.5782 95.4419 20.5328V20.3895C95.4419 20.2915 95.4063 20.1912 95.3342 20.0875C95.2642 19.9839 95.1509 19.9206 94.9982 19.896C95.1197 19.8759 95.2128 19.8454 95.2808 19.8012C95.4091 19.7194 95.4733 19.5912 95.4733 19.4163C95.4733 19.1705 95.3718 19.0061 95.17 18.9215C95.057 18.8753 94.8795 18.8522 94.6372 18.8522H93.9539V20.8036H94.2974V20.0336H94.5685C94.752 20.0336 94.8795 20.0549 94.9511 20.0962C95.0743 20.1694 95.1369 20.3187 95.137 20.5457Z" fill="white"/>
<path fill-rule="evenodd" clip-rule="evenodd" d="M89.429 11.823L84.7478 11.8221C84.6991 11.8327 84.649 11.8381 84.5976 11.8381L81.5103 11.8424C81.507 11.8439 81.5033 11.8444 81.4996 11.8459H35.4087C35.5952 11.9059 37.2113 12.2156 36.5872 14.2728H82.7597C82.7636 14.2654 82.7676 14.2574 82.7712 14.25H88.6981C93.9303 14.25 97.6017 18.1198 97.6017 22.8948C97.6017 27.6688 93.8935 31.5386 88.6981 31.5386L75.3664 31.5081C75.3669 31.5185 75.3644 31.5288 75.3644 31.5394H66.7661C66.7661 31.5391 66.7661 31.5388 66.7661 31.5386L45.077 31.5412C43.4527 31.4862 43.086 30.8814 42.8444 30.4028C42.6046 29.9239 41.9877 28.2539 41.9877 28.2539L39.79 22.358L41.7778 18.2204H38.6548L37.2651 20.8148C37.2651 20.8148 36.9543 21.5512 36.0415 21.4958H33.2434L34.6576 17.7235L35.9188 14.2724C36.6345 12.1736 33.8224 11.8473 32.7426 11.8473L10.5276 11.8447C4.6615 11.9829 0 16.726 0 22.5702V23.0752C0 28.9191 4.69494 33.8741 11.2884 33.8951H41.3457C41.3374 33.8926 41.3283 33.8889 41.3197 33.8865L35.1074 33.8833H41.3101C41.0618 33.8099 40.7895 33.684 40.5988 33.5728C39.8787 33.1216 39.7314 32.7514 39.0142 31.5081H11.3016C6.1016 31.5081 2.39864 27.6381 2.39864 22.8646C2.43438 18.5164 5.07879 15.5726 8.89973 14.5196C8.89973 14.5194 9.59531 14.31 10.2657 14.2321C10.3048 14.2275 10.3437 14.2224 10.38 14.2224L32.2953 14.2237C32.536 14.2237 32.6765 14.3731 32.5233 14.8008L27.3009 28.2453H30.6846L32.4986 23.4905H36.1337C36.1337 23.4905 36.8324 23.4219 37.1601 24.23L39.6974 30.8219C40.259 32.2133 41.015 32.7802 41.015 32.7802C42.1528 33.7829 43.9646 33.8687 45.0399 33.8833H63.3803H67.1713C67.3534 33.8893 67.6233 33.8928 67.9477 33.8833H71.5553H75.7989H89.429C95.0843 33.9721 100 28.9496 100 23.1059V22.6001C100 16.7559 95.2486 11.7072 89.429 11.823Z" fill="white"/>
<path fill-rule="evenodd" clip-rule="evenodd" d="M41.3197 33.8865L45.5069 33.8886C45.3762 33.8865 45.2169 33.8857 45.0399 33.8833H41.3101C41.3131 33.8843 41.3167 33.8856 41.3197 33.8865Z" fill="white"/>
<path fill-rule="evenodd" clip-rule="evenodd" d="M54.0734 18.2167L46.2342 18.2044L42.4159 28.2236L45.7192 28.2046L48.8008 20.1609H52.4903C53.443 20.1625 53.0991 20.9423 53.0991 20.9423L52.5156 22.5149H55.7979L56.3297 21.1173C57.3617 18.2252 54.0734 18.2167 54.0734 18.2167Z" fill="white"/>
<path fill-rule="evenodd" clip-rule="evenodd" d="M68.4004 21.0589L66.3966 26.2424H60.4631C59.2738 26.2424 59.8387 25.3475 59.8387 25.3475L61.8078 20.1813C61.8078 20.1813 66.9682 20.1645 67.8798 20.1645C68.7927 20.1645 68.4004 21.0589 68.4004 21.0589ZM69.4515 18.1757H59.256L56.5245 25.4345C56.5245 25.4345 55.5089 28.2125 58.9092 28.2125H68.9653L71.6619 21.1972C71.6619 21.1972 72.7998 18.1757 69.4515 18.1757Z" fill="white"/>
<path fill-rule="evenodd" clip-rule="evenodd" d="M85.5359 28.213H88.8319C88.8319 28.213 90.3656 24.2189 91.5565 21.0937C92.7299 18.0153 89.3339 18.2112 89.3339 18.2112H75.0215L71.2124 28.213H74.5432L77.5981 20.1819H81.4231L78.3706 28.2307H81.7537L84.7902 20.1644C84.7902 20.1644 86.6731 20.1644 87.6867 20.1644C88.703 20.1644 88.2778 21.0248 88.2778 21.0248L85.5359 28.213Z" fill="white"/>
<path fill-rule="evenodd" clip-rule="evenodd" d="M21.8939 22.6388L21.096 24.6431L27.2011 24.6784L28.0102 22.7078L21.8939 22.6388Z" fill="white"/>
<path fill-rule="evenodd" clip-rule="evenodd" d="M17.9377 21.8381C17.9377 21.8381 17.608 22.8165 16.5812 22.7994C15.2759 22.7771 10.5827 22.782 10.5827 22.782L11.1698 21.2336C11.1698 21.2336 11.5184 20.1175 12.8995 20.1175H18.5599L17.9377 21.8381ZM12.1135 18.1543C9.0355 18.1543 8.22486 20.7229 8.22486 20.7229C8.22486 20.7229 7.17842 23.5428 6.27128 25.8271C5.3626 28.1104 7.76477 28.1182 7.76477 28.1182H18.7499L19.5533 25.9473H9.84046C9.21806 25.9473 9.51983 25.4881 9.51983 25.4881L9.82313 24.745H17.8513C19.813 24.783 20.4162 22.9713 20.4162 22.9713L22.2328 18.1543H12.1135Z" fill="white"/>
<path fill-rule="evenodd" clip-rule="evenodd" d="M13.465 42.6894C13.465 42.0965 12.9451 41.8001 11.9055 41.8001C11.7 41.8001 11.5226 41.8076 11.3737 41.8225C11.3737 42.445 11.3856 43.0185 11.4094 43.5429C11.5137 43.5668 11.6671 43.5784 11.8698 43.5784C12.4209 43.5784 12.8245 43.5123 13.0807 43.3798C13.3369 43.2472 13.465 43.0169 13.465 42.6894ZM14.667 42.6402C14.667 43.8259 13.6988 44.4185 11.7626 44.4185C11.4258 44.4185 10.9014 44.4098 10.1896 44.3917C10.2283 43.4803 10.2476 42.4659 10.2476 41.3487C10.2476 40.172 10.2283 39.2471 10.1896 38.5738H14.2694L14.2336 39.5524C13.1253 39.5048 12.1542 39.4809 11.3201 39.4809C11.3559 39.8592 11.3737 40.3449 11.3737 40.9377C11.615 40.9258 11.825 40.9198 12.0037 40.9198C13.7792 40.9198 14.667 41.4934 14.667 42.6402Z" fill="white"/>
<path fill-rule="evenodd" clip-rule="evenodd" d="M21.5308 44.3917H20.2662C20.3049 43.4685 20.3242 42.4541 20.3242 41.3487C20.3242 40.2615 20.3049 39.3364 20.2662 38.5738H21.5308C21.4891 39.3244 21.4682 40.2495 21.4682 41.3487C21.4682 42.4719 21.4891 43.4862 21.5308 44.3917ZM18.5816 42.5463C18.5816 42.1979 18.4415 41.9483 18.1615 41.7978C17.8814 41.6474 17.5537 41.5721 17.1784 41.5721C17.0295 41.5721 16.891 41.5796 16.7628 41.5945C16.7628 42.2172 16.7717 42.8666 16.7897 43.5429C16.9147 43.5668 17.0324 43.5784 17.1427 43.5784C18.1019 43.5784 18.5816 43.2345 18.5816 42.5463ZM19.7836 42.5016C19.7836 43.1332 19.5334 43.6107 19.0329 43.9339C18.5323 44.2572 17.868 44.4185 17.0399 44.4185C16.7032 44.4185 16.2087 44.4098 15.5562 44.3917C15.5951 43.4803 15.6144 42.4659 15.6144 41.3487C15.6144 40.172 15.5951 39.2471 15.5562 38.5738H16.821C16.803 38.7674 16.7837 39.4824 16.7628 40.7186C16.9535 40.7038 17.1277 40.6964 17.2857 40.6964C18.0037 40.6964 18.5994 40.8371 19.0731 41.1186C19.5467 41.4003 19.7836 41.8613 19.7836 42.5016Z" fill="white"/>
<path fill-rule="evenodd" clip-rule="evenodd" d="M26.8886 38.5738L26.8573 39.5346C26.2613 39.49 25.6998 39.4676 25.1725 39.4676C25.1667 40.0306 25.1638 40.6576 25.1638 41.3487C25.1638 42.4212 25.1802 43.4356 25.2127 44.3917H23.9616C24.0003 43.4447 24.0198 42.4303 24.0198 41.3487C24.0198 40.6696 24.0138 40.0426 24.0018 39.4676C23.5818 39.4676 23.0054 39.4913 22.2725 39.5389L22.3083 38.5738H26.8886Z" fill="white"/>
<path fill-rule="evenodd" clip-rule="evenodd" d="M31.7861 41.505C31.7861 40.8826 31.6268 40.3776 31.3079 39.9903C30.9891 39.603 30.5959 39.4094 30.1283 39.4094C29.6934 39.4094 29.3241 39.6045 29.02 39.9948C28.7163 40.3851 28.5644 40.878 28.5644 41.4739C28.5644 42.0935 28.7242 42.5976 29.0446 42.9865C29.3647 43.3751 29.7575 43.5697 30.2222 43.5697C30.6571 43.5697 31.0264 43.3736 31.3304 42.9819C31.6342 42.5904 31.7861 42.098 31.7861 41.505ZM33.0194 41.3755C33.0194 42.29 32.7394 43.0482 32.1793 43.6501C31.6193 44.2517 30.9267 44.5526 30.1014 44.5526C29.315 44.5526 28.6566 44.2764 28.1262 43.7237C27.596 43.1712 27.3311 42.4689 27.3311 41.6168C27.3311 40.7022 27.6109 39.944 28.1712 39.3423C28.7311 38.7408 29.4237 38.4396 30.2489 38.4396C31.0354 38.4396 31.6939 38.7153 32.2241 39.2664C32.7543 39.8176 33.0194 40.5205 33.0194 41.3755Z" fill="white"/>
<path fill-rule="evenodd" clip-rule="evenodd" d="M37.2824 42.6894C37.2824 42.0965 36.7627 41.8001 35.7228 41.8001C35.5174 41.8001 35.3402 41.8076 35.1912 41.8225C35.1912 42.445 35.2046 43.0185 35.2314 43.5429C35.3325 43.5668 35.4844 43.5785 35.6871 43.5785C36.2383 43.5785 36.6419 43.5123 36.8981 43.3798C37.1545 43.2472 37.2824 43.017 37.2824 42.6894ZM36.9563 40.1869C36.9563 39.6538 36.6224 39.387 35.9552 39.387C35.6482 39.387 35.3758 39.4094 35.1375 39.4541C35.1702 39.7549 35.1865 40.2718 35.1865 41.0046C35.2998 41.0106 35.419 41.0135 35.5442 41.0135C36.4854 41.0135 36.9561 40.7382 36.9563 40.1869ZM38.4889 42.6402C38.4889 43.8259 37.5193 44.4186 35.58 44.4186C35.2431 44.4186 34.719 44.4098 34.0069 44.3917C34.0457 43.4923 34.0652 42.4777 34.0652 41.3487C34.0652 40.2644 34.0457 39.3395 34.0069 38.5738H34.731C34.868 38.5738 35.0981 38.5695 35.4213 38.5604C35.7446 38.5514 35.9968 38.5469 36.1788 38.5469C37.4984 38.5469 38.1583 38.976 38.1583 39.8339C38.1583 40.4953 37.8201 40.9331 37.1439 41.1476V41.2147C37.5043 41.2713 37.8188 41.4123 38.0869 41.637C38.3548 41.8619 38.4889 42.1965 38.4889 42.6402Z" fill="white"/>
<path fill-rule="evenodd" clip-rule="evenodd" d="M42.4839 41.8671C41.9747 40.33 41.7198 39.4987 41.7198 39.3737H41.6482C41.6482 39.49 41.3846 40.321 40.8574 41.8671H42.4839ZM44.5485 44.3917H43.1184C43.1184 44.1952 42.9829 43.6381 42.7118 42.7206H40.6475C40.3673 43.6232 40.2274 44.1803 40.2274 44.3917H38.8821C38.8821 44.2757 39.2301 43.3225 39.9255 41.5319C40.6211 39.7415 40.969 38.7557 40.969 38.5738H42.6581C42.6581 38.7437 42.9731 39.7155 43.6033 41.4894C44.2332 43.2635 44.5485 44.2311 44.5485 44.3917Z" fill="white"/>
<path fill-rule="evenodd" clip-rule="evenodd" d="M48.2036 41.1969C48.2036 40.5711 48.1901 39.9904 48.1633 39.4541C47.815 39.4123 47.5096 39.3915 47.2474 39.3915C46.5444 39.3915 46.1928 39.6523 46.1928 40.1736C46.1928 40.8647 46.6948 41.2104 47.6987 41.2104C47.8864 41.2104 48.0547 41.2058 48.2036 41.1969ZM49.4058 44.3917H48.1634C48.1901 43.6977 48.2036 42.9203 48.2036 42.0592C48.0488 42.0505 47.8655 42.0459 47.6541 42.0459C47.2845 42.0459 46.9986 42.1733 46.7959 42.428C46.5934 42.6825 46.3671 43.2479 46.1167 44.1239C46.087 44.2311 46.0483 44.3204 46.0007 44.3917H44.6958C44.7406 44.2966 44.8193 44.1015 44.9327 43.8064C45.2067 43.0052 45.4368 42.4763 45.623 42.2201C45.8091 41.9639 46.0587 41.7943 46.3715 41.7108V41.6392C45.4926 41.4575 45.0534 40.972 45.0534 40.1825C45.0534 39.092 45.8101 38.5469 47.3233 38.5469C47.5498 38.5469 47.8052 38.5514 48.0898 38.5604C48.3742 38.5695 48.5537 38.5738 48.6283 38.5738H49.4058C49.364 39.3424 49.343 40.2689 49.343 41.3532C49.343 42.4793 49.364 43.4923 49.4058 44.3917Z" fill="white"/>
<path fill-rule="evenodd" clip-rule="evenodd" d="M56.7476 38.5738L56.7163 39.5346C56.1206 39.49 55.5587 39.4676 55.0315 39.4676C55.0256 40.0306 55.0227 40.6576 55.0227 41.3487C55.0227 42.4212 55.0391 43.4356 55.0717 44.3917H53.8206C53.8594 43.4447 53.8787 42.4303 53.8787 41.3487C53.8787 40.6696 53.8727 40.0426 53.8609 39.4676C53.4409 39.4676 52.8642 39.4913 52.1315 39.5389L52.1672 38.5738H56.7476Z" fill="white"/>
<path fill-rule="evenodd" clip-rule="evenodd" d="M61.3277 43.4088L61.2922 44.3917H57.4893C57.5281 43.4922 57.5473 42.4777 57.5473 41.3487C57.5475 40.2644 57.5281 39.3395 57.4893 38.5738H61.1179L61.0686 39.5524C60.175 39.5048 59.3645 39.4809 58.6378 39.4809C58.6675 39.8951 58.6824 40.3836 58.6824 40.9465C59.3051 40.9465 59.9708 40.9302 60.6797 40.8975V41.8312C59.9829 41.8014 59.3171 41.7866 58.6824 41.7866C58.6824 42.3915 58.6944 42.9576 58.7183 43.4849C59.5345 43.4849 60.4043 43.4596 61.3277 43.4088Z" fill="white"/>
<path fill-rule="evenodd" clip-rule="evenodd" d="M66.9986 44.3917H65.5014C65.5014 44.2877 65.3317 43.9049 64.992 43.2435C64.6613 42.5969 64.4246 42.1755 64.2814 41.9788H64.2101C64.0818 42.1548 63.8675 42.5673 63.5667 43.2167C63.2566 43.881 63.1018 44.2728 63.1018 44.3917H61.7211C61.7211 44.3026 62.0109 43.8006 62.59 42.8859C63.1696 41.9714 63.5414 41.4336 63.7052 41.2728V41.2057C63.5443 41.0212 63.2269 40.5681 62.7531 39.8473C62.2646 39.0938 62.0204 38.669 62.0204 38.5738H63.4594C63.4594 38.669 63.5978 38.9894 63.8749 39.5346C64.1521 40.0797 64.3471 40.4209 64.4605 40.5577H64.5318C64.6421 40.4178 64.829 40.0768 65.0925 39.5346C65.3564 38.9923 65.488 38.6721 65.488 38.5738H66.8108C66.8108 38.6572 66.5553 39.0707 66.0443 39.814C65.5333 40.5573 65.2064 40.9988 65.0635 41.1387V41.2057C65.2604 41.4202 65.6318 41.9773 66.1784 42.877C66.7252 43.7767 66.9984 44.2819 66.9986 44.3917Z" fill="white"/>
<path fill-rule="evenodd" clip-rule="evenodd" d="M72.3829 44.3917H71.1185C71.1482 43.4059 71.163 42.5509 71.163 41.8269H68.911C68.911 42.4763 68.9259 43.3313 68.9555 44.3917H67.691C67.7299 43.4088 67.749 42.3944 67.749 41.3487C67.749 40.2912 67.7299 39.3663 67.691 38.5738H68.9556C68.92 39.4109 68.9019 40.1854 68.9019 40.8975H71.172C71.172 40.2688 71.1542 39.4942 71.1185 38.5738H72.3829C72.3412 39.3306 72.3205 40.2553 72.3205 41.3487C72.3206 42.4897 72.3412 43.504 72.3829 44.3917Z" fill="white"/>
<path fill-rule="evenodd" clip-rule="evenodd" d="M78.5897 44.3917H77.3253C77.3669 43.9003 77.3879 43.157 77.3879 42.1621C77.3879 41.7599 77.4042 41.1922 77.4368 40.4595H77.3698C77.2655 40.7277 76.7621 41.3949 75.8596 42.4614C75.0431 43.4327 74.635 44.076 74.635 44.3917H73.6699C73.7207 43.6024 73.746 42.6817 73.746 41.6304C73.746 40.5609 73.7205 39.5421 73.6699 38.5738H74.93C74.8883 39.3306 74.8673 40.1481 74.8673 41.027C74.8674 41.4202 74.8466 41.9117 74.805 42.5016H74.8721C74.9971 42.2066 75.5109 41.5319 76.4137 40.4775C77.215 39.5389 77.6156 38.9044 77.6156 38.5738H78.5897C78.5451 39.5421 78.5227 40.5609 78.5227 41.6304C78.5227 42.6817 78.5451 43.6024 78.5897 44.3917Z" fill="white"/>
<path fill-rule="evenodd" clip-rule="evenodd" d="M84.4928 44.3917H83.0895C83.063 44.3471 83.0225 44.246 82.9691 44.0879C82.7249 43.1467 82.4954 42.5404 82.2809 42.2694C82.0664 41.9983 81.7594 41.8627 81.3604 41.8627C81.247 41.8627 81.1564 41.8685 81.0878 41.8805C81.0878 42.7416 81.1041 43.5784 81.1367 44.3917H79.8767C79.9154 43.4922 79.9349 42.4777 79.9349 41.3487C79.9349 40.2644 79.9154 39.3395 79.8767 38.5738H81.1367C81.1042 39.4556 81.0878 40.2584 81.0878 40.9824C81.2099 40.9882 81.3006 40.9911 81.3604 40.9911C82.1766 40.9911 82.7126 40.2779 82.9691 38.8507C82.9869 38.7467 83.0225 38.6542 83.0764 38.5738H84.2828C84.2441 38.6661 84.1843 38.8286 84.1039 39.0609C83.9074 39.7578 83.6966 40.2659 83.4717 40.5846C83.2468 40.9034 82.9438 41.1433 82.5624 41.3042L82.5626 41.3532C82.9587 41.4814 83.2631 41.6945 83.4762 41.9921C83.6892 42.2901 83.9625 42.9261 84.296 43.9003C84.3377 44.0253 84.4032 44.1893 84.4928 44.3917Z" fill="white"/>
<path fill-rule="evenodd" clip-rule="evenodd" d="M88.3401 41.8671C87.831 40.33 87.5761 39.4987 87.5761 39.3737H87.5045C87.5045 39.49 87.2409 40.321 86.7136 41.8671H88.3401ZM90.4046 44.3917H88.9748C88.9748 44.1952 88.8392 43.6381 88.5681 42.7206H86.5035C86.2236 43.6232 86.0834 44.1803 86.0834 44.3917H84.7386C84.7386 44.2757 85.0864 43.3225 85.7818 41.5319C86.4774 39.7415 86.8253 38.7557 86.8253 38.5738H88.5146C88.5146 38.7437 88.8294 39.7155 89.4596 41.4894C90.0895 43.2635 90.4045 44.2311 90.4046 44.3917Z" fill="white"/>
<path fill-rule="evenodd" clip-rule="evenodd" d="M15.32 7.51008H13.9247C13.898 7.46574 13.8579 7.36495 13.8047 7.20801C13.5617 6.27187 13.3335 5.66895 13.1203 5.39925C12.9071 5.1297 12.6018 4.99485 12.2049 4.99485C12.0923 4.99485 12.0019 5.00083 11.9338 5.01264C11.9338 5.86885 11.9501 6.70143 11.9827 7.51008H10.7295C10.768 6.61552 10.7873 5.60667 10.7873 4.48382C10.7873 3.40547 10.768 2.4856 10.7295 1.72421H11.9827C11.9501 2.60112 11.9338 3.39964 11.9338 4.11947C12.0553 4.12545 12.1455 4.12836 12.2049 4.12836C13.0166 4.12836 13.5499 3.41882 13.8047 1.99974C13.8225 1.89603 13.8579 1.80429 13.9113 1.72421H15.1112C15.0727 1.8161 15.0134 1.97749 14.9334 2.20869C14.7379 2.90181 14.5282 3.40701 14.3047 3.72396C14.0808 4.04107 13.7795 4.27948 13.4003 4.43949V4.48827C13.7943 4.61576 14.0972 4.82763 14.309 5.12372C14.5208 5.42011 14.7927 6.05249 15.1245 7.0213C15.1659 7.14572 15.2311 7.30865 15.32 7.51008Z" fill="white"/>
<path fill-rule="evenodd" clip-rule="evenodd" d="M20.4659 1.72421C20.4659 1.8902 20.2755 2.47594 19.8949 3.48172C19.5143 4.48766 19.1432 5.31334 18.7817 5.95921C18.4203 6.60509 18.0486 7.05459 17.6664 7.30788C17.2842 7.56117 16.745 7.68789 16.0488 7.68789L15.9644 6.75911C16.4977 6.75911 16.8909 6.7022 17.1442 6.58806C17.3975 6.47407 17.5968 6.23628 17.7419 5.87483C17.7419 5.67632 17.3878 4.95128 16.6798 3.69957C15.9718 2.44786 15.6177 1.78941 15.6177 1.72421H17.0221C17.0221 1.8072 17.2375 2.30856 17.6686 3.22843C18.0996 4.14831 18.3152 4.67206 18.3152 4.7994H18.364C18.9654 3.11966 19.2662 2.09455 19.2662 1.72421H20.4659Z" fill="white"/>
<path fill-rule="evenodd" clip-rule="evenodd" d="M25.6609 7.51008H24.1723C24.1723 7.40652 24.0034 7.02575 23.6656 6.36806C23.3368 5.72525 23.1013 5.30597 22.9591 5.11037H22.8879C22.7606 5.28526 22.5472 5.69565 22.248 6.34137C21.94 7.00212 21.7859 7.39164 21.7859 7.51008H20.4127C20.4127 7.42125 20.7008 6.92204 21.2771 6.0126C21.8533 5.10301 22.2229 4.56836 22.3858 4.40834V4.34161C22.2258 4.15797 21.9104 3.7077 21.4392 2.99064C20.9534 2.24121 20.7105 1.81902 20.7105 1.72421H22.1414C22.1414 1.81902 22.2792 2.1375 22.5547 2.67967C22.8302 3.22184 23.0241 3.56104 23.1367 3.69727H23.2079C23.3175 3.55812 23.5034 3.21892 23.7656 2.67967C24.0278 2.14042 24.1588 1.82193 24.1588 1.72421H25.4742C25.4742 1.8072 25.2201 2.2182 24.7122 2.95735C24.2041 3.69665 23.879 4.13573 23.7368 4.27503V4.34161C23.9322 4.55501 24.3018 5.10899 24.8455 6.0037C25.389 6.89842 25.6609 7.40054 25.6609 7.51008Z" fill="white"/>
<path fill-rule="evenodd" clip-rule="evenodd" d="M30.4825 4.63948C30.4825 4.0203 30.324 3.51817 30.0069 3.1331C29.6899 2.74788 29.2989 2.55534 28.8337 2.55534C28.4013 2.55534 28.0338 2.74941 27.7318 3.13739C27.4295 3.52569 27.2784 4.01585 27.2784 4.60833C27.2784 5.2246 27.4375 5.72596 27.7562 6.11256C28.0746 6.49917 28.4649 6.69262 28.9272 6.69262C29.3596 6.69262 29.7269 6.49779 30.0293 6.10827C30.3314 5.71859 30.4825 5.22905 30.4825 4.63948ZM31.7089 4.51061C31.7089 5.4202 31.4306 6.17423 30.8735 6.77255C30.3165 7.37102 29.6278 7.67018 28.8072 7.67018C28.0251 7.67018 27.3703 7.39541 26.843 6.84588C26.3156 6.29635 26.0519 5.59786 26.0519 4.75055C26.0519 3.84111 26.3303 3.08707 26.8874 2.4886C27.4444 1.89029 28.1331 1.59098 28.9537 1.59098C29.736 1.59098 30.3906 1.86513 30.9179 2.41312C31.4452 2.96127 31.7089 3.66038 31.7089 4.51061Z" fill="white"/>
<path fill-rule="evenodd" clip-rule="evenodd" d="M37.3573 7.51008H36.0996C36.1291 6.52961 36.144 5.67923 36.144 4.95941H33.9043C33.9043 5.60528 33.9192 6.45551 33.9486 7.51008H32.6912C32.7294 6.53252 32.7489 5.52367 32.7489 4.48382C32.7489 3.43217 32.7294 2.5123 32.6912 1.72421H33.9486C33.913 2.55679 33.8952 3.32693 33.8952 4.03509H36.153C36.153 3.40992 36.1352 2.63963 36.0995 1.72421H37.3573C37.3156 2.4767 37.2949 3.39658 37.2949 4.48382C37.2949 5.61863 37.3156 6.62733 37.3573 7.51008Z" fill="white"/>
<path fill-rule="evenodd" clip-rule="evenodd" d="M43.3029 7.51008H42.0455C42.075 6.52961 42.0899 5.67923 42.0899 4.95941H39.8502C39.8502 5.60528 39.8649 6.45551 39.8945 7.51008H38.637C38.6755 6.53252 38.6946 5.52367 38.6946 4.48382C38.6946 3.43217 38.6755 2.5123 38.6368 1.72421H39.8947C39.8591 2.55679 39.8413 3.32693 39.8413 4.03509H42.0986C42.0986 3.40992 42.0811 2.63963 42.0455 1.72421H43.3029C43.2615 2.4767 43.2408 3.39658 43.2408 4.48382C43.2408 5.61863 43.2615 6.62733 43.3029 7.51008Z" fill="white"/>
<path fill-rule="evenodd" clip-rule="evenodd" d="M50.5244 7.51008H49.2668C49.3053 6.59174 49.3244 5.58304 49.3244 4.48382C49.3244 3.40256 49.3053 2.48269 49.2668 1.72421H50.5244C50.4827 2.47072 50.4622 3.39075 50.4622 4.48382C50.4622 5.60084 50.4827 6.60954 50.5244 7.51008ZM47.5915 5.67478C47.5915 5.32822 47.4522 5.08015 47.1736 4.93041C46.8951 4.78084 46.5693 4.70612 46.196 4.70612C46.0478 4.70597 45.91 4.71349 45.7827 4.72821C45.7827 5.34755 45.7915 5.99327 45.8092 6.66584C45.934 6.68946 46.0509 6.70143 46.1604 6.70143C47.1143 6.70128 47.5915 6.35916 47.5915 5.67478ZM48.7867 5.63044C48.7867 6.25852 48.538 6.73319 48.0402 7.05459C47.5424 7.37615 46.8818 7.53677 46.0582 7.53677C45.7235 7.53677 45.2315 7.52787 44.5829 7.51008C44.6214 6.60355 44.6405 5.59485 44.6405 4.48382C44.6407 3.31373 44.6214 2.39386 44.5829 1.72421H45.8405C45.8228 1.91689 45.8034 2.62782 45.7827 3.85728C45.9722 3.8424 46.1455 3.83503 46.3028 3.83503C47.0166 3.83503 47.6093 3.9751 48.0802 4.25508C48.5512 4.53491 48.7867 4.99347 48.7867 5.63044Z" fill="white"/>
<path fill-rule="evenodd" clip-rule="evenodd" d="M55.6215 6.53252L55.5859 7.51008H51.8042C51.8426 6.61552 51.862 5.60667 51.862 4.48382C51.862 3.40547 51.8426 2.4856 51.8042 1.72421H55.4125L55.3637 2.69747C54.4748 2.65006 53.669 2.62628 52.9461 2.62628C52.9758 3.0382 52.9907 3.52406 52.9907 4.08387C53.6097 4.08387 54.2719 4.06761 54.9771 4.03509V4.96386C54.2838 4.93425 53.6217 4.91937 52.9907 4.91937C52.9907 5.52075 53.0024 6.08363 53.0261 6.608C53.8379 6.608 54.7028 6.58284 55.6215 6.53252Z" fill="white"/>
<path fill-rule="evenodd" clip-rule="evenodd" d="M65.2558 7.51008H63.9626C63.9626 7.00657 63.9313 6.15696 63.8692 4.96156C63.8071 3.76615 63.7744 3.0204 63.7715 2.72416H63.7047C63.6751 2.90181 63.5967 3.23074 63.4694 3.71062C63.3419 4.19065 63.1027 4.89789 62.7517 5.83264C62.4007 6.7674 62.2249 7.32644 62.2249 7.51008H61.2429C61.2429 7.32061 61.0748 6.7562 60.7385 5.817C60.4023 4.87795 60.1822 4.22026 60.0786 3.84393C59.9749 3.46776 59.8919 3.0945 59.8296 2.72416H59.7632C59.76 3.0945 59.7239 3.88842 59.6541 5.10607C59.5846 6.32357 59.5498 7.12501 59.5498 7.51008H58.3768C58.3768 7.42125 58.484 6.53099 58.6988 4.83944C58.9136 3.14774 59.021 2.10943 59.021 1.72421H60.7408C60.7408 2.05604 60.9221 2.78783 61.2851 3.91957C61.6481 5.05115 61.8294 5.77557 61.8294 6.09253H61.8963C61.8963 5.77251 62.1028 5.04686 62.5159 3.91512C62.9295 2.78338 63.1359 2.05313 63.1359 1.72421H64.8425C64.8425 2.3374 64.9113 3.4314 65.0491 5.00605C65.1869 6.58069 65.2556 7.41542 65.2558 7.51008Z" fill="white"/>
<path fill-rule="evenodd" clip-rule="evenodd" d="M70.5707 4.63948C70.5707 4.0203 70.412 3.51817 70.0951 3.1331C69.7781 2.74788 69.3871 2.55534 68.9219 2.55534C68.4893 2.55534 68.122 2.74941 67.8198 3.13739C67.5177 3.52569 67.3666 4.01585 67.3666 4.60833C67.3666 5.2246 67.5258 5.72596 67.8442 6.11256C68.1628 6.49917 68.5531 6.69262 69.0153 6.69262C69.4478 6.69262 69.8152 6.49779 70.1172 6.10827C70.4195 5.71859 70.5707 5.22905 70.5707 4.63948ZM71.7972 4.51061C71.7972 5.4202 71.5184 6.17423 70.9617 6.77255C70.4047 7.37102 69.7157 7.67018 68.8951 7.67018C68.1131 7.67018 67.4582 7.39541 66.9312 6.84588C66.4036 6.29635 66.14 5.59786 66.14 4.75055C66.14 3.84111 66.4185 3.08707 66.9755 2.4886C67.5324 1.89029 68.2213 1.59098 69.0419 1.59098C69.824 1.59098 70.4788 1.86513 71.006 2.41312C71.5333 2.96127 71.7972 3.66038 71.7972 4.51061Z" fill="white"/>
<path fill-rule="evenodd" clip-rule="evenodd" d="M76.9343 0.115521C76.9343 1.03095 76.4084 1.48873 75.3567 1.48873C74.7937 1.48873 74.3759 1.3436 74.1033 1.05319C73.8784 0.81325 73.7657 0.500745 73.7657 0.115521L74.7524 0C74.7524 0.565946 74.9551 0.848842 75.361 0.848842C75.6307 0.848842 75.8033 0.776277 75.8788 0.630994C75.9544 0.485864 75.992 0.275532 75.992 0L76.9343 0.115521ZM77.6719 7.5101H76.4142C76.4556 7.02132 76.4763 6.28217 76.4763 5.29265C76.4763 4.89269 76.4928 4.32828 76.5254 3.59956H76.4587C76.355 3.8662 75.8542 4.52987 74.9566 5.59042C74.1447 6.55617 73.739 7.19621 73.739 7.5101H72.7792C72.8297 6.72508 72.8547 5.80965 72.8547 4.76383C72.8547 3.70036 72.8295 2.68705 72.7791 1.72423H74.0325C73.9907 2.47672 73.97 3.28997 73.97 4.16397C73.97 4.55503 73.9493 5.04381 73.9079 5.63046H73.9746C74.099 5.33714 74.6099 4.6661 75.5075 3.61736C76.3045 2.68414 76.7031 2.05315 76.7031 1.72423H77.6719C77.6276 2.68705 77.6052 3.70036 77.6052 4.76383C77.6052 5.80965 77.6276 6.72508 77.6719 7.5101Z" fill="white"/>
<path fill-rule="evenodd" clip-rule="evenodd" d="M83.5423 7.51008H82.1469C82.1203 7.46574 82.0803 7.36495 82.0269 7.20801C81.7839 6.27187 81.5559 5.66895 81.3427 5.39925C81.1293 5.1297 80.8241 4.99485 80.4272 4.99485C80.3145 4.99485 80.2241 5.00083 80.1561 5.01264C80.1561 5.86885 80.1721 6.70143 80.2048 7.51008H78.9518C78.99 6.61552 79.0095 5.60667 79.0095 4.48382C79.0095 3.40547 78.99 2.4856 78.9518 1.72421H80.2048C80.1723 2.60112 80.1561 3.39964 80.1561 4.11947C80.2775 4.12545 80.3677 4.12836 80.4272 4.12836C81.2388 4.12836 81.7721 3.41882 82.0269 1.99974C82.0447 1.89603 82.0803 1.80429 82.1335 1.72421H83.3334C83.2949 1.8161 83.2356 1.97749 83.1556 2.20869C82.9601 2.90181 82.7504 3.40701 82.5269 3.72396C82.3032 4.04107 82.0016 4.27948 81.6225 4.43949V4.48827C82.0165 4.61576 82.3194 4.82763 82.5313 5.12372C82.7432 5.42011 83.015 6.05249 83.3467 7.0213C83.3883 7.14572 83.4533 7.30865 83.5423 7.51008Z" fill="white"/>
<path fill-rule="evenodd" clip-rule="evenodd" d="M89.2705 7.51008H88.0128C88.0542 7.0213 88.0749 6.28215 88.0749 5.29263C88.0749 4.89267 88.0913 4.32826 88.1237 3.59954H88.0571C87.9536 3.86618 87.4528 4.52985 86.5552 5.5904C85.7435 6.55615 85.3375 7.19619 85.3375 7.51008H84.3778C84.4279 6.72506 84.4533 5.80963 84.4533 4.76381C84.4533 3.70034 84.4279 2.68703 84.3776 1.72421H85.6307C85.5893 2.4767 85.5686 3.28995 85.5686 4.16396C85.5686 4.55501 85.5479 5.04379 85.5064 5.63044H85.573C85.6976 5.33712 86.2085 4.66608 87.1061 3.61734C87.9031 2.68412 88.3013 2.05313 88.3013 1.72421H89.2705C89.226 2.68703 89.2037 3.70034 89.2037 4.76381C89.2037 5.80963 89.2258 6.72506 89.2705 7.51008Z" fill="white"/>
</svg>
