<svg width="14" height="15" viewBox="0 0 14 15" fill="none" xmlns="http://www.w3.org/2000/svg">
<path d="M6.9 4.79004C6.49705 4.79004 6.11836 4.95996 5.83266 5.27051C5.69226 5.42267 5.58093 5.60351 5.50507 5.80261C5.42921 6.00172 5.39032 6.21516 5.39062 6.43066C5.39062 6.86865 5.5483 7.28027 5.83266 7.59082C5.97265 7.74342 6.13902 7.86443 6.32219 7.94689C6.50537 8.02935 6.70174 8.07163 6.9 8.07129C7.30295 8.07129 7.68164 7.8999 7.96734 7.59082C8.25305 7.28027 8.40938 6.86865 8.40938 6.43066C8.40938 5.99268 8.25305 5.58105 7.96734 5.27051C7.68164 4.95996 7.30295 4.79004 6.9 4.79004ZM11.5171 4.23486C11.2634 3.59895 10.8975 3.02317 10.4403 2.54004C9.98154 2.05254 9.44072 1.66561 8.84736 1.40039C8.23014 1.12207 7.57518 0.981445 6.9 0.981445C6.22482 0.981445 5.56986 1.12207 4.95264 1.39893C4.35563 1.66699 3.82061 2.05078 3.35971 2.53857C2.90275 3.02198 2.53698 3.59769 2.28293 4.2334C2.02014 4.89258 1.88672 5.59277 1.88672 6.31348C1.88672 7.34766 2.11447 8.37744 2.56189 9.37061C2.92172 10.1689 3.42439 10.9468 4.05779 11.6865C5.13996 12.9492 6.27469 13.7212 6.59678 13.9277C6.6882 13.9864 6.79247 14.0173 6.89865 14.0171C7.00377 14.0171 7.10754 13.9878 7.20053 13.9277C7.52262 13.7212 8.65734 12.9492 9.73951 11.6865C10.3729 10.9482 10.8756 10.1689 11.2354 9.37061C11.6855 8.37891 11.9133 7.35059 11.9133 6.31494C11.9133 5.59424 11.7799 4.89404 11.5171 4.23486ZM6.9 9.00879C5.59008 9.00879 4.52813 7.85449 4.52813 6.43066C4.52813 5.00684 5.59008 3.85254 6.9 3.85254C8.20992 3.85254 9.27187 5.00684 9.27187 6.43066C9.27187 7.85449 8.20992 9.00879 6.9 9.00879Z" fill="#5D6C7B"/>
</svg>
