<svg width="9" height="11" viewBox="0 0 9 11" fill="none" xmlns="http://www.w3.org/2000/svg">
<path d="M4.5 3.5127C4.17881 3.5127 3.87695 3.6373 3.64922 3.86504C3.53731 3.97663 3.44857 4.10924 3.3881 4.25525C3.32763 4.40126 3.29663 4.55779 3.29688 4.71582C3.29688 5.03701 3.42256 5.33887 3.64922 5.5666C3.76081 5.67851 3.89342 5.76725 4.03943 5.82772C4.18544 5.88819 4.34196 5.91919 4.5 5.91895C4.82119 5.91895 5.12305 5.79326 5.35078 5.5666C5.57852 5.33887 5.70312 5.03701 5.70312 4.71582C5.70312 4.39463 5.57852 4.09277 5.35078 3.86504C5.12305 3.6373 4.82119 3.5127 4.5 3.5127ZM8.18027 3.10557C7.97804 2.63923 7.68645 2.21699 7.32197 1.8627C6.9563 1.5052 6.52521 1.22145 6.05225 1.02695C5.56025 0.822852 5.03818 0.719727 4.5 0.719727C3.96182 0.719727 3.43975 0.822852 2.94775 1.02588C2.47187 1.22246 2.04541 1.50391 1.67803 1.86162C1.31378 2.21612 1.02223 2.6383 0.819726 3.10449C0.610254 3.58789 0.503906 4.10137 0.503906 4.62988C0.503906 5.38828 0.685449 6.14346 1.04209 6.87178C1.32891 7.45723 1.72959 8.02764 2.23447 8.57012C3.09707 9.49609 4.00156 10.0622 4.2583 10.2137C4.33118 10.2567 4.41429 10.2793 4.49893 10.2792C4.58271 10.2792 4.66543 10.2577 4.73955 10.2137C4.99629 10.0622 5.90078 9.49609 6.76338 8.57012C7.26826 8.02871 7.66895 7.45723 7.95576 6.87178C8.31455 6.14453 8.49609 5.39043 8.49609 4.63096C8.49609 4.10244 8.38975 3.58897 8.18027 3.10557ZM4.5 6.60645C3.45586 6.60645 2.60938 5.75996 2.60938 4.71582C2.60938 3.67168 3.45586 2.8252 4.5 2.8252C5.54414 2.8252 6.39062 3.67168 6.39062 4.71582C6.39062 5.75996 5.54414 6.60645 4.5 6.60645Z" fill="#0B4250"/>
</svg>
