<svg width="22" height="22" viewBox="0 0 22 22" fill="none" xmlns="http://www.w3.org/2000/svg">
    <g clip-path="url(#clip0_544_5233)">
        <path
            d="M21.2826 3.10864H0.717406C0.321191 3.10864 0 3.42983 0 3.82605V18.1739C0 18.57 0.321191 18.8913 0.717406 18.8913H21.2826C21.6788 18.8913 22 18.5701 22 18.1739V3.82605C22 3.42983 21.6788 3.10864 21.2826 3.10864ZM20.5652 17.4565H7.65218V16.7391C7.65218 16.3429 7.33098 16.0217 6.93477 16.0217C6.53856 16.0217 6.21736 16.3428 6.21736 16.7391V17.4565H1.43477V4.54341H6.21736V5.26082C6.21736 5.65699 6.53856 5.97822 6.93477 5.97822C7.33098 5.97822 7.65218 5.65703 7.65218 5.26082V4.54341H20.5652V17.4565Z"
            fill="#0b4250" />
        <path
            d="M6.93469 11.4304C6.53852 11.4304 6.21729 11.7516 6.21729 12.1478V14.4435C6.21729 14.8396 6.53848 15.1609 6.93469 15.1609C7.33091 15.1609 7.6521 14.8397 7.6521 14.4435V12.1478C7.6521 11.7517 7.33091 11.4304 6.93469 11.4304Z"
            fill="#0b4250" />
        <path
            d="M6.93469 6.83911C6.53852 6.83911 6.21729 7.1603 6.21729 7.55652V9.85217C6.21729 10.2483 6.53848 10.5696 6.93469 10.5696C7.33091 10.5696 7.6521 10.2484 7.6521 9.85217V7.55652C7.6521 7.1603 7.33091 6.83911 6.93469 6.83911Z"
            fill="#0b4250" />
        <path
            d="M11.2391 5.97827C10.0524 5.97827 9.08691 6.94374 9.08691 8.13045C9.08691 9.31716 10.0524 10.2826 11.2391 10.2826C12.4258 10.2826 13.3913 9.31716 13.3913 8.13045C13.3913 6.94374 12.4258 5.97827 11.2391 5.97827ZM11.2391 8.84785C10.8435 8.84785 10.5217 8.52602 10.5217 8.13045C10.5217 7.73488 10.8435 7.41304 11.2391 7.41304C11.6347 7.41304 11.9565 7.73488 11.9565 8.13045C11.9565 8.52602 11.6347 8.84785 11.2391 8.84785Z"
            fill="#0b4250" />
        <path
            d="M16.9783 11.7174C15.7916 11.7174 14.8262 12.6829 14.8262 13.8696C14.8262 15.0563 15.7916 16.0218 16.9783 16.0218C18.1651 16.0218 19.1305 15.0563 19.1305 13.8696C19.1305 12.6829 18.1651 11.7174 16.9783 11.7174ZM16.9783 14.5869C16.5828 14.5869 16.2609 14.2651 16.2609 13.8695C16.2609 13.474 16.5828 13.1521 16.9783 13.1521C17.3739 13.1521 17.6958 13.474 17.6958 13.8695C17.6958 14.2652 17.3739 14.5869 16.9783 14.5869Z"
            fill="#0b4250" />
        <path
            d="M17.6595 7.4495C17.3794 7.16934 16.9251 7.16934 16.645 7.4495L10.5577 13.5368C10.2776 13.8169 10.2776 14.2711 10.5577 14.5513C10.6978 14.6914 10.8814 14.7614 11.065 14.7614C11.2486 14.7614 11.4322 14.6914 11.5722 14.5513L17.6595 8.46403C17.9396 8.18388 17.9396 7.72965 17.6595 7.4495Z"
            fill="#0b4250" />
    </g>
    <defs>
        <clipPath id="clip0_544_5233">
            <rect width="22" height="22" fill="white" />
        </clipPath>
    </defs>
</svg>