<svg width="25" height="25" viewBox="0 0 25 25" fill="none" xmlns="http://www.w3.org/2000/svg">
<g clip-path="url(#clip0_544_3846)">
<path fill-rule="evenodd" clip-rule="evenodd" d="M10.705 3.51505L12.4023 4.37775V0H8.34961V4.37775L10.0452 3.51601C10.2453 3.41454 10.4893 3.40633 10.705 3.51505Z" fill="#5D6C7B"/>
<path fill-rule="evenodd" clip-rule="evenodd" d="M20.752 8.84953V0.732422C20.752 0.327873 20.4241 0 20.0195 0H13.8672V5.56946C13.8672 6.09608 13.3053 6.50139 12.7565 6.19659L10.376 4.98695L7.94621 6.22177C7.4585 6.46877 6.8861 6.10828 6.88648 5.56946L6.88477 0H0.732422C0.327873 0 0 0.327873 0 0.732422V20.0195C0 20.4241 0.327873 20.752 0.732422 20.752H8.84953C7.94601 18.5257 7.95555 16.0494 8.8747 13.8306C10.7967 9.19018 16.0976 6.96068 20.752 8.84953Z" fill="#5D6C7B"/>
<path fill-rule="evenodd" clip-rule="evenodd" d="M22.751 11.8925C21.3615 10.503 19.442 9.64355 17.3218 9.64355C15.2016 9.64355 13.282 10.503 11.8925 11.8925C10.503 13.282 9.64355 15.2016 9.64355 17.3218C9.64355 19.442 10.503 21.3615 11.8925 22.751C13.282 24.1405 15.2016 25 17.3218 25C19.442 25 21.3615 24.1405 22.751 22.751C24.1405 21.3615 25 19.442 25 17.3218C25 15.2016 24.1405 13.282 22.751 11.8925ZM20.4094 19.726C19.8967 20.2387 19.1885 20.5566 18.408 20.5566H14.9902C14.5857 20.5566 14.2578 20.2288 14.2578 19.8242C14.2578 19.4197 14.5857 19.0918 14.9902 19.0918H18.408C19.1603 19.0918 19.7754 18.4767 19.7754 17.7244C19.7754 17.3176 19.6484 16.9847 19.3737 16.7103C19.1259 16.4623 18.7841 16.3086 18.408 16.3086H16.3677L16.8028 16.7429C17.0889 17.0273 17.0902 17.4898 16.8058 17.7757C16.5215 18.0618 16.0589 18.063 15.773 17.7786L14.09 16.0988C13.8039 15.8144 13.8027 15.3521 14.0871 15.066L15.7669 13.3831C16.0513 13.0972 16.5136 13.0959 16.7997 13.3802C17.0856 13.6646 17.087 14.127 16.8026 14.4131L16.3727 14.8438H18.408C19.969 14.8438 21.2402 16.115 21.2402 17.676C21.2402 18.4889 20.9484 19.187 20.4094 19.726Z" fill="#5D6C7B"/>
</g>
<defs>
<clipPath id="clip0_544_3846">
<rect width="25" height="25" fill="white"/>
</clipPath>
</defs>
</svg>
