<svg width="15" height="15" viewBox="0 0 15 15" fill="none" xmlns="http://www.w3.org/2000/svg">
<g clip-path="url(#clip0_704_5671)">
<path d="M8.75 4.275H6.5625C6.33477 4.275 6.15 4.45977 6.15 4.6875V8.65H4.6875C4.45977 8.65 4.275 8.83477 4.275 9.0625C4.275 9.29023 4.45977 9.475 4.6875 9.475H6.15V10.3125C6.15 10.5402 6.33477 10.725 6.5625 10.725C6.79023 10.725 6.975 10.5402 6.975 10.3125V9.475H8.4375C8.66523 9.475 8.85 9.29023 8.85 9.0625C8.85 8.83477 8.66523 8.65 8.4375 8.65H6.975V8.225H8.75C9.83898 8.225 10.725 7.33898 10.725 6.25C10.725 5.16102 9.83898 4.275 8.75 4.275ZM8.75 7.4H6.975V5.1H8.75C9.38415 5.1 9.9 5.61585 9.9 6.25C9.9 6.88415 9.38415 7.4 8.75 7.4Z" fill="white" stroke="white" stroke-width="0.2"/>
<path d="M7.5 0.525C3.65415 0.525 0.525 3.65415 0.525 7.5C0.525 11.3459 3.65415 14.475 7.5 14.475C11.3459 14.475 14.475 11.3459 14.475 7.5C14.475 3.65415 11.3459 0.525 7.5 0.525ZM7.5 13.65C4.10898 13.65 1.35 10.891 1.35 7.5C1.35 4.10898 4.10898 1.35 7.5 1.35C10.891 1.35 13.65 4.10898 13.65 7.5C13.65 10.891 10.891 13.65 7.5 13.65Z" fill="white" stroke="white" stroke-width="0.2"/>
</g>
<defs>
<clipPath id="clip0_704_5671">
<rect width="15" height="15" fill="white"/>
</clipPath>
</defs>
</svg>
