<svg width="25" height="25" viewBox="0 0 25 25" fill="none" xmlns="http://www.w3.org/2000/svg">
    <g clip-path="url(#clip0_320_2875)">
        <path
            d="M25 12.5002C25 5.596 19.4035 0 12.5002 0C5.5965 0 0 5.596 0 12.5002C0 19.4032 5.5965 24.9997 12.5002 24.9997C19.4035 24.9997 25 19.4032 25 12.5002Z"
            fill="#5D6C7B" />
        <path
            d="M8 9.58915C8 9.04538 8.18297 8.49437 8.54899 7.93625C8.91489 7.37814 9.44901 6.91592 10.151 6.54952C10.853 6.18324 11.672 6 12.608 6C13.4779 6 14.246 6.15323 14.912 6.45937C15.578 6.76566 16.0924 7.18212 16.4555 7.7087C16.8185 8.23544 17 8.80778 17 9.426C17 9.9126 16.8965 10.3391 16.6895 10.7054C16.4825 11.0718 16.2364 11.388 15.9515 11.6542C15.6664 11.9204 15.1549 12.3683 14.417 12.998C14.2129 13.1755 14.0493 13.3315 13.9265 13.466C13.8034 13.6005 13.7119 13.7236 13.6519 13.8352C13.5919 13.9468 13.5453 14.0584 13.5124 14.1701C13.4794 14.2816 13.4299 14.4778 13.364 14.7582C13.2499 15.3536 12.8929 15.6513 12.293 15.6513C11.9809 15.6513 11.7184 15.554 11.5055 15.3593C11.2924 15.1647 11.186 14.8756 11.186 14.4921C11.186 14.0112 11.2639 13.5948 11.42 13.2427C11.576 12.8906 11.7829 12.5815 12.041 12.3154C12.2989 12.0492 12.6469 11.733 13.085 11.3666C13.4689 11.0461 13.7465 10.8042 13.9175 10.641C14.0885 10.4779 14.2325 10.2962 14.3495 10.0958C14.4665 9.89545 14.525 9.67798 14.525 9.44319C14.525 8.98527 14.3464 8.59891 13.9895 8.28401C13.6324 7.96928 13.1719 7.81175 12.608 7.81175C11.9479 7.81175 11.4619 7.9706 11.15 8.28831C10.8379 8.60602 10.574 9.07398 10.358 9.6922C10.1539 10.3391 9.7669 10.6625 9.19694 10.6625C8.86082 10.6625 8.57734 10.5495 8.34644 10.3233C8.11547 10.0972 8 9.8525 8 9.58915ZM12.392 19C12.0259 19 11.7065 18.8869 11.4335 18.6608C11.1604 18.4348 11.024 18.1185 11.024 17.712C11.024 17.3514 11.1559 17.048 11.42 16.8018C11.6839 16.5558 12.0079 16.4326 12.392 16.4326C12.77 16.4326 13.0879 16.5558 13.346 16.8018C13.6039 17.048 13.733 17.3514 13.733 17.712C13.733 18.1128 13.598 18.4276 13.328 18.6565C13.0579 18.8855 12.746 19 12.392 19Z"
            fill="white" />
    </g>
    <defs>
        <clipPath id="clip0_320_2875">
            <rect width="25" height="25" fill="white" />
        </clipPath>
    </defs>
</svg>