<svg width="23" height="18" viewBox="0 0 23 18" fill="none" xmlns="http://www.w3.org/2000/svg">
<path d="M1.76923 0H3.53846C4.00769 0 4.45778 0.189668 4.78958 0.527234C5.12137 0.864799 5.30769 1.32261 5.30769 1.8C5.30769 2.27739 5.12137 2.7352 4.78958 3.07277C4.45778 3.41033 4.00769 3.6 3.53846 3.6H1.76923C1.3 3.6 0.849908 3.41033 0.518113 3.07277C0.186318 2.7352 0 2.27739 0 1.8C0 1.32261 0.186318 0.864799 0.518113 0.527234C0.849908 0.189668 1.3 0 1.76923 0ZM10.6154 0H21.2308C21.7 0 22.1501 0.189668 22.4819 0.527234C22.8137 0.864799 23 1.32261 23 1.8C23 2.27739 22.8137 2.7352 22.4819 3.07277C22.1501 3.41033 21.7 3.6 21.2308 3.6H10.6154C10.1462 3.6 9.69606 3.41033 9.36427 3.07277C9.03247 2.7352 8.84615 2.27739 8.84615 1.8C8.84615 1.32261 9.03247 0.864799 9.36427 0.527234C9.69606 0.189668 10.1462 0 10.6154 0ZM1.76923 7.2H3.53846C4.00769 7.2 4.45778 7.38967 4.78958 7.72723C5.12137 8.0648 5.30769 8.52261 5.30769 9C5.30769 9.47739 5.12137 9.9352 4.78958 10.2728C4.45778 10.6103 4.00769 10.8 3.53846 10.8H1.76923C1.3 10.8 0.849908 10.6103 0.518113 10.2728C0.186318 9.9352 0 9.47739 0 9C0 8.52261 0.186318 8.0648 0.518113 7.72723C0.849908 7.38967 1.3 7.2 1.76923 7.2ZM10.6154 7.2H21.2308C21.7 7.2 22.1501 7.38967 22.4819 7.72723C22.8137 8.0648 23 8.52261 23 9C23 9.47739 22.8137 9.9352 22.4819 10.2728C22.1501 10.6103 21.7 10.8 21.2308 10.8H10.6154C10.1462 10.8 9.69606 10.6103 9.36427 10.2728C9.03247 9.9352 8.84615 9.47739 8.84615 9C8.84615 8.52261 9.03247 8.0648 9.36427 7.72723C9.69606 7.38967 10.1462 7.2 10.6154 7.2ZM1.76923 14.4H3.53846C4.00769 14.4 4.45778 14.5897 4.78958 14.9272C5.12137 15.2648 5.30769 15.7226 5.30769 16.2C5.30769 16.6774 5.12137 17.1352 4.78958 17.4728C4.45778 17.8103 4.00769 18 3.53846 18H1.76923C1.3 18 0.849908 17.8103 0.518113 17.4728C0.186318 17.1352 0 16.6774 0 16.2C0 15.7226 0.186318 15.2648 0.518113 14.9272C0.849908 14.5897 1.3 14.4 1.76923 14.4ZM10.6154 14.4H21.2308C21.7 14.4 22.1501 14.5897 22.4819 14.9272C22.8137 15.2648 23 15.7226 23 16.2C23 16.6774 22.8137 17.1352 22.4819 17.4728C22.1501 17.8103 21.7 18 21.2308 18H10.6154C10.1462 18 9.69606 17.8103 9.36427 17.4728C9.03247 17.1352 8.84615 16.6774 8.84615 16.2C8.84615 15.7226 9.03247 15.2648 9.36427 14.9272C9.69606 14.5897 10.1462 14.4 10.6154 14.4Z" fill="white"/>
</svg>
