<svg width="109" height="109" viewBox="0 0 109 109" fill="none" xmlns="http://www.w3.org/2000/svg">
<path d="M54.5655 -2.37941e-06C29.1684 -3.48955e-06 6.51051 18.2314 1.19781 43.0574C-1.45647 55.4621 0.331586 68.6528 6.25329 79.8785C11.9525 90.6793 21.296 99.411 32.4748 104.359C44.1027 109.506 57.4519 110.403 69.6735 106.893C81.4641 103.507 91.9185 96.0769 99.0359 86.1023C113.917 65.2492 111.928 35.9587 94.4198 17.2718C84.1601 6.31968 69.5845 -1.7229e-06 54.5655 -2.37941e-06ZM57.5131 28.392L72.7519 43.6129C76.556 47.4108 70.6565 53.3042 66.8524 49.5035L59.1983 41.8576L59.1983 77.2095C59.1983 79.7313 57.089 81.8365 54.5641 81.8365C52.0391 81.8365 49.9299 79.7313 49.9299 77.2095L49.9299 41.6813L42.2424 49.1771C38.4021 52.9251 32.5568 46.9789 36.4152 43.2157L51.6512 28.3573C53.2835 26.7632 55.8975 26.7784 57.5131 28.392Z" fill="#537CE5"/>
</svg>
