<svg width="100" height="100" viewBox="0 0 100 100" fill="none" xmlns="http://www.w3.org/2000/svg">
<g clip-path="url(#clip0_288_2770)">
<path d="M50 100C77.6142 100 100 77.6142 100 50C100 22.3858 77.6142 0 50 0C22.3858 0 0 22.3858 0 50C0 77.6142 22.3858 100 50 100Z" fill="#F0F0F0"/>
<path d="M99.9999 50C99.9999 28.5018 86.4312 10.1746 67.3911 3.10999V96.8903C86.4312 89.8254 99.9999 71.4983 99.9999 50Z" fill="#D80027"/>
<path d="M0 50C0 71.4983 13.5687 89.8254 32.6088 96.8901V3.10999C13.5687 10.1746 0 28.5018 0 50Z" fill="#6DA544"/>
</g>
<defs>
<clipPath id="clip0_288_2770">
<rect width="100" height="100" fill="white"/>
</clipPath>
</defs>
</svg>
