<svg width="69" height="69" viewBox="0 0 69 69" fill="none" xmlns="http://www.w3.org/2000/svg">
<g clip-path="url(#clip0_346_3889)">
<path d="M34.5 69C53.5538 69 69 53.5538 69 34.5C69 15.4462 53.5538 0 34.5 0C15.4462 0 0 15.4462 0 34.5C0 53.5538 15.4462 69 34.5 69Z" fill="#F0F0F0"/>
<path d="M66.8541 46.4999C68.241 42.7624 69 38.72 69 34.4999C69 30.2799 68.241 26.2375 66.8541 22.5H2.14587C0.759135 26.2375 0 30.2799 0 34.4999C0 38.72 0.759135 42.7624 2.14587 46.4999L34.5 49.4999L66.8541 46.4999Z" fill="#0052B4"/>
<path d="M34.5 69.0001C49.3338 69.0001 61.9795 59.6376 66.8541 46.5H2.14587C7.02048 59.6376 19.6662 69.0001 34.5 69.0001Z" fill="#D80027"/>
</g>
<defs>
<clipPath id="clip0_346_3889">
<rect width="69" height="69" fill="white"/>
</clipPath>
</defs>
</svg>
