<svg width="243" height="427" viewBox="0 0 243 427" fill="none" xmlns="http://www.w3.org/2000/svg">
<path fill-rule="evenodd" clip-rule="evenodd" d="M210.703 36.3556C208.218 33.6361 206.976 29.6806 206.976 24.4889C206.976 19.05 208.218 15.0944 210.703 12.6222C212.939 9.90278 216.17 8.66666 219.897 8.66666C223.624 8.66666 226.855 10.15 229.091 12.6222C231.327 15.3417 232.57 19.2972 232.57 24.4889C232.57 29.6806 231.576 33.6361 229.091 36.3556C226.606 39.075 223.624 40.3111 219.897 40.3111C216.17 40.3111 213.188 39.075 210.703 36.3556ZM199.521 12.8694C198.279 16.0833 197.533 20.0389 197.533 24.7361C197.533 31.9056 199.521 37.8389 203.497 42.0417C207.473 46.2444 212.939 48.2222 219.897 48.2222C226.606 48.2222 232.073 45.9972 236.297 41.7944C240.273 37.5917 242.261 31.9056 242.261 24.4889C242.261 17.0722 240.024 11.1389 236.048 6.93611C231.824 2.73333 226.358 0.755554 219.648 0.755554C215.921 0.755554 212.691 1.25 209.709 2.48611C207.473 3.475 205.485 4.95833 203.745 6.68889C202.006 8.41944 200.515 10.6444 199.521 12.8694ZM157.527 1.49722V47.2333H166.97V33.3889L174.424 25.725L187.345 47.2333H199.273L180.885 19.2972L198.279 1.49722H185.855L166.97 21.7694V1.49722H157.527ZM120.503 31.4111L111.558 32.4C112.303 37.5917 114.042 41.5472 117.024 44.2667C120.255 46.9861 124.727 48.2222 130.442 48.2222C134.418 48.2222 137.648 47.7278 140.382 46.4917C143.115 45.2556 145.103 43.525 146.594 41.3C148.085 39.075 148.83 36.6028 148.83 33.8833C148.83 30.9167 148.333 28.4444 147.091 26.4667C145.848 24.4889 144.109 23.0056 141.873 21.7694C139.885 20.7806 136.406 19.5444 131.933 18.5556C127.461 17.5667 124.727 16.5778 123.485 15.5889C122.491 14.8472 121.994 13.8583 121.994 12.8694C121.994 11.8806 122.491 10.8917 123.485 10.15C125.224 8.91389 127.212 8.41944 129.945 8.41944C132.679 8.41944 134.667 8.91389 135.909 9.90278C137.151 11.1389 137.897 12.6222 138.394 15.0944L147.588 14.6C147.339 10.3972 145.848 6.93611 142.867 4.46389C139.885 1.99167 135.412 0.755554 129.697 0.755554C126.218 0.755554 123.236 1.25 120.751 2.23889C118.267 3.475 116.279 4.95833 115.036 6.93611C113.794 9.16111 113.048 11.3861 113.048 13.6111C113.048 17.0722 114.539 20.2861 117.273 22.7583C119.261 24.4889 122.739 25.9722 127.709 27.2083C128.819 27.4845 129.813 27.7221 130.691 27.9318C132.956 28.4734 134.447 28.8297 135.164 29.1861C136.655 29.6805 137.648 30.4222 138.394 31.1639C139.139 31.9056 139.388 32.8944 139.388 33.8833C139.388 35.6139 138.642 37.0972 137.151 38.3333C135.661 39.5694 133.424 40.3111 130.442 40.3111C127.709 40.3111 125.473 39.5694 123.733 38.0861C122.242 36.6028 121 34.3778 120.503 31.4111ZM87.4545 12.1278L93.9151 29.1861H81.2424L87.4545 12.1278ZM100.873 47.2333H111.061L92.6727 1.49722H82.7333L64.8424 47.2333H74.7818L78.5091 36.85H96.8969L100.873 47.2333ZM12.1636 29.9278H34.2788L34.7757 46.2444C41.2363 46.4917 44.2181 43.0306 46.206 39.075V1.99167H10.6727C1.79364 1.99167 0.562515 10.9842 0.264782 13.1589C0.254223 13.2361 0.244839 13.3046 0.236328 13.3639H34.5272C34.3066 13.6932 34.2329 14.0712 34.1539 14.4763C34.055 14.9836 33.9478 15.5335 33.5333 16.0833C32.6082 17.1878 30.7189 17.881 30.2243 18.0611H9.67875C4.70905 18.5556 0.484813 23.7472 0.484813 25.725V46.4917H19.3697C26.5757 46.4917 30.0545 34.625 28.8121 34.625H12.1636V29.9278ZM30.2243 18.0611H30.303C30.166 18.0952 30.1045 18.1105 30.1036 18.1076C30.1029 18.1053 30.1421 18.091 30.2131 18.0652L30.2134 18.0651L30.2137 18.065L30.2137 18.065L30.2243 18.0611ZM34.2788 107.928H12.1636V112.625H28.8121C30.0545 112.625 26.5757 124.492 19.3697 124.492H0.484813V103.725C0.484813 101.747 4.70905 96.5556 9.67875 96.0612H30.2243L30.214 96.0649L30.2119 96.0657C30.1705 96.0808 30.14 96.0919 30.1221 96.0989C30.1097 96.1038 30.1033 96.1067 30.1036 96.1077C30.1045 96.1105 30.1652 96.0954 30.3004 96.0618L30.3015 96.0615L30.3027 96.0612L30.303 96.0612H30.2243C30.7189 95.8811 32.6082 95.1878 33.5333 94.0834C33.9478 93.5335 34.055 92.9837 34.1539 92.4763C34.2329 92.0712 34.3066 91.6932 34.5272 91.3639H0.236328C0.244839 91.3047 0.254224 91.2361 0.264782 91.159C0.562516 88.9842 1.79364 79.9917 10.6727 79.9917H46.206V117.075C44.2181 121.031 41.2363 124.492 34.7757 124.244L34.2788 107.928ZM210.703 114.356C208.218 111.636 206.976 107.681 206.976 102.489C206.976 97.05 208.218 93.0945 210.703 90.6223C212.939 87.9028 216.17 86.6667 219.897 86.6667C223.624 86.6667 226.855 88.15 229.091 90.6223C231.327 93.3417 232.57 97.2973 232.57 102.489C232.57 107.681 231.576 111.636 229.091 114.356C226.606 117.075 223.624 118.311 219.897 118.311C216.17 118.311 213.188 117.075 210.703 114.356ZM199.521 90.8695C198.279 94.0834 197.533 98.0389 197.533 102.736C197.533 109.906 199.521 115.839 203.497 120.042C207.473 124.244 212.939 126.222 219.897 126.222C226.606 126.222 232.073 123.997 236.297 119.794C240.273 115.592 242.261 109.906 242.261 102.489C242.261 95.0723 240.024 89.1389 236.048 84.9362C231.824 80.7334 226.358 78.7556 219.648 78.7556C215.921 78.7556 212.691 79.25 209.709 80.4862C207.473 81.475 205.485 82.9584 203.745 84.6889C202.006 86.4195 200.515 88.6445 199.521 90.8695ZM157.527 79.4973V125.233H166.97V111.389L174.424 103.725L187.345 125.233H199.273L180.885 97.2973L198.279 79.4973H185.855L166.97 99.7695V79.4973H157.527ZM120.503 109.411L111.558 110.4C112.303 115.592 114.042 119.547 117.024 122.267C120.255 124.986 124.727 126.222 130.442 126.222C134.418 126.222 137.648 125.728 140.382 124.492C143.115 123.256 145.103 121.525 146.594 119.3C148.085 117.075 148.83 114.603 148.83 111.883C148.83 108.917 148.333 106.444 147.091 104.467C145.848 102.489 144.109 101.006 141.873 99.7695C139.885 98.7806 136.406 97.5445 131.933 96.5556C127.461 95.5667 124.727 94.5778 123.485 93.5889C122.491 92.8473 121.994 91.8584 121.994 90.8695C121.994 89.8806 122.491 88.8917 123.485 88.15C125.224 86.9139 127.212 86.4195 129.945 86.4195C132.679 86.4195 134.667 86.9139 135.909 87.9028C137.151 89.1389 137.897 90.6223 138.394 93.0945L147.588 92.6C147.339 88.3973 145.848 84.9362 142.867 82.4639C139.885 79.9917 135.412 78.7556 129.697 78.7556C126.218 78.7556 123.236 79.25 120.751 80.2389C118.267 81.475 116.279 82.9584 115.036 84.9362C113.794 87.1612 113.048 89.3862 113.048 91.6112C113.048 95.0723 114.539 98.2862 117.273 100.758C119.261 102.489 122.739 103.972 127.709 105.208C128.819 105.485 129.813 105.722 130.691 105.932C132.956 106.473 134.447 106.83 135.164 107.186C136.655 107.681 137.648 108.422 138.394 109.164C139.139 109.906 139.388 110.894 139.388 111.883C139.388 113.614 138.642 115.097 137.151 116.333C135.661 117.569 133.424 118.311 130.442 118.311C127.709 118.311 125.473 117.569 123.733 116.086C122.242 114.603 121 112.378 120.503 109.411ZM87.4545 90.1278L93.9151 107.186H81.2424L87.4545 90.1278ZM100.873 125.233H111.061L92.6727 79.4973H82.7333L64.8424 125.233H74.7818L78.5091 114.85H96.8969L100.873 125.233ZM34.2788 185.928H12.1636V190.625H28.8121C30.0545 190.625 26.5757 202.492 19.3697 202.492H0.484813V181.725C0.484813 179.747 4.70905 174.556 9.67875 174.061H30.2243L30.2166 174.064C30.1841 174.076 30.158 174.085 30.1391 174.092C30.1155 174.101 30.1032 174.106 30.1036 174.108C30.1045 174.111 30.1659 174.095 30.3027 174.061L30.303 174.061H30.2243C30.7189 173.881 32.6082 173.188 33.5333 172.083C33.9478 171.534 34.055 170.984 34.1539 170.476C34.2329 170.071 34.3066 169.693 34.5272 169.364H0.236328C0.244838 169.305 0.254223 169.236 0.264782 169.159C0.562514 166.984 1.79364 157.992 10.6727 157.992H46.206V195.075C44.2181 199.031 41.2363 202.492 34.7757 202.244L34.2788 185.928ZM210.703 192.356C208.218 189.636 206.976 185.681 206.976 180.489C206.976 175.05 208.218 171.094 210.703 168.622C212.939 165.903 216.17 164.667 219.897 164.667C223.624 164.667 226.855 166.15 229.091 168.622C231.327 171.342 232.57 175.297 232.57 180.489C232.57 185.681 231.576 189.636 229.091 192.356C226.606 195.075 223.624 196.311 219.897 196.311C216.17 196.311 213.188 195.075 210.703 192.356ZM199.521 168.869C198.279 172.083 197.533 176.039 197.533 180.736C197.533 187.906 199.521 193.839 203.497 198.042C207.473 202.244 212.939 204.222 219.897 204.222C226.606 204.222 232.073 201.997 236.297 197.794C240.273 193.592 242.261 187.906 242.261 180.489C242.261 173.072 240.024 167.139 236.048 162.936C231.824 158.733 226.358 156.756 219.648 156.756C215.921 156.756 212.691 157.25 209.709 158.486C207.473 159.475 205.485 160.958 203.745 162.689C202.006 164.419 200.515 166.644 199.521 168.869ZM157.527 157.497V203.233H166.97V189.389L174.424 181.725L187.345 203.233H199.273L180.885 175.297L198.279 157.497H185.855L166.97 177.769V157.497H157.527ZM120.503 187.411L111.558 188.4C112.303 193.592 114.042 197.547 117.024 200.267C120.255 202.986 124.727 204.222 130.442 204.222C134.418 204.222 137.648 203.728 140.382 202.492C143.115 201.256 145.103 199.525 146.594 197.3C148.085 195.075 148.83 192.603 148.83 189.883C148.83 186.917 148.333 184.444 147.091 182.467C145.848 180.489 144.109 179.006 141.873 177.769C139.885 176.781 136.406 175.544 131.933 174.556C127.461 173.567 124.727 172.578 123.485 171.589C122.491 170.847 121.994 169.858 121.994 168.869C121.994 167.881 122.491 166.892 123.485 166.15C125.224 164.914 127.212 164.419 129.945 164.419C132.679 164.419 134.667 164.914 135.909 165.903C137.151 167.139 137.897 168.622 138.394 171.094L147.588 170.6C147.339 166.397 145.848 162.936 142.867 160.464C139.885 157.992 135.412 156.756 129.697 156.756C126.218 156.756 123.236 157.25 120.751 158.239C118.267 159.475 116.279 160.958 115.036 162.936C113.794 165.161 113.048 167.386 113.048 169.611C113.048 173.072 114.539 176.286 117.273 178.758C119.261 180.489 122.739 181.972 127.709 183.208C128.819 183.484 129.813 183.722 130.691 183.932L130.691 183.932C132.956 184.473 134.447 184.83 135.164 185.186C136.655 185.681 137.648 186.422 138.394 187.164C139.139 187.906 139.388 188.894 139.388 189.883C139.388 191.614 138.642 193.097 137.151 194.333C135.661 195.569 133.424 196.311 130.442 196.311C127.709 196.311 125.473 195.569 123.733 194.086C122.242 192.603 121 190.378 120.503 187.411ZM87.4545 168.128L93.9151 185.186H81.2424L87.4545 168.128ZM100.873 203.233H111.061L92.6727 157.497H82.7333L64.8424 203.233H74.7818L78.5091 192.85H96.8969L100.873 203.233ZM34.2788 263.928H12.1636V268.625H28.8121C30.0545 268.625 26.5757 280.492 19.3697 280.492H0.484813V259.725C0.484813 257.747 4.70905 252.556 9.67875 252.061H30.2243L30.214 252.065C30.1424 252.091 30.1029 252.105 30.1036 252.108C30.1045 252.111 30.1659 252.095 30.3027 252.061L30.303 252.061H30.2243C30.7189 251.881 32.6082 251.188 33.5333 250.083C33.9478 249.534 34.055 248.984 34.1539 248.476C34.2329 248.071 34.3066 247.693 34.5272 247.364H0.236328C0.244838 247.305 0.254223 247.236 0.264782 247.159C0.562514 244.984 1.79364 235.992 10.6727 235.992H46.206V273.075C44.2181 277.031 41.2363 280.492 34.7757 280.245L34.2788 263.928ZM210.703 270.356C208.218 267.636 206.976 263.681 206.976 258.489C206.976 253.05 208.218 249.095 210.703 246.622C212.939 243.903 216.17 242.667 219.897 242.667C223.624 242.667 226.855 244.15 229.091 246.622C231.327 249.342 232.57 253.297 232.57 258.489C232.57 263.681 231.576 267.636 229.091 270.356C226.606 273.075 223.624 274.311 219.897 274.311C216.17 274.311 213.188 273.075 210.703 270.356ZM199.521 246.87C198.279 250.083 197.533 254.039 197.533 258.736C197.533 265.906 199.521 271.839 203.497 276.042C207.473 280.245 212.939 282.222 219.897 282.222C226.606 282.222 232.073 279.997 236.297 275.795C240.273 271.592 242.261 265.906 242.261 258.489C242.261 251.072 240.024 245.139 236.048 240.936C231.824 236.733 226.358 234.756 219.648 234.756C215.921 234.756 212.691 235.25 209.709 236.486C207.473 237.475 205.485 238.958 203.745 240.689C202.006 242.42 200.515 244.645 199.521 246.87ZM157.527 235.497V281.233H166.97V267.389L174.424 259.725L187.345 281.233H199.273L180.885 253.297L198.279 235.497H185.855L166.97 255.77V235.497H157.527ZM120.503 265.411L111.558 266.4C112.303 271.592 114.042 275.547 117.024 278.267C120.255 280.986 124.727 282.222 130.442 282.222C134.418 282.222 137.648 281.728 140.382 280.492C143.115 279.256 145.103 277.525 146.594 275.3C148.085 273.075 148.83 270.603 148.83 267.883C148.83 264.917 148.333 262.445 147.091 260.467C145.848 258.489 144.109 257.006 141.873 255.77C139.885 254.781 136.406 253.545 131.933 252.556C127.461 251.567 124.727 250.578 123.485 249.589C122.491 248.847 121.994 247.858 121.994 246.87C121.994 245.881 122.491 244.892 123.485 244.15C125.224 242.914 127.212 242.42 129.945 242.42C132.679 242.42 134.667 242.914 135.909 243.903C137.151 245.139 137.897 246.622 138.394 249.095L147.588 248.6C147.339 244.397 145.848 240.936 142.867 238.464C139.885 235.992 135.412 234.756 129.697 234.756C126.218 234.756 123.236 235.25 120.751 236.239C118.267 237.475 116.279 238.958 115.036 240.936C113.794 243.161 113.048 245.386 113.048 247.611C113.048 251.072 114.539 254.286 117.273 256.758C119.261 258.489 122.739 259.972 127.709 261.208C128.816 261.484 129.807 261.721 130.682 261.93L130.688 261.931L130.691 261.932L130.691 261.932L130.693 261.932L130.694 261.933L130.696 261.933C132.959 262.474 134.448 262.83 135.164 263.186C136.655 263.681 137.648 264.422 138.394 265.164C139.139 265.906 139.388 266.895 139.388 267.883C139.388 269.614 138.642 271.097 137.151 272.333C135.661 273.57 133.424 274.311 130.442 274.311C127.709 274.311 125.473 273.57 123.733 272.086C122.242 270.603 121 268.378 120.503 265.411ZM87.4545 246.128L93.9151 263.186H81.2424L87.4545 246.128ZM100.873 281.233H111.061L92.6727 235.497H82.7333L64.8424 281.233H74.7818L78.5091 270.85H96.8969L100.873 281.233ZM34.2788 341.928H12.1636V346.625H28.8121C30.0545 346.625 26.5757 358.492 19.3697 358.492H0.484813V337.725C0.484813 335.747 4.70905 330.556 9.67875 330.061H30.2243C30.1462 330.09 30.1029 330.105 30.1036 330.108C30.1045 330.111 30.1659 330.095 30.303 330.061H30.2243C30.7189 329.881 32.6082 329.188 33.5333 328.083C33.9478 327.534 34.055 326.984 34.1539 326.476C34.2329 326.071 34.3066 325.693 34.5272 325.364H0.236328C0.244838 325.305 0.254223 325.236 0.264782 325.159C0.562514 322.984 1.79364 313.992 10.6727 313.992H46.206V351.075C44.2181 355.031 41.2363 358.492 34.7757 358.244L34.2788 341.928ZM210.703 348.356C208.218 345.636 206.976 341.681 206.976 336.489C206.976 331.05 208.218 327.094 210.703 324.622C212.939 321.903 216.17 320.667 219.897 320.667C223.624 320.667 226.855 322.15 229.091 324.622C231.327 327.342 232.57 331.297 232.57 336.489C232.57 341.681 231.576 345.636 229.091 348.356C226.606 351.075 223.624 352.311 219.897 352.311C216.17 352.311 213.188 351.075 210.703 348.356ZM199.521 324.869C198.279 328.083 197.533 332.039 197.533 336.736C197.533 343.906 199.521 349.839 203.497 354.042C207.473 358.244 212.939 360.222 219.897 360.222C226.606 360.222 232.073 357.997 236.297 353.794C240.273 349.592 242.261 343.906 242.261 336.489C242.261 329.072 240.024 323.139 236.048 318.936C231.824 314.733 226.358 312.756 219.648 312.756C215.921 312.756 212.691 313.25 209.709 314.486C207.473 315.475 205.485 316.958 203.745 318.689C202.006 320.419 200.515 322.644 199.521 324.869ZM157.527 313.497V359.233H166.97V345.389L174.424 337.725L187.345 359.233H199.273L180.885 331.297L198.279 313.497H185.855L166.97 333.769V313.497H157.527ZM120.503 343.411L111.558 344.4C112.303 349.592 114.042 353.547 117.024 356.267C120.255 358.986 124.727 360.222 130.442 360.222C134.418 360.222 137.648 359.728 140.382 358.492C143.115 357.256 145.103 355.525 146.594 353.3C148.085 351.075 148.83 348.603 148.83 345.883C148.83 342.917 148.333 340.444 147.091 338.467C145.848 336.489 144.109 335.006 141.873 333.769C139.885 332.781 136.406 331.544 131.933 330.556C127.461 329.567 124.727 328.578 123.485 327.589C122.491 326.847 121.994 325.858 121.994 324.869C121.994 323.881 122.491 322.892 123.485 322.15C125.224 320.914 127.212 320.419 129.945 320.419C132.679 320.419 134.667 320.914 135.909 321.903C137.151 323.139 137.897 324.622 138.394 327.094L147.588 326.6C147.339 322.397 145.848 318.936 142.867 316.464C139.885 313.992 135.412 312.756 129.697 312.756C126.218 312.756 123.236 313.25 120.751 314.239C118.267 315.475 116.279 316.958 115.036 318.936C113.794 321.161 113.048 323.386 113.048 325.611C113.048 329.072 114.539 332.286 117.273 334.758C119.261 336.489 122.739 337.972 127.709 339.208C128.819 339.484 129.813 339.722 130.691 339.932C132.956 340.473 134.447 340.83 135.164 341.186C136.655 341.681 137.648 342.422 138.394 343.164C139.139 343.906 139.388 344.894 139.388 345.883C139.388 347.614 138.642 349.097 137.151 350.333C135.661 351.569 133.424 352.311 130.442 352.311C127.709 352.311 125.473 351.569 123.733 350.086C122.242 348.603 121 346.378 120.503 343.411ZM87.4545 324.128L93.9151 341.186H81.2424L87.4545 324.128ZM100.873 359.233H111.061L92.6727 313.497H82.7333L64.8424 359.233H74.7818L78.5091 348.85H96.8969L100.873 359.233ZM34.2788 425.928H12.1636V430.625H28.8121C30.0545 430.625 26.5757 442.492 19.3697 442.492H0.484813V421.725C0.484813 419.747 4.70905 414.556 9.67875 414.061H30.2243L30.2123 414.065C30.1418 414.091 30.1029 414.105 30.1036 414.108C30.1045 414.11 30.1659 414.095 30.303 414.061H30.2243C30.7189 413.881 32.6082 413.188 33.5333 412.083C33.9478 411.533 34.055 410.984 34.1539 410.476C34.2329 410.071 34.3066 409.693 34.5272 409.364H0.236328C0.244838 409.305 0.254223 409.236 0.264782 409.159C0.562514 406.984 1.79364 397.992 10.6727 397.992H46.206V435.075C44.2181 439.031 41.2363 442.492 34.7757 442.244L34.2788 425.928ZM210.703 432.356C208.218 429.636 206.976 425.681 206.976 420.489C206.976 415.05 208.218 411.094 210.703 408.622C212.939 405.903 216.17 404.667 219.897 404.667C223.624 404.667 226.855 406.15 229.091 408.622C231.327 411.342 232.57 415.297 232.57 420.489C232.57 425.681 231.576 429.636 229.091 432.356C226.606 435.075 223.624 436.311 219.897 436.311C216.17 436.311 213.188 435.075 210.703 432.356ZM199.521 408.869C198.279 412.083 197.533 416.039 197.533 420.736C197.533 427.906 199.521 433.839 203.497 438.042C207.473 442.244 212.939 444.222 219.897 444.222C226.606 444.222 232.073 441.997 236.297 437.794C240.273 433.592 242.261 427.906 242.261 420.489C242.261 413.072 240.024 407.139 236.048 402.936C231.824 398.733 226.358 396.756 219.648 396.756C215.921 396.756 212.691 397.25 209.709 398.486C207.473 399.475 205.485 400.958 203.745 402.689C202.006 404.419 200.515 406.644 199.521 408.869ZM157.527 397.497V443.233H166.97V429.389L174.424 421.725L187.345 443.233H199.273L180.885 415.297L198.279 397.497H185.855L166.97 417.769V397.497H157.527ZM120.503 427.411L111.558 428.4C112.303 433.592 114.042 437.547 117.024 440.267C120.255 442.986 124.727 444.222 130.442 444.222C134.418 444.222 137.648 443.728 140.382 442.492C143.115 441.256 145.103 439.525 146.594 437.3C148.085 435.075 148.83 432.603 148.83 429.883C148.83 426.917 148.333 424.444 147.091 422.467C145.848 420.489 144.109 419.006 141.873 417.769C139.885 416.781 136.406 415.544 131.933 414.556C127.461 413.567 124.727 412.578 123.485 411.589C122.491 410.847 121.994 409.858 121.994 408.869C121.994 407.881 122.491 406.892 123.485 406.15C125.224 404.914 127.212 404.419 129.945 404.419C132.679 404.419 134.667 404.914 135.909 405.903C137.151 407.139 137.897 408.622 138.394 411.094L147.588 410.6C147.339 406.397 145.848 402.936 142.867 400.464C139.885 397.992 135.412 396.756 129.697 396.756C126.218 396.756 123.236 397.25 120.751 398.239C118.267 399.475 116.279 400.958 115.036 402.936C113.794 405.161 113.048 407.386 113.048 409.611C113.048 413.072 114.539 416.286 117.273 418.758C119.261 420.489 122.739 421.972 127.709 423.208C128.819 423.484 129.813 423.722 130.691 423.932C132.956 424.473 134.447 424.83 135.164 425.186C136.655 425.681 137.648 426.422 138.394 427.164C139.139 427.906 139.388 428.894 139.388 429.883C139.388 431.614 138.642 433.097 137.151 434.333C135.661 435.569 133.424 436.311 130.442 436.311C127.709 436.311 125.473 435.569 123.733 434.086C122.242 432.603 121 430.378 120.503 427.411ZM87.4545 408.128L93.9151 425.186H81.2424L87.4545 408.128ZM100.873 443.233H111.061L92.6727 397.497H82.7333L64.8424 443.233H74.7818L78.5091 432.85H96.8969L100.873 443.233Z" fill="url(#paint0_linear_4816_7456)"/>
<defs>
<linearGradient id="paint0_linear_4816_7456" x1="121.248" y1="0.755554" x2="121.248" y2="444.222" gradientUnits="userSpaceOnUse">
<stop stop-color="#D44F68" stop-opacity="0.05"/>
<stop offset="1" stop-color="#D44F68" stop-opacity="0.5"/>
</linearGradient>
</defs>
</svg>
