<svg width="17" height="18" viewBox="0 0 17 18" fill="none" xmlns="http://www.w3.org/2000/svg">
    <path
        d="M4.99483 1.54688H4.8226C4.91733 1.54688 4.99483 1.46953 4.99483 1.375V1.54688H11.5398V1.375C11.5398 1.46953 11.6173 1.54688 11.712 1.54688H11.5398V3.09375H13.0899V1.375C13.0899 0.616602 12.472 0 11.712 0H4.8226C4.06261 0 3.44471 0.616602 3.44471 1.375V3.09375H4.99483V1.54688ZM15.8457 3.09375H0.688943C0.307871 3.09375 0 3.40098 0 3.78125V4.46875C0 4.56328 0.0775061 4.64062 0.172236 4.64062H1.47262L2.00439 15.877C2.03884 16.6096 2.64597 17.1875 3.38013 17.1875H13.1545C13.8908 17.1875 14.4958 16.6117 14.5302 15.877L15.062 4.64062H16.3624C16.4571 4.64062 16.5346 4.56328 16.5346 4.46875V3.78125C16.5346 3.40098 16.2268 3.09375 15.8457 3.09375ZM12.9887 15.6406H3.5459L3.02489 4.64062H13.5097L12.9887 15.6406Z"
        fill="white" />
</svg>