<svg width="22" height="22" viewBox="0 0 22 22" fill="none" xmlns="http://www.w3.org/2000/svg">
<path d="M21.9132 5.29748C21.7725 4.46736 20.7538 4.15128 20.1654 4.73978L18.809 6.09623C18.4691 6.43607 17.9192 6.43603 17.5793 6.09623L15.9023 4.41919C15.5624 4.07939 15.5624 3.52943 15.9023 3.18959L17.2588 1.8331C17.8509 1.24094 17.5274 0.225328 16.7011 0.085335C14.8831 -0.222882 13.0584 0.308989 11.7702 1.59716C10.4434 2.924 9.90157 4.87905 10.3083 6.7858L1.01411 16.08C-0.338037 17.4322 -0.338037 19.6323 1.01411 20.9844C1.66913 21.6395 2.53999 22.0002 3.46631 22.0002C4.39268 22.0002 5.26354 21.6395 5.91856 20.9844L15.2126 11.6904C17.0818 12.0907 19.0323 11.5974 20.4014 10.2283C21.6772 8.95256 22.2282 7.15529 21.9132 5.29748ZM19.3727 9.19963C18.2805 10.2917 16.6815 10.6174 15.192 10.186C14.9374 10.1123 14.6627 10.1829 14.4753 10.3704L4.88983 19.9558C4.5096 20.336 4.00403 20.5454 3.46627 20.5454C2.92856 20.5454 2.42298 20.336 2.04279 19.9558C1.25788 19.1709 1.25788 17.8936 2.04279 17.1087L11.6282 7.52328C11.8157 7.33584 11.8863 7.06123 11.8126 6.8066C11.3634 5.25558 11.7322 3.69276 12.799 2.62592C13.5271 1.89777 14.51 1.48514 15.5778 1.45678L14.8736 2.16091C13.9652 3.06928 13.9651 4.53955 14.8736 5.448L16.5507 7.12504C17.4591 8.03345 18.9293 8.03349 19.8378 7.12504L20.5432 6.41962C20.5172 7.47988 20.1103 8.46198 19.3727 9.19963Z" fill="#0B4250"/>
<path d="M3.68443 19.3186C4.23934 19.3186 4.68918 18.8687 4.68918 18.3138C4.68918 17.7589 4.23934 17.3091 3.68443 17.3091C3.12953 17.3091 2.67969 17.7589 2.67969 18.3138C2.67969 18.8687 3.12953 19.3186 3.68443 19.3186Z" fill="#0B4250"/>
</svg>
