<svg width="36" height="36" viewBox="0 0 36 36" fill="none" xmlns="http://www.w3.org/2000/svg">
<path fill-rule="evenodd" clip-rule="evenodd" d="M6 34C5.73478 34 5.48043 33.8946 5.29289 33.7071C5.10536 33.5196 5 33.2652 5 33V17C5 16.7348 5.10536 16.4804 5.29289 16.2929C5.48043 16.1054 5.73478 16 6 16H17V3C17 2.73478 17.1054 2.48043 17.2929 2.29289C17.4804 2.10536 17.7348 2 18 2H30C30.2652 2 30.5196 2.10536 30.7071 2.29289C30.8946 2.48043 31 2.73478 31 3V33C31 33.2652 30.8946 33.5196 30.7071 33.7071C30.5196 33.8946 30.2652 34 30 34H6ZM17 23.75H7V32H17V23.75ZM29 13.75H19V32H29V13.75ZM9 25C9.26522 25 9.51957 25.1054 9.70711 25.2929C9.89464 25.4804 10 25.7348 10 26C10 26.2652 9.89464 26.5196 9.70711 26.7071C9.51957 26.8946 9.26522 27 9 27C8.73478 27 8.48043 26.8946 8.29289 26.7071C8.10536 26.5196 8 26.2652 8 26C8 25.7348 8.10536 25.4804 8.29289 25.2929C8.48043 25.1054 8.73478 25 9 25ZM17 18H7V22.25H17V18ZM9 19C9.26522 19 9.51957 19.1054 9.70711 19.2929C9.89464 19.4804 10 19.7348 10 20C10 20.2652 9.89464 20.5196 9.70711 20.7071C9.51957 20.8946 9.26522 21 9 21C8.73478 21 8.48043 20.8946 8.29289 20.7071C8.10536 20.5196 8 20.2652 8 20C8 19.7348 8.10536 19.4804 8.29289 19.2929C8.48043 19.1054 8.73478 19 9 19ZM21 15C21.2652 15 21.5196 15.1054 21.7071 15.2929C21.8946 15.4804 22 15.7348 22 16C22 16.2652 21.8946 16.5196 21.7071 16.7071C21.5196 16.8946 21.2652 17 21 17C20.7348 17 20.4804 16.8946 20.2929 16.7071C20.1054 16.5196 20 16.2652 20 16C20 15.7348 20.1054 15.4804 20.2929 15.2929C20.4804 15.1054 20.7348 15 21 15ZM29 4H19V12.25H29V4ZM21 9C21.2652 9 21.5196 9.10536 21.7071 9.29289C21.8946 9.48043 22 9.73478 22 10C22 10.2652 21.8946 10.5196 21.7071 10.7071C21.5196 10.8946 21.2652 11 21 11C20.7348 11 20.4804 10.8946 20.2929 10.7071C20.1054 10.5196 20 10.2652 20 10C20 9.73478 20.1054 9.48043 20.2929 9.29289C20.4804 9.10536 20.7348 9 21 9Z" fill="#537CE5"/>
</svg>
