<svg width="36" height="36" viewBox="0 0 36 36" fill="none" xmlns="http://www.w3.org/2000/svg">
<path fill-rule="evenodd" clip-rule="evenodd" d="M26 2C26.2652 2 26.5196 2.10536 26.7071 2.29289C26.8946 2.48043 27 2.73478 27 3V33C27 33.2652 26.8946 33.5196 26.7071 33.7071C26.5196 33.8946 26.2652 34 26 34H10C9.73478 34 9.48043 33.8946 9.29289 33.7071C9.10536 33.5196 9 33.2652 9 33V3C9 2.73478 9.10536 2.48043 9.29289 2.29289C9.48043 2.10536 9.73478 2 10 2H26ZM25 23.75H11V32H25V23.75ZM22 25.25C22.1989 25.25 22.3897 25.329 22.5303 25.4697C22.671 25.6103 22.75 25.8011 22.75 26C22.75 26.1989 22.671 26.3897 22.5303 26.5303C22.3897 26.671 22.1989 26.75 22 26.75H14C13.8011 26.75 13.6103 26.671 13.4697 26.5303C13.329 26.3897 13.25 26.1989 13.25 26C13.25 25.8011 13.329 25.6103 13.4697 25.4697C13.6103 25.329 13.8011 25.25 14 25.25H22ZM25 4H11V22.25H25V4ZM22 19.25C22.1989 19.25 22.3897 19.329 22.5303 19.4697C22.671 19.6103 22.75 19.8011 22.75 20C22.75 20.1989 22.671 20.3897 22.5303 20.5303C22.3897 20.671 22.1989 20.75 22 20.75H14C13.8011 20.75 13.6103 20.671 13.4697 20.5303C13.329 20.3897 13.25 20.1989 13.25 20C13.25 19.8011 13.329 19.6103 13.4697 19.4697C13.6103 19.329 13.8011 19.25 14 19.25H22Z" fill="#537CE5"/>
</svg>
