<svg width="36" height="36" viewBox="0 0 36 36" fill="none" xmlns="http://www.w3.org/2000/svg">
<path fill-rule="evenodd" clip-rule="evenodd" d="M29 2C29.2652 2 29.5196 2.10536 29.7071 2.29289C29.8946 2.48043 30 2.73478 30 3V33C30 33.2652 29.8946 33.5196 29.7071 33.7071C29.5196 33.8946 29.2652 34 29 34H7C6.73478 34 6.48043 33.8946 6.29289 33.7071C6.10536 33.5196 6 33.2652 6 33V3C6 2.73478 6.10536 2.48043 6.29289 2.29289C6.48043 2.10536 6.73478 2 7 2H29ZM28 9.75H8V32H28V9.75ZM18 14C19.8565 14 21.637 14.7375 22.9497 16.0503C24.2625 17.363 25 19.1435 25 21C25 22.8565 24.2625 24.637 22.9497 25.9497C21.637 27.2625 19.8565 28 18 28C16.1435 28 14.363 27.2625 13.0503 25.9497C11.7375 24.637 11 22.8565 11 21C11 19.1435 11.7375 17.363 13.0503 16.0503C14.363 14.7375 16.1435 14 18 14ZM18 16C16.6739 16 15.4021 16.5268 14.4645 17.4645C13.5268 18.4021 13 19.6739 13 21C13 22.3261 13.5268 23.5979 14.4645 24.5355C15.4021 25.4732 16.6739 26 18 26C19.3261 26 20.5979 25.4732 21.5355 24.5355C22.4732 23.5979 23 22.3261 23 21C23 19.6739 22.4732 18.4021 21.5355 17.4645C20.5979 16.5268 19.3261 16 18 16ZM28 4H8V8.25H28V4ZM25 5C25.2652 5 25.5196 5.10536 25.7071 5.29289C25.8946 5.48043 26 5.73478 26 6C26 6.26522 25.8946 6.51957 25.7071 6.70711C25.5196 6.89464 25.2652 7 25 7C24.7348 7 24.4804 6.89464 24.2929 6.70711C24.1054 6.51957 24 6.26522 24 6C24 5.73478 24.1054 5.48043 24.2929 5.29289C24.4804 5.10536 24.7348 5 25 5Z" fill="#537CE5"/>
</svg>
