<svg width="36" height="36" viewBox="0 0 36 36" fill="none" xmlns="http://www.w3.org/2000/svg">
<path fill-rule="evenodd" clip-rule="evenodd" d="M22 2C23.1526 2.00014 24.2697 2.3983 25.1625 3.12714C26.0554 3.85599 26.6691 4.87081 26.9 6H31C31.1452 6.00007 31.2886 6.03174 31.4203 6.09281C31.5519 6.15388 31.6688 6.24288 31.7626 6.35365C31.8564 6.46441 31.925 6.59427 31.9636 6.73421C32.0022 6.87415 32.0098 7.02081 31.986 7.164L29.543 21.822C29.3672 22.8778 28.8571 23.8494 28.088 24.5937C27.3188 25.338 26.331 25.8159 25.27 25.957L26.97 32.757C27.0069 32.9044 27.0098 33.0584 26.9783 33.2071C26.9468 33.3558 26.8818 33.4954 26.7883 33.6152C26.6948 33.735 26.5752 33.832 26.4386 33.8987C26.302 33.9653 26.152 34 26 34H8C7.84799 34 7.69799 33.9653 7.56139 33.8987C7.42479 33.832 7.30518 33.735 7.21167 33.6152C7.11815 33.4954 7.05318 33.3558 7.0217 33.2071C6.99023 33.0584 6.99306 32.9044 7.03 32.757L9.03 24.757C9.08417 24.5408 9.20905 24.3488 9.38479 24.2117C9.56054 24.0745 9.77707 24 10 24H10.754L7.029 7.242C7.01902 7.20084 7.01167 7.15909 7.007 7.117V7.11L7.005 7.1C7.00307 7.08004 7.00173 7.06004 7.001 7.04L7 7C7 5.67392 7.52678 4.40215 8.46447 3.46447C9.40215 2.52678 10.6739 2 12 2H22ZM23.22 26H10.78L9.28 32H24.72L23.22 26ZM21 27C21.2652 27 21.5196 27.1054 21.7071 27.2929C21.8946 27.4804 22 27.7348 22 28C22 28.2652 21.8946 28.5196 21.7071 28.7071C21.5196 28.8946 21.2652 29 21 29C20.7348 29 20.4804 28.8946 20.2929 28.7071C20.1054 28.5196 20 28.2652 20 28C20 27.7348 20.1054 27.4804 20.2929 27.2929C20.4804 27.1054 20.7348 27 21 27ZM29.82 8H26.848L24.18 24H24.61C25.2889 24.0001 25.9477 23.7698 26.4788 23.347C27.0099 22.9241 27.3819 22.3336 27.534 21.672L27.57 21.493L29.82 8ZM24.82 8H9.247L12.803 24H22.153L24.82 8ZM22 4H12C11.411 3.99992 10.835 4.17322 10.3439 4.49829C9.85271 4.82336 9.4681 5.28582 9.238 5.828L9.17 6H24.828C24.6211 5.41525 24.2381 4.90897 23.7317 4.55082C23.2252 4.19266 22.6203 4.00023 22 4Z" fill="#537CE5"/>
</svg>
