<svg width="36" height="36" viewBox="0 0 36 36" fill="none" xmlns="http://www.w3.org/2000/svg">
<path d="M32 21.7H22.4V20.2H22.9C23.2 20.2 23.4 20 23.4 19.7C23.4 19.4 23.2 19.2 22.9 19.2H20.9C20.6 19.2 20.4 19.4 20.4 19.7C20.4 20 20.6 20.2 20.9 20.2H21.4V21.7H19V12.7C19 12.2 19 11.4 19.2 10.6C19.6 9 20.5 7.2 22.8 7.2C24.6 7.2 25.6 8.3 26.1 9.5C25.8 9.6 25.7 9.9 25.7 10.2C25.7 10.6 26 11 26.5 11H28C28.4 11 28.8 10.7 28.8 10.2C28.8 9.9 28.6 9.6 28.3 9.5C27.6 7 25.9 5.3 23.2 5.2C20.5 5.1 18.2 7.1 17.5 9.7C17.3 10.5 17.1 11.5 17.1 12.5C17.1 12.6 17.1 12.7 17.1 12.7V21.7H14.7V20.2H15.2C15.5 20.2 15.7 20 15.7 19.7C15.7 19.4 15.5 19.2 15.2 19.2H13.2C12.9 19.2 12.7 19.4 12.7 19.7C12.7 20 12.9 20.2 13.2 20.2H13.7V21.7H4C3.5 21.7 3 22.1 3 22.7C3 23.3 3.5 23.7 4 23.7H4.9V29.6C4.9 30 5.5 30.6 6.2 30.6L30 30.7C30.7 30.7 31.3 30.1 31.3 29.7V23.6H32C32.5 23.6 33 23.2 33 22.6C33 22.2 32.5 21.7 32 21.7ZM29.1 28.7H6.9V23.8H29.2V28.7H29.1Z" fill="#537CE5"/>
</svg>
