<svg width="36" height="36" viewBox="0 0 36 36" fill="none" xmlns="http://www.w3.org/2000/svg">
<path fill-rule="evenodd" clip-rule="evenodd" d="M24 4.25C25.5188 4.25 26.75 5.48122 26.75 7C26.75 8.25878 25.9043 9.32002 24.75 9.64648V11H26C28.7614 11 31 13.2386 31 16V27H32C32.5523 27 33 27.4477 33 28V32C33 32.5523 32.5523 33 32 33H4C3.44772 33 3 32.5523 3 32V28C3 27.4477 3.44772 27 4 27H5V21H4C3.44772 21 3 20.5523 3 20V18C3 17.4477 3.44772 17 4 17H5V16C5 13.2386 7.23858 11 10 11H11.25V9.64648C10.1535 9.33634 9.33535 8.36306 9.25628 7.18727L9.25 7C9.25 5.48122 10.4812 4.25 12 4.25H24ZM31 29H5V31H31V29ZM26 13H10C8.34315 13 7 14.3431 7 16V27H29V16C29 14.3431 27.6569 13 26 13ZM9 17C9.55228 17 10 17.4477 10 18C10 18.5523 9.55228 19 9 19C8.44772 19 8 18.5523 8 18C8 17.4477 8.44772 17 9 17ZM24 5.75H12C11.3096 5.75 10.75 6.30964 10.75 7C10.75 7.69036 11.3096 8.25 12 8.25H12.75V11H23.25V8.25H24C24.6904 8.25 25.25 7.69036 25.25 7C25.25 6.30964 24.6904 5.75 24 5.75Z" fill="#537CE5"/>
</svg>
