<svg width="36" height="36" viewBox="0 0 36 36" fill="none" xmlns="http://www.w3.org/2000/svg">
<g clip-path="url(#clip0_173_1652)">
<path fill-rule="evenodd" clip-rule="evenodd" d="M4.20126 24.462V20.664H31.7629V24.462C31.7629 25.7796 30.9277 27.054 30.1969 27.6768C29.2681 28.458 28.2421 28.8216 26.5609 28.8216H9.40326C7.72206 28.8216 6.69606 28.458 5.76726 27.6768C5.03286 27.054 4.20126 25.7796 4.20126 24.462ZM7.02726 0.766846H7.37286C7.85526 0.781246 8.33766 0.864046 8.79846 1.01885C9.90006 1.38245 9.97926 1.68845 10.5985 2.10245C11.9521 1.19525 13.8277 1.24925 15.0769 2.26445C16.1281 3.11765 16.8553 3.83765 15.7501 4.93205L11.9881 8.69405C10.9837 9.69485 10.9009 10.0476 9.96486 10.0476C9.17286 10.0476 6.92286 7.63565 7.88406 5.22365C8.29806 4.17965 8.47446 4.26605 8.84166 3.71885C8.41326 3.07805 7.43766 3.15725 6.73206 3.15725C5.86446 3.15725 4.97166 4.10765 4.97166 4.98245V14.688H32.6773C33.1885 14.688 33.6637 14.7564 34.0237 14.886C34.4521 15.0444 34.6249 15.1632 34.9597 15.4296C35.3665 15.75 35.9713 16.6644 35.9821 17.3448V17.4024C35.9713 19.0368 35.4709 19.7172 34.0849 20.4516C34.0849 21.7872 34.0777 23.1264 34.0849 24.462C34.0957 26.3016 33.3613 27.5004 32.3965 28.7496C31.6837 29.6748 29.7253 30.906 28.6705 30.9312C28.8217 31.5036 29.9341 31.86 29.9341 32.7564C29.9341 33.3252 29.4661 33.8328 28.9045 33.9012C27.6337 34.0632 25.9921 31.14 25.3657 31.14H10.5985C10.3825 31.14 8.67606 32.9544 8.40246 33.2316C8.02446 33.6132 7.63926 34.002 7.00206 33.894C6.48006 33.804 6.02646 33.318 6.02646 32.7564C6.02646 31.86 7.13886 31.5036 7.29366 30.9312C6.55566 30.9132 5.14086 30.1464 4.53966 29.6748C4.15806 29.3724 3.84486 29.106 3.53526 28.71C2.55246 27.4464 1.86846 26.2548 1.87926 24.39C1.88646 23.0796 1.87926 21.7656 1.87926 20.4516C0.493256 19.7172 -0.0107443 19.0368 -0.0179443 17.4024V17.3448C-0.0107443 16.2648 1.01166 15.1416 2.15286 14.8176C2.31486 14.7708 2.49846 14.76 2.65326 14.688V5.96885C2.65326 4.77365 2.60286 4.29485 2.98446 3.41645C3.72966 1.69925 5.35686 0.820846 7.02726 0.766846ZM2.30046 17.7804C2.30046 17.2548 2.59206 17.0064 3.14646 17.0064H32.8177C33.7753 17.0064 33.8617 17.8956 33.3793 18.2052C33.2569 18.2808 33.0301 18.342 32.8177 18.342H3.14646C2.70726 18.342 2.30046 18.0936 2.30046 17.7804ZM10.1053 7.16405C9.99726 5.85365 9.81366 6.08405 11.1097 4.79165C12.2149 3.68645 12.2041 3.64685 13.4101 3.93125C13.2805 4.12205 10.4257 7.07765 10.1053 7.16405Z" fill="#537CE5"/>
<path fill-rule="evenodd" clip-rule="evenodd" d="M12.6361 9.20161C12.6361 9.54001 13.3165 10.3284 13.8313 10.3284C13.9969 10.3284 14.3245 10.098 14.3245 9.76681C14.3245 9.39241 13.5757 8.64001 13.2013 8.64001C12.8593 8.64001 12.6361 8.86321 12.6361 9.20161Z" fill="#537CE5"/>
<path fill-rule="evenodd" clip-rule="evenodd" d="M16.0128 11.3112C16.0128 11.9988 16.8552 12.5784 17.136 12.5784C17.568 12.5784 17.838 12.0492 17.532 11.6208C16.6824 10.4184 16.0128 10.9872 16.0128 11.3112Z" fill="#537CE5"/>
<path fill-rule="evenodd" clip-rule="evenodd" d="M14.8176 6.9516C14.8176 7.2072 15.3864 7.7292 15.57 7.8876C15.8076 8.0928 16.506 8.2476 16.506 7.3764C16.506 7.308 15.8436 6.0876 15.1452 6.4296C14.9508 6.5268 14.8176 6.7176 14.8176 6.9516Z" fill="#537CE5"/>
<path fill-rule="evenodd" clip-rule="evenodd" d="M16.9956 8.43129C16.9956 8.98209 17.874 9.62649 17.982 9.62649C19.5372 9.62649 18.1368 7.76169 17.406 7.98849C17.2152 8.04609 16.9956 8.22249 16.9956 8.43129Z" fill="#537CE5"/>
<path fill-rule="evenodd" clip-rule="evenodd" d="M14.8861 9.06121C14.8861 9.67681 15.6385 10.3284 16.0813 10.3284C16.1245 10.3284 17.1073 10.044 16.1353 9.07921C15.8113 8.75881 15.8113 8.64001 15.3109 8.64001C15.1417 8.64001 14.8861 8.89201 14.8861 9.06121Z" fill="#537CE5"/>
<path fill-rule="evenodd" clip-rule="evenodd" d="M13.7628 11.3112C13.7628 12.0348 14.6952 12.5784 14.886 12.5784C15.1308 12.5784 15.4512 12.2616 15.4512 12.0168C15.4512 11.7144 14.8392 10.89 14.184 10.89C14.0148 10.89 13.7628 11.142 13.7628 11.3112Z" fill="#537CE5"/>
</g>
<defs>
<clipPath id="clip0_173_1652">
<rect width="36" height="36" fill="white"/>
</clipPath>
</defs>
</svg>
