<svg width="36" height="36" viewBox="0 0 36 36" fill="none" xmlns="http://www.w3.org/2000/svg">
<path fill-rule="evenodd" clip-rule="evenodd" d="M32 4C32.2652 4 32.5196 4.10536 32.7071 4.29289C32.8946 4.48043 33 4.73478 33 5V31C33 31.2652 32.8946 31.5196 32.7071 31.7071C32.5196 31.8946 32.2652 32 32 32H4C3.73478 32 3.48043 31.8946 3.29289 31.7071C3.10536 31.5196 3 31.2652 3 31V5C3 4.73478 3.10536 4.48043 3.29289 4.29289C3.48043 4.10536 3.73478 4 4 4H32ZM14.25 12.75H5V30H31V12.75H21.75V17.75H14.25V12.75ZM26.75 21V23.25C26.75 23.9793 26.4603 24.6788 25.9445 25.1945C25.4288 25.7103 24.7293 26 24 26H23.874C23.652 26.8586 23.151 27.6192 22.4498 28.1622C21.7486 28.7052 20.8869 28.9999 20 29H16C14.9391 29 13.9217 28.5786 13.1716 27.8284C12.4214 27.0783 12 26.0609 12 25V21H26.75ZM22 23H14V25C14 25.5304 14.2107 26.0391 14.5858 26.4142C14.9609 26.7893 15.4696 27 16 27H20C20.5304 27 21.0391 26.7893 21.4142 26.4142C21.7893 26.0391 22 25.5304 22 25V23ZM24 24.5C24.69 24.5 25.25 23.94 25.25 23.25V22.5H24V24.5ZM20.25 12.75H15.75V16.25H20.25V12.75ZM31 6H5V11.25H14.25V8.25H21.75V11.25H31V6ZM20.25 9.75H15.75V11.25H20.25V9.75ZM25 8C25.2652 8 25.5196 8.10536 25.7071 8.29289C25.8946 8.48043 26 8.73478 26 9C26 9.26522 25.8946 9.51957 25.7071 9.70711C25.5196 9.89464 25.2652 10 25 10C24.7348 10 24.4804 9.89464 24.2929 9.70711C24.1054 9.51957 24 9.26522 24 9C24 8.73478 24.1054 8.48043 24.2929 8.29289C24.4804 8.10536 24.7348 8 25 8ZM8 8C8.26522 8 8.51957 8.10536 8.70711 8.29289C8.89464 8.48043 9 8.73478 9 9C9 9.26522 8.89464 9.51957 8.70711 9.70711C8.51957 9.89464 8.26522 10 8 10C7.73478 10 7.48043 9.89464 7.29289 9.70711C7.10536 9.51957 7 9.26522 7 9C7 8.73478 7.10536 8.48043 7.29289 8.29289C7.48043 8.10536 7.73478 8 8 8ZM28 8C28.2652 8 28.5196 8.10536 28.7071 8.29289C28.8946 8.48043 29 8.73478 29 9C29 9.26522 28.8946 9.51957 28.7071 9.70711C28.5196 9.89464 28.2652 10 28 10C27.7348 10 27.4804 9.89464 27.2929 9.70711C27.1054 9.51957 27 9.26522 27 9C27 8.73478 27.1054 8.48043 27.2929 8.29289C27.4804 8.10536 27.7348 8 28 8Z" fill="#537CE5"/>
</svg>
