<svg width="36" height="36" viewBox="0 0 36 36" fill="none" xmlns="http://www.w3.org/2000/svg">
<path fill-rule="evenodd" clip-rule="evenodd" d="M16 2C17.815 1.99997 19.559 2.70489 20.8642 3.96607C22.1694 5.22726 22.9338 6.94609 22.996 8.76L23 9V15C25.3869 15 27.6761 15.9482 29.364 17.636C31.0518 19.3239 32 21.6131 32 24V32C32 32.2652 31.8946 32.5196 31.7071 32.7071C31.5196 32.8946 31.2652 33 31 33H25.317C24.1631 33.7658 22.7798 34.1088 21.4018 33.9709C20.0238 33.833 18.7359 33.2227 17.7566 32.2434C16.7774 31.2641 16.167 29.9762 16.0291 28.5982C15.8912 27.2202 16.2342 25.8369 17 24.683V16C17 15.7348 17.1054 15.4804 17.2929 15.2929C17.4804 15.1054 17.7348 15 18 15H21V9C20.9999 7.71154 20.5025 6.47284 19.6113 5.54222C18.7202 4.61161 17.5042 4.06092 16.217 4.005L16 4H15C13.7115 4.00007 12.4728 4.49754 11.5422 5.38866C10.6116 6.27978 10.0609 7.49575 10.005 8.783L10 9V27.219L13.243 28.029C13.4405 28.0786 13.6182 28.1874 13.7522 28.3407C13.8862 28.494 13.9702 28.6846 13.993 28.887L14 29V32C14 32.2449 13.91 32.4813 13.7473 32.6644C13.5845 32.8474 13.3603 32.9643 13.117 32.993L13 33H5C4.75507 33 4.51866 32.91 4.33563 32.7473C4.15259 32.5845 4.03566 32.3603 4.007 32.117L4 32V29C4.00008 28.7965 4.06225 28.5978 4.17822 28.4306C4.29419 28.2633 4.45843 28.1354 4.649 28.064L4.757 28.03L8 27.218V9C7.99997 7.18502 8.70489 5.44098 9.96607 4.13577C11.2273 2.83056 12.9461 2.06623 14.76 2.004L15 2H16ZM22 24C20.9391 24 19.9217 24.4214 19.1716 25.1716C18.4214 25.9217 18 26.9391 18 28C18 29.0609 18.4214 30.0783 19.1716 30.8284C19.9217 31.5786 20.9391 32 22 32C23.0609 32 24.0783 31.5786 24.8284 30.8284C25.5786 30.0783 26 29.0609 26 28C26 26.9391 25.5786 25.9217 24.8284 25.1716C24.0783 24.4214 23.0609 24 22 24ZM23 17L23.002 22.083C23.9566 22.2449 24.8579 22.6354 25.6289 23.221C26.4 23.8067 27.0178 24.5702 27.4299 25.4464C27.8419 26.3227 28.0358 27.2855 27.9951 28.2529C27.9544 29.2203 27.6802 30.1635 27.196 31.002L30 31V24C30 22.1435 29.2625 20.363 27.9497 19.0503C26.637 17.7375 24.8565 17 23 17ZM9 29.03L6 29.78V31H12V29.78L9 29.03ZM21 17H19L18.999 22.803C19.6171 22.4451 20.2946 22.2012 20.999 22.083L21 17Z" fill="#537CE5"/>
</svg>
