<svg width="92" height="92" viewBox="0 0 92 92" fill="none" xmlns="http://www.w3.org/2000/svg">
    <path
        d="M12.4748 51.4551C11.6137 51.4551 10.9155 52.1532 10.9155 53.0143V59.2512C10.9155 60.1123 11.6137 60.8104 12.4748 60.8104C13.3358 60.8104 14.034 60.1123 14.034 59.2512V53.0143C14.034 52.1532 13.3358 51.4551 12.4748 51.4551Z"
        fill="#537CE5" />
    <path
        d="M18.7116 54.5732C17.8505 54.5732 17.1523 55.2714 17.1523 56.1325V62.3694C17.1523 63.2305 17.8505 63.9286 18.7116 63.9286C19.5727 63.9286 20.2708 63.2305 20.2708 62.3694V56.1325C20.2708 55.2714 19.5727 54.5732 18.7116 54.5732Z"
        fill="#537CE5" />
    <path
        d="M75.5827 62.9415C74.8559 62.4796 73.8923 62.6946 73.4304 63.4214C72.9872 64.1189 73.1651 65.0412 73.8364 65.5236C78.1223 68.4093 79.2572 74.2231 76.3717 78.5088C73.4859 82.7948 67.6722 83.9299 63.3864 81.0441C59.1005 78.1584 57.9654 72.3446 60.8511 68.0589C62.5887 65.4782 65.4957 63.9301 68.6067 63.9285C69.4678 63.9285 70.166 63.2304 70.166 62.3693C70.166 61.5082 69.4678 60.8101 68.6067 60.8101C61.7177 60.8114 56.1339 66.3972 56.1353 73.2862C56.1366 80.1753 61.7224 85.759 68.6114 85.7577C75.5005 85.7563 81.0842 80.1706 81.0829 73.2815C81.0821 69.135 79.0208 65.2597 75.5827 62.9415Z"
        fill="#537CE5" />
    <path
        d="M86.5826 68.105C85.0719 62.8717 81.3547 58.5569 76.4026 56.2884V21.8295C76.4028 21.2781 76.1116 20.7677 75.637 20.487L41.3341 0.217074C40.8445 -0.0723578 40.2362 -0.0723578 39.7468 0.217074L5.4438 20.487C5.41106 20.5057 5.38767 20.5338 5.35649 20.5556C5.3253 20.5774 5.29568 20.6024 5.26449 20.6273C5.12903 20.734 5.01268 20.8626 4.9199 21.0078C4.9199 21.0187 4.90119 21.0249 4.89496 21.0359V21.0468C4.80705 21.2052 4.74741 21.3777 4.71876 21.5566C4.71876 21.6034 4.70473 21.6471 4.70005 21.6939C4.69537 21.7406 4.67822 21.7827 4.67822 21.8295V62.3694C4.67803 62.9208 4.96921 63.4312 5.4438 63.7119L39.7468 83.9818C39.7879 84.0017 39.83 84.0194 39.8731 84.0348C39.9156 84.0561 39.9594 84.0748 40.0041 84.091C40.3473 84.2344 40.7336 84.2344 41.0768 84.091C41.122 84.0748 41.1663 84.0561 41.2093 84.0348C41.2499 84.0161 41.2935 84.0052 41.3341 83.9818L50.6442 78.4793C53.5091 88.4034 63.8764 94.1262 73.8007 91.2613C83.7248 88.3966 89.4475 78.0291 86.5826 68.105ZM40.5404 3.36983L48.6484 8.16133L36.6268 15.2652C35.885 15.7035 35.6388 16.6603 36.0771 17.4021C36.5155 18.1439 37.4723 18.3901 38.2141 17.9517L51.7154 9.97939L59.8234 14.7709L28.5858 33.2243L20.4779 28.4328L33.5395 20.7147C34.2813 20.2763 34.5275 19.3195 34.0891 18.5777C33.6508 17.8359 32.694 17.5898 31.9522 18.0281L17.4124 26.621L9.30289 21.8295L40.5404 3.36983ZM27.0266 35.9265V46.3374L18.9716 41.5771V31.1662L27.0266 35.9265ZM50.5119 68.464C50.0971 70.0369 49.8899 71.6573 49.8958 73.284C49.8962 73.9365 49.9305 74.5887 49.9987 75.2377L42.0997 79.9076V74.8432C42.0997 73.9821 41.4015 73.284 40.5404 73.284C39.6793 73.284 38.9812 73.9821 38.9812 74.8432V79.9076L7.79668 61.4806V24.5628L15.8532 29.3232V42.4659C15.8526 43.0178 16.1436 43.5291 16.6188 43.8099L27.7922 50.4132C28.0327 50.5547 28.3067 50.6296 28.5858 50.63C29.4469 50.63 30.1451 49.9318 30.1451 49.0708V37.7679L38.9812 42.9898V68.6063C38.9812 69.4674 39.6793 70.1655 40.5404 70.1655C41.4015 70.1655 42.0997 69.4674 42.0997 68.6063V42.9898L70.3591 26.2905C71.1005 25.8521 71.3463 24.8957 70.9079 24.1543C70.4696 23.4129 69.5132 23.1671 68.7718 23.6055L40.5404 40.2892L31.6528 35.0362L62.8904 16.5765L73.2842 22.7183V55.197C63.3322 52.5722 53.1366 58.5119 50.5119 68.464ZM68.6065 88.8762C59.9951 88.8762 53.0142 81.8954 53.0142 73.284C53.0142 64.6726 59.9951 57.6917 68.6065 57.6917C77.2179 57.6917 84.1988 64.6726 84.1988 73.284C84.1894 81.8915 77.214 88.8667 68.6065 88.8762Z"
        fill="#537CE5" />
    <path
        d="M74.3484 69.0633C73.7442 68.4796 72.786 68.4796 72.1818 69.0633L66.2677 74.9774L65.0312 73.741C64.4118 73.1426 63.4248 73.1598 62.8265 73.7792C62.2427 74.3834 62.2427 75.3415 62.8265 75.9457L65.1653 78.2846C65.7742 78.8932 66.7612 78.8932 67.3701 78.2846L74.3866 71.268C74.9849 70.6486 74.9678 69.6614 74.3484 69.0633Z"
        fill="#537CE5" />
</svg>