<svg width="96" height="96" viewBox="0 0 96 96" fill="none" xmlns="http://www.w3.org/2000/svg">
    <path
        d="M56.865 91.0051C54.836 91.0051 53.023 89.5221 51.262 88.0821C50.186 87.2011 48.711 85.9951 47.999 85.9951C47.288 85.9951 45.813 87.2011 44.737 88.0821C42.808 89.6591 40.62 91.4521 38.211 90.9001C35.725 90.3351 34.508 87.7211 33.434 85.4161C32.898 84.2631 32.086 82.5201 31.509 82.2411C30.897 81.9421 28.997 82.4031 27.74 82.7051C25.293 83.2941 22.521 83.9581 20.561 82.3951C18.594 80.8241 18.629 77.9631 18.662 75.4401C18.678 74.1531 18.702 72.2091 18.288 71.6891C17.879 71.1771 15.986 70.7721 14.733 70.5041C12.255 69.9741 9.449 69.3731 8.349 67.0931C7.265 64.8481 8.53 62.3021 9.644 60.0561C10.223 58.8921 11.097 57.1311 10.944 56.4561C10.806 55.8511 9.3 54.6821 8.304 53.9081C6.287 52.3441 4 50.5681 4 48.0001C4 45.4321 6.287 43.6571 8.305 42.0911C9.301 41.3181 10.807 40.1491 10.945 39.5431C11.098 38.8681 10.224 37.1071 9.646 35.9421C8.531 33.6961 7.267 31.1511 8.352 28.9041C9.452 26.6251 12.258 26.0241 14.735 25.4941C15.988 25.2261 17.881 24.8211 18.289 24.3101C18.705 23.7891 18.681 21.8441 18.665 20.5571C18.633 18.0341 18.598 15.1741 20.564 13.6031C22.523 12.0391 25.297 12.7051 27.743 13.2931C29.002 13.5951 30.9 14.0521 31.511 13.7581C32.089 13.4791 32.9 11.7371 33.437 10.5831C34.51 8.27711 35.726 5.66411 38.212 5.09911C40.618 4.55311 42.81 6.33911 44.738 7.91711C45.815 8.79811 47.29 10.0041 48.001 10.0041C48.712 10.0041 50.187 8.79811 51.263 7.91811C53.193 6.33911 55.38 4.54911 57.79 5.09911C60.275 5.66411 61.492 8.27811 62.566 10.5841C63.103 11.7371 63.914 13.4801 64.492 13.7591C65.105 14.0541 67.002 13.5961 68.259 13.2941C70.706 12.7061 73.479 12.0401 75.439 13.6041C77.406 15.1751 77.371 18.0351 77.338 20.5591C77.322 21.8461 77.298 23.7911 77.712 24.3101C78.121 24.8211 80.014 25.2271 81.267 25.4951C83.745 26.0251 86.551 26.6251 87.651 28.9051C88.735 31.1511 87.47 33.6971 86.356 35.9431C85.777 37.1081 84.903 38.8681 85.056 39.5431C85.194 40.1491 86.7 41.3181 87.696 42.0911C89.713 43.6571 92 45.4321 92 48.0001C92 50.5681 89.713 52.3431 87.695 53.9091C86.699 54.6821 85.193 55.8501 85.055 56.4581C84.902 57.1331 85.776 58.8931 86.354 60.0581C87.469 62.3041 88.733 64.8491 87.648 67.0961C86.548 69.3751 83.742 69.9761 81.265 70.5051C80.012 70.7741 78.119 71.1791 77.71 71.6901C77.295 72.2111 77.319 74.1561 77.335 75.4431C77.367 77.9651 77.402 80.8251 75.436 82.3961C73.477 83.9601 70.703 83.2931 68.257 82.7061C66.998 82.4041 65.1 81.9451 64.489 82.2421C63.911 82.5201 63.1 84.2631 62.563 85.4161C61.49 87.7231 60.274 90.3361 57.788 90.9011C57.476 90.9721 57.168 91.0051 56.865 91.0051ZM30.89 78.1501C31.719 78.1501 32.514 78.2841 33.247 78.6371C35.11 79.5351 36.102 81.6661 37.061 83.7271C37.536 84.7471 38.524 86.8691 39.097 86.9991C39.63 87.0931 41.37 85.6661 42.204 84.9841C44.002 83.5141 45.86 81.9941 47.999 81.9941C50.138 81.9941 51.997 83.5151 53.794 84.9841C54.628 85.6661 56.316 87.0651 56.903 86.9991C57.474 86.8681 58.463 84.7471 58.937 83.7271C59.895 81.6661 60.887 79.5371 62.751 78.6371C64.647 77.7221 66.955 78.2791 69.19 78.8161C70.265 79.0741 72.506 79.6131 72.938 79.2691C73.377 78.9191 73.348 76.6041 73.334 75.4921C73.305 73.2001 73.275 70.8311 74.583 69.1931C75.883 67.5651 78.192 67.0711 80.426 66.5931C81.52 66.3591 83.795 65.8721 84.044 65.3571C84.276 64.8741 83.258 62.8221 82.769 61.8361C81.744 59.7711 80.683 57.6351 81.153 55.5711C81.608 53.5691 83.455 52.1351 85.24 50.7491C86.206 50.0011 88 48.6091 88 48.0001C88 47.3911 86.206 45.9991 85.242 45.2501C83.456 43.8641 81.609 42.4311 81.154 40.4281C80.685 38.3641 81.746 36.2281 82.771 34.1631C83.26 33.1771 84.279 31.1261 84.046 30.6421C83.797 30.1261 81.522 29.6401 80.429 29.4061C78.195 28.9281 75.885 28.4341 74.585 26.8071C73.278 25.1701 73.308 22.8001 73.337 20.5091C73.351 19.3971 73.38 17.0811 72.941 16.7311C72.511 16.3871 70.269 16.9261 69.192 17.1841C66.958 17.7211 64.65 18.2771 62.753 17.3621C60.89 16.4631 59.898 14.3331 58.939 12.2731C58.464 11.2531 57.477 9.13111 56.903 9.00111C56.353 8.90611 54.629 10.3341 53.795 11.0151C51.998 12.4861 50.14 14.0061 48.001 14.0061C45.862 14.0061 44.004 12.4851 42.206 11.0151C41.372 10.3331 39.632 8.91211 39.097 9.00011C38.525 9.13011 37.536 11.2521 37.062 12.2721C36.103 14.3321 35.112 16.4621 33.249 17.3611C31.353 18.2751 29.045 17.7211 26.809 17.1831C25.734 16.9241 23.491 16.3861 23.061 16.7291C22.622 17.0801 22.651 19.3951 22.665 20.5071C22.694 22.7991 22.724 25.1691 21.416 26.8051C20.116 28.4331 17.807 28.9271 15.573 29.4051C14.479 29.6391 12.204 30.1261 11.955 30.6411C11.723 31.1241 12.741 33.1761 13.23 34.1621C14.255 36.2271 15.316 38.3631 14.846 40.4271C14.391 42.4291 12.544 43.8631 10.759 45.2491C9.794 45.9991 8 47.3911 8 48.0001C8 48.6091 9.794 50.0021 10.758 50.7501C12.544 52.1361 14.391 53.5681 14.846 55.5711C15.315 57.6351 14.254 59.7701 13.229 61.8361C12.74 62.8221 11.721 64.8731 11.954 65.3571C12.203 65.8741 14.478 66.3601 15.572 66.5941C17.805 67.0721 20.115 67.5661 21.415 69.1941C22.722 70.8311 22.692 73.2001 22.663 75.4921C22.649 76.6041 22.62 78.9201 23.059 79.2701C23.489 79.6091 25.731 79.0751 26.808 78.8161C28.177 78.4861 29.576 78.1501 30.89 78.1501ZM35.414 63.4141L63.414 35.4141C64.195 34.6331 64.195 33.3671 63.414 32.5861C62.633 31.8051 61.367 31.8051 60.586 32.5861L32.586 60.5861C31.805 61.3671 31.805 62.6331 32.586 63.4141C32.977 63.8051 33.488 64.0001 34 64.0001C34.512 64.0001 35.023 63.8051 35.414 63.4141ZM38 45.0001C34.141 45.0001 31 41.8601 31 38.0001C31 34.1401 34.141 31.0001 38 31.0001C41.859 31.0001 45 34.1401 45 38.0001C45 41.8601 41.859 45.0001 38 45.0001ZM38 35.0001C36.346 35.0001 35 36.3461 35 38.0001C35 39.6541 36.346 41.0001 38 41.0001C39.654 41.0001 41 39.6541 41 38.0001C41 36.3461 39.654 35.0001 38 35.0001ZM58 65.0001C54.141 65.0001 51 61.8591 51 58.0001C51 54.1411 54.141 51.0001 58 51.0001C61.859 51.0001 65 54.1411 65 58.0001C65 61.8591 61.859 65.0001 58 65.0001ZM58 55.0001C56.346 55.0001 55 56.3461 55 58.0001C55 59.6541 56.346 61.0001 58 61.0001C59.654 61.0001 61 59.6541 61 58.0001C61 56.3461 59.654 55.0001 58 55.0001Z"
        fill="#537CE5" />
</svg>