<svg width="92" height="92" viewBox="0 0 92 92" fill="none" xmlns="http://www.w3.org/2000/svg">
    <g clip-path="url(#clip0_656_6151)">
        <path
            d="M46 0C20.636 0 0 20.636 0 46C0 71.364 20.636 92 46 92C71.364 92 92 71.364 92 46C92 20.636 71.364 0 46 0ZM46 88.1667C33.3929 88.1667 22.0915 82.577 14.3579 73.7786C14.5784 73.6451 14.8007 73.4999 15.0188 73.3874C22.3242 69.6365 33.6296 65.1667 46 65.1667C58.3704 65.1667 69.6756 69.6365 76.9792 73.3856C77.1984 73.4988 77.4212 73.6442 77.6423 73.7784C69.9085 82.5766 58.6071 88.1667 46 88.1667ZM78.7331 69.9771C71.0515 66.0334 59.1359 61.3333 46 61.3333C32.8641 61.3333 20.9485 66.0334 13.2651 69.9789C12.8218 70.2071 12.3842 70.4695 11.941 70.7575C6.86622 63.7955 3.83327 55.2553 3.83327 46C3.83327 22.7492 22.7492 3.83327 46 3.83327C69.2508 3.83327 88.1667 22.7492 88.1667 46C88.1667 55.2553 85.134 63.7959 80.059 70.7575C79.6156 70.4691 79.1777 70.2061 78.7331 69.9771Z"
            fill="#537CE5" />
        <path
            d="M46.0002 13.4165C33.8471 13.4165 23.9585 23.3049 23.9585 35.4582C23.9585 47.6116 33.8471 57.4998 46.0002 57.4998C58.1534 57.4998 68.042 47.6114 68.042 35.4581C68.042 23.3047 58.1534 13.4165 46.0002 13.4165ZM46.0002 53.6665C35.9602 53.6665 27.792 45.4983 27.792 35.4582C27.792 25.4182 35.9602 17.2498 46.0002 17.2498C56.0403 17.2498 64.2085 25.418 64.2085 35.4581C64.2085 45.4981 56.0403 53.6665 46.0002 53.6665Z"
            fill="#537CE5" />
    </g>
    <defs>
        <clipPath id="clip0_656_6151">
            <rect width="92" height="92" fill="white" />
        </clipPath>
    </defs>
</svg>