<svg width="92" height="92" viewBox="0 0 92 92" fill="none" xmlns="http://www.w3.org/2000/svg">
    <g clip-path="url(#clip0_656_6157)">
        <path
            d="M83.249 76.2023L74.1192 67.0779V1.54155C74.1192 0.690237 73.4283 0 72.5762 0H26.2869C26.2575 0 26.2296 0.0150542 26.2002 0.0173124C26.0586 0.0240868 25.9185 0.0526899 25.7851 0.100111C25.7399 0.11366 25.6947 0.129466 25.651 0.148284C25.4792 0.22205 25.3225 0.326677 25.1884 0.456144L6.67269 18.9548C6.54311 19.0858 6.43838 19.2386 6.3638 19.4064C6.34195 19.4546 6.32989 19.502 6.31256 19.5517C6.26811 19.6797 6.24174 19.8129 6.23421 19.9476C6.23421 19.9815 6.21387 20.0109 6.21387 20.0447V78.6193C6.21387 79.4706 6.90474 80.1608 7.75684 80.1608H61.0235L70.1547 89.2792C71.8838 91.0262 74.2427 92.0063 76.7019 92.0002C80.45 92.0033 83.8298 89.7481 85.2636 86.2879C86.6965 82.8284 85.9009 78.8466 83.2474 76.2023H83.249ZM70.1691 84.9398L46.1527 60.9531L54.8937 52.2187L78.9025 76.2144L70.1691 84.9398ZM44.8471 57.8964L42.7548 48.8269L51.8342 50.9157L44.8471 57.8964ZM24.7439 5.26296V18.4987H11.496L24.7439 5.26296ZM9.31414 77.0777V21.5818H26.2869C27.139 21.5818 27.8299 20.8915 27.8299 20.0402V3.08311H71.0332V63.9933L55.9862 48.9489L55.9688 48.9383C55.8415 48.8171 55.6946 48.7185 55.5341 48.647C55.4904 48.6282 55.449 48.6147 55.4061 48.5989C55.3518 48.5748 55.2968 48.5537 55.2403 48.5356L41.0454 45.2681C40.5263 45.1477 39.9823 45.3035 39.6056 45.6791C39.2289 46.0554 39.0737 46.5997 39.1935 47.1175L42.4648 61.3001C42.4829 61.3566 42.504 61.4123 42.5281 61.4665C42.5439 61.5079 42.5559 61.5493 42.5763 61.5914C42.6471 61.754 42.7473 61.903 42.8709 62.0303L42.8784 62.043L57.936 77.0777H9.31414ZM81.0626 87.1054C79.9083 88.2623 78.3405 88.9126 76.7056 88.9126C75.0707 88.9126 73.5029 88.2623 72.3494 87.1054L73.0757 86.3782L81.0761 78.3867C82.2341 79.5414 82.8843 81.11 82.8813 82.7449C82.879 84.3798 82.2243 85.9462 81.0626 87.0978V87.1054Z"
            fill="#537CE5" />
        <path
            d="M20.1152 30.8312H60.2326C61.0847 30.8312 61.7756 30.1409 61.7756 29.2896C61.7756 28.4383 61.0847 27.748 60.2326 27.748H20.1152C19.2631 27.748 18.5723 28.4383 18.5723 29.2896C18.5723 30.1409 19.2631 30.8312 20.1152 30.8312Z"
            fill="#537CE5" />
        <path
            d="M20.1152 40.0802H60.2326C61.0847 40.0802 61.7756 39.3899 61.7756 38.5386C61.7756 37.6873 61.0847 36.9971 60.2326 36.9971H20.1152C19.2631 36.9971 18.5723 37.6873 18.5723 38.5386C18.5723 39.3899 19.2631 40.0802 20.1152 40.0802Z"
            fill="#537CE5" />
        <path
            d="M30.9161 46.2466H20.1152C19.2631 46.2466 18.5723 46.9368 18.5723 47.7881C18.5723 48.6395 19.2631 49.3297 20.1152 49.3297H30.9161C31.7682 49.3297 32.4591 48.6395 32.4591 47.7881C32.4591 46.9368 31.7682 46.2466 30.9161 46.2466Z"
            fill="#537CE5" />
    </g>
    <defs>
        <clipPath id="clip0_656_6157">
            <rect width="92" height="92" fill="white" />
        </clipPath>
    </defs>
</svg>