<svg width="110" height="110" viewBox="0 0 110 110" fill="none" xmlns="http://www.w3.org/2000/svg">
    <path
        d="M90.75 10.1406H26.8125C25.9531 10.1406 25.3516 10.8281 25.2656 11.6016V17.0156H16.7578C15.8984 17.0156 15.2969 17.7031 15.2109 18.5625V98.3125C15.2109 99.1719 15.8984 99.8594 16.7578 99.8594H80.7812C81.6406 99.8594 82.2422 99.1719 82.3281 98.3984V92.9844H90.8359C91.6953 92.9844 92.3828 92.2969 92.3828 91.4375V11.6875C92.2109 10.8281 91.6094 10.1406 90.75 10.1406ZM79.2344 96.8516H18.3906V20.1094H59.7266V33.9453C59.7266 34.8047 60.4141 35.4062 61.1875 35.4922H79.2344V96.8516ZM76.3984 32.4844H62.7344V21.6563L76.3984 32.4844ZM89.2031 89.8906H82.2422V33.9453C82.2422 33.5156 82.0703 33.0859 81.6406 32.7422L62.1328 17.4453C61.875 17.2734 61.5312 17.1016 61.1875 17.1016H28.3594V13.1484H89.2891L89.2031 89.8906Z"
        fill="#537CE5" />
    <path
        d="M54.9141 24.75H26.8125C25.9531 24.75 25.3516 25.4375 25.2656 26.2109V55.0859C25.2656 55.9453 25.9531 56.6328 26.8125 56.6328H54.9141C55.7734 56.6328 56.375 55.9453 56.375 55.0859V26.2969C56.375 25.4375 55.7734 24.75 54.9141 24.75ZM34.8047 53.625C35.6641 49.8438 39.3594 47.4375 43.2266 48.2109C45.8906 48.8125 48.0391 50.875 48.6406 53.625H34.8047ZM53.4531 53.625H51.6484C50.7891 48.125 45.7188 44.3438 40.2188 45.2031C35.8359 45.8906 32.3984 49.3281 31.7969 53.625H28.3594V27.7578H53.4531V53.625Z"
        fill="#537CE5" />
    <path
        d="M54.9141 60.8438H26.8125C25.9531 60.8438 25.2656 61.5312 25.2656 62.3906C25.2656 63.25 25.9531 63.9375 26.8125 63.9375H54.9141C55.7734 63.9375 56.4609 63.25 56.4609 62.3906C56.4609 61.5312 55.7734 60.8438 54.9141 60.8438Z"
        fill="#537CE5" />
    <path
        d="M54.9141 71.6719H26.8125C25.9531 71.6719 25.2656 72.3594 25.2656 73.2187C25.2656 74.0781 25.9531 74.7656 26.8125 74.7656H54.9141C55.7734 74.7656 56.4609 74.0781 56.4609 73.2187C56.4609 72.3594 55.7734 71.6719 54.9141 71.6719Z"
        fill="#537CE5" />
    <path
        d="M54.9141 82.5H26.8125C25.9531 82.5 25.2656 83.1875 25.2656 84.0469C25.2656 84.9063 25.9531 85.5937 26.8125 85.5937H54.9141C55.7734 85.5937 56.4609 84.9063 56.4609 84.0469C56.4609 83.1875 55.7734 82.5 54.9141 82.5Z"
        fill="#537CE5" />
    <path
        d="M41.6797 42.1953C44.6016 42.1953 47.0078 39.7891 47.0078 36.8672C47.0078 33.9453 44.6016 31.5391 41.6797 31.5391C38.7578 31.5391 36.3516 33.9453 36.3516 36.8672C36.3516 39.7891 38.7578 42.1953 41.6797 42.1953ZM41.6797 34.4609C42.9688 34.4609 44 35.4922 44 36.7812C44 38.0703 42.9688 39.1016 41.6797 39.1016C40.3906 39.1016 39.3594 38.0703 39.3594 36.7812C39.3594 35.5781 40.3906 34.4609 41.6797 34.4609Z"
        fill="#537CE5" />
</svg>