<svg width="119" height="119" viewBox="0 0 119 119" fill="none" xmlns="http://www.w3.org/2000/svg">
    <path
        d="M103.474 39.6978H95.5718L69.3546 13.9454C68.5179 13.1087 67.1233 13.1087 66.2866 13.9454C65.4499 14.7821 65.4499 16.1767 66.2866 17.0134L89.3429 39.6048H29.6569L52.7132 17.0134C53.5499 16.1767 53.5499 14.7821 52.7132 13.9454C51.8765 13.1087 50.4819 13.1087 49.6452 13.9454L23.428 39.6978H15.5257C14.3171 39.6978 13.2944 40.7204 13.2944 41.929V55.1306C13.2944 56.3392 14.3171 57.3618 15.5257 57.3618H18.0358L24.3577 103.846C24.5437 104.962 25.4733 105.706 26.496 105.706H92.5038C93.6194 105.706 94.5491 104.869 94.6421 103.846L100.964 57.3618H103.474C104.683 57.3618 105.705 56.3392 105.705 55.1306V41.929C105.705 40.7204 104.683 39.6978 103.474 39.6978ZM90.5515 101.336H28.4483L22.4054 57.3618H96.5944L90.5515 101.336ZM101.336 52.8993H99.1046H19.8952H17.664V44.0673H101.336V52.8993Z"
        fill="#537CE5" />
    <path
        d="M59.4998 90.2728C60.7084 90.2728 61.7311 89.2502 61.7311 88.0416V70.4705C61.7311 69.2619 60.7084 68.2393 59.4998 68.2393C58.2912 68.2393 57.2686 69.2619 57.2686 70.4705V88.0416C57.2686 89.3432 58.2912 90.2728 59.4998 90.2728Z"
        fill="#537CE5" />
    <path
        d="M39.6978 88.4133C39.7907 89.5289 40.8134 90.3656 41.836 90.3656H42.115C43.3235 90.1797 44.1603 89.157 44.0673 87.9484L41.836 70.3774C41.6501 69.1688 40.5345 68.332 39.4189 68.425C38.2103 68.611 37.3735 69.6336 37.4665 70.8422L39.6978 88.4133Z"
        fill="#537CE5" />
    <path
        d="M76.7919 90.273H77.0708C78.1864 90.273 79.1161 89.4363 79.2091 88.3206L81.4403 70.7495C81.6263 69.5409 80.6966 68.4253 79.488 68.3323C78.2794 68.1464 77.1638 69.0761 77.0708 70.2847L74.8396 87.8558C74.7466 89.0644 75.5833 90.087 76.7919 90.273Z"
        fill="#537CE5" />
</svg>