<svg width="92" height="92" viewBox="0 0 92 92" fill="none" xmlns="http://www.w3.org/2000/svg">
    <path
        d="M46.0003 88.3191L7.78884 50.0806C2.77035 44.9282 0 38.1537 0 31.0138C0 15.9744 12.2055 3.76025 27.2341 3.76025C33.977 3.76025 40.7207 6.68966 46.0003 11.842C51.2799 6.68966 58.0227 3.76025 64.7656 3.76025C79.7943 3.76025 91.9997 15.9744 91.9997 31.0138C91.9997 38.1798 89.2294 44.9543 84.2117 50.0806L46.0003 88.3191ZM27.2341 7.94479C14.5057 7.94479 4.18156 18.2762 4.18156 31.0138C4.18156 37.0817 6.53384 42.8095 10.7682 47.1511L46.0003 82.4082L81.2583 47.1251C85.4919 42.8095 87.8182 37.0817 87.8182 31.0138C87.8182 18.3023 77.4941 7.94479 64.7656 7.94479C58.5457 7.94479 52.2469 10.9784 47.5684 16.2618L46.0003 18.0142L44.4321 16.2618C39.7536 10.9784 33.4548 7.94479 27.2341 7.94479Z"
        fill="#537CE5" />
</svg>