<svg width="92" height="92" viewBox="0 0 92 92" fill="none" xmlns="http://www.w3.org/2000/svg">
    <g clip-path="url(#clip0_656_6193)">
        <path
            d="M92 16.6208C92 13.4009 89.3803 10.7812 86.1602 10.7812H83.7838C82.9089 4.69396 77.6615 0 71.3362 0H20.664C13.7283 0 8.08591 5.64253 8.08591 12.5781V15.9023H5.83982C2.61965 15.9023 0 18.5221 0 21.7421C0 24.9621 2.61965 27.5819 5.83982 27.5819H8.08591V32.0741H5.83982C2.61965 32.0741 0 34.6939 0 37.9139C0 41.1339 2.61965 43.7537 5.83982 43.7537H8.08591V48.2459H5.83982C2.61965 48.2459 0 50.8657 0 54.0857C0 57.3057 2.61965 59.9255 5.83982 59.9255H8.08591V64.4177H5.83982C2.61965 64.4177 0 67.0376 0 70.2575C0 73.4775 2.61965 76.0974 5.83982 76.0974H8.08591V79.4216C8.08591 86.3571 13.7283 91.9996 20.664 91.9996H71.3362C77.6617 91.9996 82.9091 87.3057 83.7838 81.2184H86.1602C89.3803 81.2184 92 78.5988 92 75.3788V66.7536C92 65.1861 91.3792 63.761 90.3706 62.7109C91.3792 61.6608 92 60.2357 92 58.6681V50.0428C92 48.4752 91.3792 47.0501 90.3706 46C91.3792 44.9499 92 43.5248 92 41.9572V33.3319C92 31.7643 91.3792 30.3392 90.3706 29.2891C91.3792 28.239 92 26.8139 92 25.2464V16.6208ZM3.59374 21.7423C3.59374 20.5037 4.60124 19.4962 5.83982 19.4962H13.9259C15.1643 19.4962 16.1718 20.5037 16.1718 21.7423C16.1718 22.9809 15.1643 23.9884 13.9259 23.9884H5.83982C4.60124 23.9884 3.59374 22.9809 3.59374 21.7423ZM3.59374 37.9141C3.59374 36.6755 4.60124 35.668 5.83982 35.668H13.9259C15.1643 35.668 16.1718 36.6755 16.1718 37.9141C16.1718 39.1527 15.1643 40.1602 13.9259 40.1602H5.83982C4.60124 40.1602 3.59374 39.1527 3.59374 37.9141ZM3.59374 54.0859C3.59374 52.8473 4.60124 51.8398 5.83982 51.8398H13.9259C15.1643 51.8398 16.1718 52.8473 16.1718 54.0859C16.1718 55.3245 15.1643 56.332 13.9259 56.332H5.83982C4.60124 56.332 3.59374 55.3245 3.59374 54.0859ZM3.59374 70.2577C3.59374 69.0191 4.60124 68.0116 5.83982 68.0116H13.9259C15.1643 68.0116 16.1718 69.0191 16.1718 70.2577C16.1718 71.4963 15.1643 72.5038 13.9259 72.5038H5.83982C4.60124 72.5038 3.59374 71.4963 3.59374 70.2577ZM71.3362 88.4063H27.8515V17.9687C27.8515 16.9763 27.0468 16.1718 26.0546 16.1718C25.0624 16.1718 24.2577 16.9763 24.2577 17.9687V88.4061H20.664C15.71 88.4061 11.6796 84.3757 11.6796 79.4217V76.0975H13.9259C17.1459 76.0975 19.7655 73.4777 19.7655 70.2577C19.7655 67.0377 17.1459 64.4179 13.9259 64.4179H11.6796V59.9259H13.9259C17.1459 59.9259 19.7655 57.3061 19.7655 54.0861C19.7655 50.8661 17.1459 48.2463 13.9259 48.2463H11.6796V43.7543H13.9259C17.1459 43.7543 19.7655 41.1344 19.7655 37.9145C19.7655 34.6945 17.1459 32.0746 13.9259 32.0746H11.6796V27.5826H13.9259C17.1459 27.5826 19.7655 24.9628 19.7655 21.7428C19.7655 18.5228 17.1459 15.903 13.9259 15.903H11.6796V12.5781C11.6796 7.62411 15.71 3.59374 20.664 3.59374H71.3362C76.2902 3.59374 80.3205 7.62411 80.3205 12.5781V79.4219C80.3205 84.3759 76.2902 88.4063 71.3362 88.4063ZM88.4063 75.3792C88.4063 76.6176 87.3988 77.6251 86.1602 77.6251H83.9143V64.5079H86.1602C87.3988 64.5079 88.4063 65.5154 88.4063 66.7538V75.3792ZM88.4063 58.6681C88.4063 59.9065 87.3988 60.914 86.1602 60.914H83.9143V47.7969H86.1602C87.3988 47.7969 88.4063 48.8044 88.4063 50.0428V58.6681ZM88.4063 41.9572C88.4063 43.1956 87.3988 44.2031 86.1602 44.2031H83.9143V31.086H86.1602C87.3988 31.086 88.4063 32.0935 88.4063 33.3319V41.9572ZM88.4063 25.2462C88.4063 26.4846 87.3988 27.4921 86.1602 27.4921H83.9143V14.3749H86.1602C87.3988 14.3749 88.4063 15.3824 88.4063 16.6208V25.2462Z"
            fill="#537CE5" />
        <path
            d="M67.4385 48.701C65.6982 46.9609 63.1558 47.0723 61.2558 48.972C58.7152 51.5124 57.1191 52.6072 55.918 52.6329C54.7325 52.6525 53.2612 51.6784 50.8342 49.2514C48.4071 46.8245 47.4275 45.3515 47.4528 44.1677C47.4785 42.9667 48.5732 41.3703 51.1137 38.8297C52.0348 37.9087 52.5505 36.8321 52.6055 35.7168C52.6614 34.5803 52.2276 33.49 51.3845 32.6471L45.2666 26.5289C45.0024 26.264 43.7994 25.1816 41.9481 25.3539C40.1079 25.5246 38.3846 26.8549 36.8256 29.3076C35.1759 31.9032 33.2484 36.0861 33.4344 41.2731C33.6444 47.1375 36.473 52.8453 41.8417 58.2379C41.8437 58.2399 41.8455 58.2416 41.8473 58.2436C47.2401 63.6121 52.9476 66.4409 58.8121 66.651C59.0464 66.6594 59.278 66.6634 59.5082 66.6634C64.3734 66.6634 68.2995 64.8349 70.7778 63.2596C73.2303 61.7008 74.5607 59.9772 74.7314 58.1371C74.9034 56.2845 73.8215 55.0829 73.5566 54.8188L67.4385 48.701ZM71.1531 57.8054C71.1309 58.0442 70.8994 58.9245 68.8501 60.227C64.3105 63.1126 55.0967 66.3613 44.3859 55.6998C33.7244 44.989 36.9733 35.775 39.8587 31.2354C41.1307 29.2341 42.0081 28.9698 42.2467 28.9363C42.5019 28.9008 42.678 29.03 42.7243 29.069L42.7254 29.07L48.8436 35.188C49.0245 35.3691 49.0186 35.4935 49.0161 35.5402C49.0062 35.7409 48.8403 36.0205 48.5726 36.2884C45.7046 39.1564 43.9159 41.462 43.86 44.091C43.8034 46.7467 45.5913 49.0906 48.293 51.7923C50.995 54.4941 53.3325 56.2834 55.9946 56.2256C58.6234 56.1695 60.9291 54.3807 63.7971 51.5127C64.4821 50.8272 64.7735 51.118 64.8977 51.2419L71.0155 57.3599C71.03 57.3745 71.0448 57.3887 71.0597 57.4027C71.061 57.4041 71.1734 57.5872 71.1531 57.8054Z"
            fill="#537CE5" />
        <path
            d="M26.0547 8.08594C25.0624 8.08594 24.2578 8.89093 24.2578 9.88334C24.2578 10.8758 25.0624 11.6802 26.0547 11.6802C27.0469 11.6802 27.8515 10.8758 27.8515 9.88334V9.88209C27.8515 8.88968 27.0469 8.08594 26.0547 8.08594Z"
            fill="#537CE5" />
    </g>
    <defs>
        <clipPath id="clip0_656_6193">
            <rect width="92" height="92" fill="white" />
        </clipPath>
    </defs>
</svg>