<svg width="100" height="100" viewBox="0 0 100 100" fill="none" xmlns="http://www.w3.org/2000/svg">
    <path
        d="M58.3332 29.1665H43.7498C42.5998 29.1665 41.6665 30.0998 41.6665 31.2498V58.3332H31.2498C30.0998 58.3332 29.1665 59.2665 29.1665 60.4165C29.1665 61.5665 30.0998 62.4998 31.2498 62.4998H41.6665V68.7498C41.6665 69.8998 42.5998 70.8332 43.7498 70.8332C44.8998 70.8332 45.8332 69.8998 45.8332 68.7498V62.4998H56.2498C57.3998 62.4998 58.3332 61.5665 58.3332 60.4165C58.3332 59.2665 57.3998 58.3332 56.2498 58.3332H45.8332V54.1665H58.3332C65.2248 54.1665 70.8332 48.5582 70.8332 41.6665C70.8332 34.7748 65.2248 29.1665 58.3332 29.1665ZM58.3332 49.9998H45.8332V33.3332H58.3332C62.929 33.3332 66.6665 37.0707 66.6665 41.6665C66.6665 46.2623 62.929 49.9998 58.3332 49.9998Z"
        fill="#537CE5" />
    <path
        d="M49.9998 4.1665C24.729 4.1665 4.1665 24.729 4.1665 49.9998C4.1665 75.2707 24.729 95.8332 49.9998 95.8332C75.2707 95.8332 95.8332 75.2707 95.8332 49.9998C95.8332 24.729 75.2707 4.1665 49.9998 4.1665ZM49.9998 91.6665C27.0248 91.6665 8.33317 72.9748 8.33317 49.9998C8.33317 27.0248 27.0248 8.33317 49.9998 8.33317C72.9748 8.33317 91.6665 27.0248 91.6665 49.9998C91.6665 72.9748 72.9748 91.6665 49.9998 91.6665Z"
        fill="#537CE5" />
</svg>