<svg width="26" height="32" viewBox="0 0 26 32" fill="none" xmlns="http://www.w3.org/2000/svg">
    <path fill-rule="evenodd" clip-rule="evenodd"
        d="M1 32C0.734784 32 0.48043 31.8946 0.292893 31.7071C0.105357 31.5196 0 31.2652 0 31V15C0 14.7348 0.105357 14.4804 0.292893 14.2929C0.48043 14.1054 0.734784 14 1 14H12V1C12 0.734784 12.1054 0.48043 12.2929 0.292893C12.4804 0.105357 12.7348 0 13 0H25C25.2652 0 25.5196 0.105357 25.7071 0.292893C25.8946 0.48043 26 0.734784 26 1V31C26 31.2652 25.8946 31.5196 25.7071 31.7071C25.5196 31.8946 25.2652 32 25 32H1ZM12 21.75H2V30H12V21.75ZM24 11.75H14V30H24V11.75ZM4 23C4.26522 23 4.51957 23.1054 4.70711 23.2929C4.89464 23.4804 5 23.7348 5 24C5 24.2652 4.89464 24.5196 4.70711 24.7071C4.51957 24.8946 4.26522 25 4 25C3.73478 25 3.48043 24.8946 3.29289 24.7071C3.10536 24.5196 3 24.2652 3 24C3 23.7348 3.10536 23.4804 3.29289 23.2929C3.48043 23.1054 3.73478 23 4 23ZM12 16H2V20.25H12V16ZM4 17C4.26522 17 4.51957 17.1054 4.70711 17.2929C4.89464 17.4804 5 17.7348 5 18C5 18.2652 4.89464 18.5196 4.70711 18.7071C4.51957 18.8946 4.26522 19 4 19C3.73478 19 3.48043 18.8946 3.29289 18.7071C3.10536 18.5196 3 18.2652 3 18C3 17.7348 3.10536 17.4804 3.29289 17.2929C3.48043 17.1054 3.73478 17 4 17ZM16 13C16.2652 13 16.5196 13.1054 16.7071 13.2929C16.8946 13.4804 17 13.7348 17 14C17 14.2652 16.8946 14.5196 16.7071 14.7071C16.5196 14.8946 16.2652 15 16 15C15.7348 15 15.4804 14.8946 15.2929 14.7071C15.1054 14.5196 15 14.2652 15 14C15 13.7348 15.1054 13.4804 15.2929 13.2929C15.4804 13.1054 15.7348 13 16 13ZM24 2H14V10.25H24V2ZM16 7C16.2652 7 16.5196 7.10536 16.7071 7.29289C16.8946 7.48043 17 7.73478 17 8C17 8.26522 16.8946 8.51957 16.7071 8.70711C16.5196 8.89464 16.2652 9 16 9C15.7348 9 15.4804 8.89464 15.2929 8.70711C15.1054 8.51957 15 8.26522 15 8C15 7.73478 15.1054 7.48043 15.2929 7.29289C15.4804 7.10536 15.7348 7 16 7Z"
        fill="#0b4250" />
</svg>