<svg width="18" height="32" viewBox="0 0 18 32" fill="none" xmlns="http://www.w3.org/2000/svg">
<path fill-rule="evenodd" clip-rule="evenodd" d="M17 0C17.2652 0 17.5196 0.105357 17.7071 0.292893C17.8946 0.48043 18 0.734784 18 1V31C18 31.2652 17.8946 31.5196 17.7071 31.7071C17.5196 31.8946 17.2652 32 17 32H1C0.734784 32 0.48043 31.8946 0.292893 31.7071C0.105357 31.5196 0 31.2652 0 31V1C0 0.734784 0.105357 0.48043 0.292893 0.292893C0.48043 0.105357 0.734784 0 1 0H17ZM16 21.75H2V30H16V21.75ZM13 23.25C13.1989 23.25 13.3897 23.329 13.5303 23.4697C13.671 23.6103 13.75 23.8011 13.75 24C13.75 24.1989 13.671 24.3897 13.5303 24.5303C13.3897 24.671 13.1989 24.75 13 24.75H5C4.80109 24.75 4.61032 24.671 4.46967 24.5303C4.32902 24.3897 4.25 24.1989 4.25 24C4.25 23.8011 4.32902 23.6103 4.46967 23.4697C4.61032 23.329 4.80109 23.25 5 23.25H13ZM16 2H2V20.25H16V2ZM13 17.25C13.1989 17.25 13.3897 17.329 13.5303 17.4697C13.671 17.6103 13.75 17.8011 13.75 18C13.75 18.1989 13.671 18.3897 13.5303 18.5303C13.3897 18.671 13.1989 18.75 13 18.75H5C4.80109 18.75 4.61032 18.671 4.46967 18.5303C4.32902 18.3897 4.25 18.1989 4.25 18C4.25 17.8011 4.32902 17.6103 4.46967 17.4697C4.61032 17.329 4.80109 17.25 5 17.25H13Z" fill="#537CE5"/>
</svg>
