<svg width="24" height="32" viewBox="0 0 24 32" fill="none" xmlns="http://www.w3.org/2000/svg">
    <path fill-rule="evenodd" clip-rule="evenodd"
        d="M23 0C23.2652 0 23.5196 0.105357 23.7071 0.292893C23.8946 0.48043 24 0.734784 24 1V31C24 31.2652 23.8946 31.5196 23.7071 31.7071C23.5196 31.8946 23.2652 32 23 32H1C0.734784 32 0.48043 31.8946 0.292893 31.7071C0.105357 31.5196 0 31.2652 0 31V1C0 0.734784 0.105357 0.48043 0.292893 0.292893C0.48043 0.105357 0.734784 0 1 0H23ZM22 7.75H2V30H22V7.75ZM12 12C13.8565 12 15.637 12.7375 16.9497 14.0503C18.2625 15.363 19 17.1435 19 19C19 20.8565 18.2625 22.637 16.9497 23.9497C15.637 25.2625 13.8565 26 12 26C10.1435 26 8.36301 25.2625 7.05025 23.9497C5.7375 22.637 5 20.8565 5 19C5 17.1435 5.7375 15.363 7.05025 14.0503C8.36301 12.7375 10.1435 12 12 12ZM12 14C10.6739 14 9.40215 14.5268 8.46447 15.4645C7.52678 16.4021 7 17.6739 7 19C7 20.3261 7.52678 21.5979 8.46447 22.5355C9.40215 23.4732 10.6739 24 12 24C13.3261 24 14.5979 23.4732 15.5355 22.5355C16.4732 21.5979 17 20.3261 17 19C17 17.6739 16.4732 16.4021 15.5355 15.4645C14.5979 14.5268 13.3261 14 12 14ZM22 2H2V6.25H22V2ZM19 3C19.2652 3 19.5196 3.10536 19.7071 3.29289C19.8946 3.48043 20 3.73478 20 4C20 4.26522 19.8946 4.51957 19.7071 4.70711C19.5196 4.89464 19.2652 5 19 5C18.7348 5 18.4804 4.89464 18.2929 4.70711C18.1054 4.51957 18 4.26522 18 4C18 3.73478 18.1054 3.48043 18.2929 3.29289C18.4804 3.10536 18.7348 3 19 3Z"
        fill="#0b4250" />
</svg>