<svg width="25" height="32" viewBox="0 0 25 32" fill="none" xmlns="http://www.w3.org/2000/svg">
    <path fill-rule="evenodd" clip-rule="evenodd"
        d="M15 0C16.1526 0.000141065 17.2697 0.398297 18.1625 1.12714C19.0554 1.85599 19.6691 2.87081 19.9 4H24C24.1452 4.00007 24.2886 4.03174 24.4203 4.09281C24.5519 4.15388 24.6688 4.24288 24.7626 4.35365C24.8564 4.46441 24.925 4.59427 24.9636 4.73421C25.0022 4.87415 25.0098 5.02081 24.986 5.164L22.543 19.822C22.3672 20.8778 21.8571 21.8494 21.088 22.5937C20.3188 23.338 19.331 23.8159 18.27 23.957L19.97 30.757C20.0069 30.9044 20.0098 31.0584 19.9783 31.2071C19.9468 31.3558 19.8818 31.4954 19.7883 31.6152C19.6948 31.735 19.5752 31.832 19.4386 31.8987C19.302 31.9653 19.152 32 19 32H1C0.847994 32 0.69799 31.9653 0.561388 31.8987C0.424786 31.832 0.305182 31.735 0.211666 31.6152C0.11815 31.4954 0.0531831 31.3558 0.0217042 31.2071C-0.00977466 31.0584 -0.00693718 30.9044 0.0300002 30.757L2.03 22.757C2.08417 22.5408 2.20905 22.3488 2.38479 22.2117C2.56054 22.0745 2.77707 22 3 22H3.754L0.0289998 5.242C0.0190164 5.20084 0.0116683 5.15909 0.00699997 5.117V5.11L0.00500011 5.1C0.00306622 5.08004 0.00173209 5.06004 0.000999928 5.04L0 5C0 3.67392 0.526784 2.40215 1.46447 1.46447C2.40215 0.526784 3.67392 0 5 0H15ZM16.22 24H3.78L2.28 30H17.72L16.22 24ZM14 25C14.2652 25 14.5196 25.1054 14.7071 25.2929C14.8946 25.4804 15 25.7348 15 26C15 26.2652 14.8946 26.5196 14.7071 26.7071C14.5196 26.8946 14.2652 27 14 27C13.7348 27 13.4804 26.8946 13.2929 26.7071C13.1054 26.5196 13 26.2652 13 26C13 25.7348 13.1054 25.4804 13.2929 25.2929C13.4804 25.1054 13.7348 25 14 25ZM22.82 6H19.848L17.18 22H17.61C18.2889 22.0001 18.9477 21.7698 19.4788 21.347C20.0099 20.9241 20.3819 20.3336 20.534 19.672L20.57 19.493L22.82 6ZM17.82 6H2.247L5.803 22H15.153L17.82 6ZM15 2H5C4.41101 1.99992 3.83503 2.17322 3.34387 2.49829C2.85271 2.82336 2.4681 3.28582 2.238 3.828L2.17 4H17.828C17.6211 3.41525 17.2381 2.90897 16.7317 2.55082C16.2252 2.19266 15.6203 2.00023 15 2Z"
        fill="#0b4250" />
</svg>