<svg width="30" height="26" viewBox="0 0 30 26" fill="none" xmlns="http://www.w3.org/2000/svg">
<path d="M29 16.7H19.4V15.2H19.9C20.2 15.2 20.4 15 20.4 14.7C20.4 14.4 20.2 14.2 19.9 14.2H17.9C17.6 14.2 17.4 14.4 17.4 14.7C17.4 15 17.6 15.2 17.9 15.2H18.4V16.7H16V7.7C16 7.2 16 6.4 16.2 5.6C16.6 4 17.5 2.2 19.8 2.2C21.6 2.2 22.6 3.3 23.1 4.5C22.8 4.6 22.7 4.9 22.7 5.2C22.7 5.6 23 6 23.5 6H25C25.4 6 25.8 5.7 25.8 5.2C25.8 4.9 25.6 4.6 25.3 4.5C24.6 2 22.9 0.300003 20.2 0.200003C17.5 0.100003 15.2 2.1 14.5 4.7C14.3 5.5 14.1 6.5 14.1 7.5C14.1 7.6 14.1 7.7 14.1 7.7V16.7H11.7V15.2H12.2C12.5 15.2 12.7 15 12.7 14.7C12.7 14.4 12.5 14.2 12.2 14.2H10.2C9.9 14.2 9.7 14.4 9.7 14.7C9.7 15 9.9 15.2 10.2 15.2H10.7V16.7H1C0.5 16.7 0 17.1 0 17.7C0 18.3 0.5 18.7 1 18.7H1.9V24.6C1.9 25 2.5 25.6 3.2 25.6L27 25.7C27.7 25.7 28.3 25.1 28.3 24.7V18.6H29C29.5 18.6 30 18.2 30 17.6C30 17.2 29.5 16.7 29 16.7ZM26.1 23.7H3.9V18.8H26.2V23.7H26.1Z" fill="#537CE5"/>
</svg>
