<svg width="30" height="29" viewBox="0 0 30 29" fill="none" xmlns="http://www.w3.org/2000/svg">
<path fill-rule="evenodd" clip-rule="evenodd" d="M21 0.25C22.5188 0.25 23.75 1.48122 23.75 3C23.75 4.25878 22.9043 5.32002 21.75 5.64648V7H23C25.7614 7 28 9.2386 28 12V23H29C29.5523 23 30 23.4477 30 24V28C30 28.5523 29.5523 29 29 29H1C0.44772 29 0 28.5523 0 28V24C0 23.4477 0.44772 23 1 23H2V17H1C0.44772 17 0 16.5523 0 16V14C0 13.4477 0.44772 13 1 13H2V12C2 9.2386 4.23858 7 7 7H8.25V5.64648C7.1535 5.33634 6.33535 4.36306 6.25628 3.18727L6.25 3C6.25 1.48122 7.4812 0.25 9 0.25H21ZM28 25H2V27H28V25ZM23 9H7C5.34315 9 4 10.3431 4 12V23H26V12C26 10.3431 24.6569 9 23 9ZM6 13C6.55228 13 7 13.4477 7 14C7 14.5523 6.55228 15 6 15C5.44772 15 5 14.5523 5 14C5 13.4477 5.44772 13 6 13ZM21 1.75H9C8.3096 1.75 7.75 2.30964 7.75 3C7.75 3.69036 8.3096 4.25 9 4.25H9.75V7H20.25V4.25H21C21.6904 4.25 22.25 3.69036 22.25 3C22.25 2.30964 21.6904 1.75 21 1.75Z" fill="#537CE5"/>
</svg>
