<svg width="36" height="34" viewBox="0 0 36 34" fill="none" xmlns="http://www.w3.org/2000/svg">
    <path fill-rule="evenodd" clip-rule="evenodd"
        d="M4.20119 24.462V20.664H31.7628V24.462C31.7628 25.7796 30.9276 27.054 30.1968 27.6768C29.268 28.458 28.242 28.8216 26.5608 28.8216H9.4032C7.72199 28.8216 6.69599 28.458 5.76719 27.6768C5.03279 27.054 4.20119 25.7796 4.20119 24.462ZM7.02719 0.766846H7.37279C7.85519 0.781246 8.33759 0.864046 8.7984 1.01885C9.89999 1.38245 9.97919 1.68845 10.5984 2.10245C11.952 1.19525 13.8276 1.24925 15.0768 2.26445C16.128 3.11765 16.8552 3.83765 15.75 4.93205L11.988 8.69405C10.9836 9.69485 10.9008 10.0476 9.9648 10.0476C9.17279 10.0476 6.92279 7.63565 7.88399 5.22365C8.29799 4.17965 8.47439 4.26605 8.84159 3.71885C8.41319 3.07805 7.43759 3.15725 6.732 3.15725C5.86439 3.15725 4.97159 4.10765 4.97159 4.98245V14.688H32.6772C33.1884 14.688 33.6636 14.7564 34.0236 14.886C34.452 15.0444 34.6248 15.1632 34.9596 15.4296C35.3664 15.75 35.9712 16.6644 35.982 17.3448V17.4024C35.9712 19.0368 35.4708 19.7172 34.0848 20.4516C34.0848 21.7872 34.0776 23.1264 34.0848 24.462C34.0956 26.3016 33.3612 27.5004 32.3964 28.7496C31.6836 29.6748 29.7252 30.906 28.6704 30.9312C28.8216 31.5036 29.934 31.86 29.934 32.7564C29.934 33.3252 29.466 33.8328 28.9044 33.9012C27.6336 34.0632 25.992 31.14 25.3656 31.14H10.5984C10.3824 31.14 8.67599 32.9544 8.40239 33.2316C8.02439 33.6132 7.63919 34.002 7.002 33.894C6.47999 33.804 6.02639 33.318 6.02639 32.7564C6.02639 31.86 7.13879 31.5036 7.29359 30.9312C6.55559 30.9132 5.14079 30.1464 4.53959 29.6748C4.15799 29.3724 3.84479 29.106 3.53519 28.71C2.55239 27.4464 1.86839 26.2548 1.87919 24.39C1.88639 23.0796 1.87919 21.7656 1.87919 20.4516C0.493195 19.7172 -0.0108054 19.0368 -0.0180054 17.4024V17.3448C-0.0108054 16.2648 1.01159 15.1416 2.15279 14.8176C2.31479 14.7708 2.49839 14.76 2.65319 14.688V5.96885C2.65319 4.77365 2.60279 4.29485 2.98439 3.41645C3.72959 1.69925 5.35679 0.820846 7.02719 0.766846ZM2.30039 17.7804C2.30039 17.2548 2.59199 17.0064 3.14639 17.0064H32.8176C33.7752 17.0064 33.8616 17.8956 33.3792 18.2052C33.2568 18.2808 33.03 18.342 32.8176 18.342H3.14639C2.70719 18.342 2.30039 18.0936 2.30039 17.7804ZM10.1052 7.16405C9.99719 5.85365 9.81359 6.08405 11.1096 4.79165C12.2148 3.68645 12.204 3.64685 13.41 3.93125C13.2804 4.12205 10.4256 7.07765 10.1052 7.16405Z"
        fill="#0b4250" />
    <path fill-rule="evenodd" clip-rule="evenodd"
        d="M12.636 9.20161C12.636 9.54001 13.3164 10.3284 13.8312 10.3284C13.9968 10.3284 14.3244 10.098 14.3244 9.76681C14.3244 9.39241 13.5756 8.64001 13.2012 8.64001C12.8592 8.64001 12.636 8.86321 12.636 9.20161Z"
        fill="#0b4250" />
    <path fill-rule="evenodd" clip-rule="evenodd"
        d="M16.0128 11.3112C16.0128 11.9988 16.8552 12.5784 17.136 12.5784C17.568 12.5784 17.838 12.0492 17.532 11.6208C16.6824 10.4184 16.0128 10.9872 16.0128 11.3112Z"
        fill="#0b4250" />
    <path fill-rule="evenodd" clip-rule="evenodd"
        d="M14.8176 6.9516C14.8176 7.2072 15.3864 7.7292 15.57 7.8876C15.8076 8.0928 16.506 8.2476 16.506 7.3764C16.506 7.308 15.8436 6.0876 15.1452 6.4296C14.9508 6.5268 14.8176 6.7176 14.8176 6.9516Z"
        fill="#0b4250" />
    <path fill-rule="evenodd" clip-rule="evenodd"
        d="M16.9956 8.43129C16.9956 8.98209 17.874 9.62649 17.982 9.62649C19.5372 9.62649 18.1368 7.76169 17.406 7.98849C17.2152 8.04609 16.9956 8.22249 16.9956 8.43129Z"
        fill="#0b4250" />
    <path fill-rule="evenodd" clip-rule="evenodd"
        d="M14.886 9.06121C14.886 9.67681 15.6384 10.3284 16.0812 10.3284C16.1244 10.3284 17.1072 10.044 16.1352 9.07921C15.8112 8.75881 15.8112 8.64001 15.3108 8.64001C15.1416 8.64001 14.886 8.89201 14.886 9.06121Z"
        fill="#0b4250" />
    <path fill-rule="evenodd" clip-rule="evenodd"
        d="M13.7628 11.3112C13.7628 12.0348 14.6952 12.5784 14.886 12.5784C15.1308 12.5784 15.4512 12.2616 15.4512 12.0168C15.4512 11.7144 14.8392 10.89 14.184 10.89C14.0148 10.89 13.7628 11.142 13.7628 11.3112Z"
        fill="#0b4250" />
</svg>