<svg width="30" height="28" viewBox="0 0 30 28" fill="none" xmlns="http://www.w3.org/2000/svg">
<path fill-rule="evenodd" clip-rule="evenodd" d="M29 0C29.2652 0 29.5196 0.105357 29.7071 0.292893C29.8946 0.48043 30 0.734784 30 1V27C30 27.2652 29.8946 27.5196 29.7071 27.7071C29.5196 27.8946 29.2652 28 29 28H1C0.734784 28 0.48043 27.8946 0.292893 27.7071C0.105357 27.5196 0 27.2652 0 27V1C0 0.734784 0.105357 0.48043 0.292893 0.292893C0.48043 0.105357 0.734784 0 1 0H29ZM11.25 8.75H2V26H28V8.75H18.75V13.75H11.25V8.75ZM23.75 17V19.25C23.75 19.9793 23.4603 20.6788 22.9445 21.1945C22.4288 21.7103 21.7293 22 21 22H20.874C20.652 22.8586 20.151 23.6192 19.4498 24.1622C18.7486 24.7052 17.8869 24.9999 17 25H13C11.9391 25 10.9217 24.5786 10.1716 23.8284C9.42143 23.0783 9 22.0609 9 21V17H23.75ZM19 19H11V21C11 21.5304 11.2107 22.0391 11.5858 22.4142C11.9609 22.7893 12.4696 23 13 23H17C17.5304 23 18.0391 22.7893 18.4142 22.4142C18.7893 22.0391 19 21.5304 19 21V19ZM21 20.5C21.69 20.5 22.25 19.94 22.25 19.25V18.5H21V20.5ZM17.25 8.75H12.75V12.25H17.25V8.75ZM28 2H2V7.25H11.25V4.25H18.75V7.25H28V2ZM17.25 5.75H12.75V7.25H17.25V5.75ZM22 4C22.2652 4 22.5196 4.10536 22.7071 4.29289C22.8946 4.48043 23 4.73478 23 5C23 5.26522 22.8946 5.51957 22.7071 5.70711C22.5196 5.89464 22.2652 6 22 6C21.7348 6 21.4804 5.89464 21.2929 5.70711C21.1054 5.51957 21 5.26522 21 5C21 4.73478 21.1054 4.48043 21.2929 4.29289C21.4804 4.10536 21.7348 4 22 4ZM5 4C5.26522 4 5.51957 4.10536 5.70711 4.29289C5.89464 4.48043 6 4.73478 6 5C6 5.26522 5.89464 5.51957 5.70711 5.70711C5.51957 5.89464 5.26522 6 5 6C4.73478 6 4.48043 5.89464 4.29289 5.70711C4.10536 5.51957 4 5.26522 4 5C4 4.73478 4.10536 4.48043 4.29289 4.29289C4.48043 4.10536 4.73478 4 5 4ZM25 4C25.2652 4 25.5196 4.10536 25.7071 4.29289C25.8946 4.48043 26 4.73478 26 5C26 5.26522 25.8946 5.51957 25.7071 5.70711C25.5196 5.89464 25.2652 6 25 6C24.7348 6 24.4804 5.89464 24.2929 5.70711C24.1054 5.51957 24 5.26522 24 5C24 4.73478 24.1054 4.48043 24.2929 4.29289C24.4804 4.10536 24.7348 4 25 4Z" fill="#537CE5"/>
</svg>
