<svg width="28" height="32" viewBox="0 0 28 32" fill="none" xmlns="http://www.w3.org/2000/svg">
    <path fill-rule="evenodd" clip-rule="evenodd"
        d="M12 9.54067e-10C13.815 -2.9945e-05 15.559 0.704894 16.8642 1.96607C18.1694 3.22726 18.9338 4.94609 18.996 6.76L19 7V13C21.3869 13 23.6761 13.9482 25.364 15.636C27.0518 17.3239 28 19.6131 28 22V30C28 30.2652 27.8946 30.5196 27.7071 30.7071C27.5196 30.8946 27.2652 31 27 31H21.317C20.1631 31.7658 18.7798 32.1088 17.4018 31.9709C16.0238 31.833 14.7359 31.2227 13.7566 30.2434C12.7774 29.2641 12.167 27.9762 12.0291 26.5982C11.8912 25.2202 12.2342 23.8369 13 22.683V14C13 13.7348 13.1054 13.4804 13.2929 13.2929C13.4804 13.1054 13.7348 13 14 13H17V7C16.9999 5.71154 16.5025 4.47284 15.6113 3.54222C14.7202 2.61161 13.5042 2.06092 12.217 2.005L12 2H11C9.71154 2.00007 8.47284 2.49754 7.54222 3.38866C6.61161 4.27978 6.06092 5.49575 6.005 6.783L6 7V25.219L9.243 26.029C9.44051 26.0786 9.61815 26.1874 9.75218 26.3407C9.8862 26.494 9.97022 26.6846 9.993 26.887L10 27V30C9.99997 30.2449 9.91004 30.4813 9.74728 30.6644C9.58453 30.8474 9.36025 30.9643 9.117 30.993L9 31H1C0.755067 31 0.518663 30.91 0.335628 30.7473C0.152593 30.5845 0.0356572 30.3603 0.00699997 30.117L0 30V27C7.64197e-05 26.7965 0.062251 26.5978 0.178219 26.4306C0.294187 26.2633 0.458427 26.1354 0.649 26.064L0.757 26.03L4 25.218V7C3.99997 5.18502 4.70489 3.44098 5.96607 2.13577C7.22726 0.830561 8.94609 0.0662278 10.76 0.00399995L11 9.54067e-10H12ZM18 22C16.9391 22 15.9217 22.4214 15.1716 23.1716C14.4214 23.9217 14 24.9391 14 26C14 27.0609 14.4214 28.0783 15.1716 28.8284C15.9217 29.5786 16.9391 30 18 30C19.0609 30 20.0783 29.5786 20.8284 28.8284C21.5786 28.0783 22 27.0609 22 26C22 24.9391 21.5786 23.9217 20.8284 23.1716C20.0783 22.4214 19.0609 22 18 22ZM19 15L19.002 20.083C19.9566 20.2449 20.8579 20.6354 21.6289 21.221C22.4 21.8067 23.0178 22.5702 23.4299 23.4464C23.8419 24.3227 24.0358 25.2855 23.9951 26.2529C23.9544 27.2203 23.6802 28.1635 23.196 29.002L26 29V22C26 20.1435 25.2625 18.363 23.9497 17.0503C22.637 15.7375 20.8565 15 19 15ZM5 27.03L2 27.78V29H8V27.78L5 27.03ZM17 15H15L14.999 20.803C15.6171 20.4451 16.2946 20.2012 16.999 20.083L17 15Z"
        fill="#0b4250" />
</svg>