<svg width="15" height="15" viewBox="0 0 15 15" fill="none" xmlns="http://www.w3.org/2000/svg">
<path d="M13.2776 4.635C13.1376 4.4963 12.9487 4.41832 12.7517 4.41794C12.5547 4.41756 12.3655 4.4948 12.225 4.63295C12.0845 4.7711 12.0041 4.95903 12.0013 5.15602C11.9984 5.35301 12.0732 5.54322 12.2095 5.68543C12.728 6.20825 13.1436 6.82377 13.4349 7.5C12.9168 8.63363 12.0795 9.59165 11.0254 10.2568C9.97135 10.922 8.74625 11.2656 7.5 11.2454C6.71959 11.245 5.94501 11.1111 5.20976 10.8494L5.98746 10.0718C6.44426 10.3468 6.96681 10.4935 7.5 10.4963C8.29442 10.4955 9.05606 10.1795 9.6178 9.6178C10.1795 9.05606 10.4955 8.29442 10.4963 7.5C10.4935 6.9668 10.3468 6.44425 10.0717 5.98746L14.7713 1.28788C14.8429 1.21878 14.8999 1.13613 14.9392 1.04474C14.9784 0.953345 14.9991 0.855051 15 0.755589C15.0008 0.656126 14.9819 0.557488 14.9442 0.465429C14.9066 0.37337 14.8509 0.289733 14.7806 0.2194C14.7103 0.149067 14.6266 0.0934458 14.5346 0.0557814C14.4425 0.018117 14.3439 -0.000836017 14.2444 2.82828e-05C14.1449 0.000892583 14.0467 0.0215569 13.9553 0.0608154C13.8639 0.100074 13.7812 0.15714 13.7121 0.228685L10.9339 3.00687C9.85595 2.51457 8.68508 2.25869 7.5 2.25644C5.90032 2.23404 4.33165 2.6986 3.00214 3.58847C1.67263 4.47834 0.645145 5.75146 0.0560223 7.23887C-0.00615166 7.40753 -0.00615166 7.59284 0.0560223 7.7615C0.420759 8.73771 0.98877 9.62527 1.72242 10.3654C1.86182 10.507 2.05177 10.5875 2.25048 10.589C2.4492 10.5906 2.6404 10.5132 2.78204 10.3738C2.92367 10.2344 3.00412 10.0445 3.0057 9.84575C3.00728 9.64703 2.92986 9.45583 2.79046 9.3142C2.27205 8.7915 1.8564 8.1761 1.56512 7.5C2.08322 6.36637 2.92053 5.40835 3.97459 4.74315C5.02865 4.07795 6.25375 3.73442 7.5 3.7546C8.28072 3.75273 9.05583 3.8865 9.79076 4.14997L9.01254 4.92819C8.55574 4.65316 8.03319 4.5065 7.5 4.50368C6.70558 4.50451 5.94394 4.82047 5.3822 5.3822C4.82047 5.94394 4.50451 6.70558 4.50368 7.5C4.50654 8.0332 4.65322 8.55575 4.92826 9.01254L0.228685 13.7121C0.15714 13.7812 0.100074 13.8639 0.0608154 13.9553C0.0215569 14.0467 0.000892583 14.1449 2.82828e-05 14.2444C-0.000836017 14.3439 0.018117 14.4425 0.0557814 14.5346C0.0934458 14.6266 0.149067 14.7103 0.2194 14.7806C0.289733 14.8509 0.37337 14.9066 0.465429 14.9442C0.557488 14.9819 0.656126 15.0008 0.755589 15C0.855051 14.9991 0.953345 14.9784 1.04474 14.9392C1.13613 14.8999 1.21878 14.8429 1.28788 14.7713L4.06629 11.993C5.14407 12.4857 6.31494 12.7416 7.5 12.7436C9.09968 12.766 10.6683 12.3014 11.9979 11.4115C13.3274 10.5217 14.3549 9.24854 14.944 7.76113C15.0062 7.59247 15.0062 7.40716 14.944 7.2385C14.579 6.26254 14.011 5.37516 13.2776 4.635ZM8.99816 7.5C8.9977 7.8972 8.83972 8.27799 8.55885 8.55885C8.27799 8.83972 7.8972 8.9977 7.5 8.99816C7.37041 8.9964 7.24161 8.97761 7.11692 8.94228L8.94235 7.11692C8.97764 7.24162 8.9964 7.37042 8.99816 7.5ZM6.00184 7.5C6.0023 7.1028 6.16028 6.72201 6.44115 6.44115C6.72201 6.16028 7.1028 6.0023 7.5 6.00184C7.62959 6.0036 7.75839 6.02239 7.88308 6.05772L6.05765 7.88308C6.02236 7.75838 6.0036 7.62958 6.00184 7.5Z" fill="white"/>
</svg>
