<svg width="15" height="15" viewBox="0 0 15 15" fill="none" xmlns="http://www.w3.org/2000/svg">
<path d="M7.42657 15C5.93007 15 4.65734 14.7701 3.60839 14.3103C2.55944 13.8506 1.74126 13.1865 1.15385 12.318C0.566433 11.4368 0.202797 10.3831 0.062937 9.15709C0.048951 8.97829 0.034965 8.74202 0.020979 8.44828C0.006993 8.15453 0 7.84164 0 7.50958C0 7.17752 0.006993 6.86462 0.020979 6.57088C0.034965 6.27714 0.048951 6.04725 0.062937 5.88123C0.160839 5.01277 0.391608 4.21456 0.755245 3.48659C1.11888 2.75862 1.6014 2.13921 2.2028 1.62835C2.81818 1.10472 3.55245 0.702426 4.40559 0.421456C5.25874 0.140485 6.23776 0 7.34266 0C8.61539 0 9.71329 0.134099 10.6364 0.402298C11.5734 0.670498 12.3497 1.06003 12.965 1.57088C13.5944 2.08174 14.0699 2.70115 14.3916 3.42912C14.7133 4.15709 14.9021 4.97446 14.958 5.88123C14.986 6.21328 15 6.54534 15 6.87739C15 7.20945 14.993 7.51596 14.979 7.79693C14.979 8.06513 14.972 8.26309 14.958 8.3908C14.9161 9.0166 14.7762 9.54023 14.5385 9.96169C14.3007 10.3831 13.972 10.7024 13.5524 10.9195C13.1469 11.1239 12.6643 11.2261 12.1049 11.2261C11.6434 11.2261 11.2517 11.1558 10.9301 11.0153C10.6084 10.8748 10.3566 10.7216 10.1748 10.5556C9.99301 10.3768 9.86014 10.2363 9.77622 10.1341C9.66434 10.3001 9.5035 10.4853 9.29371 10.6897C9.0979 10.894 8.82518 11.0664 8.47552 11.2069C8.12587 11.3474 7.67133 11.4176 7.11189 11.4176C6.07692 11.4176 5.25175 11.0792 4.63636 10.4023C4.02098 9.72542 3.71329 8.76118 3.71329 7.50958C3.71329 6.25798 4.02098 5.29374 4.63636 4.61686C5.25175 3.9272 6.07692 3.58238 7.11189 3.58238C7.68532 3.58238 8.13287 3.67816 8.45455 3.86973C8.79021 4.0613 9.05594 4.27203 9.25175 4.50192V4.17625C9.25175 4.04853 9.29371 3.94636 9.37762 3.86973C9.47552 3.78033 9.59441 3.73563 9.73427 3.73563H10.3007C10.4406 3.73563 10.5524 3.78033 10.6364 3.86973C10.7343 3.94636 10.7832 4.04853 10.7832 4.17625V8.2567C10.7832 8.80587 10.9091 9.21456 11.1608 9.48276C11.4126 9.75096 11.7273 9.88506 12.1049 9.88506C12.4825 9.88506 12.7622 9.78927 12.9441 9.5977C13.1399 9.40613 13.2657 9.18263 13.3217 8.9272C13.3916 8.659 13.4266 8.4355 13.4266 8.2567C13.4406 8.06513 13.4545 7.75862 13.4685 7.33716C13.4825 6.91571 13.4685 6.46232 13.4266 5.97701C13.3427 4.96807 13.0839 4.11877 12.6504 3.42912C12.2308 2.73946 11.5874 2.21584 10.7203 1.85824C9.86713 1.50064 8.74126 1.32184 7.34266 1.32184C6.1958 1.32184 5.21678 1.51341 4.40559 1.89655C3.59441 2.26692 2.95105 2.79694 2.47552 3.48659C2.01399 4.17625 1.72028 5.00639 1.59441 5.97701C1.56643 6.19412 1.54545 6.50064 1.53147 6.89655C1.53147 7.29246 1.53147 7.69476 1.53147 8.10345C1.54545 8.49936 1.56643 8.81865 1.59441 9.0613C1.76224 10.53 2.33566 11.6667 3.31469 12.4713C4.30769 13.2631 5.67832 13.659 7.42657 13.659C8.43357 13.659 9.23077 13.5824 9.81818 13.4291C10.4056 13.2886 10.8531 13.1162 11.1608 12.9119C11.4825 12.7203 11.7413 12.5607 11.9371 12.433C12.007 12.3819 12.0839 12.3308 12.1678 12.2797C12.2517 12.2158 12.3566 12.1839 12.4825 12.1839H13.3217C13.4476 12.1839 13.5524 12.2286 13.6364 12.318C13.7343 12.3946 13.7832 12.4904 13.7832 12.6054C13.7832 12.6565 13.7692 12.7011 13.7413 12.7395C13.7273 12.7905 13.6993 12.8352 13.6573 12.8736C13.2937 13.2439 12.8392 13.5888 12.2937 13.908C11.7483 14.2401 11.0769 14.5019 10.2797 14.6935C9.4965 14.8978 8.54545 15 7.42657 15ZM7.23776 10.0766C7.97902 10.0766 8.4965 9.84674 8.79021 9.38697C9.0979 8.91443 9.25175 8.28863 9.25175 7.50958C9.25175 6.73052 9.0979 6.10473 8.79021 5.63218C8.4965 5.15964 7.97902 4.92337 7.23776 4.92337C6.52448 4.92337 6.01399 5.15964 5.70629 5.63218C5.3986 6.10473 5.24476 6.73052 5.24476 7.50958C5.24476 7.96935 5.30769 8.39719 5.43357 8.7931C5.57343 9.17624 5.79021 9.48914 6.08392 9.7318C6.37762 9.96169 6.76224 10.0766 7.23776 10.0766Z" fill="#537CE5"/>
</svg>
