<svg width="15" height="17" viewBox="0 0 15 17" fill="none" xmlns="http://www.w3.org/2000/svg">
<path d="M7.39228 8.99221C7.11755 8.99328 6.85077 9.08455 6.63296 9.252C6.41516 9.41944 6.25837 9.65379 6.18671 9.91901C6.11505 10.1842 6.13249 10.4656 6.23634 10.72C6.34019 10.9743 6.5247 11.1875 6.76151 11.3268V13.1153H8.03843V11.3268C8.22579 11.216 8.38128 11.0586 8.48979 10.8699C8.5983 10.6812 8.65613 10.4676 8.65766 10.2499V10.2499C8.65767 10.0841 8.62488 9.91992 8.5612 9.76682C8.49751 9.61373 8.40418 9.47474 8.28658 9.35785C8.16897 9.24096 8.02942 9.14848 7.87594 9.08573C7.72246 9.02298 7.55809 8.9912 7.39228 8.99221V8.99221Z" stroke="#537CE5" stroke-linecap="round" stroke-linejoin="round"/>
<path d="M12.1192 6.10376H2.66154C1.7439 6.10376 1 6.84766 1 7.7653V14.3384C1 15.256 1.7439 15.9999 2.66154 15.9999H12.1192C13.0369 15.9999 13.7808 15.256 13.7808 14.3384V7.7653C13.7808 6.84766 13.0369 6.10376 12.1192 6.10376Z" stroke="#537CE5" stroke-linecap="round" stroke-linejoin="round"/>
<path d="M3.29614 6.10385V5.1C3.29614 4.01261 3.72811 2.96976 4.497 2.20086C5.2659 1.43196 6.30876 1 7.39614 1C8.48353 1 9.52638 1.43196 10.2953 2.20086C11.0642 2.96976 11.4961 4.01261 11.4961 5.1V6.10385" stroke="#537CE5" stroke-linecap="round" stroke-linejoin="round"/>
</svg>
