<svg width="15" height="11" viewBox="0 0 15 11" fill="none" xmlns="http://www.w3.org/2000/svg">
<path d="M14.9533 4.98945C14.3634 3.50017 13.3347 2.22546 12.0035 1.33447C10.6723 0.443488 9.10168 -0.0216535 7.5 0.000774517C5.89832 -0.0216535 4.32768 0.443488 2.9965 1.33447C1.66533 2.22546 0.63655 3.50017 0.0466889 4.98945C-0.015563 5.1582 -0.015563 5.34362 0.0466889 5.51236C0.63655 7.00164 1.66533 8.27635 2.9965 9.16734C4.32768 10.0583 5.89832 10.5235 7.5 10.501C9.10168 10.5235 10.6723 10.0583 12.0035 9.16734C13.3347 8.27635 14.3634 7.00164 14.9533 5.51236C15.0156 5.34362 15.0156 5.1582 14.9533 4.98945ZM7.5 9.001C6.25219 9.0212 5.02555 8.67725 3.97017 8.01121C2.91478 7.34518 2.07643 6.38595 1.55768 5.25091C2.07643 4.11586 2.91478 3.15663 3.97017 2.4906C5.02555 1.82457 6.25219 1.48061 7.5 1.50081C8.74781 1.48061 9.97445 1.82457 11.0298 2.4906C12.0852 3.15663 12.9236 4.11586 13.4423 5.25091C12.9236 6.38595 12.0852 7.34518 11.0298 8.01121C9.97445 8.67725 8.74781 9.0212 7.5 9.001Z" fill="white"/>
<path d="M7.50008 2.25098C6.90672 2.25098 6.32668 2.42693 5.83332 2.75658C5.33996 3.08623 4.95544 3.55478 4.72837 4.10297C4.5013 4.65116 4.44189 5.25438 4.55765 5.83634C4.67341 6.41829 4.95914 6.95286 5.3787 7.37243C5.79827 7.79199 6.33283 8.07772 6.91479 8.19348C7.49675 8.30924 8.09996 8.24983 8.64816 8.02276C9.19635 7.79569 9.6649 7.41116 9.99455 6.9178C10.3242 6.42444 10.5002 5.84441 10.5002 5.25105C10.4993 4.45564 10.183 3.69304 9.62053 3.1306C9.05809 2.56816 8.29549 2.25181 7.50008 2.25098ZM7.50008 6.75109C7.2034 6.75109 6.91338 6.66311 6.6667 6.49829C6.42002 6.33346 6.22776 6.09919 6.11422 5.82509C6.00069 5.55099 5.97098 5.24939 6.02886 4.95841C6.08674 4.66743 6.22961 4.40015 6.43939 4.19037C6.64917 3.98058 6.91646 3.83772 7.20743 3.77984C7.49841 3.72196 7.80002 3.75166 8.07412 3.8652C8.34821 3.97873 8.58249 4.171 8.74731 4.41768C8.91214 4.66436 9.00011 4.95437 9.00011 5.25105C8.99966 5.64875 8.84147 6.03002 8.56026 6.31123C8.27905 6.59245 7.89777 6.75063 7.50008 6.75109Z" fill="white"/>
</svg>
