<svg width="16" height="16" viewBox="0 0 16 16" fill="none" xmlns="http://www.w3.org/2000/svg">
    <path
        d="M13.9812 12.2063C13.9812 12.4313 13.9312 12.6625 13.825 12.8875C13.7187 13.1125 13.5813 13.325 13.4 13.525C13.0938 13.8625 12.7562 14.1063 12.375 14.2625C12 14.4188 11.5938 14.5 11.1563 14.5C10.5188 14.5 9.8375 14.35 9.11875 14.0438C8.4 13.7375 7.68125 13.325 6.96875 12.8063C6.25 12.2813 5.56875 11.7 4.91875 11.0563C4.275 10.4063 3.69375 9.725 3.175 9.0125C2.6625 8.3 2.25 7.5875 1.95 6.88125C1.65 6.16875 1.5 5.4875 1.5 4.8375C1.5 4.4125 1.575 4.00625 1.725 3.63125C1.875 3.25 2.1125 2.9 2.44375 2.5875C2.84375 2.19375 3.28125 2 3.74375 2C3.91875 2 4.09375 2.0375 4.25 2.1125C4.4125 2.1875 4.55625 2.3 4.66875 2.4625L6.11875 4.50625C6.23125 4.6625 6.3125 4.80625 6.36875 4.94375C6.425 5.075 6.45625 5.20625 6.45625 5.325C6.45625 5.475 6.4125 5.625 6.325 5.76875C6.24375 5.9125 6.125 6.0625 5.975 6.2125L5.5 6.70625C5.43125 6.775 5.4 6.85625 5.4 6.95625C5.4 7.00625 5.40625 7.05 5.41875 7.1C5.4375 7.15 5.45625 7.1875 5.46875 7.225C5.58125 7.43125 5.775 7.7 6.05 8.025C6.33125 8.35 6.63125 8.68125 6.95625 9.0125C7.29375 9.34375 7.61875 9.65 7.95 9.93125C8.275 10.2063 8.54375 10.3938 8.75625 10.5063C8.7875 10.5188 8.825 10.5375 8.86875 10.5563C8.91875 10.575 8.96875 10.5813 9.025 10.5813C9.13125 10.5813 9.2125 10.5438 9.28125 10.475L9.75625 10.0063C9.9125 9.85 10.0625 9.73125 10.2063 9.65625C10.35 9.56875 10.4937 9.525 10.65 9.525C10.7687 9.525 10.8938 9.55 11.0312 9.60625C11.1687 9.6625 11.3125 9.74375 11.4688 9.85L13.5375 11.3188C13.7 11.4313 13.8125 11.5625 13.8812 11.7188C13.9437 11.875 13.9812 12.0313 13.9812 12.2063Z"
        stroke="#0b4250" stroke-width="1.2" stroke-miterlimit="10" />
    <path
        d="M11.8125 6.375C11.8125 6 11.5187 5.425 11.0812 4.95625C10.6812 4.525 10.15 4.1875 9.625 4.1875"
        stroke="#0b4250" stroke-width="1.2" stroke-linecap="round" stroke-linejoin="round" />
    <path d="M14 6.375C14 3.95625 12.0438 2 9.625 2" stroke="#0b4250" stroke-width="1.2"
        stroke-linecap="round" stroke-linejoin="round" />
</svg>