<svg width="18" height="18" viewBox="0 0 18 18" fill="none" xmlns="http://www.w3.org/2000/svg">
    <path
        d="M17.6977 8.04688L16.1771 6.66134V2.06701C16.1771 1.77469 15.9401 1.53767 15.6477 1.53767H11.9874C11.6951 1.53767 11.4581 1.77465 11.4581 2.06701V2.36141L9.62166 0.68808C9.26718 0.365029 8.73263 0.365064 8.37829 0.688045L0.302268 8.04692C0.0183462 8.30567 -0.0754858 8.70434 0.0632407 9.06254C0.202002 9.42075 0.539854 9.65219 0.924006 9.65219H2.21385V17.0252C2.21385 17.3175 2.45084 17.5545 2.7432 17.5545H7.16983C7.46215 17.5545 7.69918 17.3175 7.69918 17.0252V12.5485H10.3008V17.0252C10.3008 17.3175 10.5378 17.5546 10.8301 17.5546H15.2566C15.5489 17.5546 15.7859 17.3176 15.7859 17.0252V9.65222H17.076C17.4601 9.65222 17.798 9.42075 17.9368 9.06258C18.0755 8.70434 17.9817 8.30567 17.6977 8.04688ZM15.2566 8.59352C14.9643 8.59352 14.7272 8.83051 14.7272 9.12287V16.4959H11.3595V12.0192C11.3595 11.7269 11.1225 11.4898 10.8302 11.4898H7.16983C6.87751 11.4898 6.64048 11.7268 6.64048 12.0192V16.4959H3.27251V9.12287C3.27251 8.83055 3.03553 8.59352 2.74317 8.59352H1.27423L9.00003 1.55384L11.631 3.95118C11.786 4.09237 12.0097 4.12875 12.2014 4.04413C12.3931 3.9594 12.5168 3.76949 12.5168 3.55989V2.59636H15.1184V6.89513C15.1184 7.04408 15.1812 7.18608 15.2913 7.28642L16.7258 8.59352H15.2566Z"
        fill="#537CE5" />
</svg>