<svg width="18" height="18" viewBox="0 0 18 18" fill="none" xmlns="http://www.w3.org/2000/svg">
<path d="M15.5771 14.6474C15.5771 14.9174 15.5171 15.1949 15.3896 15.4649C15.2621 15.7349 15.0971 15.9899 14.8796 16.2299C14.5121 16.6349 14.1071 16.9274 13.6496 17.1149C13.1996 17.3024 12.7121 17.3999 12.1871 17.3999C11.4221 17.3999 10.6046 17.2199 9.74211 16.8524C8.87961 16.4849 8.01711 15.9899 7.16211 15.3674C6.29961 14.7374 5.48211 14.0399 4.70211 13.2674C3.92961 12.4874 3.23211 11.6699 2.60961 10.8149C1.99461 9.9599 1.49961 9.1049 1.13961 8.2574C0.779609 7.4024 0.599609 6.5849 0.599609 5.8049C0.599609 5.2949 0.689609 4.8074 0.869609 4.3574C1.04961 3.8999 1.33461 3.4799 1.73211 3.1049C2.21211 2.6324 2.73711 2.3999 3.29211 2.3999C3.50211 2.3999 3.71211 2.4449 3.89961 2.5349C4.09461 2.6249 4.26711 2.7599 4.40211 2.9549L6.14211 5.4074C6.27711 5.5949 6.37461 5.7674 6.44211 5.9324C6.50961 6.0899 6.54711 6.2474 6.54711 6.3899C6.54711 6.5699 6.49461 6.7499 6.38961 6.9224C6.29211 7.0949 6.14961 7.2749 5.96961 7.4549L5.39961 8.0474C5.31711 8.1299 5.27961 8.2274 5.27961 8.3474C5.27961 8.4074 5.28711 8.4599 5.30211 8.5199C5.32461 8.5799 5.34711 8.6249 5.36211 8.6699C5.49711 8.9174 5.72961 9.2399 6.05961 9.6299C6.39711 10.0199 6.75711 10.4174 7.14711 10.8149C7.55211 11.2124 7.94211 11.5799 8.33961 11.9174C8.72961 12.2474 9.05211 12.4724 9.30711 12.6074C9.34461 12.6224 9.38961 12.6449 9.44211 12.6674C9.50211 12.6899 9.56211 12.6974 9.62961 12.6974C9.75711 12.6974 9.85461 12.6524 9.93711 12.5699L10.5071 12.0074C10.6946 11.8199 10.8746 11.6774 11.0471 11.5874C11.2196 11.4824 11.3921 11.4299 11.5796 11.4299C11.7221 11.4299 11.8721 11.4599 12.0371 11.5274C12.2021 11.5949 12.3746 11.6924 12.5621 11.8199L15.0446 13.5824C15.2396 13.7174 15.3746 13.8749 15.4571 14.0624C15.5321 14.2499 15.5771 14.4374 15.5771 14.6474Z" stroke="white" stroke-width="1.2" stroke-miterlimit="10"/>
<path d="M12.9746 7.6499C12.9746 7.1999 12.6221 6.5099 12.0971 5.9474C11.6171 5.4299 10.9796 5.0249 10.3496 5.0249" stroke="white" stroke-width="1.2" stroke-linecap="round" stroke-linejoin="round"/>
<path d="M15.5996 7.6499C15.5996 4.7474 13.2521 2.3999 10.3496 2.3999" stroke="white" stroke-width="1.2" stroke-linecap="round" stroke-linejoin="round"/>
</svg>
