<svg width="48" height="48" viewBox="0 0 48 48" fill="none" xmlns="http://www.w3.org/2000/svg">
<circle cx="24" cy="24" r="24" fill="#0B4250"/>
<mask id="mask0_3911_6531" style="mask-type:alpha" maskUnits="userSpaceOnUse" x="0" y="0" width="48" height="48">
<circle cx="24" cy="24" r="23" fill="white" stroke="#FFBB7D" stroke-width="2"/>
</mask>
<g mask="url(#mask0_3911_6531)">
<path d="M41.9995 24.8467C41.9995 24.8401 41.9991 24.8335 41.9991 24.8269C41.9895 24.386 41.6372 24.0346 41.1933 24.0346H40.9817L37.7144 17.6837C37.5766 17.4156 37.3016 17.2486 36.9981 17.2485L31.4199 17.2473L31.6327 15.5514C31.6934 14.8737 31.485 14.2337 31.0457 13.7494C30.6073 13.266 29.9951 12.9998 29.3219 12.9998H12.0091C11.5738 12.9998 11.204 13.3384 11.1625 13.7749L10.9889 15.1722H20.853C21.4935 15.1722 21.9991 15.6942 21.9824 16.3382C21.9655 16.9821 21.4327 17.5041 20.7922 17.5041H17.5021C17.5026 17.5058 17.5032 17.5074 17.5038 17.509H7.84191C7.38896 17.509 7.01213 17.8781 7.00029 18.3335C6.98844 18.7889 7.34596 19.158 7.79891 19.158H20.5902C21.184 19.2499 21.6276 19.7662 21.6112 20.3912C21.5934 21.0776 21.0282 21.6342 20.3466 21.6399H11.528C11.0705 21.6399 10.6899 22.0128 10.6779 22.4727C10.6659 22.9327 11.0271 23.3055 11.4846 23.3055H20.1993C20.8018 23.3899 21.2542 23.9103 21.2378 24.5414C21.2198 25.2313 20.6489 25.7907 19.9627 25.7907H9.96492V25.7916H9.12488C8.66737 25.7916 8.28682 26.1644 8.27481 26.6244C8.2628 27.0843 8.62388 27.4572 9.08147 27.4572H9.80646L9.52291 30.4402C9.46211 31.1178 9.67052 31.7577 10.1099 32.2421C10.5483 32.7256 11.1605 32.9917 11.8337 32.9917H12.4591C12.7572 34.7052 14.2317 35.9998 16.0353 35.9998C17.8389 35.9998 19.3808 34.7051 19.7679 32.9918H27.5727C28.2037 32.9918 28.8011 32.7492 29.2697 32.352C29.6981 32.7655 30.266 32.9918 30.8861 32.9918H31.0145C31.3125 34.7051 32.787 35.9998 34.5907 35.9998C36.3943 35.9998 37.9362 34.7051 38.3233 32.9918H38.8384C40.1805 32.9918 41.3707 31.8949 41.4916 30.5467L41.9964 24.9247C41.9971 24.9171 41.9967 24.9096 41.9972 24.902C41.9981 24.8904 41.9996 24.8791 42 24.8674C42.0001 24.8604 41.9995 24.8537 41.9995 24.8467ZM16.0787 34.3341C14.9368 34.3341 14.032 33.4002 14.0619 32.2522C14.0918 31.1041 15.0452 30.1701 16.1871 30.1701C17.329 30.1701 18.2337 31.1041 18.2038 32.2522C18.1739 33.4002 17.2206 34.3341 16.0787 34.3341ZM34.6341 34.3341C33.4922 34.3341 32.5875 33.4002 32.6173 32.2522C32.6472 31.1041 33.6006 30.1701 34.7425 30.1701C35.8844 30.1701 36.7891 31.1041 36.7592 32.2522C36.7292 33.4002 35.776 34.3341 34.6341 34.3341ZM39.8412 30.4402C39.7981 30.9204 39.3588 31.3262 38.8819 31.3262H38.3247C37.9557 29.7061 36.5235 28.5045 34.7858 28.5045C33.0482 28.5045 31.5534 29.7061 31.1001 31.3262H30.9295C30.719 31.3262 30.5311 31.2468 30.4003 31.1026C30.2687 30.9575 30.2067 30.76 30.2258 30.5466L31.2703 18.913L33.6692 18.9135L33.289 23.1485C33.2281 23.8261 33.4364 24.4661 33.8757 24.9504C34.3141 25.434 34.9265 25.7003 35.5998 25.7003H40.2666L39.8412 30.4402Z" fill="white"/>
</g>
</svg>
