<svg width="48" height="48" viewBox="0 0 48 48" fill="none" xmlns="http://www.w3.org/2000/svg">
<circle cx="24" cy="24" r="24" fill="#0B4250"/>
<mask id="mask0_3911_6528" style="mask-type:alpha" maskUnits="userSpaceOnUse" x="0" y="0" width="48" height="48">
<circle cx="24" cy="24" r="23" fill="white" stroke="#FFBB7D" stroke-width="2"/>
</mask>
<g mask="url(#mask0_3911_6528)">
<path fill-rule="evenodd" clip-rule="evenodd" d="M24.0577 8.43745L24.8502 10.0226C25.046 10.4142 24.8874 10.8903 24.4958 11.0861C24.1015 11.2819 23.6278 11.1217 23.4323 10.7316L22.6397 9.14646C22.4439 8.75481 22.6025 8.27877 22.9942 8.08297C23.3858 7.8887 23.8604 8.04579 24.0577 8.43745ZM31.2744 12.7547H32.8595C33.2976 12.7547 33.652 13.1092 33.6521 13.5473C33.6521 13.9854 33.2976 14.3399 32.8595 14.3399H31.2744C30.8362 14.3399 30.4818 13.9854 30.4818 13.5473C30.4818 13.1092 30.8363 12.7547 31.2744 12.7547ZM30.0437 8.08296C29.6536 7.88869 29.1761 8.04584 28.9802 8.43744L28.1876 10.0226C27.9918 10.4142 28.1505 10.8902 28.5421 11.0861C28.9375 11.2825 29.4106 11.1204 29.6056 10.7316L30.3982 9.14645C30.594 8.7548 30.4353 8.27877 30.0437 8.08296ZM20.1783 12.7547H21.7635C22.2015 12.7547 22.5561 13.1092 22.5561 13.5473C22.5561 13.9854 22.2015 14.3399 21.7635 14.3399H20.1783C19.7402 14.3399 19.3857 13.9854 19.3857 13.5473C19.3857 13.1092 19.7403 12.7547 20.1783 12.7547ZM17.008 20.7334H13.8377C13.4 20.7334 13.0451 21.0882 13.0451 21.526V34.2071C13.0451 34.6448 13.4 34.9997 13.8377 34.9997H17.008C17.4457 34.9997 17.8006 34.6448 17.8006 34.2071V21.5259C17.8006 21.0882 17.4458 20.7334 17.008 20.7334ZM34.2809 20.7334C35.5183 20.7334 36.6668 21.6048 36.8066 22.8343C36.888 23.5499 36.649 24.2121 36.2156 24.6963C37.3952 26.0139 36.7696 28.1125 35.0701 28.5756C35.1776 28.8472 35.2372 29.1429 35.2372 29.4517C35.2372 30.5462 34.4935 31.4711 33.4849 31.7459C34.1469 33.4176 32.8164 34.9998 31.1081 34.9998H25.9235C23.1631 34.9998 21.2736 34.36 19.7799 33.8541C19.6454 33.8086 19.5142 33.7642 19.3858 33.7214V21.8288C19.4926 21.7755 19.5968 21.7241 19.6987 21.6738C20.5657 21.2459 21.271 20.8978 22.0817 20.0871C23.4276 18.7411 24.1413 15.433 24.1413 13.6002C24.1413 13.1621 24.4958 12.8076 24.9339 12.8076H25.5879C27.3863 12.8076 28.8755 14.2488 28.8963 16.0471C28.9088 17.1335 28.6269 19.7931 28.1018 20.7334H34.2809Z" fill="white"/>
</g>
</svg>
