<svg width="48" height="48" viewBox="0 0 48 48" fill="none" xmlns="http://www.w3.org/2000/svg">
<circle cx="24" cy="24" r="24" fill="#0B4250"/>
<mask id="mask0_3911_6534" style="mask-type:alpha" maskUnits="userSpaceOnUse" x="0" y="0" width="48" height="48">
<circle cx="24" cy="24" r="23" fill="white" stroke="#FFBB7D" stroke-width="2"/>
</mask>
<g mask="url(#mask0_3911_6534)">
<path fill-rule="evenodd" clip-rule="evenodd" d="M20.5655 10.9998H32.8465C33.2454 10.9998 33.5689 11.3232 33.5688 11.7222V15.0094C33.5688 15.4083 33.2453 15.7318 32.8464 15.7318H32.5764V22.712C32.5764 23.111 32.253 23.4344 31.854 23.4344H21.5577C21.1587 23.4344 20.8353 23.111 20.8353 22.712V15.7318H20.5655C20.1666 15.7318 19.8431 15.4084 19.8431 15.0094V11.7222C19.8431 11.3232 20.1666 10.9998 20.5655 10.9998ZM25.1863 17.4481H28.2256C28.5442 17.4481 28.8035 17.1889 28.8035 16.8702C28.8035 16.5516 28.5442 16.2923 28.2256 16.2923H25.1863C24.8676 16.2923 24.6083 16.5516 24.6083 16.8702C24.6083 17.1889 24.8676 17.4481 25.1863 17.4481ZM31.854 14.2869H32.1241V12.4446H21.2879V14.2869H21.5577H31.854ZM34.7885 24.8888C35.5315 24.8888 36.2194 25.2904 36.5836 25.937C37.1403 26.9257 36.789 28.1828 35.8004 28.7397L26.3975 34.0353C25.9518 34.2865 25.4132 34.3625 24.9149 34.2448L18.195 32.6568C18.0802 32.6297 17.9548 32.6568 17.8614 32.7287L13.7008 35.9322C13.6437 35.9763 13.5738 35.9997 13.5025 35.9997C13.4881 35.9997 13.4737 35.9988 13.4593 35.9968C13.3735 35.9853 13.2957 35.9399 13.2433 35.8709L10.0133 31.6043C9.90739 31.4644 9.93159 31.2656 10.0681 31.1553L16.0336 26.3298C17.471 25.1935 18.9697 24.9554 19.9743 24.9554C20.6926 24.9554 21.1892 25.075 21.3695 25.1264C22.9688 25.5827 25.466 26.3974 25.5607 26.4283L25.5633 26.4292L25.5785 26.4338C26.4081 26.6681 26.9619 27.4604 26.8962 28.3185L26.8961 28.3206L26.8958 28.3238L26.8955 28.3266C26.8953 28.3299 26.8949 28.3331 26.8945 28.3364C26.883 28.4386 26.7858 29.1345 26.2341 29.5304C25.7974 29.8436 25.1635 29.9006 24.3518 29.6957C24.3462 29.6942 24.3405 29.6926 24.335 29.691L20.8931 28.6223C20.8546 28.6103 20.8148 28.6043 20.7751 28.6043C20.6002 28.6043 20.4477 28.7167 20.3957 28.884C20.3308 29.0931 20.4481 29.3162 20.6573 29.3811L24.1172 30.4554C24.1201 30.4563 24.1232 30.4573 24.1263 30.4581C24.1293 30.459 24.1324 30.4598 24.1354 30.4606C25.1909 30.7313 26.0572 30.6355 26.6975 30.176C27.276 29.7608 27.5223 29.1646 27.6269 28.7376C27.6484 28.6504 27.7049 28.5758 27.7832 28.5317L33.7809 25.154C34.0891 24.9805 34.4376 24.8888 34.7885 24.8888Z" fill="white"/>
</g>
</svg>
