<svg width="48" height="48" viewBox="0 0 48 48" fill="none" xmlns="http://www.w3.org/2000/svg">
<circle cx="24" cy="24" r="24" fill="#0B4250"/>
<mask id="mask0_3911_6537" style="mask-type:alpha" maskUnits="userSpaceOnUse" x="0" y="0" width="48" height="48">
<circle cx="24" cy="24" r="23" fill="white" stroke="#FFBB7D" stroke-width="2"/>
</mask>
<g mask="url(#mask0_3911_6537)">
<path fill-rule="evenodd" clip-rule="evenodd" d="M36.6055 25.432L37.0149 25.9908C37.6401 26.8483 37.3745 28.0544 36.4506 28.5634L35.8476 28.9008C35.1892 29.266 34.8351 30.0129 34.9734 30.7542L35.1007 31.4347C35.2943 32.4748 34.5308 33.4486 33.4741 33.5094L32.7826 33.5481C32.0301 33.5869 31.3884 34.1069 31.1892 34.8372L31.0066 35.5066C30.7245 36.5246 29.618 37.0723 28.6387 36.6685L27.997 36.4029C27.2999 36.1152 26.4977 36.3033 25.9997 36.8732L25.5461 37.3932C24.8545 38.1954 23.6208 38.201 22.9126 37.4153L22.4534 36.9008C21.95 36.3365 21.1422 36.1595 20.4506 36.4582L19.8144 36.7293C18.8407 37.1498 17.7231 36.6242 17.4299 35.6062L17.2363 34.9423C17.026 34.2176 16.3732 33.7086 15.6208 33.6754L14.9292 33.6477C13.8725 33.6035 13.0924 32.6408 13.2695 31.6007L13.3857 30.9202C13.5129 30.1733 13.1478 29.432 12.4839 29.0779L11.8753 28.7515C10.9403 28.248 10.6582 27.0475 11.2667 26.1844L11.6651 25.6201C12.1021 25.0004 12.0911 24.1761 11.6485 23.5675L11.2391 23.0088C10.6139 22.1568 10.8794 20.9507 11.8034 20.4361L12.4064 20.0987C13.0648 19.7335 13.4189 18.9866 13.2805 18.2453L13.1533 17.5648C12.9597 16.5247 13.7231 15.551 14.7799 15.4901L15.4714 15.4514C16.2238 15.4126 16.8656 14.8926 17.0648 14.1623L17.2473 13.4929C17.5295 12.4749 18.636 11.9272 19.6152 12.3311L20.257 12.5966C20.9541 12.8843 21.7563 12.6962 22.2542 12.1264L22.7079 11.6063C23.405 10.8041 24.6387 10.7986 25.3414 11.5842L25.8006 12.0987C26.304 12.663 27.1118 12.84 27.8033 12.5413L28.4396 12.2702C29.4133 11.8497 30.5308 12.3753 30.8241 13.3933L31.0177 14.0572C31.2279 14.7819 31.8808 15.2909 32.6332 15.3241L33.3247 15.3518C34.3814 15.3961 35.1615 16.3587 34.9845 17.3988L34.8683 18.0793C34.7411 18.8262 35.1062 19.5675 35.7701 19.9216L36.3787 20.248C37.3137 20.7515 37.5958 21.952 36.9872 22.8151L36.5889 23.3794C36.1518 23.9991 36.1629 24.8234 36.6055 25.432ZM20.5336 19.4846C19.0288 19.4846 17.8117 20.7017 17.8117 22.2065C17.8117 23.7058 19.0288 24.9285 20.5336 24.9285C22.0385 24.9285 23.2556 23.7114 23.2556 22.2065C23.2556 20.7017 22.0385 19.4846 20.5336 19.4846ZM20.1242 29.3158C20.4064 29.5481 20.8269 29.5094 21.0592 29.2273L28.2017 20.6243C28.434 20.3421 28.3953 19.9216 28.1131 19.6893C27.831 19.4569 27.4105 19.4956 27.1782 19.7778L20.0357 28.3808C19.8033 28.663 19.8421 29.0834 20.1242 29.3158ZM24.9873 26.7874C24.9873 28.2923 26.2044 29.5094 27.7093 29.5094C29.2141 29.5094 30.4313 28.2923 30.4313 26.7874C30.4313 25.2826 29.2141 24.0655 27.7093 24.0655C26.2044 24.0655 24.9873 25.2826 24.9873 26.7874ZM20.5392 23.3351C21.1625 23.3351 21.6678 22.8298 21.6678 22.2065C21.6678 21.5832 21.1625 21.0779 20.5392 21.0779C19.9158 21.0779 19.4105 21.5832 19.4105 22.2065C19.4105 22.8298 19.9158 23.3351 20.5392 23.3351ZM27.7093 27.9161C28.3326 27.9161 28.8379 27.4108 28.8379 26.7875C28.8379 26.1642 28.3326 25.6589 27.7093 25.6589C27.086 25.6589 26.5807 26.1642 26.5807 26.7875C26.5807 27.4108 27.086 27.9161 27.7093 27.9161Z" fill="white"/>
</g>
</svg>
