<svg width="113" height="50" viewBox="0 0 113 50" fill="none" xmlns="http://www.w3.org/2000/svg">
<path fill-rule="evenodd" clip-rule="evenodd" d="M104.533 22.2584C104.533 21.7825 104.7 21.3777 105.033 21.0427C105.369 20.7058 105.772 20.5367 106.246 20.5367C106.721 20.5367 107.126 20.7058 107.461 21.0427C107.795 21.3777 107.962 21.7825 107.962 22.2584C107.962 22.7362 107.795 23.1439 107.461 23.4808C107.128 23.8181 106.722 23.9863 106.246 23.9863C105.769 23.9863 105.363 23.8181 105.03 23.4808C104.699 23.1439 104.533 22.7362 104.533 22.2584ZM107.66 23.6743C108.05 23.2825 108.245 22.8106 108.245 22.2584C108.245 21.7073 108.05 21.2374 107.66 20.85C107.271 20.4614 106.798 20.2676 106.246 20.2676C105.696 20.2676 105.227 20.4614 104.84 20.85C104.449 21.2391 104.254 21.7085 104.254 22.2584C104.254 22.8123 104.448 23.2839 104.834 23.6743C105.222 24.0659 105.693 24.2611 106.246 24.2611C106.799 24.2611 107.271 24.0659 107.66 23.6743Z" fill="white"/>
<path fill-rule="evenodd" clip-rule="evenodd" d="M106.175 22.214H105.827V21.4198L106.156 21.4203C106.37 21.4203 106.524 21.4467 106.62 21.5016C106.718 21.5562 106.768 21.6628 106.768 21.8224C106.767 21.9914 106.691 22.1052 106.541 22.1648C106.46 22.1975 106.338 22.214 106.175 22.214ZM106.769 23.0573V23.2311L106.775 23.3015C106.778 23.3103 106.78 23.3177 106.781 23.3259C106.784 23.3337 106.784 23.3399 106.786 23.3468H107.149L107.135 23.3203C107.125 23.3023 107.119 23.2638 107.116 23.2059C107.112 23.1481 107.111 23.0938 107.111 23.0429V22.8821C107.111 22.7721 107.071 22.6595 106.99 22.5431C106.911 22.4269 106.784 22.3557 106.613 22.3282C106.749 22.3056 106.854 22.2714 106.93 22.2218C107.074 22.13 107.146 21.9861 107.146 21.7898C107.146 21.514 107.032 21.3294 106.806 21.2346C106.679 21.1827 106.48 21.1567 106.208 21.1567H105.441V23.3468H105.827V22.4826H106.131C106.337 22.4826 106.48 22.5066 106.56 22.5529C106.698 22.635 106.768 22.8025 106.769 23.0573Z" fill="white"/>
<path fill-rule="evenodd" clip-rule="evenodd" d="M100.363 13.2688L95.1098 13.2678C95.055 13.2796 94.9989 13.2857 94.9412 13.2857L91.4764 13.2905C91.4727 13.2922 91.4685 13.2927 91.4644 13.2944H39.738C39.9474 13.3618 41.761 13.7094 41.0606 16.018H92.8786C92.8829 16.0098 92.8874 16.0008 92.8915 15.9926H99.5431C105.415 15.9926 109.535 20.3354 109.535 25.6943C109.535 31.0519 105.374 35.395 99.5431 35.395L84.5813 35.3607C84.5818 35.3724 84.5791 35.384 84.5791 35.3958H74.9295C74.9295 35.3955 74.9295 35.3952 74.9295 35.395L50.5885 35.3979C48.7655 35.3361 48.354 34.6574 48.0829 34.1202C47.8138 33.5829 47.1214 31.7086 47.1214 31.7086L44.6551 25.0919L46.8859 20.4484H43.381L41.8215 23.36C41.8215 23.36 41.4727 24.1864 40.4482 24.1243H37.308L38.8951 19.8907L40.3105 16.0177C41.1137 13.6622 37.9578 13.296 36.746 13.296L11.8148 13.2931C5.23145 13.4482 0 18.7712 0 25.33V25.8968C0 32.4551 5.26898 38.016 12.6686 38.0395H46.4009C46.3916 38.0368 46.3815 38.0327 46.3718 38.0299L39.3999 38.0263H46.361C46.0824 37.944 45.7768 37.8026 45.5628 37.6778C44.7546 37.1715 44.5893 36.756 43.7844 35.3607H12.6834C6.84763 35.3607 2.69191 31.0175 2.69191 25.6604C2.73203 20.7805 5.69976 17.4769 9.98788 16.2951C9.98788 16.2949 10.7685 16.0599 11.5209 15.9724C11.5648 15.9672 11.6084 15.9616 11.6492 15.9616L36.244 15.9629C36.5141 15.9629 36.6718 16.1306 36.4998 16.6107L30.6389 31.699H34.4363L36.4721 26.3628H40.5517C40.5517 26.3628 41.3358 26.2859 41.7035 27.1927L44.5511 34.5906C45.1814 36.1522 46.0299 36.7884 46.0299 36.7884C47.3067 37.9137 49.3401 38.0099 50.5468 38.0263H71.1297H75.3842C75.5886 38.033 75.8914 38.037 76.2556 38.0263H80.3042H85.0666H100.363C106.71 38.126 112.227 32.4894 112.227 25.9312V25.3635C112.227 18.8048 106.894 13.1388 100.363 13.2688Z" fill="white"/>
<path fill-rule="evenodd" clip-rule="evenodd" d="M46.3718 38.03L51.0709 38.0324C50.9242 38.03 50.7455 38.0291 50.5468 38.0264H46.361C46.3644 38.0276 46.3684 38.0289 46.3718 38.03Z" fill="white"/>
<path fill-rule="evenodd" clip-rule="evenodd" d="M60.6849 20.444L51.8872 20.4302L47.602 31.6744L51.3092 31.653L54.7677 22.6259H58.9082C59.9774 22.6276 59.5914 23.5028 59.5914 23.5028L58.9366 25.2677H62.6203L63.217 23.6992C64.3752 20.4534 60.6849 20.444 60.6849 20.444Z" fill="white"/>
<path fill-rule="evenodd" clip-rule="evenodd" d="M76.7637 23.6338L74.5148 29.4509H67.8558C66.5211 29.4509 67.1551 28.4467 67.1551 28.4467L69.3649 22.6488C69.3649 22.6488 75.1563 22.63 76.1793 22.63C77.2039 22.63 76.7637 23.6338 76.7637 23.6338ZM77.9432 20.3979H66.5012L63.4356 28.5443C63.4356 28.5443 62.2959 31.662 66.1119 31.662H77.3976L80.4239 23.7889C80.4239 23.7889 81.7009 20.3979 77.9432 20.3979Z" fill="white"/>
<path fill-rule="evenodd" clip-rule="evenodd" d="M95.9942 31.6631H99.6932C99.6932 31.6631 101.414 27.1806 102.751 23.6733C104.068 20.2185 100.257 20.4383 100.257 20.4383H84.1942L79.9194 31.6631H83.6574L87.0859 22.6501H91.3785L87.9528 31.6829H91.7495L95.1573 22.6304C95.1573 22.6304 97.2704 22.6304 98.4079 22.6304C99.5486 22.6304 99.0713 23.596 99.0713 23.596L95.9942 31.6631Z" fill="white"/>
<path fill-rule="evenodd" clip-rule="evenodd" d="M24.5709 25.4067L23.6754 27.6562L30.527 27.6958L31.435 25.4842L24.5709 25.4067Z" fill="white"/>
<path fill-rule="evenodd" clip-rule="evenodd" d="M20.1309 24.5077C20.1309 24.5077 19.7609 25.6058 18.6085 25.5866C17.1437 25.5616 11.8766 25.5671 11.8766 25.5671L12.5355 23.8294C12.5355 23.8294 12.9267 22.5768 14.4767 22.5768H20.8292L20.1309 24.5077ZM13.5945 20.3735C10.1402 20.3735 9.23049 23.2562 9.23049 23.2562C9.23049 23.2562 8.0561 26.4209 7.03805 28.9846C6.01827 31.547 8.71414 31.5558 8.71414 31.5558H21.0424L21.944 29.1194H11.0436C10.3451 29.1194 10.6838 28.6041 10.6838 28.6041L11.0242 27.7701H20.0339C22.2355 27.8128 22.9125 25.7796 22.9125 25.7796L24.9512 20.3735H13.5945Z" fill="white"/>
<path fill-rule="evenodd" clip-rule="evenodd" d="M15.1114 47.9089C15.1114 47.2435 14.5279 46.9108 13.3612 46.9108C13.1305 46.9108 12.9315 46.9193 12.7643 46.936C12.7643 47.6346 12.7777 48.2782 12.8044 48.8667C12.9215 48.8936 13.0937 48.9066 13.3211 48.9066C13.9396 48.9066 14.3925 48.8324 14.6801 48.6837C14.9676 48.5349 15.1114 48.2765 15.1114 47.9089ZM16.4603 47.8536C16.4603 49.1844 15.3738 49.8495 13.2008 49.8495C12.8228 49.8495 12.2344 49.8396 11.4355 49.8193C11.4789 48.7964 11.5006 47.658 11.5006 46.4043C11.5006 45.0837 11.4789 44.0457 11.4355 43.29H16.0141L15.9739 44.3883C14.7302 44.3349 13.6403 44.3081 12.7042 44.3081C12.7443 44.7327 12.7643 45.2778 12.7643 45.943C13.0351 45.9296 13.2708 45.9229 13.4714 45.9229C15.464 45.9229 16.4603 46.5666 16.4603 47.8536Z" fill="white"/>
<path fill-rule="evenodd" clip-rule="evenodd" d="M24.1634 49.8193H22.7441C22.7875 48.7832 22.8092 47.6448 22.8092 46.4043C22.8092 45.1841 22.7875 44.1459 22.7441 43.29H24.1634C24.1165 44.1325 24.0931 45.1707 24.0931 46.4043C24.0931 47.6648 24.1165 48.8032 24.1634 49.8193ZM20.8535 47.7483C20.8535 47.3573 20.6963 47.0771 20.3821 46.9082C20.0677 46.7395 19.7 46.655 19.2788 46.655C19.1117 46.655 18.9562 46.6634 18.8124 46.6801C18.8124 47.379 18.8224 48.1078 18.8425 48.8667C18.9829 48.8936 19.1149 48.9066 19.2387 48.9066C20.3151 48.9066 20.8535 48.5206 20.8535 47.7483ZM22.2025 47.6982C22.2025 48.407 21.9217 48.9428 21.36 49.3056C20.7983 49.6683 20.0527 49.8495 19.1234 49.8495C18.7454 49.8495 18.1905 49.8396 17.4583 49.8193C17.5018 48.7964 17.5235 47.658 17.5235 46.4043C17.5235 45.0837 17.5018 44.0457 17.4583 43.29H18.8777C18.8575 43.5073 18.8358 44.3098 18.8124 45.6972C19.0264 45.6805 19.2218 45.6722 19.3992 45.6722C20.2049 45.6722 20.8735 45.8301 21.4052 46.146C21.9367 46.4621 22.2025 46.9795 22.2025 47.6982Z" fill="white"/>
<path fill-rule="evenodd" clip-rule="evenodd" d="M30.1762 43.29L30.1411 44.3684C29.4722 44.3182 28.8421 44.2931 28.2503 44.2931C28.2438 44.925 28.2405 45.6287 28.2405 46.4043C28.2405 47.6079 28.2589 48.7463 28.2954 49.8193H26.8913C26.9347 48.7565 26.9566 47.6181 26.9566 46.4043C26.9566 45.6421 26.9499 44.9384 26.9365 44.2931C26.465 44.2931 25.8182 44.3198 24.9957 44.3732L25.0358 43.29H30.1762Z" fill="white"/>
<path fill-rule="evenodd" clip-rule="evenodd" d="M35.6725 46.5798C35.6725 45.8813 35.4938 45.3145 35.1358 44.88C34.7781 44.4452 34.3368 44.2279 33.812 44.2279C33.3239 44.2279 32.9095 44.4469 32.5682 44.885C32.2273 45.323 32.0569 45.8761 32.0569 46.5449C32.0569 47.2403 32.2363 47.806 32.5958 48.2425C32.9551 48.6786 33.3959 48.8969 33.9174 48.8969C34.4055 48.8969 34.8199 48.6769 35.1611 48.2373C35.502 47.7979 35.6725 47.2453 35.6725 46.5798ZM37.0566 46.4345C37.0566 47.4608 36.7424 48.3117 36.1138 48.9871C35.4853 49.6624 34.708 50 33.7819 50C32.8993 50 32.1604 49.6901 31.5652 49.0698C30.9701 48.4498 30.6728 47.6616 30.6728 46.7053C30.6728 45.6788 30.9868 44.828 31.6156 44.1527C32.244 43.4776 33.0212 43.1396 33.9473 43.1396C34.8301 43.1396 35.569 43.449 36.164 44.0675C36.7591 44.6861 37.0566 45.475 37.0566 46.4345Z" fill="white"/>
<path fill-rule="evenodd" clip-rule="evenodd" d="M41.8409 47.9088C41.8409 47.2433 41.2576 46.9107 40.0906 46.9107C39.8601 46.9107 39.6612 46.9191 39.494 46.9358C39.494 47.6345 39.509 48.2781 39.5391 48.8665C39.6526 48.8934 39.823 48.9065 40.0505 48.9065C40.6691 48.9065 41.1221 48.8323 41.4096 48.6835C41.6973 48.5348 41.8409 48.2763 41.8409 47.9088ZM41.4749 45.1003C41.4749 44.502 41.1002 44.2026 40.3514 44.2026C40.0069 44.2026 39.7011 44.2277 39.4338 44.2778C39.4704 44.6154 39.4887 45.1955 39.4887 46.018C39.6159 46.0247 39.7497 46.0279 39.8902 46.0279C40.9465 46.0279 41.4747 45.7189 41.4749 45.1003ZM43.1949 47.8535C43.1949 49.1842 42.1067 49.8493 39.9303 49.8493C39.5522 49.8493 38.9641 49.8395 38.1649 49.8192C38.2084 48.8097 38.2303 47.6712 38.2303 46.4041C38.2303 45.1872 38.2084 44.1492 38.1649 43.2899H38.9775C39.1313 43.2899 39.3895 43.2851 39.7523 43.2749C40.115 43.2648 40.3981 43.2598 40.6023 43.2598C42.0833 43.2598 42.8238 43.7413 42.8238 44.7041C42.8238 45.4464 42.4444 45.9377 41.6854 46.1784V46.2537C42.0899 46.3172 42.4428 46.4754 42.7438 46.7277C43.0444 46.9801 43.1949 47.3556 43.1949 47.8535Z" fill="white"/>
<path fill-rule="evenodd" clip-rule="evenodd" d="M47.6783 46.9861C47.1068 45.2611 46.8209 44.3281 46.8209 44.1877H46.7405C46.7405 44.3182 46.4447 45.2509 45.8529 46.9861H47.6783ZM49.9954 49.8193H48.3904C48.3904 49.5988 48.2384 48.9736 47.9341 47.9438H45.6174C45.303 48.9569 45.146 49.5821 45.146 49.8193H43.6362C43.6362 49.6892 44.0267 48.6195 44.8071 46.6099C45.5878 44.6006 45.9783 43.4942 45.9783 43.29H47.8739C47.8739 43.4808 48.2273 44.5713 48.9346 46.5622C49.6416 48.5532 49.9954 49.6391 49.9954 49.8193Z" fill="white"/>
<path fill-rule="evenodd" clip-rule="evenodd" d="M54.0974 46.2337C54.0974 45.5314 54.0822 44.8797 54.0521 44.2778C53.6612 44.231 53.3185 44.2076 53.0242 44.2076C52.2353 44.2076 51.8407 44.5003 51.8407 45.0853C51.8407 45.8609 52.404 46.2488 53.5307 46.2488C53.7413 46.2488 53.9302 46.2437 54.0974 46.2337ZM55.4465 49.8192H54.0523C54.0822 49.0403 54.0974 48.1679 54.0974 47.2015C53.9236 47.1917 53.7179 47.1865 53.4806 47.1865C53.0659 47.1865 52.745 47.3296 52.5175 47.6154C52.2902 47.901 52.0363 48.5355 51.7553 49.5186C51.7219 49.6389 51.6785 49.7391 51.6251 49.8192H50.1606C50.2109 49.7124 50.2992 49.4934 50.4265 49.1623C50.734 48.2631 50.9922 47.6696 51.2013 47.3821C51.4101 47.0946 51.6902 46.9041 52.0413 46.8105V46.7301C51.0549 46.5262 50.562 45.9813 50.562 45.0953C50.562 43.8715 51.4111 43.2598 53.1094 43.2598C53.3636 43.2598 53.6502 43.2648 53.9696 43.2749C54.2888 43.2851 54.4903 43.2899 54.5739 43.2899H55.4465C55.3997 44.1525 55.3761 45.1922 55.3761 46.4091C55.3761 47.6729 55.3997 48.8097 55.4465 49.8192Z" fill="white"/>
<path fill-rule="evenodd" clip-rule="evenodd" d="M63.686 43.29L63.6509 44.3684C62.9823 44.3182 62.3518 44.2931 61.7601 44.2931C61.7535 44.925 61.7502 45.6287 61.7502 46.4043C61.7502 47.6079 61.7687 48.7463 61.8052 49.8193H60.4011C60.4447 48.7565 60.4664 47.6181 60.4664 46.4043C60.4664 45.6421 60.4596 44.9384 60.4464 44.2931C59.975 44.2931 59.3278 44.3198 58.5055 44.3732L58.5456 43.29H63.686Z" fill="white"/>
<path fill-rule="evenodd" clip-rule="evenodd" d="M68.8261 48.7162L68.7862 49.8193H64.5184C64.562 48.8099 64.5835 47.6713 64.5835 46.4043C64.5837 45.1874 64.562 44.1494 64.5184 43.29H68.5906L68.5353 44.3883C67.5324 44.3349 66.6229 44.3081 65.8073 44.3081C65.8407 44.773 65.8574 45.3212 65.8574 45.9529C66.5562 45.9529 67.3033 45.9346 68.0989 45.8979V46.9458C67.3169 46.9124 66.5697 46.8957 65.8574 46.8957C65.8574 47.5745 65.8708 48.2099 65.8977 48.8016C66.8136 48.8016 67.7898 48.7732 68.8261 48.7162Z" fill="white"/>
<path fill-rule="evenodd" clip-rule="evenodd" d="M75.1903 49.8193H73.5101C73.5101 49.7026 73.3197 49.273 72.9385 48.5308C72.5673 47.8051 72.3016 47.3321 72.141 47.1114H72.0609C71.917 47.3089 71.6765 47.7719 71.3388 48.5007C70.9909 49.2462 70.8172 49.6859 70.8172 49.8193H69.2676C69.2676 49.7193 69.5928 49.1559 70.2428 48.1295C70.8933 47.1031 71.3104 46.4995 71.4943 46.3191V46.2438C71.3137 46.0367 70.9575 45.5283 70.4258 44.7192C69.8776 43.8737 69.6035 43.397 69.6035 43.29H71.2185C71.2185 43.397 71.3738 43.7565 71.6847 44.3684C71.9959 44.9801 72.2147 45.363 72.3419 45.5166H72.422C72.5458 45.3595 72.7555 44.9768 73.0513 44.3684C73.3474 43.7597 73.4951 43.4004 73.4951 43.29H74.9796C74.9796 43.3837 74.6929 43.8477 74.1194 44.6819C73.5459 45.5161 73.179 46.0116 73.0187 46.1686V46.2438C73.2396 46.4845 73.6564 47.1097 74.2699 48.1195C74.8835 49.1291 75.1902 49.696 75.1903 49.8193Z" fill="white"/>
<path fill-rule="evenodd" clip-rule="evenodd" d="M81.233 49.8193H79.814C79.8474 48.7129 79.8639 47.7534 79.8639 46.9409H77.3366C77.3366 47.6698 77.3533 48.6293 77.3865 49.8193H75.9675C76.0111 48.7162 76.0326 47.5778 76.0326 46.4043C76.0326 45.2175 76.0111 44.1795 75.9675 43.29H77.3867C77.3468 44.2296 77.3265 45.0987 77.3265 45.8979H79.8741C79.8741 45.1924 79.8541 44.3231 79.814 43.29H81.233C81.1862 44.1394 81.163 45.1772 81.163 46.4043C81.1631 47.6847 81.1862 48.8231 81.233 49.8193Z" fill="white"/>
<path fill-rule="evenodd" clip-rule="evenodd" d="M88.1988 49.8193H86.7797C86.8264 49.2679 86.85 48.4337 86.85 47.3171C86.85 46.8657 86.8682 46.2287 86.9049 45.4064H86.8297C86.7126 45.7073 86.1477 46.4561 85.1348 47.6531C84.2185 48.7431 83.7605 49.465 83.7605 49.8193H82.6774C82.7344 48.9335 82.7628 47.9003 82.7628 46.7204C82.7628 45.5202 82.7342 44.3768 82.6774 43.29H84.0916C84.0448 44.1394 84.0212 45.0569 84.0212 46.0432C84.0214 46.4845 83.998 47.0362 83.9513 47.6982H84.0265C84.1669 47.3671 84.7435 46.6099 85.7567 45.4265C86.656 44.3732 87.1055 43.6611 87.1055 43.29H88.1988C88.1487 44.3768 88.1236 45.5202 88.1236 46.7204C88.1236 47.9003 88.1487 48.9335 88.1988 49.8193Z" fill="white"/>
<path fill-rule="evenodd" clip-rule="evenodd" d="M94.8236 49.8193H93.2488C93.219 49.7692 93.1735 49.6558 93.1136 49.4784C92.8395 48.4221 92.5819 47.7417 92.3412 47.4375C92.1005 47.1333 91.756 46.9811 91.3082 46.9811C91.181 46.9811 91.0792 46.9876 91.0023 47.001C91.0023 47.9674 91.0205 48.9066 91.0572 49.8193H89.6431C89.6865 48.8099 89.7084 47.6713 89.7084 46.4043C89.7084 45.1874 89.6865 44.1494 89.6431 43.29H91.0572C91.0207 44.2797 91.0023 45.1807 91.0023 45.9931C91.1393 45.9997 91.2411 46.003 91.3082 46.003C92.2242 46.003 92.8257 45.2025 93.1136 43.6008C93.1336 43.4841 93.1735 43.3803 93.234 43.29H94.5879C94.5445 43.3937 94.4774 43.576 94.3872 43.8367C94.1666 44.6189 93.93 45.1891 93.6776 45.5467C93.4252 45.9045 93.0852 46.1738 92.6572 46.3544L92.6574 46.4093C93.1019 46.5532 93.4435 46.7924 93.6826 47.1264C93.9218 47.4607 94.2284 48.1746 94.6027 49.2679C94.6496 49.4082 94.7231 49.5922 94.8236 49.8193Z" fill="white"/>
<path fill-rule="evenodd" clip-rule="evenodd" d="M99.1413 46.9861C98.5699 45.2611 98.2839 44.3281 98.2839 44.1877H98.2035C98.2035 44.3182 97.9077 45.2509 97.316 46.9861H99.1413ZM101.458 49.8193H99.8536C99.8536 49.5988 99.7014 48.9736 99.3972 47.9438H97.0801C96.7661 48.9569 96.6087 49.5821 96.6087 49.8193H95.0994C95.0994 49.6892 95.4897 48.6195 96.2702 46.6099C97.0508 44.6006 97.4413 43.4942 97.4413 43.29H99.3371C99.3371 43.4808 99.6904 44.5713 100.398 46.5622C101.105 48.5532 101.458 49.6391 101.458 49.8193Z" fill="white"/>
<path fill-rule="evenodd" clip-rule="evenodd" d="M17.1931 8.42836H15.6272C15.5973 8.3786 15.5523 8.26548 15.4926 8.08935C15.2199 7.03876 14.9638 6.36212 14.7245 6.05944C14.4852 5.75694 14.1426 5.6056 13.6972 5.6056C13.5708 5.6056 13.4694 5.61231 13.3929 5.62557C13.3929 6.58646 13.4112 7.52084 13.4479 8.42836H12.0414C12.0846 7.42442 12.1063 6.29222 12.1063 5.03209C12.1063 3.82189 12.0846 2.78955 12.0414 1.93506H13.4479C13.4112 2.91919 13.3929 3.81535 13.3929 4.62318C13.5293 4.6299 13.6305 4.63317 13.6972 4.63317C14.6081 4.63317 15.2066 3.83687 15.4926 2.24428C15.5125 2.12789 15.5523 2.02493 15.6122 1.93506H16.9588C16.9156 2.03819 16.8491 2.21931 16.7592 2.47878C16.5399 3.25665 16.3045 3.82362 16.0537 4.17932C15.8025 4.5352 15.4643 4.80276 15.0387 4.98233V5.03708C15.4809 5.18016 15.8209 5.41793 16.0585 5.75022C16.2963 6.08286 16.6014 6.79255 16.9738 7.87982C17.0203 8.01945 17.0934 8.2023 17.1931 8.42836Z" fill="white"/>
<path fill-rule="evenodd" clip-rule="evenodd" d="M22.9682 1.93506C22.9682 2.12135 22.7546 2.7787 22.3274 3.90746C21.9003 5.0364 21.4838 5.96303 21.0781 6.68787C20.6725 7.41272 20.2553 7.91718 19.8264 8.20144C19.3976 8.48569 18.7924 8.62791 18.0111 8.62791L17.9164 7.58558C18.5148 7.58558 18.9561 7.5217 19.2404 7.39361C19.5246 7.26568 19.7483 6.99881 19.9111 6.59318C19.9111 6.37039 19.5138 5.5567 18.7192 4.15195C17.9246 2.74719 17.5273 2.00823 17.5273 1.93506H19.1033C19.1033 2.0282 19.345 2.59086 19.8288 3.62321C20.3127 4.65555 20.5546 5.24335 20.5546 5.38625H20.6093C21.2842 3.50114 21.6219 2.35068 21.6219 1.93506H22.9682Z" fill="white"/>
<path fill-rule="evenodd" clip-rule="evenodd" d="M28.7984 8.42836H27.1278C27.1278 8.31214 26.9382 7.88481 26.5591 7.14671C26.1901 6.42531 25.9259 5.95476 25.7663 5.73524H25.6864C25.5435 5.93152 25.304 6.39208 24.9682 7.11675C24.6225 7.8583 24.4497 8.29544 24.4497 8.42836H22.9085C22.9085 8.32867 23.2319 7.76842 23.8786 6.74779C24.5252 5.72698 24.94 5.12696 25.1228 4.94738V4.87249C24.9433 4.6664 24.5893 4.16107 24.0605 3.35634C23.5153 2.51528 23.2427 2.04146 23.2427 1.93506H24.8486C24.8486 2.04146 25.0032 2.39889 25.3124 3.00735C25.6216 3.6158 25.8393 3.99648 25.9656 4.14936H26.0455C26.1684 3.9932 26.3771 3.61253 26.6714 3.00735C26.9656 2.40216 27.1126 2.04473 27.1126 1.93506H28.5888C28.5888 2.0282 28.3037 2.48945 27.7337 3.31898C27.1634 4.14868 26.7986 4.64143 26.639 4.79777V4.87249C26.8583 5.11198 27.2731 5.73369 27.8833 6.7378C28.4933 7.74191 28.7984 8.30543 28.7984 8.42836Z" fill="white"/>
<path fill-rule="evenodd" clip-rule="evenodd" d="M34.2095 5.20688C34.2095 4.51199 34.0317 3.94847 33.6758 3.51632C33.3201 3.08399 32.8812 2.86792 32.3592 2.86792C31.8738 2.86792 31.4615 3.08572 31.1225 3.52114C30.7833 3.95691 30.6137 4.507 30.6137 5.17193C30.6137 5.86354 30.7922 6.4262 31.1498 6.86007C31.5073 7.29395 31.9453 7.51106 32.464 7.51106C32.9494 7.51106 33.3616 7.2924 33.7009 6.85525C34.0399 6.41794 34.2095 5.86854 34.2095 5.20688ZM35.5859 5.06225C35.5859 6.08306 35.2735 6.92929 34.6484 7.60076C34.0232 8.2724 33.2503 8.60814 32.3294 8.60814C31.4517 8.60814 30.7168 8.29978 30.1251 7.68306C29.5331 7.06634 29.2372 6.28244 29.2372 5.33153C29.2372 4.31089 29.5497 3.46467 30.1748 2.79302C30.8 2.12155 31.5729 1.78564 32.4938 1.78564C33.3717 1.78564 34.1064 2.09332 34.6981 2.70832C35.2899 3.32349 35.5859 4.10807 35.5859 5.06225Z" fill="white"/>
<path fill-rule="evenodd" clip-rule="evenodd" d="M41.9249 8.42836H40.5135C40.5465 7.32801 40.5632 6.37366 40.5632 5.56582H38.0497C38.0497 6.29067 38.0664 7.24485 38.0994 8.42836H36.6883C36.7312 7.33128 36.7531 6.19907 36.7531 5.03209C36.7531 3.85185 36.7312 2.81951 36.6883 1.93506H38.0994C38.0595 2.86944 38.0395 3.73374 38.0395 4.52849H40.5734C40.5734 3.82689 40.5534 2.96241 40.5133 1.93506H41.9249C41.8781 2.77956 41.8549 3.81191 41.8549 5.03209C41.8549 6.30565 41.8781 7.43768 41.9249 8.42836Z" fill="white"/>
<path fill-rule="evenodd" clip-rule="evenodd" d="M48.5975 8.42836H47.1864C47.2194 7.32801 47.2361 6.37366 47.2361 5.56582H44.7226C44.7226 6.29067 44.7391 7.24485 44.7723 8.42836H43.361C43.4043 7.33128 43.4258 6.19907 43.4258 5.03209C43.4258 3.85185 43.4043 2.81951 43.3609 1.93506H44.7725C44.7326 2.86944 44.7126 3.73374 44.7126 4.52849H47.2459C47.2459 3.82689 47.2263 2.96241 47.1864 1.93506H48.5975C48.551 2.77956 48.5278 3.81191 48.5278 5.03209C48.5278 6.30565 48.551 7.43768 48.5975 8.42836Z" fill="white"/>
<path fill-rule="evenodd" clip-rule="evenodd" d="M56.702 8.42836H55.2905C55.3337 7.39774 55.3552 6.26571 55.3552 5.03209C55.3552 3.81862 55.3337 2.78628 55.2905 1.93506H56.702C56.6551 2.77285 56.6321 3.80536 56.6321 5.03209C56.6321 6.28568 56.6551 7.41771 56.702 8.42836ZM53.4104 6.36866C53.4104 5.97973 53.254 5.70133 52.9414 5.53329C52.6289 5.36542 52.2632 5.28157 51.8443 5.28157C51.678 5.2814 51.5234 5.28983 51.3805 5.30636C51.3805 6.00142 51.3903 6.72609 51.4102 7.4809C51.5502 7.50741 51.6814 7.52084 51.8043 7.52084C52.8749 7.52067 53.4104 7.13672 53.4104 6.36866ZM54.7518 6.31891C54.7518 7.02378 54.4727 7.55648 53.914 7.91718C53.3553 8.27805 52.6139 8.45832 51.6897 8.45832C51.314 8.45832 50.7618 8.44833 50.0339 8.42836C50.0771 7.41099 50.0986 6.27896 50.0986 5.03209C50.0988 3.71893 50.0771 2.68659 50.0339 1.93506H51.4454C51.4254 2.15131 51.4037 2.94915 51.3805 4.32894C51.5931 4.31224 51.7876 4.30398 51.9641 4.30398C52.7652 4.30398 53.4303 4.46117 53.9589 4.77538C54.4875 5.08942 54.7518 5.60405 54.7518 6.31891Z" fill="white"/>
<path fill-rule="evenodd" clip-rule="evenodd" d="M62.4222 7.33128L62.3823 8.42836H58.1382C58.1813 7.42442 58.2031 6.29222 58.2031 5.03209C58.2031 3.82189 58.1813 2.78955 58.1382 1.93506H62.1877L62.133 3.02732C61.1354 2.97412 60.231 2.94743 59.4197 2.94743C59.4531 3.40971 59.4698 3.95498 59.4698 4.58324C60.1645 4.58324 60.9076 4.56499 61.6991 4.52849V5.57082C60.921 5.53759 60.1779 5.52089 59.4698 5.52089C59.4698 6.1958 59.4829 6.8275 59.5096 7.41599C60.4205 7.41599 61.3912 7.38775 62.4222 7.33128Z" fill="white"/>
<path fill-rule="evenodd" clip-rule="evenodd" d="M73.2344 8.42836H71.7832C71.7832 7.86329 71.7481 6.9098 71.6783 5.56824C71.6086 4.22667 71.5719 3.38974 71.5687 3.05728H71.4938C71.4605 3.25665 71.3726 3.62579 71.2297 4.16434C71.0866 4.70307 70.8182 5.49678 70.4242 6.54583C70.0303 7.59487 69.833 8.22227 69.833 8.42836H68.7309C68.7309 8.21573 68.5422 7.5823 68.1648 6.52827C67.7876 5.4744 67.5405 4.7363 67.4243 4.31396C67.3079 3.8918 67.2148 3.4729 67.1449 3.05728H67.0703C67.0667 3.4729 67.0262 4.36389 66.9479 5.73042C66.8699 7.09678 66.8308 7.99621 66.8308 8.42836H65.5144C65.5144 8.32867 65.6348 7.32956 65.8758 5.43119C66.1168 3.53264 66.2374 2.36738 66.2374 1.93506H68.1674C68.1674 2.30747 68.3709 3.12873 68.7783 4.39884C69.1856 5.66878 69.3891 6.48178 69.3891 6.83749H69.4642C69.4642 6.47834 69.696 5.66396 70.1596 4.39385C70.6238 3.12374 70.8554 2.3042 70.8554 1.93506H72.7706C72.7706 2.62323 72.8479 3.85099 73.0025 5.61817C73.1571 7.38534 73.2343 8.32213 73.2344 8.42836Z" fill="white"/>
<path fill-rule="evenodd" clip-rule="evenodd" d="M79.1992 5.20688C79.1992 4.51199 79.0212 3.94847 78.6655 3.51632C78.3098 3.08399 77.8709 2.86792 77.3489 2.86792C76.8633 2.86792 76.4512 3.08572 76.112 3.52114C75.773 3.95691 75.6034 4.507 75.6034 5.17193C75.6034 5.86354 75.7821 6.4262 76.1394 6.86007C76.497 7.29395 76.935 7.51106 77.4537 7.51106C77.9391 7.51106 78.3514 7.2924 78.6903 6.85525C79.0296 6.41794 79.1992 5.86854 79.1992 5.20688ZM80.5757 5.06225C80.5757 6.08306 80.2629 6.92929 79.6381 7.60076C79.0129 8.2724 78.2397 8.60814 77.3187 8.60814C76.4412 8.60814 75.7062 8.29978 75.1148 7.68306C74.5227 7.06634 74.2269 6.28244 74.2269 5.33153C74.2269 4.31089 74.5394 3.46467 75.1645 2.79302C75.7895 2.12155 76.5626 1.78564 77.4835 1.78564C78.3612 1.78564 79.0961 2.09332 79.6878 2.70832C80.2796 3.32349 80.5757 4.10807 80.5757 5.06225Z" fill="white"/>
<path fill-rule="evenodd" clip-rule="evenodd" d="M86.3409 0.129646C86.3409 1.157 85.7507 1.67076 84.5704 1.67076C83.9386 1.67076 83.4697 1.50788 83.1638 1.18196C82.9114 0.912685 82.7849 0.56197 82.7849 0.129646L83.8923 0C83.8923 0.635143 84.1197 0.952629 84.5753 0.952629C84.8779 0.952629 85.0716 0.871191 85.1563 0.708144C85.2412 0.545269 85.2834 0.309221 85.2834 0L86.3409 0.129646ZM87.1687 8.42834H85.7572C85.8037 7.8798 85.827 7.05028 85.827 5.93977C85.827 5.49091 85.8454 4.85749 85.8821 4.03968H85.8072C85.6908 4.33891 85.1288 5.08373 84.1214 6.27395C83.2103 7.35778 82.7549 8.07608 82.7549 8.42834H81.6778C81.7344 7.54734 81.7625 6.51999 81.7625 5.34629C81.7625 4.15279 81.7343 3.0156 81.6776 1.93504H83.0843C83.0374 2.77955 83.0142 3.69223 83.0142 4.6731C83.0142 5.11196 82.9909 5.6605 82.9445 6.31889H83.0194C83.159 5.9897 83.7323 5.23662 84.7397 4.05965C85.6341 3.01232 86.0814 2.30418 86.0814 1.93504H87.1687C87.1189 3.0156 87.0938 4.15279 87.0938 5.34629C87.0938 6.51999 87.1189 7.54734 87.1687 8.42834Z" fill="white"/>
<path fill-rule="evenodd" clip-rule="evenodd" d="M93.7569 8.42836H92.1908C92.161 8.3786 92.1161 8.26548 92.0562 8.08935C91.7835 7.03876 91.5276 6.36212 91.2883 6.05944C91.0488 5.75694 90.7064 5.6056 90.261 5.6056C90.1344 5.6056 90.033 5.61231 89.9567 5.62557C89.9567 6.58646 89.9746 7.52084 90.0113 8.42836H88.6052C88.648 7.42442 88.6699 6.29222 88.6699 5.03209C88.6699 3.82189 88.648 2.78955 88.6052 1.93506H90.0113C89.9748 2.91919 89.9567 3.81535 89.9567 4.62318C90.0929 4.6299 90.1941 4.63317 90.261 4.63317C91.1717 4.63317 91.7702 3.83687 92.0562 2.24428C92.0762 2.12789 92.1161 2.02493 92.1758 1.93506H93.5224C93.4792 2.03819 93.4127 2.21931 93.3229 2.47878C93.1035 3.25665 92.8682 3.82362 92.6173 4.17932C92.3663 4.5352 92.0278 4.80276 91.6023 4.98233V5.03708C92.0445 5.18016 92.3845 5.41793 92.6223 5.75022C92.8601 6.08286 93.1651 6.79255 93.5374 7.87982C93.584 8.01945 93.657 8.2023 93.7569 8.42836Z" fill="white"/>
<path fill-rule="evenodd" clip-rule="evenodd" d="M100.185 8.42836H98.7739C98.8204 7.87982 98.8437 7.05029 98.8437 5.93978C98.8437 5.49093 98.8621 4.85751 98.8984 4.03969H98.8237C98.7075 4.33893 98.1455 5.08374 97.1381 6.27397C96.2272 7.35779 95.7716 8.0761 95.7716 8.42836H94.6945C94.7508 7.54735 94.7792 6.52 94.7792 5.34631C94.7792 4.15281 94.7508 3.01561 94.6943 1.93506H96.1006C96.0541 2.77956 96.0309 3.69225 96.0309 4.67311C96.0309 5.11198 96.0076 5.66052 95.9611 6.31891H96.0359C96.1757 5.98971 96.749 5.23663 97.7564 4.05966C98.6508 3.01234 99.0978 2.3042 99.0978 1.93506H100.185C100.135 3.01561 100.11 4.15281 100.11 5.34631C100.11 6.52 100.135 7.54735 100.185 8.42836Z" fill="white"/>
</svg>
