<svg width="20" height="20" viewBox="0 0 20 20" fill="none" xmlns="http://www.w3.org/2000/svg">
<path d="M17.3083 16.2748C17.3083 16.5748 17.2417 16.8832 17.1 17.1832C16.9583 17.4832 16.775 17.7665 16.5333 18.0332C16.125 18.4832 15.675 18.8082 15.1667 19.0165C14.6667 19.2248 14.125 19.3332 13.5417 19.3332C12.6917 19.3332 11.7833 19.1332 10.825 18.7248C9.86666 18.3165 8.90832 17.7665 7.95832 17.0748C6.99999 16.3748 6.09166 15.5998 5.22499 14.7415C4.36666 13.8748 3.59166 12.9665 2.89999 12.0165C2.21666 11.0665 1.66666 10.1165 1.26666 9.17484C0.866657 8.22484 0.666656 7.3165 0.666656 6.44984C0.666656 5.88317 0.766656 5.3415 0.966656 4.8415C1.16666 4.33317 1.48332 3.8665 1.92499 3.44984C2.45832 2.92484 3.04166 2.6665 3.65832 2.6665C3.89166 2.6665 4.12499 2.7165 4.33332 2.8165C4.54999 2.9165 4.74166 3.0665 4.89166 3.28317L6.82499 6.00817C6.97499 6.2165 7.08332 6.40817 7.15832 6.5915C7.23332 6.7665 7.27499 6.9415 7.27499 7.09984C7.27499 7.29984 7.21666 7.49984 7.09999 7.6915C6.99166 7.88317 6.83332 8.08317 6.63332 8.28317L5.99999 8.9415C5.90832 9.03317 5.86666 9.1415 5.86666 9.27484C5.86666 9.3415 5.87499 9.39984 5.89166 9.4665C5.91666 9.53317 5.94166 9.58317 5.95832 9.63317C6.10832 9.90817 6.36666 10.2665 6.73332 10.6998C7.10832 11.1332 7.50832 11.5748 7.94166 12.0165C8.39166 12.4582 8.82499 12.8665 9.26666 13.2415C9.69999 13.6082 10.0583 13.8582 10.3417 14.0082C10.3833 14.0248 10.4333 14.0498 10.4917 14.0748C10.5583 14.0998 10.625 14.1082 10.7 14.1082C10.8417 14.1082 10.95 14.0582 11.0417 13.9665L11.675 13.3415C11.8833 13.1332 12.0833 12.9748 12.275 12.8748C12.4667 12.7582 12.6583 12.6998 12.8667 12.6998C13.025 12.6998 13.1917 12.7332 13.375 12.8082C13.5583 12.8832 13.75 12.9915 13.9583 13.1332L16.7167 15.0915C16.9333 15.2415 17.0833 15.4165 17.175 15.6248C17.2583 15.8332 17.3083 16.0415 17.3083 16.2748Z" stroke="white" stroke-width="1.2" stroke-miterlimit="10"/>
<path d="M14.4167 8.49967C14.4167 7.99967 14.025 7.23301 13.4417 6.60801C12.9084 6.03301 12.2 5.58301 11.5 5.58301" stroke="white" stroke-width="1.2" stroke-linecap="round" stroke-linejoin="round"/>
<path d="M17.3334 8.49984C17.3334 5.27484 14.725 2.6665 11.5 2.6665" stroke="white" stroke-width="1.2" stroke-linecap="round" stroke-linejoin="round"/>
</svg>
