<svg width="189" height="47" viewBox="0 0 189 47" fill="none" xmlns="http://www.w3.org/2000/svg">
<path d="M61.8979 14.2386L71.8143 28.1592H65.3981L57.4011 16.9316H43.9492V28.1589H39.1228V0.000964873H43.9492V11.5449H57.3584L65.3981 0.000964873H71.8143L61.8979 14.2386ZM102.727 46.911H103.784V44.1976H104.4L106.285 46.911H107.57L105.237 43.655L107.394 40.6833H106.179L104.4 43.2189H103.784V40.6833H102.727V46.911ZM109.731 46.911H110.841L113.527 40.6833H112.417L111.061 43.9752H111.043L109.511 40.6833H108.331L110.497 45.1315L109.731 46.911ZM114.288 46.911H115.521L117.009 44.5001L118.462 46.911H119.748L117.722 43.646L119.572 40.6833H118.356L117.026 42.8275L115.714 40.6833H114.464L116.313 43.6638L114.288 46.911ZM123.194 47C123.605 47 123.98 46.9334 124.317 46.7998C124.655 46.6664 124.942 46.4691 125.18 46.2082C125.418 45.9472 125.601 45.6269 125.731 45.2472C125.86 44.8678 125.924 44.4319 125.924 43.9396V43.5659C125.924 43.0915 125.86 42.6701 125.731 42.3025C125.601 41.9348 125.418 41.6249 125.18 41.3728C124.942 41.1207 124.656 40.9279 124.322 40.7944C123.987 40.6609 123.611 40.5942 123.194 40.5942C122.783 40.5942 122.409 40.6609 122.072 40.7944C121.734 40.9279 121.446 41.1223 121.209 41.3772C120.971 41.6323 120.787 41.9437 120.658 42.3114C120.529 42.6791 120.465 43.0972 120.465 43.5659V43.9396C120.465 44.4319 120.529 44.8692 120.658 45.2517C120.787 45.6343 120.971 45.9545 121.209 46.2126C121.446 46.4705 121.734 46.6664 122.072 46.7998C122.409 46.9334 122.783 47 123.194 47ZM123.194 46.0214C122.954 46.0214 122.734 45.9799 122.534 45.8968C122.334 45.8138 122.164 45.6863 122.023 45.5142C121.882 45.3422 121.772 45.1259 121.693 44.8647C121.614 44.6038 121.574 44.2955 121.574 43.9396V43.5659C121.574 43.2277 121.612 42.9341 121.689 42.6851C121.765 42.436 121.874 42.2283 122.014 42.0623C122.155 41.8961 122.326 41.7731 122.525 41.6931C122.725 41.6129 122.948 41.5729 123.194 41.5729C123.435 41.5729 123.655 41.6146 123.855 41.6975C124.054 41.7805 124.225 41.905 124.366 42.0712C124.507 42.2372 124.617 42.4449 124.696 42.694C124.775 42.9431 124.815 43.2336 124.815 43.5659V43.9396C124.815 44.3013 124.777 44.6127 124.7 44.8736C124.624 45.1347 124.515 45.3495 124.374 45.5186C124.233 45.6876 124.063 45.8138 123.864 45.8968C123.664 45.9799 123.441 46.0214 123.194 46.0214ZM127.478 46.911H128.535V44.1976H131.441V46.911H132.497V40.6833H131.441V43.2189H128.535V40.6833H127.478V46.911ZM134.271 46.911H135.328V44.1976H138.234V46.911H139.291V40.6833H138.234V43.2189H135.328V40.6833H134.271V46.911ZM146.084 46.911H147.14V40.6833H146.084V46.911ZM141.064 46.911H143.09C143.894 46.911 144.484 46.7331 144.86 46.3772C145.236 46.0214 145.423 45.5142 145.423 44.8557C145.423 44.2155 145.228 43.7096 144.838 43.3391C144.447 42.9682 143.865 42.783 143.09 42.783H142.121V40.6833H141.064V46.911ZM142.121 45.9324V43.7616H143.045C143.486 43.7616 143.807 43.8551 144.01 44.0419C144.212 44.2287 144.314 44.5001 144.314 44.8557C144.314 45.1938 144.211 45.4579 144.005 45.6476C143.8 45.8376 143.48 45.9324 143.045 45.9324H142.121ZM148.914 46.911H152.877V45.9324H149.971V44.1976H152.348V43.2189H149.971V41.6619H152.877V40.6833H148.914V46.911ZM156.588 46.911H157.644V41.8844H157.662L159.009 45.2651H160.066L161.413 41.8844H161.431V46.911H162.488V40.6833H160.956L159.582 44.1353H159.564L158.19 40.6833H156.588V46.911ZM166.771 47C167.182 47 167.556 46.9334 167.894 46.7998C168.232 46.6664 168.519 46.4691 168.757 46.2082C168.995 45.9472 169.178 45.6269 169.307 45.2472C169.436 44.8678 169.501 44.4319 169.501 43.9396V43.5659C169.501 43.0915 169.436 42.6701 169.307 42.3025C169.178 41.9348 168.995 41.6249 168.757 41.3728C168.519 41.1207 168.233 40.9279 167.898 40.7944C167.564 40.6609 167.188 40.5942 166.771 40.5942C166.36 40.5942 165.986 40.6609 165.648 40.7944C165.311 40.9279 165.023 41.1223 164.785 41.3772C164.548 41.6323 164.364 41.9437 164.235 42.3114C164.106 42.6791 164.041 43.0972 164.041 43.5659V43.9396C164.041 44.4319 164.106 44.8692 164.235 45.2517C164.364 45.6343 164.548 45.9545 164.785 46.2126C165.023 46.4705 165.311 46.6664 165.648 46.7998C165.986 46.9334 166.36 47 166.771 47ZM166.771 46.0214C166.53 46.0214 166.31 45.9799 166.111 45.8968C165.911 45.8138 165.741 45.6863 165.6 45.5142C165.459 45.3422 165.349 45.1259 165.27 44.8647C165.19 44.6038 165.151 44.2955 165.151 43.9396V43.5659C165.151 43.2277 165.189 42.9341 165.265 42.6851C165.341 42.436 165.45 42.2283 165.591 42.0623C165.732 41.8961 165.902 41.7731 166.102 41.6931C166.301 41.6129 166.525 41.5729 166.771 41.5729C167.012 41.5729 167.232 41.6146 167.432 41.6975C167.631 41.7805 167.801 41.905 167.942 42.0712C168.083 42.2372 168.193 42.4449 168.273 42.694C168.352 42.9431 168.391 43.2336 168.391 43.5659V43.9396C168.391 44.3013 168.353 44.6127 168.277 44.8736C168.201 45.1347 168.092 45.3495 167.951 45.5186C167.81 45.6876 167.64 45.8138 167.44 45.8968C167.241 45.9799 167.018 46.0214 166.771 46.0214ZM171.055 46.911H172.481L175.009 42.0178H175.017V46.911H176.074V40.6833H174.647L172.12 45.5765H172.111V40.6833H171.055V46.911ZM173.564 40.1497C174.01 40.1497 174.35 40.0384 174.581 39.8159C174.813 39.5935 174.929 39.2894 174.929 38.904H174.137C174.137 39.1055 174.085 39.2599 173.983 39.3666C173.88 39.4734 173.74 39.5268 173.564 39.5268C173.388 39.5268 173.249 39.4734 173.146 39.3666C173.043 39.2599 172.992 39.1055 172.992 38.904H172.199C172.199 39.2894 172.317 39.5935 172.552 39.8159C172.786 40.0384 173.124 40.1497 173.564 40.1497ZM177.848 46.911H178.904V44.1976H179.521L181.405 46.911H182.691L180.357 43.655L182.515 40.6833H181.3L179.521 43.2189H178.904V40.6833H177.848V46.911ZM183.98 46.911H185.407L187.934 42.0178H187.943V46.911H189V40.6833H187.573L185.046 45.5765H185.037V40.6833H183.98V46.911ZM0.000220813 46.9107H2.24575C2.99733 46.9107 3.55941 46.7343 3.93222 46.3813C4.30495 46.0285 4.49143 45.5464 4.49143 44.9355C4.49143 44.3186 4.30495 43.8353 3.93222 43.4854C3.55941 43.1355 2.99733 42.9604 2.24575 42.9604H1.05703V41.6616H4.05112V40.6828H0.000220813V46.9107ZM2.20171 43.9391C2.58915 43.9391 2.88284 44.031 3.0824 44.2149C3.28204 44.3987 3.38183 44.6389 3.38183 44.9355C3.38183 45.238 3.28498 45.4798 3.09115 45.6605C2.89747 45.8415 2.60106 45.9319 2.20171 45.9319H1.05703V43.9391H2.20171ZM10.9324 46.9107H11.9889V40.6828H10.9324V46.9107ZM5.91281 46.9107H7.93812C8.74263 46.9107 9.33251 46.7326 9.70826 46.3768C10.0841 46.021 10.2719 45.5138 10.2719 44.8554C10.2719 44.2149 10.0767 43.7093 9.68627 43.3386C9.29589 42.9678 8.71307 42.7825 7.93812 42.7825H6.96955V40.6828H5.91281V46.9107ZM6.96955 45.9319V43.7613H7.894C8.33445 43.7613 8.65594 43.8546 8.85837 44.0415C9.06095 44.2284 9.16228 44.4998 9.16228 44.8554C9.16228 45.1935 9.05941 45.4575 8.85403 45.6472C8.64851 45.8372 8.32865 45.9319 7.894 45.9319H6.96955ZM15.1716 46.9107H16.2282V41.6616H18.1217V40.6828H13.2782V41.6616H15.1716V46.9107ZM21.6564 46.9995C22.0675 46.9995 22.4418 46.9329 22.7793 46.7994C23.1168 46.6659 23.4046 46.4686 23.6423 46.2077C23.8801 45.9468 24.0635 45.6266 24.1928 45.2468C24.3218 44.8673 24.3864 44.4313 24.3864 43.9391V43.5654C24.3864 43.091 24.3218 42.6698 24.1928 42.302C24.0635 41.9344 23.8801 41.6246 23.6423 41.3723C23.4046 41.1203 23.1184 40.9275 22.7836 40.7941C22.4491 40.6606 22.0734 40.5938 21.6564 40.5938C21.2456 40.5938 20.8713 40.6606 20.5338 40.7941C20.1961 40.9275 19.9085 41.1218 19.6706 41.3768C19.4329 41.6319 19.2496 41.9433 19.1203 42.3109C18.991 42.6786 18.9265 43.0968 18.9265 43.5654V43.9391C18.9265 44.4313 18.991 44.8687 19.1203 45.2513C19.2496 45.6339 19.4329 45.9542 19.6706 46.2122C19.9085 46.4702 20.1961 46.6659 20.5338 46.7994C20.8713 46.9329 21.2456 46.9995 21.6564 46.9995ZM21.6564 46.021C21.4158 46.021 21.1956 45.9795 20.9959 45.8963C20.7964 45.8134 20.6263 45.6859 20.4853 45.5138C20.3444 45.3419 20.2343 45.1253 20.1551 44.8642C20.0758 44.6033 20.0362 44.295 20.0362 43.9391V43.5654C20.0362 43.2274 20.0743 42.9338 20.1507 42.6847C20.2268 42.4355 20.3355 42.228 20.4766 42.0619C20.6174 41.8957 20.7876 41.7728 20.9871 41.6926C21.1868 41.6126 21.4098 41.5725 21.6564 41.5725C21.8971 41.5725 22.1174 41.6141 22.3169 41.697C22.5166 41.7801 22.6868 41.9047 22.8277 42.0708C22.9686 42.2369 23.0787 42.4444 23.158 42.6936C23.2373 42.9426 23.2768 43.2332 23.2768 43.5654V43.9391C23.2768 44.3008 23.2388 44.6123 23.1624 44.8732C23.0859 45.1343 22.9774 45.3492 22.8364 45.5182C22.6956 45.6873 22.5254 45.8134 22.3257 45.8963C22.1262 45.9795 21.9031 46.021 21.6564 46.021ZM25.9399 46.9107H28.2294C29.0221 46.9107 29.5872 46.7578 29.9247 46.4524C30.2623 46.147 30.4311 45.7006 30.4311 45.1135C30.4311 44.7753 30.3504 44.4863 30.1889 44.2461C30.0276 44.0059 29.7882 43.8175 29.4713 43.6812V43.6634C29.7354 43.521 29.932 43.3415 30.0613 43.125C30.1905 42.9087 30.2549 42.6579 30.2549 42.3732C30.2549 41.8394 30.0861 41.4243 29.7486 41.1277C29.4111 40.8311 28.8459 40.6828 28.0533 40.6828H25.9399V46.9107ZM28.0093 41.6616C28.4379 41.6616 28.7345 41.7298 28.8987 41.8661C29.0632 42.0025 29.1454 42.2014 29.1454 42.4622C29.1454 42.7174 29.0632 42.9145 28.8987 43.0539C28.7345 43.1934 28.4379 43.2629 28.0093 43.2629H26.9967V41.6616H28.0093ZM28.1854 44.1527C28.6142 44.1527 28.9106 44.2252 29.0749 44.3706C29.2393 44.516 29.3215 44.7396 29.3215 45.0422C29.3215 45.3446 29.2393 45.5688 29.0749 45.7139C28.9106 45.8593 28.6142 45.9319 28.1854 45.9319H26.9967V44.1527H28.1854ZM31.3241 46.9107H32.3808L32.9004 45.3536H35.3221L35.8328 46.9107H36.9601L34.7585 40.6828H33.5255L31.3241 46.9107ZM33.2263 44.3751L34.1156 41.7059H34.1332L35.0051 44.3751H33.2263ZM37.8971 46.9107H39.0772L40.2747 44.5798C40.2982 44.5798 40.3203 44.5798 40.3407 44.5798C40.3614 44.5798 40.3835 44.5798 40.4067 44.5798H41.5076V46.9107H42.5644V40.6828H40.4067C39.6084 40.6828 39.0199 40.8578 38.6413 41.2078C38.2626 41.5577 38.0732 42.0323 38.0732 42.6313C38.0732 43.0524 38.1729 43.4155 38.3727 43.7211C38.5721 44.0266 38.8747 44.2535 39.2797 44.4019L37.8971 46.9107ZM39.1828 42.6313C39.1828 42.3465 39.2855 42.1137 39.4911 41.9329C39.6965 41.752 40.0164 41.6616 40.4508 41.6616H41.5076V43.601H40.4508C39.9987 43.601 39.6745 43.515 39.4778 43.343C39.281 43.1711 39.1828 42.9338 39.1828 42.6313ZM47.9486 46.9107H49.0051V41.6616H50.8985V40.6828H46.0552V41.6616H47.9486V46.9107ZM52.1878 46.9107H56.1507V45.9319H53.2447V44.1972H55.6222V43.2185H53.2447V41.6616H56.1507V40.6828H52.1878V46.9107ZM57.1757 46.9107H58.4086L59.8967 44.4998L61.3498 46.9107H62.6355L60.6101 43.6455L62.4594 40.6828H61.2442L59.9143 42.827L58.6024 40.6828H57.3517L59.2012 43.6634L57.1757 46.9107ZM63.9249 46.9107H64.9816V44.1972H67.8876V46.9107H68.9443V40.6828H67.8876V43.2185H64.9816V40.6828H63.9249V46.9107ZM70.7179 46.9107H72.1447L74.672 42.0174H74.6808V46.9107H75.7375V40.6828H74.311L71.7836 45.576H71.7747V40.6828H70.7179V46.9107ZM77.5112 46.9107H78.568V44.1972H79.1842L81.0689 46.9107H82.3546L80.0208 43.6544L82.1785 40.6828H80.9632L79.1842 43.2185H78.568V40.6828H77.5112V46.9107ZM83.2036 46.9107H84.2603L84.7799 45.3536H87.2016L87.7124 46.9107H88.8395L86.6379 40.6828H85.4051L83.2036 46.9107ZM85.1059 44.3751L85.9951 41.7059H86.0127L86.8846 44.3751H85.1059ZM93.2733 46.9107H94.7L97.2273 42.0174H97.2361V46.9107H98.293V40.6828H96.8663L94.339 45.576H94.3301V40.6828H93.2733V46.9107ZM30.7015 14.5475C29.4716 16.0178 27.7782 16.9316 25.9166 16.9316H20.2355H4.82519V21.0297C4.82519 21.508 4.98998 21.9444 5.25286 22.2594C5.51721 22.5755 5.88112 22.7727 6.28114 22.7727H32.6912V28.1589H6.77498C4.91137 28.1589 3.21748 27.2456 1.99001 25.7744C0.762677 24.304 0 22.2753 0 20.0425V8.11685C0 5.88517 0.762677 3.85503 1.99001 2.38435C3.21939 0.91441 4.91277 0.000964873 6.77498 0.000964873H20.2355V0H25.9166C27.7782 0 29.4716 0.913744 30.7015 2.38413C33.3452 5.5508 33.3459 11.3808 30.7015 14.5475ZM27.8657 7.12949C27.8657 6.65048 27.7017 6.21389 27.4385 5.89795C27.1743 5.58222 26.8104 5.38662 26.4103 5.38662H20.2355H6.28114C5.8809 5.38662 5.51647 5.58297 5.25242 5.89795C4.98925 6.21508 4.82519 6.651 4.82519 7.13001V11.5449H20.2355H26.4103C26.8104 11.5449 27.1743 11.3493 27.4385 11.0339C27.7017 10.7177 27.8657 10.2812 27.8657 9.80223C27.8657 8.91129 27.8657 8.02028 27.8657 7.12949ZM145.05 7.13046C145.05 6.65101 144.887 6.21508 144.624 5.89839C144.359 5.58349 143.995 5.3867 143.595 5.3867H134.965H131.96H123.33C122.93 5.3867 122.566 5.58349 122.301 5.89839C122.038 6.21508 121.875 6.65101 121.875 7.13046V21.03C121.875 21.509 122.038 21.9456 122.301 22.262C122.566 22.5772 122.93 22.7736 123.33 22.7736H131.96H134.965H143.595C143.995 22.7736 144.359 22.5772 144.624 22.262C144.887 21.9456 145.05 21.509 145.05 21.03V7.13046ZM117.048 8.11715C117.048 5.88517 117.81 3.85585 119.039 2.38502C120.266 0.914413 121.96 0.00118977 123.824 0.00118977H131.96H134.965H143.101C144.965 0.00118977 146.659 0.914413 147.886 2.38502C149.114 3.85585 149.877 5.88517 149.877 8.11715C149.877 12.0927 149.877 16.0677 149.877 20.0433C149.877 22.2753 149.114 24.3047 147.886 25.7753C146.659 27.2463 144.965 28.1592 143.101 28.1592H134.965H131.96H123.824C121.96 28.1592 120.266 27.2463 119.039 25.7753C117.81 24.3047 117.048 22.2753 117.048 20.0433C117.048 16.0677 117.048 12.0927 117.048 8.11715ZM101.133 16.9316L110.617 28.1592H104.201L94.7176 16.9316H82.7519V28.1592H77.9252V0.000964873H104.454C106.148 0.000964873 107.69 0.832175 108.807 2.1681C109.923 3.50936 110.617 5.35483 110.617 7.3846V9.54749C110.617 10.4977 110.463 11.4123 110.183 12.2543C109.237 15.1166 106.838 16.9316 104.52 16.9316H101.133ZM175.092 5.38662V28.1592H170.265V5.38662H161.134V28.1592H156.308V0.000964873H182.836C184.531 0.000964873 186.073 0.832173 187.19 2.16876C188.306 3.50981 188.999 5.35527 188.999 7.3846V28.1592H184.223V8.71346L184.24 7.3846C184.24 6.83502 184.052 6.33506 183.75 5.97313C183.447 5.61276 183.03 5.38662 182.572 5.38662H175.092ZM105.856 9.54749V7.3846C105.856 6.83531 105.669 6.33602 105.366 5.97365C105.066 5.61164 104.649 5.38662 104.19 5.38662H82.7519V11.5449H104.19C104.649 11.5449 105.066 11.3213 105.366 10.9598C105.669 10.5962 105.856 10.0966 105.856 9.54749Z" fill="white"/>
</svg>
