<svg width="20" height="20" viewBox="0 0 20 20" fill="none" xmlns="http://www.w3.org/2000/svg">
    <path
        d="M19.6084 1.22056C19.2866 0.911016 18.8293 0.807862 18.4148 0.951293L0.829346 7.03805C0.350087 7.20392 0.025087 7.65312 0.00137607 8.18235C-0.0222958 8.71161 0.261103 9.19088 0.723369 9.4033L5.0724 11.4013C5.09361 11.5046 6.34208 17.5846 6.38455 17.7913C6.43904 18.0567 6.56736 18.2932 6.83919 18.3659C7.11416 18.4395 7.30841 18.2817 7.51357 18.1204C7.62775 18.0307 10.7409 15.583 10.7409 15.583L14.5139 18.8248C14.7337 19.0137 15.0023 19.1122 15.2762 19.1122C15.4065 19.1122 15.5382 19.0899 15.6662 19.0443C16.0633 18.9029 16.3577 18.5626 16.4537 18.134L19.968 2.44545C20.0679 1.99941 19.9301 1.53011 19.6084 1.22056ZM7.7947 12.5461C7.79255 12.5515 7.79045 12.5575 7.78845 12.5647L7.06095 15.2335L6.24908 11.2798L11.8318 8.02296L7.92861 12.3082C7.86713 12.3757 7.82189 12.4573 7.7947 12.5461ZM8.0256 16.177L8.35603 14.9648L8.67209 13.8053L9.80455 14.7784L8.0256 16.177ZM18.8246 2.16302L15.3103 17.8516C15.3085 17.8594 15.3062 17.8701 15.289 17.8762C15.272 17.8823 15.2637 17.8754 15.2578 17.8703L11.1293 14.3229C11.1292 14.3228 11.1291 14.3227 11.129 14.3226L9.21611 12.6791L15.3615 5.93207C15.5622 5.71169 15.5794 5.3704 15.402 5.12902C15.2244 4.8876 14.9056 4.81866 14.6518 4.9668L5.55216 10.2754L1.19423 8.27332C1.18095 8.26725 1.17364 8.26385 1.1747 8.24026C1.17575 8.21676 1.18333 8.21409 1.19708 8.20934L18.7826 2.12262C18.7911 2.11971 18.8007 2.11634 18.8148 2.12988C18.829 2.14349 18.8266 2.15383 18.8246 2.16302Z"
        fill="white" />
</svg>