<svg width="20" height="12" viewBox="0 0 20 12" fill="none" xmlns="http://www.w3.org/2000/svg">
    <path
        d="M18.7497 11.8617H16.2495C15.865 11.8626 15.5015 11.6848 15.265 11.3801L12.8274 8.25553C12.718 8.11508 12.5322 8.05957 12.3642 8.11753C12.1963 8.17534 12.0832 8.33358 12.0826 8.51191V9.76805C12.0826 10.9248 10.9627 11.8617 9.58251 11.8617C9.04293 11.8666 8.51327 11.7159 8.0564 11.4273C4.55617 9.17663 2.18103 6.33468 0.118547 1.92777C-0.0631941 1.53891 -0.0345061 1.08365 0.194539 0.720854C0.423585 0.358058 0.821248 0.138173 1.24882 0.137713H3.74894C4.24915 0.136486 4.7019 0.435033 4.89997 0.896578L5.1812 1.55608C5.60618 2.54679 6.17673 3.46789 6.87409 4.28824C6.89683 4.31278 6.92918 4.32627 6.9626 4.32489C6.99327 4.3278 7.02394 4.31753 7.04668 4.29652C7.06957 4.27567 7.08254 4.24592 7.08239 4.21495V2.57669C6.51046 2.37137 6.16834 1.78271 6.27104 1.18133C6.37373 0.579937 6.89179 0.139706 7.49912 0.137713H10.8326C11.5229 0.137713 12.0826 0.700153 12.0826 1.39385V4.32489C12.0829 4.51181 12.2065 4.67588 12.3855 4.72694C12.5645 4.778 12.7554 4.70363 12.8535 4.54462L15.1817 0.739561C15.4074 0.364038 15.813 0.135412 16.2495 0.137713H18.7497C19.2116 0.137866 19.6356 0.394092 19.8526 0.803809C20.0696 1.21353 20.044 1.71018 19.7861 2.09521L17.161 5.75369C17.0549 5.90043 17.0549 6.099 17.161 6.24574L19.7653 9.87278C20.0388 10.2555 20.0762 10.7598 19.8621 11.1791C19.648 11.5983 19.2184 11.8617 18.7497 11.8617ZM12.4994 7.25578C12.8839 7.25501 13.2472 7.43273 13.4838 7.73741L15.9213 10.862C16.0001 10.9639 16.1211 11.0239 16.2495 11.0242H18.7497C18.9065 11.0248 19.0504 10.9366 19.1218 10.7963C19.1934 10.6559 19.1803 10.4872 19.0881 10.3595L16.4839 6.73244C16.1684 6.29343 16.1684 5.70078 16.4839 5.26178L19.1038 1.61374C19.145 1.5478 19.1667 1.47159 19.1663 1.39385C19.1663 1.16262 18.9798 0.975087 18.7497 0.975087H16.2495C16.105 0.97524 15.9711 1.05053 15.8954 1.17396L13.5671 4.97903C13.2756 5.4602 12.7009 5.6876 12.1612 5.53518C11.6215 5.38292 11.2488 4.8881 11.2493 4.32489V1.39385C11.2493 1.16262 11.0627 0.975087 10.8326 0.975087H7.49912C7.26886 0.975087 7.08239 1.16262 7.08239 1.39385C7.08239 1.62508 7.26886 1.81261 7.49912 1.81261H7.91571V4.21495C7.91098 4.61224 7.66271 4.96538 7.29144 5.10262C6.92033 5.2397 6.50344 5.13221 6.24372 4.83259C5.49311 3.94921 4.87845 2.95774 4.42082 1.89112L4.13424 1.23162C4.06909 1.07583 3.9171 0.974627 3.74894 0.975087H1.24882C1.1066 0.975853 0.974607 1.04946 0.898614 1.17028C0.822622 1.29111 0.813313 1.44246 0.873741 1.57187C2.88952 5.87927 5.10307 8.53292 8.50946 10.7259C8.8322 10.9245 9.20407 11.028 9.58251 11.0242C10.4991 11.0242 11.2493 10.459 11.2493 9.76805V8.51191C11.2493 7.81822 11.8089 7.25578 12.4994 7.25578Z"
        fill="white" />
</svg>