<svg width="65" height="65" viewBox="0 0 65 65" fill="none" xmlns="http://www.w3.org/2000/svg">
<g clip-path="url(#clip0_2143_7888)">
<path d="M41.6126 39.6371L51.8111 33.7494C52.722 33.2236 53.034 32.059 52.5082 31.1481C51.9823 30.2374 50.8178 29.9249 49.9069 30.4512L39.7084 36.3389C38.7975 36.8647 38.4855 38.0293 39.0113 38.9401C39.4539 39.7067 40.5652 40.242 41.6126 39.6371Z" fill="#537CE5"/>
<path d="M59.9498 15.553L33.4529 0.255176C32.8636 -0.0850586 32.1378 -0.0850586 31.5487 0.255176L5.05176 15.553C4.46257 15.8933 4.09961 16.5218 4.09961 17.2021V47.7979C4.09961 48.4782 4.46257 49.1069 5.05176 49.447L31.5487 64.7448C31.8432 64.9149 32.172 65 32.5008 65C32.8296 65 33.1584 64.9149 33.4529 64.7448L59.9498 49.447C60.539 49.1067 60.902 48.4782 60.902 47.7979V17.2021C60.902 16.5218 60.539 15.8931 59.9498 15.553ZM46.3664 12.108L23.6779 25.2071L18.6545 22.3066L41.3428 9.20753L46.3664 12.108ZM21.7736 28.5053V34.2895L16.7431 31.3848L16.7478 25.6035L21.7736 28.5053ZM32.5008 4.10312L37.5339 7.00896L14.8456 20.108L9.8125 17.2021L32.5008 4.10312ZM30.5965 59.7975L7.9082 46.6984V20.5004L12.941 23.406L12.9338 32.4821C12.9333 33.1628 13.2962 33.7923 13.8859 34.1327L22.7259 39.2371C23.7175 39.8096 24.6118 39.2478 24.6302 39.2371C25.2195 38.897 25.5824 38.2684 25.5824 37.588V30.7045L30.5965 33.5994V59.7975ZM32.5008 30.3012L27.4863 27.4061L50.1746 14.3071L55.189 17.2021L32.5008 30.3012ZM57.0934 46.6984L34.4051 59.7975V33.5994L57.0934 20.5004V46.6984Z" fill="#537CE5"/>
<path d="M49.9069 40.6495L39.7084 46.5373C38.7976 47.0631 38.4854 48.2276 39.0113 49.1384C39.4586 49.9133 40.5722 50.4364 41.6125 49.8355L51.8111 43.948C52.7218 43.4221 53.034 42.2575 52.5082 41.3468C51.9823 40.436 50.8179 40.124 49.9069 40.6495Z" fill="#537CE5"/>
</g>
<defs>
<clipPath id="clip0_2143_7888">
<rect width="65" height="65" fill="white"/>
</clipPath>
</defs>
</svg>
