<svg width="113" height="63" viewBox="0 0 113 63" fill="none" xmlns="http://www.w3.org/2000/svg">
<path d="M78.4254 56.5355H49.5323C48.947 56.5355 48.3856 56.3029 47.9717 55.889C47.5578 55.4751 47.3253 54.9138 47.3253 54.3284C47.3253 53.7431 47.5578 53.1817 47.9717 52.7678C48.3856 52.3539 48.947 52.1214 49.5323 52.1214H76.5212L83.5294 4.81104H28.2949C27.7096 4.81104 27.1482 4.57851 26.7343 4.16461C26.3204 3.75071 26.0879 3.18934 26.0879 2.604C26.0879 2.01866 26.3204 1.4573 26.7343 1.0434C27.1482 0.629498 27.7096 0.396973 28.2949 0.396973H86.0874C86.4045 0.396971 86.718 0.465335 87.0064 0.597408C87.2948 0.72948 87.5513 0.922158 87.7585 1.16232C87.9656 1.40247 88.1186 1.68447 88.207 1.98909C88.2954 2.29371 88.3171 2.6138 88.2706 2.92755L80.6086 54.6515C80.5311 55.1752 80.268 55.6535 79.8673 55.9994C79.4665 56.3452 78.9548 56.5354 78.4254 56.5355Z" fill="#537CE5"/>
<path d="M37.4639 56.5354H20.6309C20.0455 56.5354 19.4842 56.3029 19.0703 55.889C18.6564 55.4751 18.4238 54.9137 18.4238 54.3284C18.4238 53.743 18.6564 53.1817 19.0703 52.7678C19.4842 52.3539 20.0455 52.1213 20.6309 52.1213H37.4639C38.0492 52.1213 38.6106 52.3539 39.0245 52.7678C39.4384 53.1817 39.6709 53.743 39.6709 54.3284C39.6709 54.9137 39.4384 55.4751 39.0245 55.889C38.6106 56.3029 38.0492 56.5354 37.4639 56.5354Z" fill="#537CE5"/>
<path d="M88.3996 56.5354H78.4238C77.8385 56.5354 77.2771 56.3029 76.8632 55.889C76.4493 55.4751 76.2168 54.9137 76.2168 54.3284C76.2168 53.743 76.4493 53.1817 76.8632 52.7678C77.2771 52.3539 77.8385 52.1213 78.4238 52.1213H88.3996C88.985 52.1213 89.5463 52.3539 89.9602 52.7678C90.3741 53.1817 90.6066 53.743 90.6066 54.3284C90.6066 54.9137 90.3741 55.4751 89.9602 55.889C89.5463 56.3029 88.985 56.5354 88.3996 56.5354Z" fill="#537CE5"/>
<path d="M109.13 56.5356H100.466C99.881 56.5356 99.3197 56.303 98.9058 55.8891C98.4919 55.4752 98.2593 54.9139 98.2593 54.3285C98.2593 53.7432 98.4919 53.1818 98.9058 52.7679C99.3197 52.354 99.881 52.1215 100.466 52.1215H107.136L108.346 40.2101C108.352 40.1488 108.361 40.0879 108.372 40.027C108.462 39.5503 108.445 39.0598 108.323 38.5905C108.201 38.1211 107.977 37.6843 107.667 37.3112C107.358 36.9381 106.969 36.6378 106.53 36.4317C106.092 36.2256 105.613 36.1188 105.128 36.1188H102.545C102.236 36.1187 101.931 36.054 101.648 35.9286C101.366 35.8033 101.114 35.6201 100.907 35.391C100.7 35.162 100.543 34.892 100.447 34.5986C100.351 34.3053 100.318 33.995 100.349 33.6879L101.341 23.9607C101.347 23.8993 101.356 23.8388 101.367 23.7784C101.519 22.9672 101.49 22.1325 101.283 21.3336C101.075 20.5348 100.695 19.7915 100.167 19.1565C99.6402 18.5215 98.9795 18.0106 98.2324 17.6599C97.4853 17.3092 96.6701 17.1275 95.8448 17.1277H84.2637C83.6783 17.1277 83.117 16.8952 82.7031 16.4813C82.2892 16.0674 82.0566 15.506 82.0566 14.9207C82.0566 14.3353 82.2892 13.7739 82.7031 13.36C83.117 12.9462 83.6783 12.7136 84.2637 12.7136H95.8471C97.3126 12.7135 98.7603 13.0346 100.088 13.6541C101.416 14.2737 102.593 15.1767 103.534 16.2996C104.476 17.4226 105.16 18.7382 105.539 20.154C105.917 21.5698 105.981 23.0513 105.725 24.4943L104.99 31.7047H105.13C106.255 31.7047 107.366 31.9507 108.386 32.4255C109.406 32.9003 110.31 33.5924 111.034 34.4533C111.758 35.3142 112.285 36.3231 112.578 37.4092C112.871 38.4953 112.923 39.6324 112.731 40.7407L111.328 54.5519C111.272 55.0961 111.017 55.6004 110.611 55.9669C110.205 56.3334 109.677 56.5361 109.13 56.5356Z" fill="#537CE5"/>
<path d="M102.545 36.1187H89.5605C88.9752 36.1187 88.4138 35.8861 87.9999 35.4722C87.586 35.0583 87.3535 34.497 87.3535 33.9116C87.3535 33.3263 87.586 32.7649 87.9999 32.351C88.4138 31.9371 88.9752 31.7046 89.5605 31.7046H102.544C103.129 31.7046 103.691 31.9371 104.105 32.351C104.519 32.7649 104.751 33.3263 104.751 33.9116C104.751 34.497 104.519 35.0583 104.105 35.4722C103.691 35.8861 103.129 36.1187 102.544 36.1187H102.545Z" fill="#537CE5"/>
<path d="M94.4329 62.569C92.8029 62.5691 91.2096 62.0858 89.8543 61.1803C88.499 60.2748 87.4426 58.9878 86.8188 57.4819C86.195 55.976 86.0318 54.319 86.3497 52.7203C86.6677 51.1217 87.4526 49.6532 88.6052 48.5007C89.7577 47.3481 91.2262 46.5632 92.8248 46.2452C94.4235 45.9273 96.0805 46.0905 97.5864 46.7143C99.0923 47.3381 100.379 48.3945 101.285 49.7498C102.19 51.1051 102.674 52.6985 102.674 54.3284C102.671 56.5132 101.802 58.6077 100.257 60.1526C98.7122 61.6974 96.6177 62.5665 94.4329 62.569ZM94.4329 50.5014C93.676 50.5013 92.936 50.7257 92.3066 51.1462C91.6772 51.5666 91.1866 52.1643 90.8969 52.8636C90.6072 53.5629 90.5313 54.3324 90.679 55.0748C90.8266 55.8171 91.191 56.4991 91.7262 57.0344C92.2614 57.5696 92.9433 57.9341 93.6857 58.0818C94.4281 58.2295 95.1976 58.1538 95.8969 57.8641C96.5962 57.5745 97.1939 57.084 97.6145 56.4546C98.035 55.8253 98.2595 55.0853 98.2595 54.3284C98.2583 53.3139 97.8548 52.3412 97.1374 51.6238C96.4201 50.9063 95.4475 50.5027 94.4329 50.5014Z" fill="#537CE5"/>
<path d="M43.4969 62.569C41.867 62.569 40.2736 62.0857 38.9184 61.1801C37.5631 60.2746 36.5069 58.9875 35.8831 57.4816C35.2594 55.9757 35.0962 54.3187 35.4142 52.7201C35.7323 51.1214 36.5172 49.653 37.6698 48.5005C38.8223 47.348 40.2908 46.5631 41.8894 46.2452C43.4881 45.9273 45.1451 46.0905 46.6509 46.7144C48.1568 47.3382 49.4438 48.3945 50.3493 49.7498C51.2548 51.1051 51.7381 52.6985 51.738 54.3284C51.7354 56.5133 50.8663 58.6079 49.3214 60.1527C47.7764 61.6976 45.6818 62.5666 43.4969 62.569ZM43.4969 50.5014C42.74 50.5014 42.0001 50.7259 41.3708 51.1464C40.7414 51.5669 40.2509 52.1646 39.9612 52.8639C39.6716 53.5632 39.5958 54.3327 39.7435 55.075C39.8911 55.8174 40.2556 56.4993 40.7908 57.0345C41.326 57.5697 42.0079 57.9342 42.7503 58.0819C43.4927 58.2295 44.2622 58.1537 44.9614 57.8641C45.6607 57.5744 46.2584 57.0839 46.6789 56.4546C47.0995 55.8252 47.3239 55.0853 47.3239 54.3284C47.3227 53.3138 46.9192 52.3411 46.2017 51.6236C45.4843 50.9062 44.5115 50.5026 43.4969 50.5014Z" fill="#537CE5"/>
<path d="M44.8497 16.082H16.0488C15.4635 16.082 14.9021 15.8495 14.4882 15.4356C14.0743 15.0217 13.8418 14.4603 13.8418 13.875C13.8418 13.2897 14.0743 12.7283 14.4882 12.3144C14.9021 11.9005 15.4635 11.668 16.0488 11.668H44.8497C45.1395 11.668 45.4265 11.7251 45.6943 11.836C45.9621 11.9469 46.2054 12.1094 46.4103 12.3144C46.6152 12.5193 46.7778 12.7626 46.8887 13.0304C46.9996 13.2982 47.0567 13.5852 47.0567 13.875C47.0567 14.1648 46.9996 14.4518 46.8887 14.7196C46.7778 14.9874 46.6152 15.2307 46.4103 15.4356C46.2054 15.6405 45.9621 15.8031 45.6943 15.914C45.4265 16.0249 45.1395 16.082 44.8497 16.082Z" fill="#537CE5"/>
<path d="M30.4478 30.6729H8.48828C7.90294 30.6729 7.34157 30.4403 6.92767 30.0264C6.51378 29.6125 6.28125 29.0512 6.28125 28.4658C6.28125 27.8805 6.51378 27.3191 6.92767 26.9052C7.34157 26.4913 7.90294 26.2588 8.48828 26.2588H30.4478C31.0331 26.2588 31.5945 26.4913 32.0084 26.9052C32.4223 27.3191 32.6548 27.8805 32.6548 28.4658C32.6548 29.0512 32.4223 29.6125 32.0084 30.0264C31.5945 30.4403 31.0331 30.6729 30.4478 30.6729Z" fill="#537CE5"/>
<path d="M18.2047 45.2642H2.36133C1.77599 45.2642 1.21462 45.0316 0.800721 44.6177C0.386823 44.2038 0.154297 43.6425 0.154297 43.0571C0.154297 42.4718 0.386823 41.9104 0.800721 41.4965C1.21462 41.0826 1.77599 40.8501 2.36133 40.8501H18.2047C18.7901 40.8501 19.3514 41.0826 19.7653 41.4965C20.1792 41.9104 20.4118 42.4718 20.4118 43.0571C20.4118 43.6425 20.1792 44.2038 19.7653 44.6177C19.3514 45.0316 18.7901 45.2642 18.2047 45.2642Z" fill="#537CE5"/>
</svg>
