<svg width="65" height="65" viewBox="0 0 65 65" fill="none" xmlns="http://www.w3.org/2000/svg">
<path d="M59.4963 3.85745H49.566V1.63942C49.566 0.733805 48.8322 0 47.9265 0H17.0746C16.169 0 15.4352 0.733805 15.4352 1.63942V3.85745H5.50466C4.59904 3.85745 3.86523 4.59147 3.86523 5.49687V17.0701C3.86523 17.2039 3.8836 20.387 5.48455 23.5893C6.90122 26.4231 9.80475 29.7599 15.6632 30.2248C16.689 36.485 21.1305 41.6068 27.0047 43.6117V54.0054H20.9303C20.2245 54.0054 19.5978 54.457 19.3748 55.1267L16.8051 62.8423C16.6387 63.3422 16.7227 63.8918 17.0307 64.3191C17.3389 64.7467 17.8338 64.9998 18.3606 64.9998L46.6401 64.9993C47.1672 64.9993 47.6618 64.746 47.97 64.3187C48.278 63.8913 48.362 63.3418 48.1954 62.8419L45.6255 55.1267C45.4023 54.457 44.7758 54.0054 44.0702 54.0054H37.9967V43.6115C43.8708 41.6065 48.3121 36.4846 49.338 30.2248C55.1964 29.7599 58.0999 26.4229 59.5164 23.5893C61.1171 20.387 61.1355 17.2039 61.1355 17.0701V5.49687C61.1357 4.59147 60.4017 3.85745 59.4963 3.85745ZM8.4637 22.2153C7.1749 19.6997 7.1443 17.0915 7.14408 17.0703V7.13629H15.4354V26.9053C12.2068 26.5193 9.86399 24.9487 8.4637 22.2153ZM44.3662 61.7207L20.6348 61.7212L22.1124 57.2844H42.8885L44.3662 61.7207ZM34.7178 54.0056H30.2835V44.3765C31.0097 44.4714 31.7487 44.5254 32.5005 44.5254C33.2522 44.5254 33.9915 44.4714 34.7181 44.3765V54.0056H34.7178ZM32.5005 41.2465C24.8988 41.2465 18.7142 35.0598 18.7142 27.4553V3.27884H46.2873V27.4555C46.2871 35.06 40.1024 41.2465 32.5005 41.2465ZM57.8569 17.0653C57.8566 17.0913 57.8258 19.6997 56.5372 22.2153C55.1372 24.9487 52.7945 26.5193 49.566 26.9055V7.13629H57.8569V17.0653Z" fill="#537CE5"/>
<path d="M41.3616 15.6006L36.6364 14.2079L33.8517 10.1435C33.5462 9.69734 33.0399 9.43066 32.4991 9.43066C31.9581 9.43066 31.4523 9.69756 31.1465 10.1437L28.3623 14.2079L23.6371 15.6006C23.1183 15.7534 22.7085 16.1521 22.5413 16.6664C22.374 17.1808 22.4713 17.7443 22.8012 18.1729L25.8055 22.0785L25.6697 27.0044C25.6549 27.5452 25.9075 28.0582 26.3449 28.376C26.7826 28.6936 27.3483 28.7754 27.8582 28.5942L32.4991 26.9425L37.1406 28.5942C37.3194 28.6578 37.5055 28.6891 37.6902 28.6891C38.0318 28.6891 38.37 28.5824 38.6539 28.376C39.0913 28.0582 39.344 27.545 39.3292 27.0044L39.1934 22.0785L42.1977 18.1727C42.5273 17.7443 42.6244 17.1808 42.4574 16.6664C42.2902 16.1523 41.8803 15.7534 41.3616 15.6006ZM36.239 20.5416C36.0092 20.8404 35.8892 21.2094 35.8997 21.5862L35.9856 24.7031L33.0486 23.658C32.8707 23.5948 32.6849 23.5631 32.4989 23.5631C32.3129 23.5631 32.1271 23.5948 31.9491 23.658L29.0128 24.7029L29.0987 21.5862C29.1092 21.2091 28.9892 20.8402 28.7593 20.5414L26.858 18.0695L29.8485 17.1882C30.2103 17.0815 30.5244 16.8533 30.7375 16.542L32.4989 13.9708L34.2607 16.5423C34.4741 16.8533 34.788 17.0815 35.1497 17.1882L38.1403 18.0695L36.239 20.5416Z" fill="#537CE5"/>
</svg>
