<svg width="65" height="65" viewBox="0 0 65 65" fill="none" xmlns="http://www.w3.org/2000/svg">
    <g clip-path="url(#clip0_656_6359)">
        <path
            d="M53.5227 48.559V0.000488281H0V56.3032L0.00863281 56.3937C0.0294531 56.6114 0.245273 58.5792 1.39458 60.5965C2.53906 62.6053 4.80276 64.9997 9.08819 64.9997H56.2286C61.0651 64.9997 65 61.0648 65 56.2283V48.5593H53.5227V48.559ZM14.3454 56.3356C14.3189 56.5163 14.2323 57.014 14.0185 57.6236C13.9904 57.704 13.9607 57.7857 13.9279 57.8695C13.9216 57.8857 13.9147 57.902 13.9082 57.9183C13.8091 58.1665 13.6895 58.4265 13.5445 58.6871C13.5041 58.7597 13.462 58.8325 13.4177 58.9048C12.4758 60.4432 11.0596 61.191 9.08819 61.191C7.12512 61.191 5.70832 60.4096 4.75681 58.8025C4.05971 57.6253 3.85036 56.3905 3.80834 56.0964V3.80895H49.714V48.5592H14.3454V56.3356ZM61.1914 56.228C61.1914 58.9646 58.965 61.1909 56.2286 61.1909H16.4762C16.4844 61.1786 16.4917 61.1665 16.4998 61.1542C16.5312 61.1066 16.5615 61.0591 16.5915 61.0117C16.6056 60.9895 16.6199 60.9673 16.6337 60.9452C16.6764 60.8763 16.7182 60.8076 16.7582 60.7394C17.913 58.7729 18.1251 56.8496 18.1454 56.6368L18.154 56.5462V52.3674H61.1914V56.228Z"
            fill="#0b4250" />
        <path d="M44.0606 14.3633H21.6016V18.1719H44.0606V14.3633Z" fill="#0b4250" />
        <path d="M44.0606 25.0818H21.6016V28.8904H44.0606V25.0818Z" fill="#0b4250" />
        <path d="M44.0606 35.8003H21.6016V39.6089H44.0606V35.8003Z" fill="#0b4250" />
        <path
            d="M16.4111 11.4814L12.7101 14.6365L11.3199 12.9772L8.40039 15.4231L12.2576 20.0267L18.8819 14.3798L16.4111 11.4814Z"
            fill="#0b4250" />
        <path
            d="M16.4111 23.3367L12.7101 26.4917L11.3199 24.8323L8.40039 27.2783L12.2576 31.8819L18.8819 26.235L16.4111 23.3367Z"
            fill="#0b4250" />
        <path
            d="M16.4111 35.1917L12.7101 38.3466L11.3199 36.6874L8.40039 39.1333L12.2576 43.7369L18.8819 38.0899L16.4111 35.1917Z"
            fill="#0b4250" />
    </g>
    <defs>
        <clipPath id="clip0_656_6359">
            <rect width="65" height="65" fill="white" />
        </clipPath>
    </defs>
</svg>