<svg width="73" height="73" viewBox="0 0 73 73" fill="none" xmlns="http://www.w3.org/2000/svg">
    <path
        d="M66.1544 27.3751C65.7467 27.3751 65.3345 27.2659 64.9603 27.0364L36.5003 9.52273L8.0393 27.0364C6.96551 27.697 5.55977 27.3617 4.90146 26.289C4.24093 25.2163 4.57509 23.8117 5.64889 23.1512L35.3051 4.90119C36.0381 4.44895 36.9626 4.44895 37.6955 4.90119L67.3529 23.1512C68.4245 23.8117 68.7586 25.2163 68.0992 26.289C67.6693 26.9897 66.9207 27.3751 66.1544 27.3751Z"
        fill="#0b4250" />
    <path
        d="M61.5938 68.4375H11.4062C10.1464 68.4375 9.125 67.4161 9.125 66.1562V29.6562C9.125 28.3964 10.1464 27.375 11.4062 27.375C12.6661 27.375 13.6875 28.3964 13.6875 29.6562V63.875H59.3125V29.6562C59.3125 28.3964 60.3328 27.375 61.5938 27.375C62.8547 27.375 63.875 28.3964 63.875 29.6562V66.1562C63.875 67.4161 62.8547 68.4375 61.5938 68.4375Z"
        fill="#0b4250" />
    <path
        d="M51.386 34.5595C51.3395 34.5307 37.5212 27.6154 37.5212 27.6154C36.8796 27.2946 36.1221 27.2946 35.4805 27.6154C35.4805 27.6154 21.6625 34.5287 21.6128 34.5595C20.9412 34.975 20.5312 35.709 20.5312 36.4999V52.4686C20.5312 53.333 21.0191 54.1228 21.7922 54.5093L35.4797 61.353C35.8005 61.5134 36.1502 61.5936 36.5 61.5936C36.8498 61.5936 37.1995 61.5134 37.5203 61.353L51.2078 54.5093C51.9809 54.1228 52.4688 53.333 52.4688 52.4686V36.4999C52.4688 35.709 52.0588 34.975 51.386 34.5595ZM36.5008 32.2068L45.0864 36.4996L36.5 40.7928L27.9144 36.5L36.5008 32.2068ZM25.0938 40.1913L34.2188 44.7538V55.621L25.0938 51.0585V40.1913ZM47.9062 51.0585L38.7812 55.621V44.7538L47.9062 40.1913V51.0585Z"
        fill="#0b4250" />
</svg>