<svg width="160" height="16" fill="none" xmlns="http://www.w3.org/2000/svg"><path d="M0 .442h3.116v6.242L8.966.442h4.093L6.85 6.684l6.529 8.915H9.306L4.627 8.977 3.116 10.53v5.069H0V.442zm15.167 0h3.219v9.316c0 1.042.123 1.803.37 2.283.384.85 1.22 1.275 2.509 1.275 1.282 0 2.115-.425 2.498-1.275.247-.48.37-1.24.37-2.283V.442h3.22v9.316c0 1.611-.251 2.866-.752 3.764-.932 1.645-2.71 2.468-5.336 2.468-2.626 0-4.408-.823-5.347-2.468-.5-.898-.75-2.153-.75-3.764V.442zM38.92 5.265c0-.789-.209-1.35-.627-1.687-.411-.335-.99-.503-1.738-.503h-2.95v4.462h2.95c.748 0 1.327-.181 1.738-.545.418-.363.627-.939.627-1.727zm3.137-.02c0 1.788-.453 3.053-1.358 3.794-.905.74-2.197 1.11-3.876 1.11h-3.219v5.45h-3.146V.442h6.601c1.522 0 2.735.39 3.64 1.172.905.782 1.358 1.992 1.358 3.63zm10.91.02c0-.789-.21-1.35-.628-1.687-.411-.335-.99-.503-1.737-.503H47.65v4.462h2.952c.747 0 1.326-.181 1.737-.545.419-.363.628-.939.628-1.727zm3.136-.02c0 1.788-.453 3.053-1.358 3.794-.904.74-2.197 1.11-3.876 1.11H47.65v5.45h-3.146V.442h6.601c1.522 0 2.736.39 3.64 1.172.905.782 1.358 1.992 1.358 3.63zm13.583-2.119h-8.02v3.218h7.362v2.633h-7.362v3.897h8.39v2.725H58.572V.442h11.115v2.684zm6.006-.051v4.072h3.588c.713 0 1.248-.083 1.604-.247.631-.288.946-.857.946-1.707 0-.919-.305-1.536-.915-1.851-.343-.178-.857-.267-1.542-.267h-3.681zM80.03.442c1.062.02 1.878.151 2.447.39a3.82 3.82 0 0 1 1.46 1.06c.33.384.59.809.782 1.275.192.466.288.998.288 1.594 0 .72-.182 1.43-.545 2.128-.364.693-.963 1.183-1.8 1.47.7.282 1.193.683 1.481 1.204.295.514.442 1.303.442 2.365v1.018c0 .692.028 1.162.082 1.409.083.39.275.678.576.864v.38h-3.486a10.883 10.883 0 0 1-.205-.812 7.464 7.464 0 0 1-.134-1.306l-.02-1.409c-.014-.967-.192-1.611-.535-1.933-.336-.322-.97-.483-1.903-.483h-3.27v5.943h-3.095V.442h7.435zM90.036 10.92c.096.693.284 1.21.566 1.553.514.624 1.395.936 2.642.936.747 0 1.354-.083 1.82-.247.885-.315 1.327-.902 1.327-1.758 0-.5-.22-.888-.658-1.162-.44-.268-1.128-.504-2.067-.71l-1.604-.36c-1.577-.356-2.667-.744-3.27-1.162-1.022-.699-1.532-1.792-1.532-3.28 0-1.357.493-2.485 1.48-3.383C89.728.449 91.177 0 93.09 0c1.597 0 2.958.425 4.082 1.275 1.131.843 1.724 2.07 1.78 3.681h-3.045c-.054-.911-.452-1.56-1.192-1.943-.494-.254-1.108-.38-1.841-.38-.816 0-1.467.164-1.954.493-.486.329-.73.788-.73 1.378 0 .541.24.946.72 1.213.309.178.967.388 1.974.627l2.612.628c1.145.274 2.009.64 2.591 1.1.905.713 1.358 1.745 1.358 3.095 0 1.385-.532 2.537-1.594 3.455-1.056.912-2.55 1.368-4.483 1.368-1.975 0-3.527-.45-4.658-1.347-1.132-.905-1.697-2.146-1.697-3.723h3.023zm14.828-7.845v3.341h3.722c.665 0 1.203-.123 1.615-.37.418-.253.627-.699.627-1.336 0-.707-.274-1.173-.823-1.399-.473-.158-1.076-.236-1.81-.236h-3.331zm0 5.85v4.042h3.722c.665 0 1.183-.09 1.553-.268.672-.329 1.008-.96 1.008-1.892 0-.788-.326-1.33-.977-1.624-.364-.165-.874-.25-1.532-.258h-3.774zm4.339-8.483c1.858.028 3.174.566 3.949 1.615.466.644.699 1.415.699 2.313 0 .926-.233 1.67-.699 2.232-.261.315-.645.603-1.152.863.775.281 1.357.727 1.748 1.337.398.61.596 1.35.596 2.221 0 .898-.226 1.704-.678 2.417a4.189 4.189 0 0 1-2.807 1.953 10.55 10.55 0 0 1-2.149.206h-6.869V.442h7.362zm19.013 2.684h-8.021v3.218h7.363v2.633h-7.363v3.897h8.391v2.725H117.1V.442h11.116v2.684zm6.005-.051v4.072h3.589c.713 0 1.247-.083 1.604-.247.631-.288.946-.857.946-1.707 0-.919-.305-1.536-.915-1.851-.343-.178-.857-.267-1.543-.267h-3.681zM138.56.442c1.063.02 1.879.151 2.448.39.576.24 1.062.594 1.46 1.06.329.384.589.809.781 1.275.192.466.288.998.288 1.594 0 .72-.181 1.43-.545 2.128-.363.693-.963 1.183-1.799 1.47.699.282 1.193.683 1.481 1.204.294.514.442 1.303.442 2.365v1.018c0 .692.027 1.162.082 1.409.082.39.274.678.576.864v.38h-3.486a10.82 10.82 0 0 1-.206-.812 7.406 7.406 0 0 1-.133-1.306l-.021-1.409c-.014-.967-.192-1.611-.535-1.933-.336-.322-.97-.483-1.902-.483h-3.27v5.943h-3.095V.442h7.434zm17.903 4.73c-.24-1.035-.826-1.758-1.759-2.17a4.317 4.317 0 0 0-1.737-.339c-1.221 0-2.225.463-3.013 1.388-.782.919-1.173 2.304-1.173 4.155 0 1.864.425 3.184 1.276 3.959.85.774 1.816 1.162 2.899 1.162 1.063 0 1.933-.306 2.612-.916.679-.617 1.097-1.422 1.255-2.416h-3.507v-2.53h6.314V15.6h-2.098l-.319-1.892c-.61.72-1.158 1.227-1.645 1.522-.836.514-1.864.771-3.085.771-2.008 0-3.654-.696-4.935-2.087-1.337-1.399-2.006-3.312-2.006-5.738 0-2.454.676-4.422 2.026-5.903 1.351-1.48 3.136-2.22 5.357-2.22 1.927 0 3.473.49 4.638 1.47 1.172.973 1.844 2.19 2.015 3.65h-3.115z" fill="#FF2626"/></svg>