<svg width="345" height="68" viewBox="0 0 345 68" fill="none" xmlns="http://www.w3.org/2000/svg">
<path fill-rule="evenodd" clip-rule="evenodd" d="M48.5208 41.7916H17V48.5208H40.7292C42.5 48.5208 37.5417 65.5208 27.2708 65.5208H0.354167V35.7708C0.354167 32.9375 6.375 25.5 13.4583 24.7916C14.1667 24.7916 43.2083 24.7916 42.8542 24.7916C41.4375 25.1458 45.6875 24.0833 47.4583 21.9583C48.5208 20.5416 48.1667 19.125 48.875 18.0625H0C0.354167 15.5833 1.77083 1.77081 14.875 1.77081H65.5208V54.8958C62.6875 60.5625 58.4375 65.5208 49.2292 65.1666" fill="#D92231"/>
<path fill-rule="evenodd" clip-rule="evenodd" d="M294.666 34C294.666 41.4375 296.437 47.1042 299.979 51C303.52 54.8958 307.771 56.6667 313.083 56.6667C318.396 56.6667 322.645 54.8958 326.187 51C329.729 47.1042 331.145 41.4375 331.145 34C331.145 26.5625 329.375 20.8958 326.187 17C323 13.4583 318.396 11.3333 313.083 11.3333C307.771 11.3333 303.166 13.1042 299.979 17C296.437 20.5417 294.666 26.2083 294.666 34ZM281.208 34.3542C281.208 27.625 282.27 21.9583 284.041 17.3542C285.458 14.1667 287.583 10.9792 290.062 8.5C292.541 6.02083 295.375 3.89583 298.562 2.47917C302.812 0.708333 307.416 0 312.729 0C322.291 0 330.083 2.83333 336.104 8.85417C341.771 14.875 344.958 23.375 344.958 34C344.958 44.625 342.125 52.7708 336.458 58.7917C330.437 64.8125 322.646 68 313.083 68C303.166 68 295.375 65.1667 289.708 59.1458C284.041 53.125 281.208 44.625 281.208 34.3542ZM224.187 66.5833V1.0625H237.645V30.1042L264.562 1.0625H282.27L257.479 26.5625L283.687 66.5833H266.687L248.27 35.7708L237.645 46.75V66.5833H224.187ZM158.666 45.3333L171.416 43.9167C172.125 48.1667 173.896 51.3542 176.021 53.4792C178.5 55.6042 181.687 56.6667 185.583 56.6667C189.833 56.6667 193.021 55.6042 195.146 53.8333C197.271 52.0625 198.333 49.9375 198.333 47.4583C198.333 46.0417 197.979 44.625 196.916 43.5625C195.854 42.5 194.437 41.4375 192.312 40.7292C190.896 40.0208 187.354 39.3125 181.687 37.8958C174.604 36.125 169.646 34 166.812 31.5208C162.916 27.9792 160.791 23.375 160.791 18.4167C160.791 15.2292 161.854 12.0417 163.625 8.85417C165.396 6.02083 168.229 3.89583 171.771 2.125C175.312 0.708331 179.562 0 184.521 0C192.666 0 199.041 1.77083 203.291 5.3125C207.541 8.85417 209.666 13.8125 210.021 19.8333L196.916 20.5417C196.208 17 195.146 14.875 193.375 13.1042C191.604 11.6875 188.771 10.9792 184.875 10.9792C180.979 10.9792 178.146 11.6875 175.666 13.4583C174.25 14.5208 173.541 15.9375 173.541 17.3542C173.541 18.7708 174.25 20.1875 175.666 21.25C177.437 22.6667 181.333 24.0833 187.708 25.5C194.083 26.9167 199.041 28.6875 201.875 30.1042C205.062 31.875 207.541 34 209.312 36.8333C211.083 39.6667 211.791 43.2083 211.791 47.4583C211.791 51.3542 210.729 54.8958 208.604 58.0833C206.479 61.2708 203.646 63.75 199.75 65.5208C195.854 67.2917 191.25 68 185.583 68C177.437 68 171.062 66.2292 166.458 62.3333C162.208 58.4375 159.729 52.7708 158.666 45.3333ZM133.521 40.7292L124.312 16.2917L115.458 40.7292H133.521ZM157.958 66.5833H143.437L137.771 51.7083H111.562L106.25 66.5833H92.083L117.583 1.0625H131.75L157.958 66.5833Z" fill="#D92231"/>
</svg>
