<svg width="340" height="52" viewBox="0 0 340 52" fill="none" xmlns="http://www.w3.org/2000/svg">
<path d="M123.326 0H101.391V50.992H123.326C138.925 50.992 146.48 40.0129 146.48 25.13C146.48 8.05137 136.487 0 123.326 0ZM122.595 41.4767H112.602V9.27127H120.645C131.857 9.27127 135.269 15.8588 135.269 26.106C135.269 37.3291 128.932 41.4767 122.595 41.4767ZM21.9355 0H0V50.992H21.9355C37.534 50.992 45.0896 40.0129 45.0896 25.13C45.0896 8.29535 35.3405 0 21.9355 0ZM21.2043 41.4767H11.2115V9.27127H19.2545C30.4659 9.27127 33.8781 15.8588 33.8781 26.106C33.8781 37.3291 27.5412 41.4767 21.2043 41.4767ZM66.0502 12.931C54.8387 12.931 47.0394 21.2263 47.0394 32.4495C47.0394 43.6726 54.3513 51.9679 66.0502 51.9679C74.0932 52.4559 81.405 47.3323 83.3548 39.5249H74.3369C72.8745 42.6967 69.7061 44.6485 66.2939 44.4045C60.6882 44.4045 57.5197 41.4768 57.276 35.1332H84.086C84.8172 23.6661 78.724 13.175 66.0502 12.931ZM57.5197 28.5458C57.5197 24.1541 61.1756 20.4944 65.5627 20.4944H66.0502C70.9247 20.4944 73.1183 23.1782 74.0932 28.3018L57.5197 28.5458ZM150.624 13.9069H160.86V50.748H150.624V13.9069ZM183.039 12.931C171.828 12.931 164.029 21.2263 164.029 32.4495C164.029 43.6726 171.34 51.9679 183.039 51.9679C191.082 52.4559 198.394 47.3323 200.344 39.5249H191.326C189.864 42.6967 186.695 44.6485 183.283 44.4045C177.677 44.4045 174.509 41.4768 174.265 35.1332H200.832C201.806 23.6661 195.713 13.175 183.039 12.931ZM174.265 28.5458C174.265 24.1541 177.921 20.4944 182.308 20.4944H182.796C187.67 20.4944 189.864 23.1782 190.839 28.3018L174.265 28.5458ZM150.624 0H160.86V8.29535H150.624V0ZM284.43 44.1605C278.093 44.1605 275.9 37.817 275.9 32.4495C275.9 27.0819 278.093 20.4944 284.43 20.4944C288.33 20.2504 291.742 22.9342 291.986 26.8379H301.978C301.247 17.3226 293.204 12.931 284.674 12.931C272.731 12.931 265.907 21.4703 265.907 32.9374C265.419 42.9406 272.975 51.236 282.724 51.9679H284.43C294.179 51.9679 301.004 46.6003 302.222 36.8411H292.473C292.473 40.9888 288.817 44.4045 284.43 44.1605ZM251.771 13.9069H262.007V50.748H251.771V13.9069ZM251.771 0H262.007V8.29535H251.771V0ZM326.351 12.931C321.964 12.931 317.821 15.3708 315.627 19.0305H315.383V0H305.147V50.992H315.383V31.7175C315.383 24.1541 317.821 21.2263 323.183 21.2263C327.814 21.2263 329.763 24.1541 329.763 30.2536V50.992H340V28.3018C340 19.0305 337.319 12.931 326.351 12.931ZM214.237 0H204V41.9647C204 49.2841 209.362 50.748 215.699 50.748C217.649 50.748 219.599 50.748 221.548 50.504V42.6967C220.573 42.9406 219.355 42.9406 218.38 42.9406C214.968 42.9406 213.993 41.9647 213.993 38.549V20.2504H221.305V13.4189H213.993V0H214.237ZM234.71 20.4944L234.466 13.6629H224.717V50.504H234.953V33.9133C234.953 27.3259 237.634 21.9583 244.946 21.9583C246.165 21.9583 247.383 21.9583 248.602 22.2023V12.931C247.871 12.687 247.14 12.687 246.409 12.687C241.29 12.687 236.66 15.6148 234.71 20.4944Z" fill="#535659"/>
</svg>
