<svg width="356" height="106" viewBox="0 0 356 106" fill="none" xmlns="http://www.w3.org/2000/svg">
<path fill-rule="evenodd" clip-rule="evenodd" d="M104.612 0H124.795V104.505H104.612V0ZM95.9902 73.7495H21.5347C24.9721 83.751 34.8424 89.7263 48.5989 89.7263H51.2904C63.701 89.7263 70.8793 85.8459 73.7163 80.9177H95.2447C92.256 94.503 78.3482 106 49.9444 106C19.8919 106 0.00625005 91.2223 0.00625005 65.9885C-0.442399 42.995 23.3293 28.0657 49.9444 28.3687C78.7965 28.3687 95.9902 44.4904 95.9902 66.4364V73.7495ZM74.9107 58.5239C74.3102 50.1632 64.7432 44.6419 51.2904 44.6419H48.5989C34.6973 44.6419 25.5725 49.7153 21.9834 58.5239H74.9107ZM155.983 0H134.006V21.0499H155.983V0ZM155.085 29.8586H134.903V104.505H155.085V29.8586ZM212.717 28.3623C239.629 28.3623 256.671 39.859 259.066 55.9808H237.834C235.294 48.8126 226.625 45.3799 214.214 45.3799H211.522C193.279 45.3799 183.561 55.3815 183.561 67.1744C183.561 78.9678 193.279 88.9689 211.522 88.9689H214.214C226.473 88.9689 236.191 84.6405 237.689 78.3684H258.921C256.525 93.2977 241.879 105.987 212.723 105.987C181.179 105.987 163.088 89.562 163.088 67.1678C163.082 45.0836 182.064 28.3623 212.717 28.3623ZM334.023 56.2838L299.484 58.3724C276.015 60.0128 265.4 67.7808 265.4 82.1041C265.4 97.0333 276.464 105.993 300.236 105.993C316.981 105.993 328.494 100.769 334.623 94.6483C334.623 98.3839 335.072 101.665 335.818 104.505H356C354.806 100.321 354.205 94.7998 354.205 88.0794V57.7731C354.205 38.515 338.655 28.3623 310.997 28.3623C286.777 28.3623 269.431 38.963 268.534 52.9965H289.02C289.917 48.3713 297.841 44.6357 309.202 44.6357H311.894C325.802 44.6357 334.023 48.3713 334.023 55.3881V56.2838ZM334.023 74.5008C334.023 84.2055 322.662 89.7268 305.468 89.7268H302.776C290.814 89.7268 285.879 86.2942 285.879 81.5175C285.879 77.3402 289.772 74.6523 300.084 74.0529L334.023 71.9643V74.5008Z" fill="black"/>
</svg>
