<svg width="292" height="95" viewBox="0 0 292 95" fill="none" xmlns="http://www.w3.org/2000/svg">
<path d="M98.8125 94.8999H193.179V0H98.8125V94.8999ZM149.299 59.3781H152.533V35.5218H149.431V27.521H163.724L178.55 47.8587V35.5218H175.316V27.521H189.88V35.5218H186.777V67.3789H175.725L161.162 45.822V59.3781H164.666V67.3789H149.299V59.3781ZM102.112 59.3781H105.346L113.164 35.5145H107.908V27.5137H139.05V35.5145H134.064L141.481 59.3781H144.854V67.3789H124.494V59.3781H128.268L126.786 54.363H115.865L114.245 59.3781H118.019V67.3789H102.112V59.3781Z" fill="#E63741"/>
<path d="M121.399 35.3831L117.625 47.9901H125.443L121.399 35.3831Z" fill="#E63741"/>
<path d="M0 94.8999H94.367V0H0V94.8999ZM44.5592 59.3781H48.4719V35.5218H44.5592V27.521H72.8685C80.9569 27.521 87.8335 31.317 87.8335 38.6389C87.8335 43.7927 84.0594 46.5009 81.4971 47.5886L86.6217 59.3854H90.1257V67.3862H75.7009L69.3645 50.713H62.758V59.3927H66.6708V67.3935H44.5592V59.3927V59.3781ZM4.2413 59.3781H8.28549V35.5218H4.2413V27.521H40.369V39.5879H32.5507V35.5218H22.5716V43.1138H30.1198V51.1145H22.5716V59.3854H27.2874V67.3862H4.2413V59.3854V59.3781Z" fill="#E63741"/>
<path d="M197.633 0V94.8999H292V0H197.633ZM248.054 67.3789H227.563V59.3781H230.935L219.073 47.4499V59.3781H222.577V67.3789H201.684V59.3781H205.86V35.5218H201.684V27.521H222.716V35.5218H219.073V46.6396L230.935 35.5218H227.972V27.521H245.769V35.5218H242.937L231.344 45.6907L245.229 59.3854H248.061V67.3862L248.054 67.3789ZM287.956 39.7193H279.466V35.5145H269.895V43.5153H277.714V50.8371H269.895V59.3781H279.466V54.0929H287.956V67.3789H252.5V59.3781H256.682V35.5218H252.5V27.521H287.956V39.7193Z" fill="#E63741"/>
<path d="M72.5982 40.1281C72.5982 37.1424 70.0359 35.6532 65.5902 35.6532H62.8965V44.603H65.5902C70.0359 44.603 72.5982 43.1138 72.5982 40.1281Z" fill="#E63741"/>
</svg>
