<svg width="432" height="82" viewBox="0 0 432 82" fill="none" xmlns="http://www.w3.org/2000/svg">
<path fill-rule="evenodd" clip-rule="evenodd" d="M288.497 56.212H299.289V24.8679H288.497V56.212ZM228.893 24.8679H213.158L208.228 32.8013L200.118 44.6668L192.009 32.8013L187.078 24.8679H171.343V56.212H182.135V35.7033L195.489 56.0801H204.741L218.096 35.7033V56.212H228.887L228.893 24.8679ZM283.862 40.0186C283.862 37.7385 283.516 35.8038 282.932 34.1455C280.269 25.4709 272.524 24.4471 268.416 24.4471C265.426 24.4471 261.437 24.4471 258.705 24.4471H258.698C255.96 24.4471 251.977 24.4471 248.987 24.4471C244.879 24.4471 237.134 25.4709 234.471 34.1455C233.887 35.8038 233.541 37.7385 233.541 40.0186C233.541 40.1945 233.548 40.3641 233.554 40.54C233.554 40.7158 233.541 40.8792 233.541 41.055C233.541 43.3352 233.887 45.2698 234.471 46.9281C237.134 55.6027 244.879 56.6266 248.987 56.6266C251.977 56.6266 255.966 56.6266 258.698 56.6266H258.705C261.443 56.6266 265.426 56.6266 268.416 56.6266C272.524 56.6266 280.269 55.6027 282.932 46.9281C283.516 45.2698 283.862 43.3352 283.862 41.055C283.862 40.8792 283.855 40.7096 283.849 40.54C283.849 40.3641 283.862 40.1945 283.862 40.0186ZM271.751 45.8352C270.853 46.9344 269.722 47.6002 268.698 47.8452C268.51 47.8766 268.321 47.9269 268.139 47.9269C266.594 47.9269 263.252 48.0337 260.52 48.0776C260.507 48.0776 260.501 48.0839 260.489 48.0839C260.087 48.1027 259.458 48.1027 258.705 48.1027C258.705 48.1027 258.705 48.1027 258.698 48.1027C258.698 48.1027 258.698 48.1027 258.692 48.1027C257.945 48.109 257.31 48.1027 256.908 48.0839C256.896 48.0839 256.883 48.0776 256.877 48.0776C254.144 48.0274 250.803 47.9269 249.257 47.9269C249.075 47.9269 248.887 47.8766 248.698 47.8452C247.668 47.6002 246.544 46.9344 245.639 45.8352C244.647 44.5475 243.956 42.7385 243.943 40.54C243.95 38.3415 244.647 36.5262 245.639 35.2448C246.544 34.1392 247.668 33.4797 248.698 33.2347C248.887 33.2033 249.075 33.1531 249.257 33.1531C250.803 33.1531 254.144 33.0463 256.877 33.0023C256.889 33.0023 256.896 32.996 256.908 32.996C257.31 32.9772 257.938 32.9709 258.692 32.9772C258.692 32.9772 258.692 32.9772 258.698 32.9772C258.698 32.9772 258.698 32.9772 258.705 32.9772C259.452 32.9709 260.087 32.9772 260.489 32.996C260.501 32.996 260.514 33.0023 260.52 33.0023C263.252 33.0526 266.594 33.1531 268.139 33.1531C268.321 33.1531 268.516 33.2033 268.698 33.2347C269.728 33.4797 270.853 34.1455 271.751 35.2448C272.744 36.5262 273.441 38.3415 273.447 40.54C273.434 42.7322 272.744 44.5475 271.751 45.8352ZM165.539 40.0186C165.539 37.7385 165.194 35.8038 164.61 34.1455C161.946 25.4709 154.201 24.4471 150.093 24.4471C147.103 24.4471 143.115 24.4471 140.376 24.4471H140.37C137.631 24.4471 133.649 24.4471 130.659 24.4471C126.551 24.4471 118.806 25.4709 116.143 34.1455C115.558 35.8038 115.213 37.7385 115.213 40.0186C115.213 40.1945 115.219 40.3641 115.225 40.54C115.225 40.7158 115.213 40.8792 115.213 41.055C115.213 43.3352 115.558 45.2698 116.143 46.9281C118.806 55.6027 126.551 56.6266 130.659 56.6266C133.649 56.6266 137.631 56.6266 140.37 56.6266H140.376C143.115 56.6266 147.103 56.6266 150.093 56.6266C154.201 56.6266 161.946 55.6027 164.61 46.9281C165.194 45.2698 165.539 43.3352 165.539 41.055C165.539 40.8792 165.533 40.7096 165.527 40.54C165.527 40.3641 165.539 40.1945 165.539 40.0186ZM153.429 45.8352C152.531 46.9344 151.4 47.6002 150.376 47.8452C150.188 47.8766 149.999 47.9269 149.817 47.9269C148.272 47.9269 144.93 48.0337 142.198 48.0776C142.185 48.0776 142.179 48.0839 142.166 48.0839C141.764 48.1027 141.136 48.1027 140.382 48.1027C140.382 48.1027 140.382 48.1027 140.376 48.1027C140.376 48.1027 140.376 48.1027 140.37 48.1027C139.622 48.109 138.988 48.1027 138.586 48.0839C138.573 48.0839 138.561 48.0776 138.554 48.0776C135.822 48.0274 132.48 47.9269 130.935 47.9269C130.753 47.9269 130.565 47.8766 130.376 47.8452C129.346 47.6002 128.222 46.9344 127.323 45.8352C126.331 44.5475 125.634 42.7385 125.627 40.54C125.634 38.3415 126.331 36.5262 127.323 35.2448C128.222 34.1392 129.352 33.4797 130.376 33.2347C130.565 33.2033 130.753 33.1531 130.935 33.1531C132.48 33.1531 135.822 33.0463 138.554 33.0023C138.567 33.0023 138.573 32.996 138.586 32.996C138.988 32.9772 139.616 32.9709 140.37 32.9772C140.37 32.9772 140.37 32.9772 140.376 32.9772C140.376 32.9772 140.376 32.9772 140.382 32.9772C141.13 32.9709 141.764 32.9772 142.166 32.996C142.179 32.996 142.191 33.0023 142.198 33.0023C144.93 33.0526 148.272 33.1531 149.817 33.1531C149.999 33.1531 150.188 33.2033 150.376 33.2347C151.406 33.4797 152.531 34.1455 153.429 35.2448C154.421 36.5262 155.118 38.3415 155.125 40.54C155.118 42.7322 154.421 44.5475 153.429 45.8352ZM350.356 24.8617H333.114L316.33 35.3264V24.8742H305.539V56.2183H316.33V43.5927L334.961 55.9042H352.517L327.963 39.045L350.356 24.8617ZM416.166 52.7447C416.015 50.6404 417.033 44.3653 410.683 41.2121C410.683 41.2121 415.23 40.5714 415.23 32.795C415.23 25.0187 406.889 24.8679 404.897 24.8679C403.145 24.8679 386.204 24.8679 382.19 24.8679V24.8617H371.399V56.2057H382.19V46.5512H401.549C401.549 46.5512 404.853 46.0236 405.381 49.3339C405.909 52.6379 405.758 55.1944 407.221 56.168H418.082C418.082 56.168 416.317 54.8489 416.166 52.7447ZM401.776 38.7749C400.18 38.7749 387.002 38.7749 382.19 38.7749V33.1405C386.305 33.1468 400.507 33.1719 401.663 33.1719C403.013 33.1719 404.74 33.7372 404.74 35.6907C404.747 37.6443 403.729 38.7749 401.776 38.7749ZM421.16 24.8679V56.212H431.951V24.8679C431.945 24.8679 421.16 24.8679 421.16 24.8679ZM354.357 56.212H365.149V24.8679H354.357V56.212Z" fill="black"/>
<path fill-rule="evenodd" clip-rule="evenodd" d="M77.9079 48.7183C75.2571 42.305 73.7433 38.3603 70.9732 31.8717C68.2722 38.1907 66.7019 41.9721 64.0072 48.7183C61.928 53.9256 65.4645 59.359 70.9732 59.359C76.325 59.359 80.1189 54.0701 77.9079 48.7183ZM70.9732 68.3225C59.3338 68.3225 50.7535 56.256 56.0235 44.8239C61.526 32.883 64.9368 25.427 70.9732 12.7574C77.0159 25.427 80.4267 32.883 85.9229 44.8239C91.193 56.256 82.6126 68.3225 70.9732 68.3225Z" fill="black"/>
<path fill-rule="evenodd" clip-rule="evenodd" d="M33.7566 68.3225C22.1172 68.3225 13.5369 56.256 18.8007 44.8239C24.3032 32.883 27.7139 25.427 33.7566 12.7574C39.7993 25.427 43.2101 32.883 48.7063 44.8239C53.9764 56.256 45.396 68.3225 33.7566 68.3225Z" fill="black"/>
<path fill-rule="evenodd" clip-rule="evenodd" d="M24.0828 81.08H80.6529C93.9317 81.08 104.736 70.276 104.736 56.9972V24.0828C104.729 10.804 93.9254 0 80.6466 0H24.0828C10.804 0 0 10.804 0 24.0828V57.0035C0 70.276 10.804 81.08 24.0828 81.08ZM80.6466 5.06907C91.1302 5.06907 99.6603 13.5992 99.6603 24.0828V57.0035C99.6603 67.4871 91.1302 76.0172 80.6466 76.0172H24.0828C13.5992 76.0172 5.06907 67.4871 5.06907 57.0035V24.0828C5.06907 13.5992 13.5992 5.06907 24.0828 5.06907H80.6466Z" fill="black"/>
</svg>
