<svg width="529" height="78" viewBox="0 0 529 78" fill="none" xmlns="http://www.w3.org/2000/svg">
<path d="M173.25 39.4402L201.005 78H183.046L160.663 46.9001H123.012V77.9992H109.503V0.00270983H123.012V31.9789H160.544L183.046 0.00270983H201.005L173.25 39.4402ZM85.9318 40.2961C82.4895 44.3686 77.7498 46.9001 72.5391 46.9001H56.638H13.5057V58.2515C13.5057 59.5762 13.9668 60.7849 14.7026 61.6574C15.4424 62.5331 16.4612 63.0794 17.5809 63.0794H91.5012V77.9992H18.9627C13.7467 77.9992 9.00586 75.469 5.57 71.3939C2.13492 67.3208 0 61.7016 0 55.5172V22.4834C0 16.3015 2.13492 10.6784 5.57 6.60457C9.0111 2.53289 13.7508 0.00270983 18.9627 0.00270983H56.638V0H72.5391C77.7498 0 82.4895 2.53094 85.9318 6.60398C93.3316 15.3755 93.3337 31.5244 85.9318 40.2961ZM77.9948 19.7485C77.9948 18.4216 77.5357 17.2123 76.7992 16.3372C76.0599 15.4628 75.0414 14.9204 73.9209 14.9204H56.638H17.5809C16.4604 14.9204 15.4405 15.4647 14.7014 16.3372C13.9649 17.2156 13.5057 18.423 13.5057 19.7497V31.9789H56.638H73.9209C75.0414 31.9789 76.0599 31.4373 76.7992 30.5635C77.5357 29.6878 77.9948 28.4785 77.9948 27.1516C77.9948 24.6841 77.9948 22.216 77.9948 19.7485ZM405.988 19.7511C405.988 18.423 405.532 17.2156 404.795 16.3385C404.055 15.4661 403.035 14.9212 401.916 14.9212H377.761H369.349H345.194C344.075 14.9212 343.056 15.4661 342.315 16.3385C341.578 17.2156 341.123 18.423 341.123 19.7511V58.252C341.123 59.5789 341.578 60.7882 342.315 61.6647C343.056 62.5378 344.075 63.0821 345.194 63.0821H369.349H377.761H401.916C403.035 63.0821 404.055 62.5378 404.795 61.6647C405.532 60.7882 405.988 59.5789 405.988 58.252V19.7511ZM327.613 22.484C327.613 16.3015 329.745 10.6803 333.184 6.60651C336.619 2.53288 341.361 0.00329728 346.578 0.00329728H369.349H377.761H400.533C405.75 0.00329728 410.49 2.53288 413.926 6.60651C417.364 10.6803 419.497 16.3015 419.497 22.484C419.497 33.496 419.497 44.5071 419.497 55.5191C419.497 61.7016 417.364 67.323 413.926 71.3966C410.49 75.471 405.75 78 400.533 78H377.761H369.349H346.578C341.361 78 336.619 75.471 333.184 71.3966C329.745 67.323 327.613 61.7016 327.613 55.5191C327.613 44.5071 327.613 33.496 327.613 22.484ZM283.065 46.9001L309.611 78H291.652L265.11 46.9001H231.618V78H218.109V0.00270983H292.361C297.104 0.00270983 301.419 2.30508 304.544 6.00555C307.669 9.72057 309.611 14.8327 309.611 20.4552V26.4462C309.611 29.0781 309.18 31.6118 308.398 33.9438C305.748 41.8726 299.035 46.9001 292.546 46.9001H283.065ZM490.074 14.9204V78H476.565V14.9204H451.005V78H437.499V0.00270983H511.75C516.494 0.00270983 520.809 2.30507 523.935 6.00748C527.058 9.72192 529 14.8339 529 20.4552V78H515.633V24.1359L515.678 20.4552C515.678 18.9328 515.152 17.5478 514.308 16.5452C513.46 15.5472 512.293 14.9204 511.01 14.9204H490.074ZM296.287 26.4462V20.4552C296.287 18.9335 295.763 17.5504 294.914 16.5466C294.074 15.5439 292.906 14.9204 291.623 14.9204H231.618V31.9789H291.623C292.906 31.9789 294.074 31.3593 294.914 30.3582C295.763 29.3509 296.287 27.9672 296.287 26.4462Z" fill="#27282B" fill-opacity="0.05"/>
</svg>
